<svg width="556" height="556" viewBox="0 0 556 556" fill="none" xmlns="http://www.w3.org/2000/svg">
<path d="M498.003 550.032H58.635C29.7432 550.032 6.30908 526.616 6.30908 497.725V58.3384C6.30908 29.4651 29.7432 6.03088 58.635 6.03088H498.003C526.895 6.03088 550.329 29.4651 550.329 58.3384V497.725C550.329 526.616 526.895 550.032 498.003 550.032Z" fill="white"/>
<path d="M378.657 276.142C374.902 289.146 368.679 301.367 363.463 313.832C362.507 316.074 361.638 318.386 360.699 320.664C360.438 321.255 360.178 321.881 359.917 322.472C359.83 322.646 359.743 322.802 359.691 322.959C359.448 323.498 359.204 324.036 358.943 324.558V324.575C358.665 325.097 358.405 325.618 358.126 326.14C357.935 326.488 357.744 326.853 357.535 327.2C357.135 327.878 356.718 328.574 356.249 329.234V329.252C355.797 329.912 355.327 330.538 354.806 331.147C351.538 333.893 347.783 335.806 343.906 337.492C343.715 337.509 343.506 337.544 343.315 337.561L343.037 337.596C342.758 337.631 342.463 337.666 342.185 337.683C341.872 337.701 341.559 337.718 341.229 337.753C340.707 337.77 340.186 337.805 339.664 337.84C338.638 337.874 337.595 337.892 336.552 337.944C336.031 337.979 335.509 338.013 334.988 338.048C334.744 338.066 334.518 338.066 334.292 338.1C333.84 338.135 333.388 338.187 332.936 338.257C331.806 338.413 330.676 338.639 329.616 338.97C324.957 340.43 320.976 344.533 318.177 348.375C315.795 351.626 313.674 354.337 311.275 356.476C310.841 356.667 310.51 356.945 310.284 357.293C307.016 359.866 303.157 361.378 297.455 361.604C289.823 361.934 282.939 362.212 275.498 363.568C276.437 363.134 277.376 362.699 278.332 362.247C285.738 358.614 290.849 353.173 296.898 347.783C302.983 342.36 310.719 339.387 317.934 335.892C325.513 332.224 331.98 326.609 337.7 320.56C339.89 318.213 336.431 314.718 334.171 317.013C328.555 322.767 322.349 327.496 315.187 331.181C308.789 334.467 302.201 337.005 296.325 341.212C290.275 345.593 285.738 351.452 279.323 355.398C276.611 357.067 273.725 358.458 270.77 359.692C272.074 358.04 273.238 356.302 274.264 354.407C276.785 349.678 277.88 344.411 280.766 339.839C284.764 333.546 293.283 331.564 299.941 329.756C310.25 326.957 317.638 319.69 321.463 309.764C321.828 308.808 322.106 307.817 322.332 306.791C331.198 298.62 341.959 296.725 352.476 291.684C361.673 287.286 369.739 281.01 378.657 276.142Z" fill="#69A50A"/>
<path d="M367.313 391.96C363.968 391.96 363.968 386.777 367.313 386.777C370.659 386.777 370.659 391.96 367.313 391.96Z" fill="black"/>
<path d="M357.554 327.176C357.761 326.831 357.951 326.469 358.141 326.124C357.968 326.486 357.761 326.831 357.554 327.176Z" fill="#1D1D1B"/>
<path d="M357.554 327.184C357.174 327.874 356.743 328.565 356.277 329.22C356.725 328.547 357.157 327.874 357.554 327.184Z" fill="#1D1D1B"/>
<path d="M340.856 387.536C337.491 387.536 337.491 382.367 340.856 382.367C344.188 382.367 344.188 387.536 340.856 387.536Z" fill="black"/>
<path d="M336.569 337.938C337.614 337.887 338.643 337.853 339.689 337.818C338.643 337.853 337.614 337.904 336.569 337.938Z" fill="#1D1D1B"/>
<path d="M335.921 389.718C339.298 389.718 339.298 394.929 335.921 394.929C332.578 394.929 332.578 389.718 335.921 389.718Z" fill="black"/>
<path d="M312.153 386.208C313.931 387.746 317.692 387.558 319.829 387.182C321.146 386.96 322.65 386.703 323.812 385.985L324.035 385.831C322.171 384.036 319.111 384.122 316.684 384.413C315.88 384.481 312.29 384.925 312.085 386.156L312.153 386.208ZM328.428 383.096C331.539 387.438 326.719 391.011 322.77 391.866C318.701 392.772 313.453 392.994 309.845 390.498C309.025 390.55 308.221 390.191 307.743 389.199C302.665 378.532 323.522 376.258 328.428 383.096Z" fill="black"/>
<path d="M319.064 286.032C318.656 288.21 318.35 290.389 318.043 292.601C318.333 290.389 318.656 288.21 319.064 286.032Z" fill="#1D1D1B"/>
<path d="M317.869 293.969C317.75 294.938 317.631 295.925 317.512 296.912C317.257 295.959 317.325 294.938 317.869 293.969Z" fill="#1D1D1B"/>
<path d="M319.847 387.163C317.699 387.556 313.948 387.726 312.158 386.192L312.09 386.141C312.294 384.913 315.875 384.47 316.693 384.402C319.114 384.112 322.183 384.026 324.041 385.817L323.82 385.987C322.66 386.703 321.16 386.959 319.847 387.163Z" fill="#FEA600"/>
<path d="M298.211 393.153C301.526 393.153 301.526 398.311 298.211 398.311C294.88 398.311 294.88 393.153 298.211 393.153Z" fill="black"/>
<path d="M295.758 383.374C299.07 383.374 299.07 388.511 295.758 388.511C292.43 388.511 292.43 383.374 295.758 383.374Z" fill="black"/>
<path d="M283.987 393.306C287.116 393.306 287.116 398.184 283.987 398.184C280.825 398.184 280.825 393.306 283.987 393.306Z" fill="black"/>
<path d="M279.085 385.777C282.444 385.777 282.444 391 279.085 391C275.726 391 275.726 385.777 279.085 385.777Z" fill="black"/>
<path d="M223.207 390.225C226.21 390.225 226.21 385.563 223.207 385.563C220.204 385.563 220.204 390.225 223.207 390.225ZM223.679 399.235C226.944 399.235 226.944 394.206 223.679 394.206C220.431 394.206 220.431 399.235 223.679 399.235ZM239.376 399.305C242.728 399.305 242.728 394.136 239.376 394.136C236.023 394.136 236.023 399.305 239.376 399.305ZM279.082 390.993C282.452 390.993 282.452 385.79 279.082 385.79C275.729 385.79 275.729 390.993 279.082 390.993ZM283.988 398.187C287.131 398.187 287.131 393.298 283.988 393.298C280.828 393.298 280.828 398.187 283.988 398.187ZM295.757 388.514C299.074 388.514 299.074 383.363 295.757 383.363C292.439 383.363 292.439 388.514 295.757 388.514ZM335.934 394.922C339.304 394.922 339.304 389.701 335.934 389.701C332.582 389.701 332.582 394.922 335.934 394.922ZM340.858 387.536C344.193 387.536 344.193 382.368 340.858 382.368C337.506 382.368 337.506 387.536 340.858 387.536ZM367.329 391.954C370.664 391.954 370.664 386.768 367.329 386.768C363.976 386.768 363.976 391.954 367.329 391.954ZM193.559 391.639C194.292 393.001 195.898 393.089 197.051 392.443C202.132 394.224 216.747 391.936 211.77 384.236C209.047 380.063 203.703 378.631 199.129 380.255C194.502 381.896 190.957 386.803 193.559 391.639ZM185.928 382.699C183.047 382.699 183.047 387.204 185.928 387.204C188.844 387.204 188.844 382.699 185.928 382.699ZM182.995 389.823C179.782 389.823 179.782 394.8 182.995 394.8C186.225 394.8 186.225 389.823 182.995 389.823ZM168.782 393.735C169.114 393.735 169.428 393.735 169.76 393.7C171.069 393.63 172.152 392.687 172.152 391.325C172.152 389.963 171.069 389.02 169.76 388.933C169.428 388.933 169.114 388.933 168.782 388.933C167.455 388.88 166.372 390.015 166.372 391.325C166.372 392.635 167.455 393.735 168.782 393.735ZM298.201 398.309C301.519 398.309 301.519 393.158 298.201 393.158C294.866 393.158 294.866 398.309 298.201 398.309ZM228.603 354.675C232.042 359.791 235.971 364.645 240.022 369.202C234.103 368.591 228.236 367.543 222.317 366.653C219.54 366.216 218.318 370.442 221.129 370.913C234.347 373.043 246.727 376.431 260.084 373.445C260.451 373.375 260.748 373.218 260.975 373.044C264.624 372.817 268.221 371.612 271.713 370.442C272.185 370.355 272.639 370.25 273.11 370.162C277.877 369.185 282.679 368.085 287.55 367.648C292.492 367.177 297.45 367.753 302.409 367.212C307.194 366.653 311.262 364.732 314.719 361.816C323.799 362.392 331.796 365.151 340.264 368.678C350.147 372.817 359.681 374.458 370.157 376.379C374.191 377.112 391.11 381.861 389.993 388.444C389.207 392.966 378.835 394.887 375.395 395.795C338.117 405.468 299.022 398.239 261.568 406.621C251.197 408.943 240.965 410.864 230.261 409.903C218.475 408.838 207.143 404.386 195.497 402.43C185.038 400.666 174.457 400.3 164.05 398.03C160.104 397.157 155.197 396.162 152.107 393.35C148.894 390.417 161.134 384.638 162.723 383.817C164.574 382.891 166.46 382.001 168.363 381.145C169.114 380.814 169.864 380.482 170.598 380.167C171.698 379.696 172.798 379.242 173.88 378.771L174.09 378.683C175.557 378.177 176.657 377.775 177.18 377.583C191.271 372.083 205.607 365.151 218.929 357.538C219.715 357.276 220.518 357.014 221.339 356.77C222.142 356.508 222.945 356.281 223.748 356.054C225.355 355.583 226.979 355.129 228.603 354.675ZM270.753 396.703C267.575 396.703 267.575 401.644 270.753 401.644C273.931 401.644 273.931 396.703 270.753 396.703ZM307.752 389.195C308.224 390.19 309.044 390.539 309.865 390.487C313.462 392.984 318.718 392.757 322.769 391.866C326.732 391.011 331.551 387.431 328.426 383.083C323.537 376.256 302.671 378.509 307.752 389.195ZM257.168 399.898C258.6 397.995 255.754 395.149 253.833 396.581C253.659 396.72 253.484 396.843 253.292 397C252.018 397.96 251.529 399.706 252.786 400.963C254.043 402.203 255.789 401.714 256.749 400.44C256.889 400.265 257.029 400.09 257.168 399.898Z" fill="#FEA600"/>
<path d="M270.743 396.696C273.924 396.696 273.924 401.635 270.743 401.635C267.579 401.635 267.579 396.696 270.743 396.696Z" fill="black"/>
<path d="M256.84 336.736C257.327 331.985 258.214 327.007 260.79 322.918C263.923 317.923 270.136 314.372 274.104 309.969C279.655 303.774 280.752 296.134 279.638 288.529C280.056 288.25 280.404 287.763 280.543 287.102C283.536 273.283 291.942 265.521 302.924 257.585C312.791 250.433 320.501 242.758 324.695 231.098C330.073 216.131 333.171 202.904 347.337 193.593C359.31 185.675 371.58 178.801 381.743 168.846C380.856 190.252 376.731 214.582 363.574 231.132C351.305 246.569 332.353 255.132 323.198 273.196C322.955 273.684 322.729 274.171 322.52 274.641C322.363 274.971 322.206 275.302 322.085 275.633C321.737 276.398 321.458 277.164 321.18 277.947C321.058 278.261 320.953 278.609 320.849 278.922C320.083 281.254 319.509 283.638 319.056 286.023C318.656 288.198 318.326 290.391 318.047 292.601C317.995 293.053 317.925 293.506 317.873 293.958C317.334 294.916 317.264 295.942 317.525 296.9C317.49 297.074 317.473 297.23 317.455 297.404C317.229 299.197 317.003 300.989 316.724 302.782C316.603 303.461 316.498 304.139 316.376 304.801C315.176 311.623 310.511 317.609 304.751 321.247C299.843 324.345 293.508 324.519 288.253 326.903C277.898 331.584 274.017 338.424 270.101 348.57C267.804 354.592 263.575 358.264 259.067 361.64C262.478 351.372 262.548 339.851 269.735 331.184C277.341 322.013 290.776 318.689 295.632 307.011C298.138 301.042 298.747 294.759 299.774 288.424C301.218 279.479 305.83 273.214 311.904 266.774C321.789 256.315 333.327 247.787 341.977 236.162C343.595 233.952 339.853 231.063 338.165 233.238C328.976 245.055 316.881 253.931 306.613 264.738C302.767 268.758 298.729 273.475 296.815 278.765C294.379 285.483 293.961 292.601 292.429 299.562C289.227 314.198 273.338 318.253 264.427 328.678C259.363 334.595 257.814 342.079 256.196 349.562C256.283 345.263 256.422 340.982 256.84 336.736Z" fill="#4F7C08"/>
<path d="M256.907 161.809C256.507 162.108 256.108 162.391 255.726 162.707C256.108 162.391 256.507 162.092 256.907 161.809Z" fill="#1D1D1B"/>
<path d="M253.824 396.586C255.755 395.155 258.602 398.001 257.171 399.899C257.021 400.082 256.888 400.265 256.754 400.432C255.789 401.714 254.041 402.213 252.792 400.965C251.544 399.699 252.01 397.951 253.292 397.002C253.475 396.853 253.658 396.719 253.824 396.586Z" fill="black"/>
<path d="M298.892 113.294C299.958 127.375 303.699 141.134 302.362 155.402C301.075 169.229 291.733 180.789 291.598 194.735C291.53 201.623 293.307 208.325 293.02 215.247C292.732 222.812 288.518 227.856 283 232.426C273.709 240.058 265.991 246.354 265.246 259.251C264.451 273.011 276.213 283.944 273.624 298.16C271.796 308.247 259.983 312.682 254.905 320.755C250.404 327.947 250.42 338.221 250.065 346.362C249.98 348.139 250.387 357.413 249.828 364.014C248.711 357.972 247.239 352.014 245.58 346.091C242.872 336.579 240.52 328.895 243.769 319.181C246.088 312.225 249.896 305.878 252.13 298.854C254.161 292.525 253.399 285.822 252.198 279.425C250.691 271.335 247.916 263.854 247.916 255.528C247.899 246.524 254.381 239.974 259.847 233.627C269.664 222.288 273.15 210.068 272.151 195.242C271.931 192.213 267.226 192.145 267.396 195.242C267.819 203.535 267.243 211.405 263.689 219.038C260.304 226.299 254.195 231.799 249.27 238.011C240.587 248.995 242.246 261.586 245.546 274.314C247.797 283.013 249.371 290.866 246.494 299.684C244.243 306.589 240.384 312.885 238.066 319.824C235.882 326.306 236.288 332.94 238.116 339.422C240.655 348.426 243.295 357.43 244.869 366.654C235.764 356.161 227.555 344.534 223.51 331.146C221.124 323.293 221.412 315.034 224.831 307.553C227.64 301.427 232.633 296.891 236.492 291.509C243.414 281.879 238.387 270.556 233.97 260.842C230.162 252.447 225.829 244.053 230.128 234.896C232.717 229.379 238.201 225.469 242.652 221.526C251.622 213.572 255.278 203.975 252.857 192.094C251.453 185.088 247.594 178.826 249.456 171.497C249.54 171.193 249.625 170.888 249.726 170.6C249.794 170.397 249.862 170.194 249.947 169.991C250.014 169.788 250.099 169.585 250.2 169.382L250.285 169.179C250.387 168.975 250.471 168.789 250.573 168.586C251.114 167.571 251.757 166.623 252.502 165.76C252.638 165.574 252.807 165.387 252.976 165.201C253.805 164.304 254.736 163.475 255.718 162.696C256.107 162.392 256.513 162.104 256.919 161.799C257.529 161.376 258.155 160.97 258.798 160.564L258.832 160.547C260.406 159.887 261.963 159.261 263.385 158.584C265.822 157.45 267.954 156.028 269.867 154.403L269.918 154.386C270.391 154.099 270.865 153.777 271.305 153.439C271.762 153.134 272.219 152.779 272.642 152.423C273.404 151.831 274.115 151.205 274.809 150.545C274.927 150.426 275.046 150.308 275.164 150.206C275.926 149.478 276.636 148.717 277.313 147.921C277.669 147.532 278.024 147.109 278.346 146.703C278.684 146.28 279.006 145.857 279.328 145.433C279.666 145.01 279.971 144.57 280.275 144.13C280.597 143.707 280.902 143.25 281.172 142.81L281.206 142.776C281.477 142.387 281.731 141.998 281.985 141.592C282.526 140.745 283.051 139.865 283.576 138.985C283.88 138.46 284.185 137.936 284.506 137.428C285.099 136.379 285.691 135.313 286.317 134.229C288.839 129.71 291.445 125.209 294.187 120.791C294.898 119.674 296.963 115.815 298.892 113.294Z" fill="#69A50A"/>
<path d="M239.372 399.312C236.012 399.312 236.012 394.132 239.372 394.132C242.715 394.132 242.715 399.312 239.372 399.312Z" fill="black"/>
<path d="M223.679 394.204C226.937 394.204 226.937 399.239 223.679 399.239C220.437 399.239 220.437 394.204 223.679 394.204Z" fill="black"/>
<path d="M223.204 385.567C226.198 385.567 226.198 390.222 223.204 390.222C220.194 390.222 220.194 385.567 223.204 385.567Z" fill="black"/>
<path d="M221.33 356.778C220.509 357.025 219.721 357.287 218.933 357.55C219.721 357.271 220.509 357.008 221.33 356.778Z" fill="#1D1D1B"/>
<path d="M204.62 388.352C202.954 388.76 200.356 389.12 198.821 388.417C198.527 388.27 198.249 388.221 197.955 388.205C198.086 384.203 205.551 383.549 207.838 386.931L207.855 386.963L207.675 387.111C206.777 387.797 205.698 388.107 204.62 388.352Z" fill="#FEA600"/>
<path d="M211.761 384.238C216.744 391.942 202.123 394.22 197.042 392.45C195.894 393.089 194.272 393.007 193.55 391.647C190.944 386.811 194.485 381.894 199.123 380.255C203.696 378.649 209.04 380.075 211.761 384.238ZM198.828 388.418C200.353 389.123 202.959 388.762 204.631 388.369C205.696 388.106 206.778 387.795 207.663 387.123L207.843 386.959V386.942C205.549 383.55 198.074 384.205 197.943 388.221C198.238 388.221 198.533 388.287 198.828 388.418Z" fill="black"/>
<path d="M185.935 382.705C188.838 382.705 188.838 387.214 185.935 387.214C183.031 387.214 183.031 382.705 185.935 382.705Z" fill="black"/>
<path d="M182.984 389.835C186.208 389.835 186.208 394.809 182.984 394.809C179.776 394.809 179.776 389.835 182.984 389.835Z" fill="black"/>
<path d="M389.983 388.457C389.211 392.97 378.831 394.884 375.389 395.797C338.123 405.456 299.013 398.239 261.554 406.616C251.193 408.934 240.954 410.865 230.277 409.9C218.475 408.828 207.148 404.385 195.487 402.418C185.038 400.662 174.448 400.311 164.052 398.028C160.1 397.15 155.2 396.149 152.11 393.356C148.896 390.424 161.136 384.628 162.717 383.82C164.578 382.89 166.458 382.012 168.354 381.151C169.109 380.817 169.865 380.484 170.602 380.167C171.691 379.693 172.797 379.237 173.886 378.762L174.097 378.692C175.554 378.165 176.661 377.779 177.17 377.586C191.272 372.072 205.603 365.152 218.932 357.548C219.722 357.267 220.53 357.004 221.338 356.775C222.128 356.512 222.936 356.284 223.744 356.055C225.36 355.581 226.975 355.124 228.608 354.685C232.051 359.796 235.967 364.643 240.024 369.191C234.105 368.577 228.222 367.541 222.321 366.645C219.529 366.223 218.317 370.456 221.127 370.913C234.351 373.038 246.715 376.427 260.079 373.441C260.448 373.371 260.746 373.231 260.975 373.037C264.61 372.827 268.21 371.615 271.705 370.438C272.179 370.351 272.636 370.245 273.11 370.157C277.887 369.191 282.681 368.085 287.546 367.646C292.498 367.189 297.45 367.751 302.42 367.207C307.197 366.662 311.272 364.731 314.731 361.815C323.793 362.395 331.801 365.135 340.266 368.682C350.153 372.809 359.689 374.442 370.156 376.374C374.195 377.112 391.107 381.871 389.983 388.457ZM224.833 307.55C227.625 301.438 232.63 296.89 236.476 291.516C243.413 281.874 238.373 270.565 233.965 260.835C230.154 252.459 225.834 244.047 230.119 234.897C232.718 229.383 238.197 225.484 242.658 221.532C251.614 213.577 255.285 203.971 252.861 192.081C251.439 185.092 247.593 178.84 249.454 171.499C249.542 171.201 249.612 170.884 249.718 170.603C249.788 170.393 249.858 170.199 249.928 169.989C250.016 169.778 250.104 169.585 250.192 169.374L250.28 169.181C250.368 168.988 250.473 168.777 250.578 168.584C251.105 167.565 251.755 166.617 252.492 165.756C252.65 165.563 252.808 165.387 252.984 165.212C253.81 164.299 254.74 163.473 255.724 162.701C256.11 162.384 256.514 162.086 256.918 161.805C257.515 161.383 258.147 160.962 258.797 160.576L258.832 160.558C260.395 159.891 261.958 159.259 263.398 158.591C265.822 157.45 267.947 156.027 269.861 154.411L269.914 154.376C270.388 154.078 270.862 153.762 271.301 153.428C271.775 153.094 272.214 152.761 272.636 152.427C273.408 151.83 274.111 151.198 274.796 150.548C274.919 150.442 275.042 150.32 275.165 150.214C275.902 149.477 276.622 148.721 277.307 147.931C277.658 147.527 278.01 147.123 278.343 146.702C278.677 146.298 279.011 145.859 279.327 145.437C279.643 145.016 279.959 144.577 280.275 144.138C280.574 143.699 280.89 143.26 281.171 142.803L281.206 142.786C281.469 142.399 281.715 141.995 281.979 141.591C282.523 140.748 283.05 139.87 283.577 138.975C283.875 138.465 284.191 137.939 284.49 137.429C285.105 136.376 285.702 135.322 286.316 134.233C288.845 129.72 291.444 125.206 294.184 120.798C294.904 119.674 296.959 115.828 298.891 113.282C299.944 127.384 303.702 141.135 302.368 155.395C301.068 169.234 291.725 180.789 291.585 194.751C291.515 201.617 293.288 208.326 293.007 215.245C292.726 222.814 288.529 227.855 282.997 232.421C273.707 240.06 265.997 246.365 265.242 259.255C264.452 273.006 276.201 283.947 273.619 298.172C271.793 308.252 259.974 312.695 254.916 320.756C250.403 327.939 250.42 338.23 250.051 346.361C249.981 348.135 250.367 357.425 249.823 364.011C248.717 357.969 247.241 352.016 245.573 346.098C242.869 336.579 240.515 328.887 243.764 319.176C246.082 312.221 249.893 305.881 252.124 298.857C254.161 292.534 253.406 285.826 252.194 279.416C250.684 271.338 247.909 263.856 247.909 255.532C247.891 246.523 254.372 239.972 259.851 233.632C269.65 222.288 273.145 210.082 272.144 195.242C271.933 192.204 267.227 192.152 267.385 195.242C267.824 203.532 267.244 211.417 263.679 219.056C260.307 226.309 254.196 231.806 249.261 238.005C240.568 248.999 242.236 261.591 245.538 274.323C247.804 283.016 249.367 290.866 246.504 299.682C244.238 306.601 240.375 312.889 238.057 319.825C235.879 326.306 236.283 332.944 238.109 339.424C240.656 348.433 243.29 357.443 244.871 366.663C235.756 356.161 227.555 344.535 223.516 331.153C221.127 323.303 221.408 315.031 224.833 307.55ZM279.625 288.53C280.064 288.249 280.398 287.775 280.539 287.108C283.524 273.287 291.936 265.524 302.912 257.587C312.782 250.439 320.491 242.764 324.689 231.103C330.063 216.123 333.171 202.899 347.326 193.592C359.303 185.689 371.579 178.805 381.729 168.847C380.851 190.255 376.724 214.596 363.57 231.139C351.295 246.575 332.346 255.128 323.196 273.216C322.95 273.691 322.722 274.165 322.511 274.657C322.353 274.973 322.195 275.306 322.072 275.64C321.738 276.395 321.44 277.168 321.176 277.958C321.053 278.274 320.948 278.608 320.843 278.924C320.07 281.26 319.508 283.631 319.051 286.037C318.647 288.214 318.331 290.392 318.05 292.605C317.998 293.061 317.927 293.518 317.875 293.974C317.752 294.94 317.629 295.924 317.506 296.907C317.488 297.083 317.471 297.241 317.436 297.417C317.207 299.19 316.997 300.999 316.716 302.791C316.61 303.458 316.505 304.143 316.382 304.81C315.17 311.624 310.499 317.613 304.756 321.248C299.821 324.339 293.499 324.532 288.248 326.92C277.904 331.592 274.006 338.441 270.089 348.591C267.789 354.598 263.574 358.268 259.061 361.657C262.468 351.384 262.555 339.846 269.72 331.188C277.342 322.003 290.759 318.684 295.624 307.023C298.118 301.052 298.732 294.765 299.769 288.425C301.209 279.486 305.81 273.217 311.904 266.789C321.773 256.322 333.329 247.805 341.969 236.161C343.585 233.948 339.844 231.068 338.159 233.229C328.974 245.065 316.874 253.934 306.6 264.752C302.772 268.773 298.715 273.48 296.801 278.766C294.377 285.492 293.956 292.605 292.428 299.577C289.214 314.188 273.338 318.262 264.417 328.677C259.342 334.612 257.796 342.094 256.198 349.575C256.286 345.272 256.409 340.987 256.83 336.737C257.322 331.996 258.218 327.008 260.782 322.916C263.925 317.929 270.142 314.364 274.093 309.973C279.643 303.792 280.749 296.135 279.625 288.53ZM352.489 291.674C361.691 287.284 369.752 280.996 378.673 276.132C374.915 289.145 368.698 301.35 363.465 313.819C362.517 316.067 361.639 318.368 360.708 320.651C360.462 321.248 360.181 321.863 359.918 322.46C359.847 322.635 359.76 322.793 359.689 322.951C359.461 323.496 359.215 324.023 358.952 324.55V324.567C358.688 325.094 358.425 325.603 358.144 326.13C357.968 326.481 357.757 326.833 357.547 327.184C357.16 327.869 356.739 328.571 356.265 329.221V329.238C355.808 329.906 355.334 330.538 354.825 331.135C351.558 333.892 347.8 335.789 343.919 337.475C343.726 337.51 343.515 337.528 343.322 337.563L343.041 337.58C342.76 337.615 342.479 337.65 342.198 337.668C341.882 337.686 341.566 337.721 341.249 337.738C340.723 337.773 340.196 337.791 339.686 337.826C338.65 337.861 337.597 337.896 336.56 337.949C336.051 337.967 335.524 338.002 334.997 338.037C334.769 338.054 334.541 338.054 334.313 338.09C333.856 338.125 333.399 338.177 332.943 338.248C331.819 338.388 330.695 338.617 329.624 338.95C324.97 340.425 320.983 344.535 318.191 348.363C315.802 351.612 313.677 354.334 311.289 356.459C310.85 356.652 310.516 356.933 310.288 357.285C307.022 359.849 303.158 361.377 297.468 361.605C289.846 361.938 282.944 362.202 275.516 363.554C276.464 363.115 277.395 362.694 278.343 362.237C285.754 358.602 290.847 353.157 296.906 347.766C302.982 342.339 310.727 339.389 317.945 335.877C325.514 332.206 331.994 326.604 337.702 320.545C339.897 318.192 336.438 314.715 334.19 317.016C328.57 322.758 322.37 327.482 315.205 331.17C308.795 334.454 302.21 337.001 296.344 341.216C290.285 345.588 285.754 351.437 279.344 355.388C276.622 357.056 273.742 358.444 270.792 359.691C272.091 358.04 273.25 356.284 274.286 354.405C276.798 349.68 277.887 344.394 280.784 339.828C284.771 333.541 293.288 331.557 299.944 329.748C310.253 326.938 317.664 319.685 321.475 309.763C321.844 308.797 322.125 307.813 322.353 306.777C331.222 298.611 341.97 296.714 352.489 291.674ZM384.662 371.07C374.81 366.417 364.501 362.746 354.087 359.532C346.202 357.091 338.299 354.317 330.238 352.367C336.157 348.644 342.672 347.292 349.486 344.096C357.143 340.531 362.885 335.069 367.61 328.132C373.862 318.965 376.619 307.848 380.517 297.61C384.557 287.038 389.21 276.799 390.141 265.349C390.317 263.171 388.209 261.468 386.19 261.415C376.109 261.099 367.03 271.39 359.812 277.203C350.715 284.544 338.931 287.933 327.815 291.534C328.429 289.549 328.939 287.564 329.553 285.72C332.31 277.466 338.773 269.81 344.569 263.523C354.825 252.459 367.135 243.291 376.197 231.086C386.208 217.581 389.685 201.424 391.476 184.934C392.495 175.767 394.444 157.783 385.733 151.654C382.871 149.635 380.149 152.813 380.711 155.588C377.585 166.353 364.712 172.746 355.685 177.751C345.025 183.669 333.628 188.622 326.375 198.843C322.09 204.866 320.21 212.611 318.015 219.565C315.293 228.188 311.324 235.669 305.248 242.396C299.698 248.525 292.639 252.95 286.808 258.798C283.226 262.399 280.152 266.49 277.272 270.705C275.41 264.594 275.129 259.167 279.555 252.511C283.84 246.049 290.689 241.588 295.343 235.389C306.091 220.988 299.171 204.533 303.176 188.446C305.125 180.666 308.391 173.273 310.288 165.458C311.992 158.521 312.799 151.32 313.221 144.226C314.064 130.282 312.677 115.389 306.302 102.78C306.003 101.428 304.984 100.269 303.702 100.023L303.369 99.9525C302.034 99.7769 300.594 100.427 299.769 101.568C290.83 107.592 284.174 113.686 279.467 123.872C276.64 129.983 274.269 136.218 270.739 141.995C267.279 147.615 262.52 150.548 256.725 153.182C247.452 157.379 239.76 161.875 238.461 172.763C237.688 179.209 241.306 185.935 242.781 192.046C244.467 198.948 242.728 205.358 238.812 211.048C232.015 220.935 221.25 226.696 218.089 238.989C214.664 252.371 224.956 264.998 227.625 277.537C230.294 289.988 215.525 300.841 212.329 312.204C208.922 324.356 214.155 338.265 218.3 349.54L218.352 349.663C203.407 358.145 187.163 366.03 171.076 371.58C161.031 375.04 143.996 378.499 141.52 390.95C139.342 401.909 154.568 405.597 162.243 407.353C180.735 411.603 199.315 415.238 218.089 418.031C238.531 421.034 257.515 418.031 277.711 414.852C299.242 411.48 321.141 412.428 342.795 410.268C351.98 409.373 361.024 407.529 370.103 406.089C378.234 404.807 388.245 403.525 394.865 398.203C407.563 388 395.076 376.005 384.662 371.07Z" fill="black"/>
<path d="M169.762 388.938C171.067 389.018 172.147 389.969 172.147 391.323C172.147 392.693 171.067 393.644 169.762 393.709C169.423 393.725 169.101 393.725 168.795 393.725C167.457 393.741 166.377 392.645 166.377 391.323C166.377 390.018 167.457 388.889 168.795 388.938C169.101 388.938 169.423 388.938 169.762 388.938Z" fill="black"/>
<path d="M58.6549 11.3571C32.7409 11.3571 11.6663 32.4319 11.6663 58.3459V497.72C11.6663 523.615 32.7409 544.69 58.6549 544.69H498.029C523.924 544.69 544.999 523.615 544.999 497.72V58.3459C544.999 32.4319 523.924 11.3571 498.029 11.3571H58.6549ZM498.029 555.366H58.6549C26.8674 555.366 0.990479 529.507 0.990479 497.72V58.3459C0.990479 26.5583 26.8674 0.681274 58.6549 0.681274H498.029C529.816 0.681274 555.675 26.5583 555.675 58.3459V497.72C555.675 529.507 529.816 555.366 498.029 555.366Z" fill="#1B7695"/>
</svg>
