<svg width="556" height="555" viewBox="0 0 556 555" fill="none" xmlns="http://www.w3.org/2000/svg">
<path d="M498.025 549.335H58.6475C29.7537 549.335 6.33038 525.91 6.33038 497.026V57.6401C6.33038 28.7562 29.7537 5.33081 58.6475 5.33081H498.025C526.917 5.33081 550.341 28.7562 550.341 57.6401V497.026C550.341 525.91 526.917 549.335 498.025 549.335Z" fill="white"/>
<path d="M442.718 261.737C447.811 263.146 451.218 267.571 452.984 272.34C454.428 276.223 454.879 282.22 450.503 284.405C447.858 285.742 444.602 285.128 441.842 284.55C437.579 283.629 433.62 281.642 430.072 279.167C426.124 276.422 422.811 272.99 419.783 269.305C425.004 270.371 431.448 268.312 435.894 265.981C438.227 264.771 440.512 263.344 442.672 261.719L442.718 261.737Z" fill="#E6579B"/>
<path d="M442.178 227.914C447.708 226.946 452.973 230.034 453.909 235.755C454.072 236.742 454.128 237.71 454.117 238.661C454.751 247.159 446.946 254.981 440.781 259.605C437.132 262.346 433.007 264.539 428.642 265.928C424.265 267.281 418.421 267.354 415.663 263.352C422.038 260.373 424.035 253.976 426.263 247.671C427.025 244.472 427.8 241.292 429.359 238.405C431.83 233.854 436.889 228.846 442.178 227.914Z" fill="#E6579B"/>
<path d="M359.569 222.592C360.1 222.405 360.331 221.977 360.343 221.548C356.947 221.455 353.842 222.275 351.046 224.828C348.481 227.158 346.334 230.028 345.214 233.309L345.49 233.122C349.822 229.003 353.83 224.698 359.569 222.592ZM360.318 277.704C361.545 278.375 362.79 279.046 363.968 279.81C371.024 283.332 379.223 283.444 386.857 279.884C397.365 274.945 400.842 263.315 398.716 252.561C396.384 240.67 388.415 229.991 376.624 226.375C362.941 222.163 348.817 229.376 345.237 243.429C343.159 251.573 345.988 259.625 350.595 266.595C352.328 269.577 354.475 272.336 356.947 274.759C357.558 275.374 358.207 275.952 358.865 276.492C359.06 276.679 359.256 276.865 359.452 277.051C359.742 277.256 360.029 277.48 360.318 277.704ZM345.388 168.002C356.485 173.37 366.163 180.769 375.702 188.783C389.432 200.32 402.423 212.751 414.399 226.096C418.453 230.625 422.447 235.265 426.214 240.074C422.876 246.709 422.436 256.196 415.922 260.445C415.011 261.377 413.913 262.141 412.597 262.663C412.459 262.756 412.319 262.831 412.181 262.905C412.793 264.452 413.613 265.701 414.595 266.652C419.135 273.193 424.641 279.325 431.513 283.295C434.031 284.749 437.266 286.314 440.623 287.265C433.637 317.29 417.367 344.222 393.415 363.717C391.73 365.077 390.01 366.419 388.277 367.724C388.057 367.761 387.85 367.817 387.63 367.985C382.398 371.787 375.875 369.737 370.619 367.09C364.036 363.754 359.431 358.498 355.759 352.18C351.646 345.135 348.83 337.419 343.979 330.784C338.922 323.851 332.084 318.185 326.288 311.904C303.052 286.743 303.052 250.027 316.067 219.964C320.512 209.713 327.05 200.022 328.192 188.653C328.644 184.049 327.833 179.259 329.683 174.879C332.293 168.71 339.578 167.983 345.388 168.002Z" fill="#3FB9E1"/>
<path d="M372.841 381.595C379.101 377.662 385.243 373.537 391.11 369.081C391.226 369.882 391.294 370.683 391.331 371.466C390.612 376.252 389.343 380.899 386.628 385.006C385.866 386.155 385.013 387.164 384.089 388.122C383.534 388.644 382.97 389.183 382.403 389.705C381.282 390.715 380.117 391.672 378.962 392.664C376.525 394.735 374.261 396.998 371.951 399.225C370.312 394.091 370.775 388.208 371.167 382.935L371.156 382.622C371.708 382.274 372.275 381.943 372.841 381.595Z" fill="#E6579B"/>
<path d="M379.741 247.478C380.7 245.698 382.848 244.571 384.87 245.026C386.821 245.443 388.542 246.879 388.785 248.95C389.038 251.021 388.115 253.183 386.187 254.128L385.944 254.218C385.308 254.818 384.488 255.163 383.507 255.127C381.97 255.072 380.608 253.928 379.881 252.656C378.969 251.057 378.855 249.113 379.741 247.478Z" fill="white"/>
<path d="M376.373 257.123C377.77 262.428 381.651 267.897 386.58 270.412C388.592 271.451 390.567 271.47 392.32 270.832C391.431 272.837 389.872 274.441 387.643 275.389C383.889 276.975 379.354 274.805 376.315 272.691C370.6 268.68 366.914 262.118 365.875 255.3C364.767 248.1 367.771 241.482 374.259 238.055C380.832 234.574 388.119 235.777 391.814 242.212C389.192 240.826 385.982 240.699 382.759 242.285C377.101 245.019 374.826 251.272 376.373 257.123Z" fill="#1B7695"/>
<path d="M369.561 401.476C369.214 401.787 368.846 402.082 368.487 402.376C363.152 405.492 357.586 407.777 351.88 409.543C352.17 407.517 352.481 405.509 352.84 403.518C352.968 402.757 353.117 401.995 353.267 401.233C353.324 400.904 353.394 400.593 353.463 400.264C353.717 399 353.994 397.737 354.318 396.49C354.664 395.036 355.057 393.616 355.495 392.197C355.542 392.024 355.564 391.851 355.542 391.678C359.987 389.289 364.353 386.778 368.661 384.164C367.946 389.756 367.83 395.971 369.838 401.216L369.561 401.476Z" fill="#AD4174"/>
<path d="M348.418 242.781C352.646 228.461 368.859 224.968 380.997 231.332C382.277 231.99 383.491 232.795 384.634 233.691C381.192 233.033 377.381 233.563 373.915 235.063C365.647 238.702 361.951 246.877 363.039 255.582C364.124 264.415 369.771 272.499 377.531 276.76C379.032 277.583 380.719 278.186 382.44 278.461C377.611 280.07 372.207 280.125 367.405 278.296C365.037 277.4 362.831 276.12 360.797 274.565C356.964 270.743 353.27 266.244 350.75 261.325C349.676 258.801 348.926 256.149 348.511 253.497C348.061 251.833 347.794 250.169 347.783 248.45C347.714 247.554 347.749 246.658 347.91 245.78L347.783 245.688C347.933 244.719 348.129 243.75 348.418 242.781Z" fill="white"/>
<path d="M338.901 399.888C343.544 397.817 348.117 395.591 352.619 393.227C352.391 393.952 352.171 394.677 351.963 395.401C351.57 396.782 351.223 398.162 350.913 399.56C350.761 400.233 350.623 400.906 350.497 401.579C350.416 401.942 350.345 402.287 350.288 402.632C350.184 403.167 350.091 403.702 349.998 404.236C349.872 404.978 349.746 405.721 349.639 406.48C349.444 407.774 349.26 409.068 349.099 410.38C347.344 410.88 345.575 411.329 343.796 411.743H343.786C342.019 412.002 340.252 412.26 338.487 412.519C336.466 412.83 334.444 413.141 332.423 413.468C332.954 409.707 333.914 405.91 333.75 402.114C335.472 401.389 337.205 400.647 338.901 399.888Z" fill="#E6579B"/>
<path d="M342.298 155.376C342.562 156.856 342.712 158.337 342.757 159.836C342.92 161.222 342.884 162.569 342.482 163.67C340.425 162.816 338.358 162.019 336.246 161.278C337.331 150.764 329.062 141.427 323.139 133.645C317.225 125.826 310.897 117.855 302.744 112.389C310.112 114.61 316.993 118.367 323.3 122.733C323.716 123.017 324.13 123.302 324.547 123.606C325.551 124.46 326.557 125.352 327.536 126.244C333.404 131.52 339.457 136.853 344.526 142.907C346.952 145.792 348.81 148.999 350.599 152.283C353.093 157.919 354.664 163.992 355.369 170.142C351.951 168.111 348.417 166.308 344.813 164.676C345.875 161.677 345.046 158.147 344.249 155.148C343.163 151.068 341.478 146.798 339.016 143.343L338.796 143.097C339.87 145.298 340.715 147.614 341.315 149.929C341.765 151.637 342.203 153.516 342.298 155.376Z" fill="#AD4174"/>
<path d="M364.815 128.391C367.516 132.333 369.79 136.617 371.559 141.09C372.667 144.217 373.511 147.458 374.134 150.699C374.25 151.324 374.354 151.95 374.457 152.575C375.232 161.881 372.887 173.708 363.428 175.262L363.289 175.3C362.274 174.58 361.258 173.878 360.23 173.196C359.732 172.874 359.249 172.552 358.752 172.229C361.224 169.898 361.534 165.804 361.707 162.62C361.963 157.863 361.512 153.087 360.899 148.386C360.09 142.227 357.829 136.844 354.952 131.348C353.186 128.012 351.489 124.657 350.288 121.056C350.068 120.393 349.086 117.114 350.379 116.811C351.408 116.583 352.607 117.209 353.521 117.607C354.986 118.251 356.315 119.085 357.55 120.052C360.069 122.629 362.448 125.226 364.573 128.031C364.652 128.164 364.734 128.277 364.815 128.391Z" fill="#E6579B"/>
<path d="M360.344 221.557C360.331 221.978 360.1 222.399 359.571 222.582C353.831 224.688 349.823 229.009 345.491 233.129L345.216 233.293C346.335 230.016 348.483 227.16 351.048 224.816C353.842 222.271 356.947 221.447 360.344 221.557Z" fill="black"/>
<path d="M363.968 279.807C362.791 279.057 361.545 278.38 360.318 277.702C360.029 277.483 359.742 277.263 359.453 277.043C359.257 276.86 359.061 276.677 358.865 276.494C358.208 275.963 357.56 275.377 356.947 274.773C354.477 272.339 352.328 269.575 350.595 266.591C345.989 259.635 343.159 251.562 345.238 243.435C348.817 229.376 362.94 222.164 376.627 226.374C388.415 229.998 396.384 240.67 398.716 252.551C400.843 263.314 397.367 274.956 386.857 279.88C379.224 283.45 371.025 283.322 363.968 279.807ZM360.793 274.572C362.826 276.146 365.032 277.428 367.399 278.306C372.202 280.137 377.608 280.082 382.433 278.489C380.714 278.196 379.026 277.611 377.525 276.769C369.766 272.522 364.119 264.431 363.033 255.589C361.948 246.894 365.643 238.712 373.912 235.087C377.377 233.568 381.186 233.055 384.628 233.714C383.486 232.817 382.272 232.012 380.991 231.353C368.854 224.983 352.641 228.461 348.414 242.794C348.125 243.764 347.929 244.734 347.779 245.704L347.904 245.796C347.743 246.675 347.71 247.572 347.779 248.469C347.79 250.171 348.057 251.855 348.506 253.503C348.921 256.157 349.672 258.811 350.746 261.337C353.265 266.261 356.959 270.764 360.793 274.572ZM365.874 255.315C366.912 262.124 370.599 268.696 376.314 272.686C379.352 274.81 383.888 276.97 387.641 275.396C389.871 274.444 391.43 272.833 392.32 270.819C390.564 271.478 388.589 271.46 386.579 270.417C381.65 267.909 377.769 262.435 376.37 257.127C374.823 251.269 377.099 245.027 382.757 242.281C385.981 240.707 389.19 240.835 391.811 242.208C388.117 235.783 380.829 234.575 374.258 238.071C367.769 241.494 364.767 248.102 365.874 255.315ZM379.881 252.642C380.61 253.942 381.972 255.077 383.509 255.132C384.491 255.15 385.309 254.802 385.944 254.216L386.187 254.125C388.117 253.191 389.039 251.013 388.785 248.944C388.543 246.858 386.821 245.448 384.871 245.027C382.85 244.57 380.701 245.686 379.742 247.48C378.854 249.109 378.97 251.05 379.881 252.642Z" fill="black"/>
<path d="M321.746 406.727C324.971 405.592 328.157 404.388 331.31 403.116C331.159 406.675 330.177 410.166 329.82 413.691V413.794C326.793 414.172 323.769 414.55 320.766 414.963C320.037 415.066 319.334 415.169 318.617 415.273C319.809 412.487 320.649 409.529 321.746 406.727Z" fill="#AD4174"/>
<path d="M283.676 110.226C287.336 109.998 291.03 110.131 294.749 110.644C305.478 115.449 313.469 124.908 320.282 134.196C325.745 141.66 334.36 150.473 333.701 160.445C326.231 158.033 318.502 156.437 310.698 155.64C311.321 150.568 308.745 145.801 305.997 141.755C302.821 137.045 298.814 132.923 294.853 128.878C288.177 122.04 278.755 114.614 268.755 113.132C271.664 112.183 274.597 111.461 277.532 110.948C279.575 110.625 281.619 110.397 283.676 110.226Z" fill="#E6579B"/>
<path d="M318.463 407.81C317.458 410.419 316.765 413.149 315.632 415.707C311.29 416.359 306.971 417.114 302.709 418.11C303.439 416.033 304.039 413.904 304.58 411.793C309.258 410.66 313.888 409.321 318.463 407.81Z" fill="#E6579B"/>
<path d="M303.759 336.715C306.253 335.073 308.136 331.878 309.382 329.583C309.545 329.283 309.695 329.001 309.857 328.701C309.995 332.831 310.71 337.05 310.758 341.022C310.874 349.318 309.58 357.438 307.801 365.487C306.126 373.095 303.99 380.844 299.635 387.393C297.499 390.605 294.67 393.147 291.427 395.001C290.052 390.941 292.28 385.892 293.736 382.203C295.455 377.843 297.639 373.642 299.243 369.247C302.894 359.221 307.119 347.359 303.759 336.715Z" fill="#AD4174"/>
<path d="M301.553 412.505C300.873 414.613 300.364 416.789 299.635 418.88C298.539 419.171 297.443 419.497 296.357 419.823C293.078 420.851 289.821 421.913 286.552 422.924C286.599 422.787 286.643 422.616 286.691 422.462C287.488 419.84 288.042 417.132 289.372 414.716C293.459 414.15 297.522 413.413 301.553 412.505Z" fill="#AD4174"/>
<path d="M299.048 337.613C299.891 337.842 300.699 337.842 301.461 337.701C304.21 348.595 300.018 360.774 295.825 370.771C293.896 375.382 291.681 379.852 290.053 384.587C288.838 388.124 287.557 392.56 289.056 396.203C286.598 397.312 283.954 398.051 281.23 398.403C273.757 399.406 266.377 397.347 259.784 393.651C263.109 388.424 262.799 381.348 265.408 375.752C268.607 368.905 274.75 363.432 280.2 358.381C284.231 354.632 288.365 351.006 292.015 346.888C294.359 344.23 297.096 340.834 297.812 337.155C298.193 337.331 298.61 337.49 299.048 337.613Z" fill="#E6579B"/>
<path d="M283.713 339.564C286.936 336.67 290.387 333.387 292.57 329.505C293.089 331.676 293.98 333.74 295.341 335.276C295.076 339.899 291.033 344.028 288.056 347.205C284.649 350.822 280.849 354.016 277.258 357.44C272.303 362.187 267.326 366.987 263.839 372.952C262.152 375.846 261.207 379.004 260.524 382.251C259.82 385.675 259.451 389.345 257.697 392.416C252.498 389.169 247.857 384.951 244.126 380.54L243.874 380.24C245.928 373.869 249.069 368.257 253.689 363.334C258.455 358.216 264.381 354.228 270.086 350.24C274.809 346.922 279.418 343.393 283.713 339.564Z" fill="#AD4174"/>
<path d="M287.93 322.55C289.835 320.831 291.544 318.916 293.08 316.878C292.664 318.456 292.329 320.051 292.122 321.699C292.006 322.656 291.948 323.72 291.973 324.854C291.879 324.978 291.797 325.102 291.73 325.244C289.408 330.774 284.787 335.099 280.342 338.927C275.643 342.986 270.562 346.566 265.503 350.164C255.122 357.555 246.115 365.726 241.969 377.814C238.793 373.56 236.056 368.402 236.333 363.156C236.598 357.803 240.397 353.443 244.255 350.093C251.854 343.535 261.427 338.484 270.248 333.858C276.462 330.614 282.697 327.282 287.93 322.55Z" fill="#E6579B"/>
<path d="M279.242 415.768C281.542 415.614 283.839 415.391 286.139 415.135C285.618 416.384 285.307 417.771 284.971 418.987C284.66 420.066 284.394 422.223 283.771 423.798C280.34 424.877 276.9 425.853 273.413 426.709C275.154 422.925 276.796 419.227 279.242 415.768Z" fill="#E6579B"/>
<path d="M234.634 129.819C245.198 131.933 255.119 135.821 264.242 141.596C267.497 143.634 270.732 145.823 273.802 148.144C276.389 150.125 280.224 152.937 280.813 156.429C274.785 157.391 268.907 158.882 263.202 160.788C257.567 153.938 249.114 149.465 240.95 146.37C234.183 143.804 225.96 141.765 218.627 143.369C220.567 141.444 222.576 139.538 224.701 137.689C227.9 134.934 231.214 132.311 234.634 129.819Z" fill="#E6579B"/>
<path d="M264.844 415.867C268.493 416.056 272.143 416.073 275.78 415.936C273.366 419.394 271.831 423.485 270.261 427.405C265.896 428.278 261.947 428.312 258.055 426.977C259.44 423.279 260.85 419.616 262.986 416.244C263.089 416.073 263.147 415.919 263.183 415.765C263.736 415.799 264.291 415.85 264.844 415.867Z" fill="#AD4174"/>
<path d="M262.783 115.321C274.17 114.41 285.338 122.832 292.854 130.57C296.274 134.079 299.633 137.644 302.601 141.551C305.49 145.363 308.803 150.39 308.134 155.397C303.953 155.055 299.737 154.961 295.536 155.074C296.031 144.624 284.115 137.663 276.562 132.732C276.226 132.504 275.868 132.466 275.557 132.561C276.943 133.699 278.201 135.046 279.449 136.393C279.83 136.734 280.211 137.094 280.579 137.455C280.869 137.72 281.146 137.948 281.423 138.213C282.889 139.408 284.333 140.622 285.649 141.969C286.169 142.5 286.688 143.05 287.185 143.6C290.442 146.824 292.822 150.598 292.89 155.169C290.256 155.321 287.623 155.53 285.002 155.833C284.448 155.909 283.906 155.985 283.363 156.061C282.969 152.95 280.395 150.409 278.167 148.379C274.897 145.382 271.1 143.031 267.437 140.584C258.28 134.42 248.13 130.228 237.391 127.895C240.15 125.999 242.969 124.216 245.867 122.566C251.259 119.892 256.837 117.445 262.508 115.302L262.783 115.321Z" fill="#AD4174"/>
<path d="M260.335 415.557C258.36 418.848 256.894 422.362 255.67 425.997C254.953 425.637 254.239 425.225 253.51 424.762C252.908 424.368 252.32 423.974 251.744 423.545V423.528C251.571 423.408 251.396 423.271 251.223 423.134C246.973 419.859 243.452 415.659 239.744 411.802L239.561 411.614C246.327 413.551 253.268 414.888 260.335 415.557Z" fill="#E6579B"/>
<path d="M260.674 161.657C256.207 163.272 251.852 165.151 247.616 167.274L247.383 167.086C242.384 163.686 236.99 161.225 231.217 159.496C230.8 159.365 230.432 159.459 230.131 159.647C232.532 161.018 234.901 162.446 237.141 164.061C237.558 164.324 237.971 164.606 238.388 164.869C240.663 165.978 242.88 167.199 245.018 168.608C240.605 170.918 236.321 173.492 232.175 176.272C227.428 172.572 221.319 171.163 215.465 170.317C209.587 169.491 203.502 169.416 197.554 169.772C200.083 165.978 202.715 162.258 205.476 158.651C206.008 157.975 206.538 157.298 207.058 156.641C207.693 155.833 208.317 155.025 208.952 154.255C210.926 151.813 212.959 149.465 215.084 147.135C215.247 147.06 215.407 146.966 215.559 146.872C215.73 146.872 215.916 146.872 216.111 146.778C223.641 143.772 232.615 146.121 239.889 148.788C247.396 151.531 255.189 155.683 260.674 161.657Z" fill="#AD4174"/>
<path d="M195.956 172.351C201.777 172.09 207.574 172.109 213.382 172.723C219.029 173.338 225.15 174.529 229.872 177.879C223.118 182.606 216.732 187.892 210.727 193.588C202.769 190.74 192.943 188.897 184.5 191.094C186.833 187.334 189.085 183.519 191.337 179.703C192.826 177.209 194.339 174.752 195.886 172.351H195.956Z" fill="#E6579B"/>
<path d="M244.124 380.543C247.852 384.973 252.494 389.182 257.693 392.426C259.448 389.349 259.817 385.678 260.522 382.267C261.204 379.004 262.15 375.852 263.837 372.979C267.324 366.991 272.3 362.189 277.255 357.443C280.846 354.013 284.645 350.825 288.052 347.209C291.03 344.039 295.073 339.905 295.338 335.27C293.977 333.75 293.086 331.692 292.567 329.523C290.385 333.398 286.931 336.679 283.711 339.571C279.415 343.409 274.806 346.931 270.084 350.25C264.378 354.236 258.453 358.222 253.685 363.338C249.067 368.27 245.924 373.887 243.87 380.246L244.124 380.543ZM254.943 197.228C256.328 193.057 259.391 189.553 263.051 187.18C264.84 186.012 266.712 185.122 268.87 184.937C271.284 184.752 273.709 184.974 276.054 184.269C276.701 184.066 277.231 184.381 277.507 184.826C275.166 186.494 271.931 186.439 269.206 187.18C267.876 187.532 266.712 187.996 265.696 188.7C262.682 190.387 259.725 193.113 258.303 196.209C254.078 205.367 261.803 212.041 269.853 214.655C271.063 215.044 270.869 216.843 269.784 217.251C265.891 218.66 261.191 221.032 259.897 225.333C258.303 230.543 262.057 236.995 267.819 236.939C269.332 236.921 270.107 239.182 268.466 239.683C257.483 243.094 255.741 261.299 269.009 262.3C270.65 262.43 270.511 264.989 268.927 265.118C258.051 266.138 257.196 280.135 260.036 288.274C263.627 298.581 272.913 304.458 283.512 305.033C284.528 305.089 285.142 306.609 284.415 307.332C280.396 311.355 277.774 318.678 284.022 321.978L284.254 322.126C285.926 320.736 287.498 319.253 288.953 317.677C292.198 314.877 294.011 310.799 296.482 307.35C297.58 305.812 298.746 304.236 299.691 302.567C299.357 304.31 299.046 306.053 298.688 307.795C298.536 308.537 298.377 309.26 298.214 309.983C296.944 313.005 295.857 316.101 295.236 319.308C294.6 322.59 294.241 326.242 295.455 329.449C296.113 331.21 297.613 334.473 299.819 334.844C303.757 335.493 306.69 328.707 307.926 325.964C309.6 322.256 310.996 318.381 311.875 314.414C312.131 316.231 312.615 318.066 312.915 319.827C312.961 320.124 312.995 320.383 313.043 320.661C312.973 321.644 312.961 322.627 312.995 323.609C312.626 326.909 313.158 330.191 313.434 333.528C313.759 337.328 313.805 341.184 313.666 345.003C313.458 350.417 312.776 355.775 311.771 361.095C312.754 362.319 313.827 363.728 315.305 364.284C317.096 364.97 319.024 364.729 320.883 364.506C321.945 364.395 322.546 365.47 322.235 366.379C321.115 369.753 321.252 373.683 323.297 376.52C324.66 379.43 327.224 381.433 330.978 381.636C333.679 381.785 336.994 381.266 339.58 379.838C339.485 380.005 339.348 380.172 339.153 380.302C334.567 383.49 328.204 384.325 323.584 380.635C319.382 377.298 318.169 372.274 319.233 367.306C315.872 367.398 313.366 366.509 311.16 364.154C310.722 366.175 310.247 368.196 309.739 370.216C307.845 377.595 305.409 385.455 300.385 391.351C295.824 396.709 289.311 400.324 282.313 401.232C269.044 402.975 256.063 396.505 246.723 387.439C245.047 385.808 243.281 383.954 241.593 381.915C241.377 381.766 241.202 381.562 241.121 381.321C235.544 374.406 231.143 365.619 234.99 357.387C237.24 352.567 241.006 348.878 245.279 345.726C235.44 341.703 224.169 324.796 233.281 316.713C222.102 313.116 212.667 303.346 211.258 291.444C210.622 286.086 211.443 280.728 214.628 276.26C217.044 272.868 220.209 270.161 223.51 267.658C219.167 266.546 215.416 262.745 215.772 258.055C216.108 253.624 219.584 250.584 223.418 248.674C210.057 242.167 218.014 220.476 231.733 217.696C227.229 220.773 223.429 224.388 221.432 229.338C217.552 236.383 217.956 245.096 227.53 247.21C228.811 247.488 229.191 249.397 227.795 249.879C224.526 250.973 220.196 252.975 218.937 256.479C217.079 261.614 222.563 265.916 227.368 265.044C228.776 264.785 229.4 266.787 228.325 267.566C220.185 273.498 212.424 280.024 214.052 291.166C215.772 302.938 225.403 312.319 236.94 314.729C238.418 315.026 238.499 316.861 237.218 317.491C225.739 323.146 238.939 340.962 247.057 343.335C247.415 343.446 247.68 343.65 247.865 343.909C251.191 341.685 254.689 339.683 257.923 337.662C265.014 333.249 272.785 330.042 279.76 325.444C280.477 324.981 281.169 324.481 281.851 323.98C275.972 320.105 276.595 312.875 280.418 307.591C269.055 306.034 259.4 298.303 256.653 286.716C254.736 278.652 256.063 267.806 263.488 263.802C254.206 259.26 255.047 244.707 263.698 238.83C259.332 236.902 256.306 232.212 256.699 227.206C257.137 221.811 261.041 218.233 265.592 215.99C258.327 212.597 252.103 205.849 254.943 197.228ZM270.244 333.861C261.423 338.496 251.849 343.557 244.25 350.12C240.394 353.457 236.594 357.814 236.328 363.171C236.052 368.418 238.789 373.572 241.964 377.836C246.11 365.748 255.118 357.573 265.498 350.176C270.557 346.579 275.639 343.001 280.336 338.941C284.784 335.103 289.404 330.784 291.725 325.259C291.794 325.111 291.875 324.981 291.968 324.87C291.944 323.739 292.003 322.664 292.116 321.7C292.326 320.068 292.659 318.474 293.076 316.898C291.54 318.919 289.83 320.847 287.924 322.571C282.693 327.298 276.458 330.617 270.244 333.861ZM280.199 358.388C274.749 363.431 268.605 368.919 265.407 375.76C262.797 381.358 263.108 388.422 259.782 393.668C266.376 397.339 273.755 399.415 281.228 398.414C283.952 398.044 286.597 397.32 289.055 396.208C287.556 392.574 288.837 388.125 290.051 384.603C291.679 379.857 293.896 375.389 295.824 370.772C300.016 360.78 304.207 348.6 301.46 337.699C300.696 337.847 299.89 337.847 299.046 337.606C298.608 337.495 298.19 337.347 297.809 337.161C297.094 340.832 294.357 344.243 292.012 346.894C288.364 351.01 284.23 354.644 280.199 358.388ZM303.757 336.716C307.118 347.376 302.891 359.223 299.243 369.252C297.637 373.646 295.455 377.836 293.735 382.211C292.279 385.9 290.051 390.943 291.425 395.003C294.669 393.149 297.498 390.609 299.634 387.402C303.989 380.858 306.124 373.09 307.8 365.507C309.578 357.443 310.872 349.323 310.755 341.036C310.709 337.05 309.993 332.823 309.856 328.707C309.693 329.004 309.543 329.301 309.382 329.597C308.134 331.878 306.252 335.085 303.757 336.716Z" fill="black"/>
<path d="M195.451 261.097C189.376 263.231 184.296 267.816 183.512 274.629C182.806 280.787 186.688 285.223 191.698 287.693C186.19 289.976 181.987 295.741 181.27 301.562C180.07 311.257 188.328 316.909 196.688 318.537C193.016 321.457 189.181 324.265 187.877 329.037C186.329 334.708 187.53 340.754 190.325 345.826C193.05 350.804 196.492 355.259 201.18 358.515C205.071 361.211 209.585 362.708 214.193 363.531C210.164 367.93 209.793 374.948 211.908 380.451C214.414 386.964 222.279 391.007 229.172 391.044C224.993 389.978 220.905 387.151 218.202 384.138C216.827 382.996 215.685 381.63 214.888 380.095C212.196 374.799 213.143 366.994 218.433 363.737C219.507 363.082 219.009 361.304 217.821 361.173C212.797 360.574 207.901 359.358 203.57 356.681C199.494 354.173 196.422 350.43 193.916 346.425C191.028 341.764 189.4 336.543 190.311 331.021C191.283 325.144 196.849 322.374 200.879 318.725C201.687 317.976 201.629 316.273 200.267 316.179C192.277 315.58 183.418 311.425 184.055 301.992C184.481 295.648 190.637 289.471 197.021 289.434C198.696 289.415 198.558 286.982 197.092 286.645C191.04 285.316 185.578 281.236 186.353 274.461C187.079 268.022 193.362 264.073 199.183 262.913C200.532 262.651 200.892 260.929 199.598 260.274C197.242 259.076 194.448 257.504 193.003 255.145L192.761 254.846C191.663 253.311 191.721 251.122 192.149 249.4C192.922 246.143 195.29 243.504 197.646 241.052L197.381 241.202C193.454 243.897 189.366 247.491 189.389 252.638C189.4 256.325 192.357 259.113 195.451 261.097ZM228.328 267.554C229.404 266.768 228.779 264.784 227.372 265.028C222.567 265.889 217.081 261.603 218.94 256.474C220.199 252.956 224.53 250.953 227.798 249.868C229.194 249.4 228.815 247.472 227.533 247.191C217.959 245.076 217.555 236.373 221.435 229.317C223.432 224.376 227.233 220.764 231.736 217.676C218.017 220.464 210.061 242.156 223.421 248.67C219.588 250.579 216.112 253.611 215.777 258.046C215.419 262.744 219.172 266.544 223.514 267.629C220.211 270.137 217.048 272.851 214.633 276.257C211.446 280.731 210.626 286.065 211.261 291.436C212.67 303.34 222.105 313.11 233.284 316.703C224.173 324.77 235.444 341.689 245.283 345.713C241.01 348.877 237.244 352.545 234.993 357.374C231.147 365.609 235.547 374.406 241.124 381.312C241.207 381.555 241.379 381.761 241.598 381.892C243.284 383.932 245.051 385.804 246.726 387.432C256.067 396.491 269.047 402.966 282.315 401.226C289.315 400.309 295.828 396.697 300.389 391.344C305.413 385.448 307.85 377.569 309.744 370.194C310.251 368.192 310.724 366.152 311.164 364.13C313.371 366.489 315.875 367.387 319.237 367.293C318.174 372.253 319.386 377.269 323.588 380.619C328.209 384.306 334.571 383.483 339.156 380.282C339.353 380.151 339.49 379.983 339.583 379.815C336.996 381.256 333.682 381.761 330.981 381.611C327.228 381.424 324.664 379.421 323.302 376.52C321.256 373.657 321.118 369.745 322.239 366.358C322.549 365.459 321.95 364.374 320.887 364.486C319.027 364.71 317.099 364.954 315.308 364.28C313.831 363.7 312.757 362.296 311.776 361.079C312.779 355.764 313.463 350.411 313.67 344.983C313.809 341.184 313.762 337.329 313.438 333.51C313.161 330.179 312.63 326.904 313 323.61C312.965 322.618 312.976 321.644 313.047 320.652C313 320.372 312.965 320.11 312.918 319.81C312.619 318.051 312.134 316.217 311.879 314.401C311.001 318.369 309.605 322.243 307.93 325.949C306.695 328.7 303.76 335.476 299.824 334.839C297.617 334.465 296.116 331.208 295.458 329.43C294.245 326.23 294.604 322.58 295.241 319.286C295.862 316.086 296.947 312.997 298.218 309.965C298.379 309.254 298.54 308.524 298.694 307.794C299.049 306.054 299.362 304.294 299.695 302.554C298.75 304.22 297.584 305.81 296.485 307.326C294.015 310.789 292.203 314.869 288.957 317.658C287.501 319.249 285.931 320.727 284.256 322.112L284.026 321.962C277.778 318.65 280.4 311.332 284.419 307.326C285.145 306.597 284.533 305.08 283.517 305.024C272.916 304.463 263.631 298.567 260.039 288.255C257.2 280.113 258.055 266.132 268.931 265.102C270.514 264.971 270.653 262.426 269.013 262.295C255.745 261.284 257.488 243.074 268.471 239.667C270.11 239.162 269.335 236.916 267.823 236.916C262.06 236.991 258.308 230.534 259.9 225.312C261.194 221.026 265.895 218.63 269.788 217.226C270.872 216.833 271.068 215.018 269.856 214.625C261.808 212.042 254.082 205.36 258.308 196.208C259.728 193.101 262.685 190.368 265.699 188.703C266.715 187.991 267.881 187.524 269.21 187.168C271.933 186.438 275.169 186.494 277.511 184.81C277.235 184.361 276.704 184.061 276.056 184.248C273.713 184.959 271.287 184.735 268.873 184.941C266.715 185.109 264.843 186.008 263.054 187.168C259.395 189.545 256.333 193.045 254.948 197.219C252.107 205.847 258.332 212.585 265.596 215.972C261.044 218.218 257.14 221.812 256.702 227.202C256.311 232.199 259.335 236.897 263.7 238.825C255.051 244.702 254.209 259.263 263.492 263.792C256.067 267.798 254.74 278.634 256.657 286.701C259.404 298.286 269.06 306.016 280.421 307.588C276.599 312.866 275.976 320.091 281.856 323.965C281.173 324.47 280.481 324.957 279.764 325.425C272.788 330.029 265.017 333.249 257.926 337.647C254.694 339.668 251.195 341.671 247.868 343.898C247.682 343.636 247.419 343.43 247.061 343.318C238.942 340.96 225.741 323.142 237.222 317.471C238.504 316.853 238.422 315 236.945 314.701C225.406 312.305 215.777 302.909 214.055 291.156C212.427 280.019 220.188 273.487 228.328 267.554ZM234.508 407.121H234.45C225.131 403.846 216.237 399.317 207.879 394.039C193.534 385.018 181.616 373.563 170.959 360.462C167.274 355.933 163.693 351.31 160.068 346.705C156.997 342.812 154.028 338.714 150.519 335.214C145.701 330.385 136.014 324.77 138.241 316.722C146.695 302.703 152.989 287.618 159.664 272.701C166.534 257.354 174.515 242.793 184.135 228.98C203.027 201.86 227.74 177.099 259.058 164.989C284.499 155.182 313.393 155.257 338.799 165.12C339.284 165.307 339.757 165.495 340.231 165.7C335.634 166.094 331.43 167.591 328.37 171.727C325.042 176.219 325.864 182.283 325.553 187.505C325.125 194.898 321.821 201.842 318.623 208.392C315.207 215.373 311.926 222.261 309.512 229.673C304.756 244.309 303.081 259.825 305.587 275.041C306.798 282.378 309.074 289.527 312.203 296.284C315.667 303.752 320.771 310.096 326.442 316.011C332.956 322.786 340.139 329.094 344.975 337.273C349.48 344.89 352.413 353.275 357.91 360.294C362.565 366.227 372.322 373.077 380.95 372.964C374.334 377.475 367.437 381.649 360.543 385.617C349.11 392.186 337.182 397.913 324.837 402.536C300.631 411.613 274.267 416.031 248.654 411.033C244.486 410.21 240.385 409.105 236.367 407.777C235.73 407.608 235.107 407.402 234.508 407.121Z" fill="#1B7695"/>
<path d="M194.155 211.399C189.512 217.024 185.158 222.852 181.035 228.845C175.389 226.786 169.499 226.859 163.551 227.08C164.348 224.341 165.308 221.638 166.462 219.01C167.525 216.546 168.806 214.285 170.192 212.079C170.84 211.803 171.45 211.472 172.099 211.16C179.316 209.928 187.019 209.45 194.155 211.399Z" fill="#E6579B"/>
<path d="M182.803 194.184C190.935 191.521 200.531 192.926 208.592 195.644C207.969 196.236 207.344 196.847 206.745 197.457C203.002 201.229 199.423 205.15 195.993 209.182C188.44 206.907 180.31 207.184 172.573 208.479C174.409 205.853 176.349 203.282 178.243 200.638C179.733 198.548 181.141 196.403 182.528 194.239L182.803 194.184Z" fill="#AD4174"/>
<path d="M201.174 358.521C196.487 355.265 193.046 350.808 190.321 345.843C187.525 340.768 186.325 334.729 187.873 329.054C189.177 324.27 193.011 321.487 196.684 318.559C188.324 316.922 180.066 311.265 181.266 301.57C181.981 295.767 186.185 290.002 191.694 287.71C186.683 285.236 182.801 280.816 183.507 274.65C184.293 267.847 189.371 263.245 195.447 261.099C192.353 259.134 189.397 256.351 189.384 252.659C189.361 247.511 193.45 243.91 197.377 241.218L197.64 241.072C195.285 243.528 192.918 246.165 192.144 249.403C191.718 251.149 191.66 253.332 192.757 254.86L192.998 255.169C194.443 257.515 197.237 259.098 199.594 260.28C200.887 260.953 200.529 262.663 199.177 262.936C193.357 264.082 187.074 268.029 186.348 274.468C185.574 281.252 191.036 285.327 197.087 286.655C198.553 287 198.692 289.438 197.018 289.438C190.632 289.474 184.477 295.658 184.049 302.006C183.414 311.429 192.273 315.594 200.263 316.194C201.626 316.285 201.682 317.995 200.874 318.741C196.844 322.379 191.278 325.161 190.308 331.037C189.397 336.548 191.023 341.787 193.912 346.443C196.418 350.463 199.49 354.192 203.566 356.702C207.895 359.376 212.792 360.594 217.816 361.176C219.006 361.322 219.502 363.104 218.427 363.759C213.138 366.997 212.192 374.818 214.882 380.112C215.681 381.639 216.823 383.004 218.198 384.149C220.899 387.169 224.988 389.988 229.168 391.061C222.274 391.025 214.409 386.987 211.904 380.475C209.789 374.964 210.158 367.943 214.189 363.541C209.582 362.722 205.067 361.213 201.174 358.521Z" fill="black"/>
<path d="M179.501 231.112C178.336 232.847 177.182 234.582 176.05 236.317C171.395 243.53 167.295 250.999 163.496 258.614C160.527 249.118 160.562 239.129 162.896 229.578C168.52 229.45 174.143 229.249 179.501 231.112Z" fill="#AD4174"/>
<path d="M142.547 332.354C141.185 335.918 138.459 338.953 135.387 341.405C129.787 347.475 123.273 352.52 116.322 357.461C108.411 363.089 99.7622 370.375 89.7127 371.275C90.1891 367.835 90.6037 364.359 90.5808 360.848C90.5578 357.408 90.3496 353.985 89.9915 350.562C99.8892 352.203 109.752 349.08 118.84 345.075C126.056 341.899 136.52 337.771 140.318 330.114C140.976 330.943 141.737 331.666 142.547 332.354Z" fill="#E6579B"/>
<path d="M113.551 285.083C114.324 285.786 115.099 286.525 115.862 287.264C116.451 287.822 117.041 288.399 117.628 288.958L117.639 288.976C121.207 293.572 125.538 299.069 130.769 301.844C131.046 302.114 131.324 302.367 131.601 302.637C132.156 303.16 132.699 303.683 133.241 304.223C133.519 304.476 133.784 304.746 134.049 305.016C134.766 305.737 135.458 306.476 136.118 307.233C136.464 307.611 136.799 308.008 137.122 308.404C137.607 309.053 138.081 309.72 138.553 310.387C137.698 312.063 136.787 313.703 135.851 315.361C117.34 302.421 95.3517 285.497 71.5398 290.76C70.235 288.723 68.7806 286.795 67.117 284.993L66.9206 284.758L66.7458 284.542L66.7133 284.506C64.7272 281.658 61.6092 279.55 59.9691 276.414C59.8754 276.179 59.7835 275.945 59.6916 275.711C59.5185 275.17 59.414 274.665 59.3672 274.197C59.3672 274.053 59.3798 273.909 59.4032 273.746L59.4375 273.53C59.4483 273.404 59.4843 273.278 59.5186 273.152C59.6231 272.809 59.7619 272.485 59.9349 272.178C62.4167 268.79 69.6691 268.195 76.4367 268.393C77.2459 268.502 78.0659 268.592 78.8842 268.718C80.5369 268.952 82.1752 269.223 83.8153 269.529C84.6353 269.691 85.4554 269.853 86.2628 270.016C88.2165 270.43 90.1323 270.881 92.0031 271.385C95.9285 272.431 99.5673 274.035 102.963 276.071C104.846 277.477 106.647 279.045 108.379 280.487C110.145 281.965 111.866 283.515 113.551 285.083Z" fill="#E6579B"/>
<path d="M119.697 318.318C121.266 318.566 122.838 318.85 124.407 319.116C128.185 319.791 131.948 320.536 135.701 321.388C136.037 323.02 136.731 324.564 137.653 326.037C133.024 327.332 128.484 328.876 123.784 329.887C118.725 330.988 113.495 331.343 108.344 331.573C107.86 331.609 107.361 331.644 106.853 331.68C106.046 331.715 105.226 331.786 104.394 331.857C104.176 331.875 103.956 331.893 103.736 331.91C102.721 331.999 101.681 332.07 100.63 332.159C100.018 332.212 99.4058 332.248 98.7936 332.283C98.2631 332.301 97.7432 332.336 97.2126 332.336C95.7557 332.389 94.3131 332.372 92.8917 332.283C92.7302 332.265 92.5581 332.248 92.3966 332.248C92.0399 332.212 91.6921 332.177 91.3461 332.141C90.9983 332.088 90.6523 332.035 90.3062 331.981C90.0063 331.946 89.7153 331.875 89.4154 331.822L89.2203 331.769C88.908 331.715 88.5957 331.644 88.2958 331.556C87.9852 331.485 87.6835 331.396 87.3961 331.307L87.3145 331.289C86.161 325.611 84.5995 320.039 82.6617 314.645C82.5233 314.254 82.3725 313.882 82.2234 313.509C86.7129 314.024 91.1953 314.52 95.6759 315.053C97.917 315.301 100.144 315.567 102.373 315.851C108.17 316.561 113.934 317.36 119.697 318.318Z" fill="#E6579B"/>
<path d="M131.597 302.644C131.321 302.377 131.043 302.127 130.765 301.86C131.043 302.109 131.321 302.377 131.597 302.644Z" fill="black"/>
<path d="M135.494 318.657C133.541 318.191 131.59 317.762 129.627 317.35C123.783 316.097 117.859 315.041 111.912 314.147C110.306 313.896 108.69 313.681 107.085 313.449C105.607 313.252 104.139 313.055 102.662 312.894C101.957 312.804 101.254 312.733 100.547 312.643C98.9898 312.464 97.4309 312.285 95.872 312.142C95.1436 312.071 94.4152 311.981 93.701 311.927C92.1762 311.784 90.6387 311.641 89.1157 311.516C86.4597 311.301 83.8269 311.122 81.1816 310.961C80.9168 310.352 80.6394 309.744 80.362 309.117C80.3047 308.992 80.2456 308.849 80.1884 308.706C80.1311 308.563 80.072 308.419 80.0148 308.276C79.8071 307.721 79.5655 307.131 79.3221 306.576C79.1843 306.218 79.034 305.896 78.8836 305.538C78.5364 304.697 78.1677 303.838 77.7865 302.996C77.348 301.994 76.8988 300.974 76.4245 299.972C75.9627 298.987 75.4884 297.985 75.0159 297.001C74.334 295.605 73.6056 294.245 72.845 292.902C96.0206 288.625 117.525 305.788 135.54 317.994C135.517 318.209 135.504 318.424 135.494 318.657Z" fill="#AD4174"/>
<path d="M130.77 301.839C125.539 299.083 121.208 293.571 117.64 288.972C117.86 289.187 118.067 289.384 118.286 289.598C121.45 292.676 124.51 295.88 127.686 298.94C128.703 299.924 129.742 300.873 130.77 301.839Z" fill="black"/>
<path d="M106.853 331.678C106.045 331.731 105.225 331.802 104.393 331.872C105.225 331.802 106.045 331.731 106.853 331.678Z" fill="black"/>
<path d="M103.735 331.918C102.72 332.006 101.68 332.094 100.629 332.165C101.68 332.076 102.72 332.006 103.735 331.918Z" fill="black"/>
<path d="M97.2103 332.357C95.7541 332.41 94.3102 332.393 92.8892 332.287C94.3102 332.393 95.7541 332.41 97.2103 332.357Z" fill="black"/>
<path d="M135.133 346.204C131.529 352.856 127.649 359.017 122.348 364.458C117.244 369.723 111.217 373.901 105.245 378.113C101.816 380.536 98.3983 383.063 94.6457 384.836C93.2925 385.099 91.955 385.362 90.6017 385.555C90.1191 385.503 89.6557 385.38 89.2397 385.204C88.8588 384.888 88.5921 384.467 88.42 383.976C88.6166 381.834 88.7781 379.71 88.8588 377.569C88.9045 377.183 88.9519 376.814 88.9975 376.428C89.1134 375.498 89.252 374.585 89.3784 373.673C99.6094 373.55 108.791 366.16 116.712 360.474C123.47 355.612 130.12 350.767 135.824 344.958C135.595 345.361 135.363 345.782 135.133 346.204Z" fill="#AD4174"/>
<path d="M124.035 332.427C128.734 331.509 133.32 329.991 137.904 328.614C134.325 335.745 124.635 339.47 117.857 342.488C108.861 346.478 99.4719 349.337 89.6802 347.908C89.6096 347.307 89.5178 346.707 89.4366 346.125V346.072C89.103 342.047 88.5699 338.022 87.8426 334.033C88.2009 334.121 88.5575 334.209 88.9282 334.28C89.1471 334.333 89.3677 334.368 89.599 334.404C89.9909 334.474 90.3845 334.527 90.7658 334.58C90.9847 334.615 91.1912 334.651 91.4119 334.651C91.6555 334.668 91.885 334.704 92.1162 334.721C92.3245 334.739 92.5204 334.757 92.727 334.774C92.9017 334.774 93.0747 334.792 93.2583 334.792C98.0862 335.004 103.156 334.28 107.544 334.139C113.064 333.98 118.607 333.503 124.035 332.427Z" fill="#AD4174"/>
<path d="M91.3472 332.142C90.9875 332.106 90.6525 332.053 90.3069 331.983C90.6525 332.036 90.9998 332.089 91.3472 332.142Z" fill="black"/>
<path d="M90.3035 331.989C90.0038 331.954 89.704 331.901 89.4149 331.83C89.7146 331.883 90.0038 331.954 90.3035 331.989Z" fill="black"/>
<path d="M88.2936 331.57C88.5934 331.658 88.9055 331.728 89.2176 331.781C88.9055 331.728 88.5934 331.658 88.2936 331.57Z" fill="black"/>
<path d="M87.8443 334.018C88.572 338.001 89.1041 342.035 89.4389 346.07C88.8838 341.983 88.1685 337.93 87.3826 333.895C87.5324 333.948 87.6839 333.983 87.8443 334.018Z" fill="black"/>
<path d="M86.2627 270.029C85.4538 269.849 84.6342 269.687 83.8145 269.543C84.6342 269.687 85.4538 269.849 86.2627 270.029Z" fill="black"/>
<path d="M86.3083 328.553C85.2577 323.46 83.7813 318.438 82.0139 313.487L82.2216 313.505C82.3724 313.895 82.5232 314.268 82.6616 314.641C84.5994 320.053 86.1592 325.607 87.3144 331.286C87.1529 331.232 86.9914 331.179 86.83 331.126C86.656 330.274 86.4839 329.405 86.3083 328.553Z" fill="black"/>
<path d="M83.8159 269.546C82.1761 269.222 80.5363 268.951 78.8839 268.717C80.5237 268.951 82.1761 269.222 83.8159 269.546Z" fill="black"/>
<path d="M80.3641 309.119C80.6395 309.723 80.9186 310.345 81.1834 310.95H81.0803C80.8493 310.328 80.6058 309.723 80.3641 309.119Z" fill="black"/>
<path d="M440.777 259.61C437.128 262.343 433.004 264.56 428.639 265.936C424.262 267.293 418.418 267.37 415.66 263.356C422.034 260.394 424.031 253.991 426.259 247.665C427.022 244.493 427.796 241.301 429.353 238.415C431.827 233.866 436.885 228.84 442.174 227.923C447.705 226.948 452.97 230.044 453.905 235.758C454.067 236.752 454.124 237.727 454.115 238.682C454.749 247.168 446.942 254.985 440.777 259.61ZM450.499 284.417C447.856 285.755 444.599 285.143 441.837 284.551C437.577 283.653 433.617 281.646 430.07 279.181C426.122 276.429 422.808 272.988 419.78 269.319C425.002 270.37 431.444 268.325 435.89 265.993C438.223 264.77 440.511 263.337 442.671 261.732H442.715C447.808 263.146 451.214 267.58 452.982 272.358C454.424 276.237 454.877 282.219 450.499 284.417ZM393.417 363.712C391.73 365.088 390.01 366.426 388.276 367.726C388.058 367.745 387.852 367.821 387.632 367.974C382.4 371.778 375.877 369.733 370.621 367.076C364.039 363.751 359.431 358.495 355.759 352.188C351.648 345.136 348.831 337.414 343.979 330.763C338.922 323.864 332.086 318.169 326.287 311.9C303.053 286.749 303.053 250.035 316.068 219.953C320.513 209.709 327.05 200.019 328.192 188.648C328.643 184.061 327.835 179.245 329.683 174.868C332.294 168.714 339.579 167.988 345.387 168.007C356.486 173.377 366.164 180.755 375.703 188.781C389.433 200.306 402.423 212.748 414.4 226.107C418.454 230.636 422.448 235.262 426.213 240.059C422.876 246.71 422.437 256.189 415.924 260.432C415.012 261.368 413.915 262.133 412.598 262.668C412.461 262.744 412.321 262.821 412.181 262.897C412.795 264.445 413.615 265.707 414.595 266.662C419.136 273.18 424.642 279.334 431.515 283.29C434.032 284.742 437.266 286.309 440.626 287.265C433.638 317.29 417.367 344.218 393.417 363.712ZM386.627 385.022C385.863 386.15 385.01 387.182 384.087 388.118C383.531 388.653 382.967 389.188 382.399 389.724C381.279 390.717 380.114 391.673 378.959 392.667C376.523 394.731 374.258 397.005 371.949 399.222C370.309 394.1 370.772 388.214 371.164 382.939L371.152 382.633C371.706 382.289 372.272 381.945 372.838 381.601C379.099 377.664 385.241 373.555 391.107 369.083C391.223 369.905 391.292 370.688 391.327 371.472C390.61 376.269 389.341 380.894 386.627 385.022ZM369.558 401.477C369.212 401.802 368.843 402.089 368.484 402.376C363.148 405.51 357.585 407.784 351.878 409.562C352.168 407.536 352.478 405.529 352.837 403.522C352.965 402.758 353.114 401.994 353.265 401.248C353.323 400.923 353.39 400.598 353.46 400.273C353.714 399.012 353.992 397.751 354.315 396.489C354.662 395.056 355.054 393.622 355.494 392.189C355.54 392.017 355.563 391.845 355.54 391.692C359.985 389.303 364.35 386.78 368.658 384.181C367.943 389.762 367.827 395.992 369.835 401.229L369.558 401.477ZM350.492 401.592C350.414 401.936 350.343 402.299 350.286 402.643C350.181 403.178 350.089 403.713 349.995 404.249C349.869 404.975 349.743 405.739 349.636 406.485C349.441 407.784 349.258 409.084 349.095 410.384C347.341 410.881 345.573 411.339 343.793 411.76H343.784C342.016 412.008 340.248 412.276 338.484 412.524C336.462 412.83 334.44 413.136 332.42 413.461C332.951 409.715 333.911 405.911 333.748 402.108C335.468 401.382 337.202 400.656 338.899 399.891C343.541 397.827 348.115 395.591 352.617 393.24C352.388 393.947 352.168 394.674 351.96 395.4C351.568 396.776 351.22 398.171 350.909 399.585C350.758 400.254 350.62 400.923 350.492 401.592ZM329.823 413.69V413.785C326.795 414.168 323.77 414.55 320.767 414.951C320.039 415.066 319.336 415.161 318.619 415.276C319.81 412.486 320.651 409.524 321.748 406.714C324.972 405.586 328.158 404.382 331.312 403.102C331.161 406.676 330.18 410.154 329.823 413.69ZM315.628 415.716C311.286 416.365 306.967 417.111 302.707 418.124C303.435 416.041 304.035 413.9 304.578 411.798C309.255 410.67 313.885 409.332 318.459 407.823C317.455 410.441 316.762 413.155 315.628 415.716ZM299.634 418.888C298.537 419.194 297.441 419.5 296.356 419.825C293.076 420.857 289.818 421.908 286.55 422.94C286.597 422.787 286.641 422.634 286.689 422.462C287.486 419.844 288.04 417.149 289.369 414.722C293.457 414.168 297.522 413.403 301.552 412.505C300.87 414.626 300.362 416.786 299.634 418.888ZM284.967 418.984C284.658 420.073 284.39 422.233 283.767 423.819C280.336 424.87 276.898 425.864 273.41 426.705C275.151 422.94 276.793 419.252 279.239 415.773C281.538 415.62 283.838 415.41 286.137 415.142C285.615 416.385 285.304 417.78 284.967 418.984ZM270.257 427.412C265.892 428.291 261.943 428.33 258.05 426.992C259.436 423.284 260.846 419.634 262.981 416.251C263.084 416.098 263.141 415.926 263.178 415.773C263.732 415.811 264.286 415.85 264.84 415.888C268.489 416.06 272.139 416.079 275.776 415.945C273.362 419.423 271.826 423.494 270.257 427.412ZM253.513 424.756C252.911 424.374 252.322 423.972 251.745 423.533C251.571 423.399 251.399 423.265 251.225 423.131C246.975 419.863 243.452 415.658 239.747 411.798L239.563 411.607C246.329 413.556 253.27 414.894 260.338 415.544C258.362 418.831 256.896 422.367 255.673 425.979C254.956 425.635 254.241 425.234 253.513 424.756ZM234.504 407.135H234.447C225.128 403.847 216.235 399.318 207.874 394.062C193.532 385.022 181.614 373.574 170.955 360.482C167.271 355.934 163.691 351.309 160.065 346.722C156.994 342.823 154.026 338.733 150.515 335.217C145.699 330.4 136.011 324.782 138.24 316.735C146.693 302.707 152.986 287.628 159.66 272.721C166.533 257.355 174.512 242.811 184.131 228.993C203.025 201.873 227.737 177.104 259.055 165.006C284.495 155.202 313.388 155.278 338.794 165.121C339.279 165.312 339.753 165.503 340.227 165.694C335.631 166.115 331.426 167.605 328.366 171.753C325.039 176.225 325.859 182.302 325.549 187.52C325.121 194.916 321.819 201.854 318.619 208.39C315.202 215.385 311.923 222.285 309.509 229.7C304.752 244.32 303.078 259.839 305.583 275.052C306.795 282.391 309.069 289.539 312.198 296.286C315.665 303.758 320.768 310.104 326.438 316.009C332.951 322.813 340.134 329.101 344.973 337.281C349.477 344.906 352.409 353.296 357.906 360.311C362.561 366.235 372.318 373.077 380.945 372.963C374.329 377.492 367.433 381.658 360.539 385.634C349.107 392.189 337.177 397.923 324.833 402.548C300.627 411.626 274.263 416.041 248.651 411.053C244.481 410.231 240.383 409.122 236.364 407.784C235.727 407.612 235.104 407.402 234.504 407.135ZM135.386 341.409C129.786 347.486 123.273 352.513 116.322 357.463C108.41 363.082 99.7617 370.363 89.7127 371.281C90.1886 367.821 90.6033 364.362 90.5804 360.846C90.5574 357.405 90.3491 353.984 89.9918 350.563C99.8879 352.207 109.751 349.073 118.839 345.078C126.056 341.906 136.52 337.778 140.317 330.114C140.976 330.936 141.737 331.681 142.547 332.35C141.185 335.905 138.459 338.962 135.386 341.409ZM135.134 346.206C131.529 352.857 127.65 359.011 122.35 364.458C117.243 369.733 111.217 373.899 105.247 378.104C101.816 380.531 98.399 383.054 94.6455 384.85C93.2943 385.098 91.9545 385.366 90.6033 385.557C90.1198 385.5 89.6554 385.385 89.2407 385.194C88.8603 384.888 88.5928 384.468 88.4208 383.971C88.6176 381.83 88.7781 379.709 88.8603 377.568C88.9062 377.186 88.9521 376.804 88.9979 376.422C89.1126 375.504 89.2521 374.587 89.3783 373.67C99.6108 373.555 108.792 366.159 116.714 360.463C123.47 355.609 130.121 350.755 135.826 344.964C135.595 345.365 135.363 345.766 135.134 346.206ZM87.381 333.898C87.5301 333.955 87.6811 333.974 87.8436 334.012C88.201 334.108 88.5583 334.185 88.9272 334.28C89.1489 334.337 89.3687 334.356 89.598 334.395C89.9917 334.471 90.3836 334.528 90.7658 334.586C90.9837 334.624 91.192 334.643 91.4118 334.662C91.6545 334.681 91.8857 334.701 92.1151 334.72C92.3234 334.739 92.5203 334.758 92.7286 334.777C92.9006 334.777 93.0745 334.796 93.2579 334.796C98.0875 335.006 103.156 334.28 107.544 334.146C113.064 333.974 118.606 333.496 124.034 332.426C128.735 331.509 133.32 329.999 137.903 328.604C134.324 335.733 124.636 339.479 117.857 342.479C108.861 346.474 99.4731 349.34 89.6802 347.907C89.6114 347.314 89.5177 346.703 89.4375 346.11V346.072C88.8832 342.001 88.1665 337.93 87.381 333.898ZM86.8268 331.127C86.6529 330.286 86.4809 329.426 86.307 328.566C85.2558 323.482 83.7785 318.436 82.0126 313.505L82.2208 313.525C86.7102 314.022 91.192 314.519 95.6737 315.054C97.9136 315.302 100.142 315.589 102.371 315.856C108.167 316.582 113.931 317.385 119.693 318.322C121.263 318.57 122.836 318.857 124.405 319.124C128.181 319.793 131.946 320.558 135.698 321.399C136.034 323.023 136.726 324.571 137.651 326.043C133.02 327.343 128.481 328.89 123.782 329.903C118.723 331.012 113.492 331.356 108.341 331.585C107.856 331.624 107.359 331.643 106.85 331.681C106.044 331.738 105.222 331.796 104.393 331.872C104.173 331.891 103.953 331.91 103.733 331.929C102.718 332.006 101.677 332.101 100.627 332.178C100.014 332.216 99.4024 332.254 98.7909 332.292C98.2596 332.312 97.7397 332.35 97.2103 332.35C95.754 332.407 94.311 332.388 92.8891 332.292C92.7286 332.273 92.5547 332.254 92.3941 332.254C92.0367 332.235 91.6889 332.197 91.343 332.14C90.9837 332.12 90.6492 332.063 90.3033 332.006C90.0032 331.948 89.7032 331.91 89.4127 331.834L89.2177 331.796C88.9062 331.738 88.5927 331.662 88.2927 331.566C87.9812 331.509 87.6811 331.413 87.3944 331.318L87.3123 331.299C87.1517 331.241 86.9893 331.184 86.8268 331.127ZM81.076 310.964C80.8448 310.352 80.6021 309.741 80.3593 309.129C80.302 308.995 80.2447 308.861 80.1874 308.708C80.13 308.575 80.0708 308.422 80.0135 308.288C79.7956 307.715 79.5624 307.141 79.3197 306.587C79.1821 306.224 79.033 305.899 78.882 305.555C78.5246 304.695 78.1653 303.854 77.785 302.994C77.3339 302 76.8848 300.987 76.4223 299.993C75.9598 299 75.4877 298.006 75.0138 297.012C74.3315 295.617 73.6033 294.241 72.8427 292.922C96.0196 288.641 117.522 305.803 135.537 317.997C135.514 318.226 135.503 318.436 135.491 318.666C133.538 318.188 131.589 317.768 129.624 317.347C123.782 316.105 117.857 315.034 111.909 314.155C110.304 313.907 108.689 313.677 107.083 313.467C105.604 313.257 104.136 313.066 102.661 312.894C101.956 312.817 101.251 312.741 100.545 312.645C98.9877 312.473 97.4282 312.301 95.8687 312.149C95.1424 312.072 94.4142 311.996 93.6994 311.938C92.1724 311.785 90.6377 311.652 89.1126 311.537C86.458 311.308 83.8243 311.136 81.1793 310.964H81.076ZM67.1149 284.991L66.918 284.78L66.7441 284.551L66.7116 284.513C64.7239 281.665 61.6068 279.563 59.967 276.428C59.8733 276.18 59.7816 275.951 59.6899 275.721C59.516 275.186 59.4128 274.689 59.365 274.212C59.365 274.059 59.3784 273.906 59.4013 273.753L59.4357 273.543C59.4471 273.409 59.4701 273.294 59.516 273.179V273.16C59.9995 271.383 61.6985 269.969 63.5008 269.09C66.6523 267.58 70.5569 267.79 73.9397 268.115C75.568 268.268 77.2193 268.478 78.882 268.726C80.5218 268.956 82.1731 269.242 83.8129 269.548C84.6328 269.701 85.4527 269.854 86.2611 270.026C88.2124 270.427 90.1294 270.886 92.0004 271.383C95.926 272.453 99.5649 274.039 102.961 276.084C104.844 277.499 106.644 279.047 108.375 280.499C110.143 281.99 111.863 283.519 113.549 285.086C114.323 285.812 115.097 286.539 115.858 287.265C116.448 287.819 117.037 288.412 117.626 288.966L117.637 288.985C117.857 289.195 118.065 289.386 118.285 289.597C121.448 292.693 124.508 295.884 127.684 298.942C128.701 299.936 129.741 300.892 130.767 301.847C131.044 302.115 131.321 302.363 131.598 302.65C132.153 303.166 132.695 303.701 133.238 304.217C133.515 304.485 133.781 304.752 134.047 305.039C134.763 305.746 135.455 306.491 136.114 307.256C136.46 307.638 136.797 308.02 137.12 308.422C137.603 309.072 138.077 309.721 138.551 310.39C137.697 312.072 136.783 313.716 135.849 315.359C117.337 302.421 95.3488 285.507 71.5373 290.762C70.232 288.736 68.7776 286.806 67.1149 284.991ZM162.894 229.585C168.519 229.452 174.143 229.26 179.5 231.114C178.334 232.853 177.18 234.574 176.049 236.313C171.393 243.537 167.295 250.991 163.494 258.616C160.526 249.118 160.56 239.122 162.894 229.585ZM166.462 219.017C167.525 216.551 168.807 214.277 170.193 212.079C170.841 211.811 171.45 211.467 172.098 211.161C179.315 209.938 187.019 209.441 194.155 211.391C189.513 217.01 185.159 222.858 181.037 228.84C175.389 226.776 169.501 226.852 163.551 227.082C164.348 224.349 165.308 221.635 166.462 219.017ZM178.241 200.631C179.731 198.548 181.14 196.407 182.528 194.247L182.803 194.19C190.933 191.534 200.529 192.929 208.59 195.643C207.967 196.254 207.342 196.847 206.742 197.458C203.002 201.223 199.421 205.16 195.99 209.193C188.439 206.9 180.309 207.205 172.572 208.486C174.409 205.848 176.349 203.287 178.241 200.631ZM191.336 179.703C192.827 177.219 194.341 174.753 195.887 172.345H195.956C201.777 172.097 207.574 172.116 213.382 172.728C219.029 173.339 225.151 174.524 229.873 177.868C223.117 182.589 216.732 187.883 210.727 193.578C202.769 190.75 192.944 188.896 184.502 191.094C186.833 187.329 189.085 183.507 191.336 179.703ZM205.471 158.661C206.005 157.992 206.534 157.323 207.056 156.654C207.688 155.833 208.313 155.049 208.948 154.265C210.922 151.838 212.956 149.468 215.079 147.156C215.243 147.079 215.404 146.984 215.555 146.888C215.727 146.888 215.912 146.888 216.107 146.793C223.637 143.792 232.61 146.124 239.884 148.799C247.391 151.532 255.185 155.699 260.67 161.681C256.202 163.286 251.848 165.178 247.611 167.281L247.38 167.09C242.38 163.707 236.987 161.241 231.213 159.502C230.798 159.368 230.428 159.464 230.128 159.655C232.53 161.031 234.898 162.464 237.138 164.07C237.553 164.337 237.967 164.624 238.384 164.892C240.66 165.981 242.875 167.223 245.014 168.618C240.601 170.931 236.318 173.511 232.173 176.301C227.425 172.594 221.315 171.16 215.461 170.339C209.582 169.498 203.497 169.421 197.551 169.784C200.078 165.981 202.712 162.273 205.471 158.661ZM224.7 137.695C227.899 134.943 231.213 132.306 234.632 129.821C245.197 131.943 255.116 135.822 264.24 141.594C267.495 143.639 270.731 145.818 273.8 148.15C276.388 150.118 280.222 152.947 280.812 156.425C274.784 157.4 268.906 158.871 263.201 160.802C257.565 153.94 249.111 149.468 240.949 146.372C234.181 143.811 225.959 141.766 218.626 143.391C220.566 141.441 222.575 139.549 224.7 137.695ZM245.868 122.559C251.26 119.883 256.836 117.437 262.507 115.315H262.784C274.173 114.398 285.338 122.845 292.857 130.567C296.274 134.083 299.634 137.638 302.602 141.537C305.491 145.359 308.804 150.386 308.135 155.393C303.955 155.049 299.739 154.953 295.536 155.068C296.031 144.614 284.115 137.657 276.562 132.726C276.227 132.497 275.87 132.478 275.557 132.554C276.944 133.701 278.202 135.039 279.45 136.377C279.83 136.74 280.212 137.084 280.579 137.466C280.87 137.715 281.147 137.963 281.424 138.211C282.89 139.396 284.333 140.62 285.651 141.976C286.169 142.512 286.689 143.047 287.186 143.601C290.443 146.831 292.822 150.596 292.891 155.164C290.257 155.317 287.626 155.527 285.003 155.833C284.449 155.909 283.906 155.986 283.364 156.062C282.97 152.947 280.396 150.424 278.167 148.379C274.899 145.378 271.1 143.028 267.438 140.581C258.281 134.427 248.131 130.223 237.39 127.891C240.15 125.999 242.969 124.222 245.868 122.559ZM277.533 110.958C279.576 110.633 281.621 110.404 283.675 110.232C287.337 110.002 291.029 110.117 294.751 110.652C305.478 115.449 313.471 124.91 320.282 134.198C325.746 141.652 334.36 150.481 333.701 160.439C326.232 158.031 318.503 156.425 310.697 155.641C311.32 150.577 308.746 145.799 305.998 141.747C302.821 137.046 298.814 132.937 294.854 128.885C288.178 122.024 278.756 114.608 268.755 113.118C271.665 112.181 274.599 111.455 277.533 110.958ZM323.298 122.731C323.713 123.017 324.127 123.304 324.544 123.61C325.549 124.47 326.555 125.368 327.535 126.247C333.4 131.541 339.453 136.874 344.522 142.913C346.947 145.799 348.807 149.01 350.595 152.278C353.091 157.935 354.662 163.993 355.366 170.147C351.949 168.122 348.415 166.325 344.81 164.681C345.873 161.681 345.043 158.145 344.245 155.164C343.159 151.093 341.475 146.812 339.014 143.353L338.794 143.104C339.868 145.302 340.713 147.634 341.313 149.927C341.762 151.647 342.202 153.52 342.293 155.374C342.559 156.865 342.71 158.355 342.754 159.846C342.916 161.222 342.882 162.579 342.479 163.688C340.422 162.828 338.356 162.025 336.242 161.299C337.328 150.768 329.06 141.441 323.135 133.644C317.222 125.846 310.894 117.857 302.741 112.391C310.109 114.627 316.991 118.373 323.298 122.731ZM350.378 116.825C351.406 116.596 352.606 117.207 353.52 117.609C354.985 118.259 356.314 119.1 357.548 120.074C360.067 122.635 362.445 125.234 364.57 128.025C364.65 128.159 364.732 128.273 364.813 128.388C367.515 132.344 369.789 136.625 371.557 141.097C372.666 144.232 373.509 147.462 374.132 150.711C374.248 151.322 374.351 151.953 374.455 152.584C375.229 161.872 372.886 173.702 363.427 175.269L363.288 175.308C362.271 174.6 361.256 173.893 360.228 173.205C359.731 172.88 359.245 172.555 358.75 172.23C361.222 169.899 361.533 165.809 361.705 162.617C361.961 157.878 361.508 153.1 360.897 148.398C360.088 142.225 357.827 136.854 354.951 131.369C353.183 128.006 351.486 124.661 350.286 121.068C350.064 120.399 349.084 117.131 350.378 116.825ZM455.42 258.043C462.497 249.978 467.14 237.937 461.02 228.324C452.903 215.557 436.203 218.787 427.184 228.133C410.012 212.537 398.994 190.406 378.98 178.06C385.345 170.874 385.528 159.693 384.341 150.367C382.782 138.078 377.434 125.884 369.64 116.271C365.033 110.576 355.622 102.205 347.604 105.97C343.773 107.785 340.77 112.334 340.78 116.653C340.78 120.151 342.039 123.266 343.23 126.4C342.27 125.559 341.336 124.757 340.445 123.973C330.86 115.545 321.161 106.868 309.404 101.612C285.026 90.6993 255.048 106.065 234.573 119.272C212.241 133.663 194.258 156.693 180.379 178.977C172.687 191.323 162.674 202.504 156.543 215.71C149.938 229.967 154.454 245.372 155.966 260.126C156 260.413 156.069 260.68 156.151 260.91C151.912 274.288 143.056 285.086 136.854 297.49L136.703 297.471C132.395 297.088 128.401 291.584 125.836 288.603C122.06 284.207 118.631 279.505 114.925 275.052C111.54 270.982 107.278 267.79 102.544 265.439C96.4248 262.4 89.4375 262.592 82.821 261.884C73.0261 260.833 54.7132 259.495 52.1598 272.683C51.2711 277.308 53.6849 281.952 56.0854 285.698C60.0702 291.947 65.4177 297.222 69.4465 303.491C79.0445 318.36 82.4158 336.612 82.9356 354.042C83.121 360.674 82.7388 367.267 81.6188 373.784C80.7645 378.849 79.828 384.105 81.0302 389.169C85.6954 408.874 127.501 372.026 132.684 366.407C138.1 360.521 143.033 353.679 145.965 346.148C156.878 359.813 168.194 373.306 182.065 384.086C197.458 396.05 213.533 406.867 230.613 416.289C242.172 427.011 253.742 439.376 270.949 436.911C279.795 435.649 287.983 432.247 296.287 429.132C305.652 425.597 315.099 423.475 324.972 421.927C344.084 418.946 361.751 415.41 377.966 404.325C389.513 396.432 401.026 384.353 400 369.446C413.775 359.431 424.782 346.817 433.742 332.292C437.635 325.985 441.065 319.277 443.997 312.454C446.157 307.428 448.676 301.197 447.888 295.502C463.988 292.329 467.81 268.096 455.42 258.043Z" fill="black"/>
<path d="M73.94 268.106C75.5697 268.268 77.2191 268.466 78.883 268.719C78.0646 268.611 77.2444 268.502 76.435 268.394C69.6677 268.196 62.4155 268.791 59.9332 272.18C59.7602 272.504 59.6213 272.811 59.5168 273.153C60.0017 271.369 61.6998 269.963 63.5007 269.097C66.6536 267.565 70.5582 267.781 73.94 268.106Z" fill="black"/>
<path d="M59.5164 273.172C59.4804 273.28 59.4462 273.406 59.4336 273.55C59.4462 273.406 59.4696 273.28 59.5164 273.172Z" fill="black"/>
<path d="M58.6458 10.6664C32.7407 10.6664 11.6622 31.7506 11.6622 57.6537V497.023C11.6622 522.946 32.7407 544.011 58.6458 544.011H498.021C523.928 544.011 545.005 522.946 545.005 497.023V57.6537C545.005 31.7506 523.928 10.6664 498.021 10.6664H58.6458ZM498.021 554.671H58.6458C26.8579 554.671 0.996094 528.827 0.996094 497.023V57.6537C0.996094 25.8698 26.8579 0.00610352 58.6458 0.00610352H498.021C529.811 0.00610352 555.671 25.8698 555.671 57.6537V497.023C555.671 528.827 529.811 554.671 498.021 554.671Z" fill="#1B7695"/>
</svg>
