<svg width="556" height="555" viewBox="0 0 556 555" fill="none" xmlns="http://www.w3.org/2000/svg">
<path d="M498.029 549.335H58.6447C29.7529 549.335 6.32959 525.91 6.32959 497.026V57.6401C6.32959 28.7562 29.7529 5.33081 58.6447 5.33081H498.029C526.92 5.33081 550.334 28.7562 550.334 57.6401V497.026C550.334 525.91 526.92 549.335 498.029 549.335Z" fill="white"/>
<path d="M223.029 184.8C225.524 185.116 226.911 187.284 226.803 189.657C226.685 192.159 224.284 194.402 221.71 193.975C220.11 193.697 219.217 192.882 218.11 191.807C217.324 191.028 217.07 189.601 217.217 188.545C217.35 187.451 217.938 186.395 218.816 185.709C219.738 184.967 220.911 184.652 222.069 184.8H222.084C222.403 184.763 222.737 184.763 223.029 184.8Z" fill="white"/>
<path d="M228.777 206.83C236.218 200.426 236.962 187.935 228.137 182.109C224.324 179.577 219.229 178.125 214.577 178.962H214.229C211.256 179.819 208.67 181.327 206.604 183.933C206.31 184.324 205.99 184.789 205.644 185.255C203.27 190.765 203.51 196.256 205.429 201.971C209.923 210.851 220.99 213.532 228.777 206.83ZM234.524 186.856C237.817 193.241 238.83 201.245 233.537 206.551C231.071 210.013 227.444 212.675 223.47 213.923C218.457 215.524 212.256 213.904 207.284 212.899C200.349 211.484 195.937 206.923 193.789 200.408C190.364 190.002 195.816 178.255 206.15 174.737C215.378 171.591 225.709 176.524 232.483 183.207V183.319C232.817 183.672 233.096 184.063 233.377 184.51L233.416 184.547L233.537 184.715L233.604 185.013L233.656 185.087V185.143C233.99 185.683 234.271 186.26 234.524 186.856Z" fill="white"/>
<path d="M303.13 131.154C306.558 132.711 308.73 135.313 309.864 138.864C311.81 144.978 311.691 152.232 308.504 157.796C308.398 158.005 308.384 158.214 308.424 158.404C309.505 158.784 310.451 159.316 311.345 160.037C311.863 160.379 312.33 160.778 312.784 161.196C315.623 163.512 317.543 166.684 318.757 170.292C319.797 173.387 319.797 178.894 317.503 182.046C316.491 183.717 314.811 185.218 313.185 186.205C313.305 186.262 313.424 186.3 313.571 186.319C319.505 186.946 321.664 177.66 321.237 173.425C320.878 169.95 319.33 166.133 316.89 163.208C316.385 161.86 315.023 160.721 313.971 159.847C312.877 158.936 311.81 157.967 310.411 157.625C310.583 156.98 311.21 156.163 311.423 155.556C312.105 153.676 312.41 151.91 312.477 149.897C312.612 146.118 312.105 142.168 311.064 138.541C310.238 135.635 308.61 133.547 306.197 131.762C302.864 129.293 299.224 129.616 295.53 128.343C295.304 128.267 295.145 128.628 295.371 128.742C297.891 129.844 300.583 129.995 303.13 131.154ZM322.851 283.034C321.558 284.078 320.251 285.085 318.89 286.091C317.184 279.824 315.145 273.653 312.543 267.709C306.985 255.005 299.224 243.098 291.091 231.534C292.705 227.963 293.263 224.128 293.597 220.235C294.064 214.728 294.423 209.183 294.518 203.676C294.718 191.902 292.184 180.983 289.556 169.608C287.065 158.765 282.331 148.264 277.877 138.104C275.69 133.148 272.784 128.78 269.678 124.356C266.73 120.178 263.13 116.095 260.424 111.689C272.517 110.607 284.664 110.759 296.411 111.993C315.904 114.082 335.116 119.456 352.211 129.198C369.197 138.845 381.81 153.79 390.73 170.994C398.424 185.787 403.451 202.175 406.13 219.057C408.398 236.11 408.438 253.467 407.384 270.728C407.036 273.881 406.664 277.052 406.183 280.166C405.944 284.002 405.397 287.781 404.423 291.522C404.33 291.864 404.024 292.244 403.61 292.149C403.278 292.073 403.037 291.959 402.838 291.826C402.477 291.693 402.131 291.503 401.797 291.18C401.343 290.744 401.024 290.193 400.783 289.585L400.69 289.3L400.583 289.034L400.597 288.997L400.544 288.788C402.45 283.736 402.596 278.153 400.823 271.45C397.838 260.189 391.09 247.2 379.397 243.402C368.571 239.87 356.37 248.719 348.557 255.024C338.796 262.924 330.838 273.292 322.851 283.034ZM329.678 147.2C333.531 151.15 336.518 155.708 337.105 161.291C337.397 164.12 338.183 168.374 336.184 170.747C335.477 171.583 334.85 172.229 334.343 173.102C335.01 173.482 335.623 173.938 336.17 174.488L336.237 174.526C339.744 177.204 341.491 181.04 342.277 185.408C343.01 189.509 342.904 195.358 340.185 199.004C339.423 200.846 337.957 202.346 336.385 203.695C336.558 203.771 336.77 203.809 336.996 203.695C348.318 198.928 345.318 180.166 336.704 173.957C336.558 173.843 336.411 173.729 336.25 173.634C337.105 172.153 338.557 171.108 339.104 169.342C339.851 166.911 339.157 163.531 338.823 161.082C338.01 155.138 334.545 150.618 330.05 146.82C329.784 146.611 329.436 146.953 329.678 147.2ZM362.023 185.464C362.291 185.958 362.556 186.49 362.798 187.003C365.637 189.509 367.33 192.434 368.305 196.308C368.89 198.662 368.703 201.112 368.143 203.448C368.13 203.448 367.596 204.796 367.023 206.03C366.624 207.227 366.024 208.347 365.264 209.392C367.864 210.911 369.718 202.821 369.89 201.492C370.718 194.997 367.078 189.13 362.038 185.464L362.023 185.255L361.903 185.218L362.023 185.464Z" fill="#F77412"/>
<path d="M399.349 313.417C399.896 309.738 400.549 306.094 400.949 302.397C401.135 300.629 401.55 298.683 401.589 296.807C401.616 296.361 401.642 295.914 401.655 295.468C401.709 295.236 401.762 294.986 401.816 294.753C401.55 302.79 403.682 310.56 405.095 318.454C406.695 327.455 407.534 336.724 408.256 345.833C409.696 363.639 408.922 381.589 406.242 399.252C404.922 407.825 403.536 416.433 401.535 424.881C399.469 433.49 396.002 441.616 391.948 449.457C385.268 462.37 377.028 474.05 365.403 482.587C363.842 473.193 366.935 462.048 368.255 453.547C368.455 452.314 368.642 451.1 368.801 449.867C373.19 447.599 377.508 445.26 380.989 441.705C385.334 437.258 388.749 431.686 391.269 426.042C397.11 412.951 396.629 398.913 396.029 384.911C395.349 368.604 393.895 352.388 396.602 336.189C397.856 328.634 398.242 320.972 399.349 313.417Z" fill="#FED200"/>
<path d="M363.507 328.914C378.626 321.249 394.053 309.885 400.399 293.536L400.612 293.697L400.599 293.769C399.452 301.737 395.573 309.063 391.373 315.817C387.479 322.124 383.132 328.163 378.186 333.685C367.532 345.584 353.958 352.177 338.68 356.108C323.532 360.003 307.892 360.968 293.027 366.096C286.453 368.383 280.092 371.635 274.451 375.709C269.933 378.925 265.346 383.356 263.132 388.573C262.866 388.627 262.612 388.681 262.346 388.734C261.746 388.823 261.119 388.895 260.506 388.984C242.946 391.343 226.118 397.739 208.933 401.992C220.079 388.734 233.345 377.317 249.28 370.098C258.546 365.9 268.385 363.076 278.093 360.093C288.345 356.93 298.612 353.857 308.839 350.641C327.652 344.709 345.893 337.812 363.507 328.914Z" fill="#70CEEF"/>
<path d="M393.793 380.726C394.432 394.666 395.325 408.552 390.62 421.94C388.352 428.367 384.645 434.171 380.232 439.352C377.232 442.859 373.232 445.174 369.126 447.292C370.232 438.195 370.499 428.777 368.179 419.982C365.619 410.297 358.871 400.577 350.566 395.04C348.06 393.366 345.206 391.8 342.179 390.411C344.926 387.028 348.099 384.18 352.072 382.168C356.059 380.121 359.926 378.465 363.499 375.706C371.312 369.652 376.472 362.638 380.98 353.932C385.687 344.853 389.246 335.168 392.406 325.447C394.672 318.504 397.3 311.596 399.393 304.546C399.499 304.386 399.605 304.19 399.7 304.012C399.632 304.315 399.566 304.635 399.513 304.938C398.872 308.534 398.138 312.112 397.565 315.709C396.418 322.83 395.899 330.022 394.633 337.126C392.073 351.564 393.139 366.163 393.793 380.726Z" fill="#70CEEF"/>
<path d="M394.549 166.357C394.696 168.03 394.801 169.702 394.816 171.412C389.761 160.851 383.256 151.756 375.615 143.977C376.908 143.939 378.323 143.582 379.016 143.45C381.762 142.924 384.35 143.3 386.948 143.77C389.256 148.731 391.175 153.899 392.802 159.536C393.469 161.791 394.016 164.065 394.549 166.357Z" fill="#FED200"/>
<path d="M391.735 322.488C388.216 332.897 384.39 343.217 379.417 353.04C377.109 357.605 374.71 361.974 371.39 365.9C368.243 369.63 364.402 372.756 360.535 375.687C356.789 378.529 352.082 379.861 348.082 382.295C345.096 384.107 342.576 386.824 340.416 389.648C337.149 388.281 333.696 387.197 330.256 386.522C329.843 386.185 329.35 385.9 328.71 385.723C321.536 383.876 314.255 383.716 306.949 384.124C293.029 383.609 278.869 385.474 265.442 388.103C268.628 381.762 275.536 376.93 281.416 373.591C288.416 369.595 295.842 366.966 303.615 364.976C319.109 360.98 335.11 360.038 350.269 354.585C363.695 349.772 374.39 341.512 383.202 330.357C387.856 324.46 392.469 317.781 395.817 310.641C394.35 314.566 393.083 318.545 391.735 322.488Z" fill="#FED200"/>
<path d="M377.955 138.273C380.009 138.104 382.102 137.991 384.155 138.179C384.901 139.553 385.608 140.946 386.288 142.339C385.821 142.32 385.422 142.301 385.194 142.282C382.994 142.113 380.888 142 378.769 142.564C378.129 142.734 376.408 143.242 374.968 143.355C373.421 141.793 371.822 140.268 370.182 138.8C372.716 138.951 375.543 138.48 377.955 138.273Z" fill="#5396BC"/>
<path d="M374.164 133.582C376.579 133.319 379.045 133.601 381.473 133.601C382.164 134.732 382.845 135.882 383.486 137.032C382.752 137.032 382.046 137.07 381.446 137.07C379.086 137.089 376.779 137.428 374.419 137.466C372.739 137.522 370.913 138.05 369.258 137.956C367.859 136.749 366.419 135.562 364.952 134.431C368.059 134.732 371.06 133.903 374.164 133.582Z" fill="#70CEEF"/>
<path d="M370.531 118.864C372.584 121.269 374.571 123.751 376.49 126.308C377.918 128.221 379.223 130.134 380.464 132.066C375.13 131.934 369.824 133.07 364.638 134.226C358.078 129.168 350.916 124.868 343.29 121.307C345.078 121.156 346.637 120.739 348.41 120.171C351.651 119.11 354.797 118.599 358.224 118.504C361.436 118.409 364.664 118.542 367.864 118.58C368.771 118.599 369.652 118.731 370.531 118.864Z" fill="#FED200"/>
<path d="M413.603 339.675C414.19 345.23 415.191 350.803 415.843 356.393C417.404 361.109 417.589 366.324 417.484 371.504C417.63 373.719 417.697 375.951 417.777 378.202C419.629 399.028 420.497 419.461 412.043 439.448C407.564 450.057 401.457 460.292 394.697 469.615C391.069 474.617 386.736 478.975 382.39 483.333C381.724 484.012 381.044 484.708 380.363 485.405C377.604 487.637 374.749 489.781 371.829 491.817C371.19 492.067 370.523 492.263 369.843 492.406L369.484 492.174C367.737 490.013 366.603 487.566 365.91 484.94C377.123 476.974 385.15 466.222 391.937 454.094C396.097 446.664 399.618 438.841 402.216 430.714C404.978 422.051 406.203 412.853 407.63 403.922C410.497 386.043 411.751 368.092 410.617 349.999C410.07 341.122 408.977 332.263 407.723 323.457C406.324 313.705 402.909 304.399 402.043 294.558C402.163 294.629 402.297 294.647 402.431 294.701C402.536 294.79 402.67 294.879 402.858 294.879C403.417 294.897 403.951 295.076 404.47 295.272C404.417 296.165 404.403 297.041 404.456 297.934C404.644 303.631 408.018 309.4 409.404 314.884C411.47 322.993 412.697 331.37 413.603 339.675Z" fill="#70CEEF"/>
<path d="M368.973 117.556C365.919 117.195 362.613 117.575 359.547 117.613C356.933 117.632 354.398 117.861 351.866 118.393C348.799 119.02 346.092 120.75 342.999 121.168C336.959 118.374 330.653 115.997 324.105 114.077C326.291 113.583 328.252 112.328 330.371 111.549C333.626 110.37 337.039 109.647 340.411 108.944C344.305 108.146 348.292 107.803 352.225 107.309C354.345 107.043 356.773 107.176 359.052 107.062C362.746 110.37 366.199 113.887 369.478 117.632C369.305 117.613 369.132 117.575 368.973 117.556Z" fill="#FED200"/>
<path d="M362.037 185.458C367.078 189.128 370.718 194.984 369.889 201.489C369.717 202.823 367.864 210.903 365.264 209.402C366.024 208.345 366.624 207.233 367.024 206.029C367.597 204.787 368.131 203.434 368.144 203.434C368.703 201.118 368.891 198.672 368.303 196.318C367.33 192.445 365.636 189.517 362.797 186.997C362.556 186.478 362.289 185.959 362.024 185.458L361.904 185.218L362.024 185.255L362.037 185.458Z" fill="black"/>
<path d="M321.353 111.476C324.939 109.648 328.419 107.667 332.165 106.2C338.485 103.705 345.218 101.743 352.031 101.305C353.993 102.772 355.871 104.314 357.713 105.895C352.711 106.086 347.698 106.734 342.765 107.533C339.352 108.086 335.925 108.886 332.605 109.895C329.352 110.867 326.219 113 322.939 113.743C321.712 113.4 320.486 113.019 319.233 112.714C319.886 112.333 320.566 111.876 321.353 111.476Z" fill="#5396BC"/>
<path d="M350.775 100.346C345.428 100.862 340.2 102.295 335.107 104.073C332.054 105.125 329.107 106.425 326.241 107.916C324.8 108.642 323.401 109.445 322.001 110.229C321.12 110.726 319.522 111.815 318.081 112.446C314.974 111.663 311.868 110.993 308.695 110.42C306.854 110.076 304.975 109.808 303.107 109.521C304.827 108.336 306.468 106.941 308.108 105.736C311.12 103.557 314.001 101.168 317.001 98.9885C322.468 95.0505 328.654 91.667 335.241 90.0039C339.149 92.4316 342.933 95.0124 346.6 97.4401C348.015 98.3768 349.4 99.3516 350.775 100.346Z" fill="#70CEEF"/>
<path d="M336.707 173.944C336.559 173.831 336.413 173.737 336.253 173.624C337.107 172.142 338.56 171.091 339.106 169.326C339.853 166.905 339.161 163.527 338.827 161.068C338.014 155.118 334.547 150.614 330.054 146.804C329.787 146.597 329.44 146.935 329.68 147.198C333.534 151.139 336.52 155.7 337.107 161.293C337.4 164.109 338.186 168.369 336.187 170.734C335.48 171.579 334.853 172.217 334.346 173.099C335.015 173.474 335.626 173.944 336.174 174.469L336.24 174.525C339.746 177.191 341.493 181.038 342.28 185.411C343.014 189.503 342.907 195.359 340.187 199C339.427 200.839 337.959 202.341 336.387 203.692C336.559 203.767 336.773 203.786 337 203.692C348.32 198.925 345.321 180.175 336.707 173.944Z" fill="black"/>
<path d="M315.439 80.6151C317.88 81.4971 320.186 82.7434 322.679 83.5679C323.079 83.683 323.438 83.7213 323.798 83.7213C327.211 85.2935 330.546 87.1534 333.811 89.1283C327.959 90.8348 322.558 93.8833 317.557 97.3921C314.798 99.3478 312.171 101.514 309.531 103.643C307.959 104.889 306.345 106.078 304.759 107.324C303.919 107.957 303.158 108.705 302.358 109.414C300.679 109.184 298.972 108.973 297.266 108.781C297.718 108.014 298.119 107.171 298.359 106.806C299.906 104.563 302.078 102.78 303.852 100.728L303.758 100.633C301.985 102.569 299.799 103.988 297.931 105.79C297.438 106.269 296.039 107.535 295.412 108.59C290.104 108.053 284.745 107.746 279.358 107.708C280.332 106.787 281.118 105.637 282.052 104.64C285.478 100.92 289.451 97.6605 293.705 94.957C301.026 90.2978 307.879 84.9292 315.439 80.6151Z" fill="#FED200"/>
<path d="M290.814 244.897C299.707 253.562 303.12 267.532 306.561 279.031C308.454 285.37 310.321 291.728 311.335 298.304C311.867 301.665 311.842 305.044 311.987 308.441C312.107 311.202 311.694 313.419 310.908 315.726C308.014 313.855 305.267 312.274 302.348 311.275C302.84 308.841 301.974 305.97 301.374 303.681C303.307 302.664 305.294 301.72 307.374 300.957C309.307 300.23 308.588 297.378 306.508 297.814C303.574 298.468 300.815 299.631 298.188 301.102C300.668 293.345 299.627 284.844 298.308 276.905C297.414 271.455 295.934 266.115 294.001 260.937C292.44 256.741 290.947 252.545 287.908 249.148C288.882 247.876 289.921 246.386 290.814 244.897Z" fill="#70CEEF"/>
<path d="M290.432 310.753C293.712 308.332 297.059 306.036 300.619 304.077C300.845 305.804 301.151 307.513 301.125 309.276C301.125 309.899 301.018 310.362 300.845 310.807C298.018 310.077 294.965 309.899 291.365 310.558C291.059 310.611 290.738 310.682 290.432 310.753Z" fill="#FED200"/>
<path d="M241.064 367.703C262.011 356.315 284.651 353.258 307.157 346.59C318.172 343.318 328.823 339.528 339.171 335.059C342.17 333.968 345.144 332.824 348.077 331.573C362.251 325.441 378.063 316.967 388.37 304.899C389.237 304.059 390.09 303.183 390.93 302.271C393.705 299.25 396.277 296.783 397.958 293.869C398.385 293.207 398.784 292.564 399.145 291.885C399.345 292.314 399.597 292.707 399.904 293.082L400.264 293.404C390.957 310.531 375.185 321.24 358.024 329.535C339.398 338.545 320.065 345.178 300.317 351.292C281.798 356.995 262.344 361.536 244.852 370.063C229.411 377.59 216.638 389.496 205.877 402.726C202.97 403.387 200.078 403.977 197.158 404.478C201.585 398.882 206.238 393.447 211.104 388.209C211.491 387.78 211.93 387.387 212.358 386.976C220.798 379.109 230.997 373.192 241.064 367.703Z" fill="#FED200"/>
<path d="M292.878 240.659C296.573 246.499 300.198 252.375 303.665 258.342C308.905 267.31 312.558 276.77 315.279 286.794C315.372 287.158 315.479 287.521 315.572 287.885C315.918 288.704 316.132 289.595 316.305 290.469C318.745 299.019 321.519 308.642 319.212 317.101C319.145 317.738 318.972 318.338 318.597 318.811L318.412 319.084C317.399 319.394 316.065 319.103 314.251 317.92C313.731 317.574 313.225 317.247 312.718 316.901C313.238 315.828 313.691 314.7 313.798 313.518C314.171 309.734 313.891 305.75 313.638 301.966C313.131 294.398 310.906 287.03 308.745 279.808C306.625 272.695 304.279 265.782 301.372 258.942C299.052 253.466 295.932 247.936 291.199 244.225C291.905 242.988 292.505 241.769 292.878 240.659Z" fill="#FED200"/>
<path d="M294.271 73.4715C298.485 74.7788 303.018 75.817 307.392 77.2011C301.338 80.7577 295.644 85.2368 290.378 89.7738C286.923 92.7536 283.83 96.0218 280.723 99.3668C279.164 101.039 277.603 102.712 276.031 104.384C274.924 105.538 273.937 106.884 272.63 107.749C271.951 107.768 271.271 107.806 270.59 107.826C271.311 105.307 271.938 102.904 273.257 100.501C274.923 97.5598 276.684 94.7146 278.165 91.6579L278.044 91.581C276.484 94.5992 274.445 97.2713 272.551 100.097C270.831 102.616 270.098 105.153 269.177 107.883C264.204 108.133 259.231 108.537 254.284 109.19C259.352 101.712 263.256 93.638 269.272 86.7172C272.257 83.2953 275.537 80.0655 279.243 77.4125C282.711 74.9518 286.658 73.8945 290.511 72.3566C291.764 72.7218 293.031 73.087 294.271 73.4715Z" fill="#FED200"/>
<path d="M309.866 138.866C308.732 135.297 306.558 132.71 303.133 131.162C300.586 129.991 297.892 129.84 295.373 128.726C295.146 128.632 295.305 128.254 295.532 128.349C299.225 129.614 302.865 129.274 306.2 131.766C308.613 133.541 310.238 135.618 311.065 138.545C312.106 142.17 312.612 146.116 312.48 149.892C312.413 151.894 312.106 153.669 311.426 155.557C311.213 156.161 310.586 156.973 310.412 157.634C311.813 157.955 312.88 158.937 313.973 159.843C315.025 160.73 316.386 161.863 316.892 163.204C319.332 166.13 320.88 169.945 321.239 173.419C321.665 177.667 319.505 186.938 313.573 186.315C313.426 186.296 313.307 186.258 313.186 186.202C314.813 185.22 316.492 183.728 317.506 182.048C319.8 178.876 319.8 173.381 318.76 170.284C317.545 166.678 315.625 163.506 312.785 161.184C312.332 160.768 311.866 160.372 311.347 160.032C310.452 159.295 309.506 158.767 308.426 158.408C308.386 158.219 308.399 157.993 308.505 157.804C311.692 152.234 311.813 144.983 309.866 138.866Z" fill="black"/>
<path d="M286.759 166.182C289.721 177.002 292.08 188.202 292.414 199.44C292.574 204.907 292.067 210.279 291.786 215.727C291.52 220.359 291.361 225.161 289.681 229.527C285.093 223.054 280.427 216.657 276 210.279C275.241 209.178 273.426 210.184 274.161 211.361C279.681 220.169 285.374 228.882 290.96 237.652C291.266 238.943 290.321 240.765 289.907 241.885C288.827 244.751 286.841 247.39 284.933 249.763C281.921 253.445 276.241 256.957 272.04 254.148C271.494 244.277 268.853 234.311 265.427 226.073C265.081 225.218 263.733 225.522 263.999 226.471C266.721 236.342 268.134 246.574 268.574 256.805C269.134 269.467 263.999 279.831 256.347 289.494C253.001 293.727 249.253 297.618 245.599 301.624C245.307 301.548 244.986 301.491 244.654 301.491C244.4 301.339 244.094 301.244 243.707 301.282C240.081 301.472 235.641 299.972 232.12 299.099C224.027 297.144 216.159 294.562 208.374 291.639C199.12 288.146 190.187 283.647 182.56 277.326C178.239 273.757 173.6 269.524 168.347 267.284L168.027 266.98L167.801 266.79C176.294 259.235 180.466 244.068 180.8 234.785C180.574 233.552 180.054 232.773 178.947 232.356C178.786 232.318 178.627 232.261 178.454 232.223L178.239 232.299C170.707 231.179 165.253 228.085 159.014 223.586C155.054 220.738 151.174 218.081 146.641 216.372C146.24 178.787 169.893 145.795 202.106 128.369C213.253 122.351 225.413 118.023 237.974 115.176C238.266 115.29 238.6 115.233 238.879 114.986C245.734 113.467 252.72 112.423 259.734 111.759C260.533 113.183 261.44 115.024 261.68 115.442C262.974 117.663 264.787 119.694 266.241 121.839C269.081 126.015 272.04 130.134 274.413 134.614C276.934 139.417 278.667 144.694 280.748 149.686C283.001 155.096 285.201 160.525 286.759 166.182ZM191.533 203.521C194.133 209.558 198.027 213.24 204.173 215.575C210.493 217.986 220.466 219.447 226.827 216.562C236.148 212.348 240.827 203.369 240.054 194.39C239.747 192.72 239.293 191.068 238.667 189.512C237.587 186.873 236.066 184.462 234.827 181.919L234.747 181.786L234.68 181.729C227.44 172.826 214.16 168.707 203.253 172.427C191.334 176.471 186.893 192.72 191.533 203.521Z" fill="#FED200"/>
<path d="M296.183 274.773C297.902 283.441 299.29 293.832 295.835 302.283L295.77 302.301C295.703 302.573 295.489 302.791 295.17 302.863L295.142 302.954C290.21 306.218 285.649 310.353 281.102 313.962C278.915 314.959 276.756 316.083 274.623 317.262C275.637 311.967 277.555 307.234 279.822 302.12C282.169 296.861 285.023 291.565 286.182 285.871C287.33 280.213 287.903 274.936 287.129 269.169C286.73 266.177 286.115 263.239 285.437 260.301C284.956 258.143 284.929 255.731 283.81 253.809C284.144 253.537 284.476 253.247 284.782 252.957C285.21 252.522 286.169 251.415 287.288 249.983C289.849 253.356 291.144 257.4 292.529 261.353C294.063 265.76 295.262 270.203 296.183 274.773Z" fill="#FED200"/>
<path d="M283.157 254.308C283.877 256.336 283.904 258.509 284.33 260.609C284.984 263.923 285.478 267.255 285.837 270.605C286.463 276.744 285.464 282.991 283.571 288.822C281.61 294.815 278.411 300.483 275.932 306.278C274.157 310.37 273.051 314.246 272.397 318.483C269.625 320.04 266.917 321.634 264.344 323.028C261.691 324.44 257.811 326.233 253.704 327.591C252.838 322.412 256.598 316.129 259.278 312.236C261.264 309.356 263.611 306.749 265.637 303.888C267.864 300.755 269.824 297.441 271.957 294.218C275.49 288.894 277.971 283.534 279.278 277.251C280.73 270.134 279.917 263.47 279.012 256.39C280.464 255.974 281.878 255.231 283.157 254.308Z" fill="#70CEEF"/>
<path d="M313.611 79.889C306.772 83.8039 300.706 89.0239 294.066 93.2458C290.784 95.3376 287.798 97.6404 284.933 100.27C283.518 101.575 282.198 102.995 280.958 104.472C280.104 105.489 279.452 106.698 278.546 107.696C276.811 107.677 275.052 107.696 273.305 107.754C274.464 107.025 275.466 106.027 276.571 104.933C280.131 101.363 283.626 97.7556 287.199 94.2054C293.478 87.9492 301.412 82.1152 309.305 77.8549C310.491 78.2771 311.652 78.7377 312.784 79.2367C313.013 79.4861 313.291 79.6971 313.611 79.889Z" fill="#70CEEF"/>
<path d="M272.101 255.677C274.009 256.98 276.367 257.125 278.675 256.51C278.501 260.003 278.941 263.46 278.849 266.971C278.728 271.116 278.062 275.243 277.048 279.279C275.234 286.501 270.767 292.347 266.861 298.537C263.062 304.546 257.355 309.669 254.449 316.221C252.876 319.786 250.914 324.203 251.716 328.203C245.022 330.121 238.182 330.556 235.475 326.139C234.955 316.329 245.035 307.985 251.021 301.216C256.995 294.447 262.834 287.732 267.182 279.786C271.06 272.673 272.382 264.238 272.101 255.677Z" fill="#FED200"/>
<path d="M272.329 69.0529C272.822 69.1106 273.303 69.1684 273.768 69.2262C277.862 69.7073 281.915 70.3808 285.943 71.1698C286.581 71.3238 287.236 71.4969 287.888 71.6701C284.955 72.7093 282.088 73.8064 279.409 75.5384C275.489 78.0594 272.288 81.4465 269.155 84.8335C265.701 88.567 262.795 92.82 260.114 97.1116C258.781 99.267 257.541 101.442 256.288 103.636C255.661 104.733 255.076 105.83 254.489 106.946C254.354 107.177 253.594 108.389 252.969 109.39C251.088 109.64 249.222 109.967 247.355 110.294C247.915 107.735 248.594 105.194 249.741 102.846C250.809 100.653 252.114 98.6898 252.888 96.3612C252.928 96.2457 252.715 96.1495 252.649 96.2649C251.554 98.786 249.836 100.922 248.408 103.251C247.128 105.387 246.289 108.062 245.769 110.564C243.662 110.949 241.582 111.353 239.501 111.815C240.142 109.775 241.408 107.735 242.301 106.003C244.022 102.673 246.503 99.7481 248.034 96.3418C250.634 90.5491 255.915 87.0466 259.275 81.8698V81.8506C257.355 84.7565 254.102 86.8735 251.595 89.2406C248.981 91.7039 247.596 94.8022 245.702 97.7851C243.649 101.018 241.435 104.059 239.742 107.504C238.982 109.043 238.116 110.583 237.688 112.257C233.701 113.181 229.742 114.239 225.849 115.49C226.409 114.008 226.929 112.546 227.475 111.064C228.609 107.966 230.527 105.137 232.248 102.346C235.475 97.0924 239.247 92.3197 243.448 87.8164C251.408 79.2141 261.128 72.6132 272.329 69.0529Z" fill="#5396BC"/>
<path d="M232.05 302.608C235.317 303.431 239.329 304.719 242.809 304.754C241.584 306.168 240.371 307.617 239.222 309.102C238.183 309.048 237.224 309.37 236.263 309.818C235.903 309.996 235.476 310.193 235.023 310.444C234.463 310.515 233.903 310.676 233.343 310.837C233.13 310.909 232.93 310.98 232.717 311.034C232.436 311.052 232.143 311.088 231.837 311.159C230.651 311.463 229.45 311.732 228.262 312C218.877 313.181 209.823 316.079 200.636 318.602C197.836 319.371 195.024 319.89 192.117 319.997C191.757 319.997 191.423 319.997 191.09 319.979C188.637 319.371 186.637 318.011 185.277 316.061C184.104 313.664 183.93 310.569 184.329 307.867C185.41 300.604 191.491 294.825 196.384 289.798C200.022 291.623 203.797 293.233 207.517 294.718C215.544 297.867 223.69 300.514 232.05 302.608Z" fill="#70CEEF"/>
<path d="M225.625 86.2184L225.598 86.1798C221.466 91.7447 216.357 96.4815 212.905 102.528C211.185 105.512 209.853 108.747 208.746 112.002C207.558 115.429 206.293 119.415 206.599 123.054C203.945 124.325 201.319 125.654 198.758 127.079C205.131 106.706 214.798 81.2119 234.652 70.3902C236.291 69.5045 238.064 68.8113 239.892 68.3107C241.784 67.9448 243.758 67.7136 245.892 67.5788C250.091 67.3285 254.331 67.2707 258.558 67.3863C257.599 67.9639 256.638 68.5994 255.652 69.1193C253.039 70.4864 250.652 72.0847 248.439 74.0103C243.371 78.4583 238.532 83.3878 234.159 88.5291C230.212 93.2082 227.158 98.5611 224.32 103.953C222.051 108.266 218.945 112.656 219.186 117.72C215.518 119.088 211.919 120.57 208.413 122.188C208.359 118.934 209.439 115.525 210.305 112.444C211.291 108.882 212.905 105.435 214.599 102.143C217.584 96.4044 222.332 91.764 225.625 86.2184Z" fill="#70CEEF"/>
<path d="M225.043 115.711C223.31 116.27 221.575 116.866 219.856 117.482C220.79 112.765 223.002 108.722 225.47 104.621C228.589 99.4418 231.323 94.2435 235.19 89.5263C238.896 84.9825 243.243 80.8044 247.537 76.7996C249.949 74.5469 252.497 72.6985 255.323 70.985C256.122 70.5229 259.695 68.7516 261.243 67.5964C263.883 67.9045 266.482 68.2511 268.989 68.5976C258.802 72.5254 250.044 78.879 242.537 86.8692C238.243 91.4516 234.55 96.3999 231.256 101.752C229.71 104.275 228.016 106.854 226.962 109.627C226.362 111.187 225.857 112.727 225.376 114.325C225.324 114.537 225.189 115.134 225.043 115.711Z" fill="#FED200"/>
<path d="M216.705 206.835C214.025 206.186 211.519 204.553 209.571 202.234C203.171 196.836 205.104 183.554 214.051 182.664C215.665 182.219 217.477 182.237 219.224 182.497C215.13 184.055 212.223 188.804 211.812 193.479C211.491 197.022 213.411 203.607 216.705 206.835Z" fill="#427295"/>
<path d="M205.421 201.983C203.502 196.281 203.263 190.782 205.635 185.265C205.982 184.801 206.302 184.336 206.595 183.946C208.662 181.346 211.248 179.841 214.222 178.968L214.569 178.987C219.223 178.132 224.316 179.6 228.128 182.126C236.955 187.94 236.208 200.441 228.769 206.85C220.982 213.556 209.914 210.862 205.421 201.983ZM214.049 182.665C205.102 183.556 203.168 196.838 209.569 202.243C211.516 204.547 214.021 206.2 216.702 206.831C213.408 203.618 211.488 197.024 211.809 193.494C212.222 188.813 215.129 184.058 219.223 182.497C217.475 182.237 215.662 182.219 214.049 182.665ZM218.808 185.711C217.928 186.417 217.343 187.457 217.209 188.572C217.062 189.612 217.315 191.042 218.102 191.822C219.21 192.9 220.101 193.717 221.702 193.996C224.275 194.423 226.675 192.175 226.796 189.668C226.902 187.308 225.516 185.135 223.021 184.819C222.728 184.782 222.395 184.782 222.076 184.819H222.063C220.902 184.671 219.728 184.987 218.808 185.711Z" fill="black"/>
<path d="M194.693 113.813C194.333 106.457 194.519 99.0822 196.331 91.938C197.839 85.9877 199.613 79.344 203.892 74.7224C206.385 72.0458 209.624 70.1779 211.506 67.0969C214.465 67.405 217.132 68.079 219.851 69.6002C217.279 73.9908 212.44 77.5533 209.118 81.3854C205.318 85.7566 202.451 90.5707 200.025 95.847C198.413 99.3325 197.306 102.856 196.518 106.4C195.798 108.653 195.199 110.964 194.745 113.313C194.72 113.486 194.72 113.64 194.693 113.813Z" fill="#FED200"/>
<path d="M193.306 130.28C191.307 116.972 185.918 104.896 189.452 91.1455C191.118 84.6167 194.839 78.6849 198.506 73.0997C201.147 69.0746 203.625 66.7056 208.973 66.9175C209.532 66.9367 210.079 66.956 210.626 67.0138C207.879 70.2108 204.066 72.1945 201.547 75.6611C198.067 80.4759 196.426 85.8684 194.812 91.5113C193.133 97.3276 193.079 103.413 192.959 109.422C192.813 116.124 193.065 123.019 194.4 129.625C194.026 129.837 193.653 130.068 193.306 130.28Z" fill="#FED200"/>
<path d="M240.058 194.396C240.83 203.358 236.151 212.339 226.83 216.551C220.471 219.439 210.496 217.967 204.178 215.563C198.031 213.215 194.136 209.563 191.537 203.507C186.897 192.719 191.338 176.452 203.257 172.408C214.163 168.7 227.443 172.818 234.684 181.725L234.751 181.781L234.83 181.911C236.071 184.464 237.589 186.868 238.67 189.514C239.296 191.06 239.751 192.7 240.058 194.396ZM233.536 206.544C238.83 201.234 237.817 193.24 234.524 186.849C234.271 186.271 233.991 185.694 233.658 185.135V185.079L233.604 185.004L233.536 184.725L233.417 184.557L233.376 184.501C233.097 184.054 232.817 183.663 232.484 183.309V183.216C225.71 176.526 215.376 171.588 206.151 174.737C195.817 178.241 190.363 189.998 193.79 200.395C195.936 206.917 200.351 211.482 207.284 212.898C212.257 213.886 218.456 215.526 223.471 213.923C227.443 212.675 231.069 210.029 233.536 206.544Z" fill="black"/>
<path d="M161.491 228.814C166.117 231.967 170.81 233.838 176.144 234.094C173.451 236.368 170.757 238.33 167.211 239.521C162.945 240.933 157.397 240.218 152.97 239.925C143.972 239.338 137.118 234.699 136.397 225.128C136.344 224.468 136.344 223.863 136.385 223.332C136.704 221.26 137.717 219.61 139.544 218.418C143.438 217.318 149.743 220.875 151.637 221.993C155.064 224.047 158.198 226.577 161.491 228.814Z" fill="#F77412"/>
<path d="M308.102 105.75C306.461 106.947 304.821 108.357 303.103 109.535C304.968 109.805 306.849 110.095 308.687 110.423C311.862 111.002 314.969 111.678 318.075 112.451C319.515 111.814 321.114 110.732 321.995 110.249C323.395 109.457 324.795 108.666 326.236 107.932C329.101 106.445 332.048 105.151 335.101 104.089C340.196 102.293 345.421 100.883 350.769 100.362C349.396 99.3578 348.009 98.3921 346.596 97.4459C342.928 95.0126 339.141 92.4442 335.235 90.011C328.65 91.6718 322.462 95.0514 316.995 99.0102C313.994 101.192 311.115 103.568 308.102 105.75ZM293.022 366.105C307.888 360.988 323.528 360.022 338.676 356.102C353.955 352.182 367.529 345.597 378.181 333.701C383.129 328.158 387.476 322.133 391.369 315.818C395.569 309.059 399.449 301.741 400.594 293.784L400.607 293.688L400.395 293.552C394.049 309.89 378.622 321.245 363.503 328.912C345.889 337.814 327.649 344.728 308.836 350.637C298.609 353.862 288.343 356.952 278.089 360.099C268.383 363.073 258.542 365.912 249.276 370.103C233.342 377.325 220.075 388.738 208.929 402.005C226.116 397.737 242.942 391.364 260.502 388.989C261.116 388.893 261.742 388.835 262.342 388.757C262.609 388.699 262.862 388.622 263.128 388.584C265.341 383.37 269.928 378.928 274.448 375.703C280.089 371.648 286.448 368.384 293.022 366.105ZM303.848 100.729C302.075 102.795 299.903 104.572 298.356 106.812C298.114 107.159 297.715 108.029 297.261 108.782C298.968 108.975 300.675 109.187 302.355 109.419C303.155 108.704 303.916 107.971 304.756 107.314C306.341 106.078 307.956 104.9 309.529 103.645C312.169 101.521 314.796 99.3577 317.555 97.4072C322.555 93.8925 327.954 90.8414 333.808 89.142C330.542 87.1529 327.209 85.299 323.795 83.7348C323.436 83.7348 323.074 83.6963 322.675 83.5611C320.181 82.7501 317.876 81.4948 315.435 80.6258C307.874 84.9322 301.021 90.3008 293.702 94.9548C289.448 97.6584 285.475 100.941 282.049 104.63C281.115 105.634 280.329 106.793 279.355 107.7C284.741 107.758 290.102 108.067 295.409 108.589C296.035 107.546 297.435 106.271 297.929 105.788C299.794 103.992 301.983 102.563 303.755 100.632L303.848 100.729ZM291.089 231.544C299.221 243.092 306.982 255.007 312.542 267.714C315.141 273.643 317.182 279.822 318.888 286.098C320.249 285.075 321.555 284.071 322.848 283.047C330.836 273.295 338.796 262.925 348.556 255.026C356.369 248.712 368.568 239.867 379.394 243.401C391.089 247.205 397.834 260.183 400.822 271.46C402.595 278.161 402.448 283.742 400.542 288.802L400.594 289.014L400.58 289.034L400.688 289.304L400.781 289.574C401.021 290.192 401.341 290.752 401.795 291.177C402.127 291.506 402.475 291.699 402.834 291.834C403.035 291.969 403.274 292.065 403.608 292.162C404.022 292.259 404.329 291.872 404.421 291.525C405.395 287.778 405.941 283.993 406.183 280.17C406.662 277.041 407.034 273.893 407.382 270.726C408.434 253.462 408.396 236.101 406.128 219.069C403.448 202.171 398.421 185.776 390.728 170.983C381.808 153.796 369.196 138.849 352.209 129.194C335.115 119.461 315.902 114.092 296.409 112.007C284.662 110.771 272.515 110.616 260.423 111.698C263.128 116.101 266.728 120.175 269.675 124.366C272.782 128.788 275.688 133.153 277.876 138.116C282.329 148.254 287.063 158.779 289.556 169.612C292.182 180.987 294.716 191.917 294.515 203.678C294.422 209.181 294.061 214.743 293.596 220.227C293.261 224.128 292.701 227.971 291.089 231.544ZM300.316 351.293C320.062 345.191 339.394 338.548 358.022 329.549C375.182 321.245 390.956 310.527 400.262 293.417L399.901 293.089C399.595 292.703 399.343 292.317 399.142 291.892C398.781 292.568 398.381 293.205 397.954 293.862C396.276 296.797 393.702 299.249 390.929 302.281C390.089 303.189 389.235 304.058 388.368 304.908C378.061 316.958 362.247 325.455 348.075 331.577C345.141 332.832 342.167 333.971 339.168 335.072C328.821 339.533 318.169 343.318 307.154 346.582C284.649 353.263 262.008 356.314 241.061 367.708C230.996 373.192 220.796 379.121 212.355 386.981C211.928 387.406 211.488 387.792 211.101 388.217C206.235 393.45 201.581 398.877 197.155 404.477C200.077 403.975 202.969 403.395 205.876 402.719C216.636 389.491 229.409 377.595 244.848 370.064C262.342 361.548 281.794 357.01 300.316 351.293ZM306.555 279.05C303.114 267.54 299.702 253.578 290.809 244.907C289.915 246.394 288.876 247.881 287.903 249.156C290.942 252.555 292.435 256.745 293.995 260.955C295.928 266.13 297.41 271.46 298.302 276.925C299.621 284.862 300.662 293.359 298.182 301.103C300.808 299.636 303.568 298.477 306.501 297.84C308.581 297.395 309.302 300.234 307.368 300.968C305.289 301.741 303.301 302.667 301.368 303.691C301.969 305.989 302.836 308.866 302.342 311.3C305.262 312.285 308.01 313.868 310.902 315.722C311.688 313.424 312.102 311.203 311.982 308.442C311.835 305.062 311.862 301.663 311.329 298.303C310.315 291.737 308.448 285.384 306.555 279.05ZM294.061 93.2553C300.702 89.0261 306.768 83.8122 313.608 79.892C313.287 79.7182 313.009 79.4864 312.781 79.2353C311.648 78.7525 310.489 78.2892 309.301 77.8643C301.409 82.1321 293.476 87.964 287.196 94.2209C283.621 97.7548 280.128 101.385 276.569 104.939C275.462 106.039 274.462 107.044 273.301 107.758C275.049 107.7 276.808 107.681 278.542 107.7C279.448 106.715 280.103 105.499 280.954 104.475C282.196 103.008 283.515 101.579 284.929 100.265C287.794 97.6391 290.782 95.3409 294.061 93.2553ZM350.261 354.596C335.101 360.042 319.102 361.007 303.609 364.985C295.836 366.994 288.409 369.62 281.408 373.598C275.528 376.939 268.622 381.786 265.436 388.12C278.861 385.474 293.022 383.64 306.942 384.142C314.249 383.737 321.527 383.891 328.702 385.745C329.343 385.919 329.835 386.189 330.249 386.537C333.688 387.193 337.143 388.294 340.408 389.665C342.569 386.826 345.087 384.123 348.075 382.307C352.076 379.874 356.782 378.542 360.529 375.703C364.395 372.768 368.236 369.639 371.382 365.912C374.701 361.992 377.102 357.608 379.409 353.051C384.382 343.221 388.207 332.909 391.728 322.5C393.074 318.561 394.341 314.583 395.809 310.662C392.462 317.788 387.848 324.47 383.194 330.379C374.383 341.522 363.688 349.787 350.261 354.596ZM301.368 258.947C304.275 265.783 306.621 272.696 308.741 279.803C310.902 287.025 313.129 294.402 313.635 301.972C313.888 305.757 314.168 309.735 313.795 313.52C313.689 314.698 313.235 315.818 312.716 316.919C313.222 317.247 313.728 317.576 314.249 317.923C316.062 319.101 317.395 319.391 318.409 319.101L318.594 318.812C318.969 318.348 319.143 317.75 319.208 317.112C321.516 308.654 318.743 299.037 316.302 290.482C316.128 289.594 315.916 288.725 315.568 287.894C315.475 287.527 315.369 287.16 315.275 286.794C312.555 276.771 308.902 267.328 303.663 258.348C300.194 252.381 296.568 246.51 292.875 240.659C292.503 241.779 291.902 242.996 291.195 244.231C295.928 247.959 299.049 253.481 301.368 258.947ZM307.382 77.2076C303.008 75.8365 298.476 74.7938 294.262 73.4806C293.022 73.0944 291.755 72.7274 290.502 72.3798C286.649 73.9054 282.702 74.9676 279.236 77.4394C275.528 80.0851 272.249 83.31 269.261 86.7281C263.248 93.6609 259.343 101.733 254.276 109.207C259.221 108.55 264.196 108.144 269.169 107.913C270.088 105.17 270.822 102.641 272.542 100.111C274.435 97.2914 276.476 94.6071 278.034 91.5946L278.154 91.6719C276.675 94.7231 274.916 97.5811 273.249 100.516C271.928 102.93 271.303 105.325 270.582 107.855C271.262 107.816 271.942 107.778 272.622 107.758C273.929 106.909 274.916 105.557 276.022 104.398C277.594 102.737 279.155 101.057 280.715 99.377C283.822 96.0362 286.916 92.7726 290.369 89.7987C295.635 85.2605 301.328 80.7802 307.382 77.2076ZM321.342 111.485C320.554 111.891 319.874 112.354 319.222 112.74C320.475 113.049 321.701 113.416 322.928 113.764C326.209 113.03 329.343 110.887 332.595 109.921C335.914 108.917 339.342 108.106 342.754 107.546C347.689 106.754 352.702 106.097 357.702 105.924C355.861 104.34 353.982 102.795 352.022 101.328C345.209 101.752 338.475 103.722 332.154 106.213C328.408 107.681 324.928 109.67 321.342 111.485ZM295.836 302.281C299.289 293.823 297.902 283.453 296.181 274.763C295.262 270.205 294.061 265.744 292.528 261.341C291.141 257.402 289.849 253.366 287.289 249.986C286.168 251.415 285.209 252.535 284.782 252.941C284.475 253.25 284.143 253.539 283.809 253.81C284.929 255.741 284.956 258.135 285.435 260.298C286.114 263.234 286.729 266.169 287.128 269.162C287.903 274.936 287.329 280.228 286.182 285.886C285.021 291.563 282.169 296.855 279.821 302.127C277.556 307.225 275.636 311.976 274.622 317.248C276.754 316.089 278.915 314.969 281.101 313.965C285.649 310.353 290.208 306.221 295.142 302.957L295.169 302.861C295.488 302.803 295.702 302.571 295.768 302.3L295.836 302.281ZM300.609 304.097C297.048 306.047 293.702 308.345 290.421 310.759C290.728 310.701 291.048 310.624 291.355 310.566C294.955 309.909 298.008 310.083 300.835 310.836C301.009 310.392 301.115 309.909 301.115 309.291C301.142 307.534 300.835 305.835 300.609 304.097ZM227.476 111.06C226.929 112.528 226.409 114.015 225.849 115.483C229.743 114.247 233.701 113.185 237.689 112.258C238.116 110.597 238.983 109.033 239.742 107.507C241.436 104.07 243.649 101.018 245.702 97.7935C247.596 94.8002 248.983 91.7104 251.595 89.2386C254.102 86.8826 257.356 84.7583 259.276 81.8616C255.915 87.037 250.636 90.5517 248.036 96.3451C246.503 99.7632 244.021 102.679 242.303 106.02C241.409 107.739 240.142 109.786 239.503 111.814C241.582 111.35 243.662 110.945 245.769 110.558C246.289 108.048 247.129 105.383 248.409 103.259C249.836 100.922 251.555 98.7978 252.65 96.268C252.715 96.1328 252.928 96.2293 252.889 96.3645C252.115 98.7012 250.809 100.652 249.741 102.834C248.594 105.19 247.915 107.739 247.355 110.288C249.222 109.96 251.089 109.651 252.968 109.38C253.596 108.376 254.355 107.16 254.488 106.947C255.075 105.846 255.662 104.726 256.288 103.625C257.541 101.443 258.781 99.2611 260.116 97.1176C262.796 92.8111 265.702 88.582 269.155 84.8356C272.287 81.4368 275.489 78.0573 279.409 75.5275C282.088 73.8088 284.956 72.7081 287.889 71.6653C287.234 71.4915 286.582 71.3177 285.943 71.1632C281.914 70.3908 277.863 69.7149 273.769 69.2321C273.301 69.1742 272.822 69.0968 272.328 69.0582C261.129 72.6115 251.408 79.2161 243.448 87.8096C239.248 92.3285 235.476 97.0984 232.249 102.351C230.529 105.151 228.609 107.951 227.476 111.06ZM237.969 115.193C225.409 118.032 213.249 122.358 202.102 128.383C169.889 145.801 146.237 178.785 146.636 216.384C151.169 218.084 155.048 220.749 159.009 223.607C165.249 228.106 170.702 231.196 178.236 232.316L178.448 232.22C178.622 232.278 178.782 232.336 178.942 232.374C180.049 232.78 180.568 233.572 180.796 234.788C180.462 244.077 176.289 259.236 167.796 266.806L168.022 266.98L168.342 267.308C173.595 269.529 178.235 273.778 182.555 277.35C190.183 283.665 199.115 288.145 208.369 291.641C216.155 294.576 224.023 297.144 232.116 299.114C235.635 299.964 240.076 301.489 243.703 301.277C244.089 301.258 244.396 301.354 244.649 301.49C244.983 301.49 245.302 301.547 245.595 301.625C249.249 297.627 252.995 293.726 256.342 289.517C263.995 279.822 269.128 269.471 268.568 256.803C268.128 246.587 266.716 236.352 263.995 226.484C263.729 225.538 265.075 225.229 265.422 226.079C268.848 234.305 271.488 244.289 272.034 254.157C276.235 256.958 281.914 253.462 284.929 249.774C286.835 247.398 288.822 244.772 289.901 241.895C290.315 240.775 291.261 238.959 290.956 237.646C285.369 228.898 279.676 220.169 274.155 211.383C273.421 210.205 275.234 209.181 275.995 210.301C280.421 216.674 285.089 223.066 289.675 229.535C291.355 225.171 291.516 220.363 291.782 215.728C292.062 210.301 292.568 204.913 292.408 199.448C292.076 188.228 289.716 177.009 286.755 166.175C285.195 160.536 282.996 155.11 280.742 149.702C278.662 144.701 276.928 139.429 274.408 134.62C272.034 130.14 269.076 126.027 266.235 121.836C264.781 119.712 262.968 117.665 261.676 115.444C261.434 115.039 260.529 113.185 259.729 111.775C252.715 112.432 245.729 113.474 238.875 115C238.595 115.251 238.263 115.29 237.969 115.193ZM225.369 114.343C225.85 112.74 226.355 111.196 226.956 109.651C228.008 106.87 229.702 104.282 231.249 101.772C234.541 96.4225 238.236 91.4593 242.529 86.8825C250.035 78.8876 258.795 72.5343 268.981 68.6141C266.475 68.2665 263.875 67.9189 261.236 67.6099C259.689 68.7686 256.114 70.526 255.315 71.0088C252.488 72.7082 249.942 74.562 247.528 76.8214C243.236 80.8188 238.888 85.0095 235.183 89.5477C231.317 94.2596 228.582 99.4543 225.461 104.63C222.995 108.743 220.782 112.779 219.849 117.51C221.568 116.873 223.302 116.275 225.035 115.715C225.183 115.154 225.317 114.556 225.369 114.343ZM225.595 86.1874L225.622 86.2261C222.329 91.7877 217.582 96.4031 214.595 102.158C212.901 105.441 211.289 108.898 210.302 112.451C209.435 115.541 208.355 118.94 208.409 122.184C211.914 120.562 215.516 119.094 219.183 117.723C218.942 112.663 222.049 108.28 224.316 103.973C227.155 98.5852 230.208 93.2168 234.155 88.5434C238.529 83.3873 243.369 78.4629 248.436 74.0213C250.649 72.0901 253.036 70.4873 255.649 69.1355C256.636 68.5948 257.595 67.9767 258.555 67.3781C254.328 67.2815 250.089 67.3396 245.889 67.5906C243.755 67.7258 241.781 67.9575 239.889 68.3244C238.062 68.8265 236.289 69.5024 234.65 70.41C214.796 81.2244 205.128 106.696 198.756 127.089C201.316 125.66 203.943 124.327 206.596 123.053C206.289 119.422 207.556 115.425 208.742 112.026C209.848 108.762 211.183 105.518 212.901 102.544C216.356 96.4804 221.462 91.7491 225.595 86.1874ZM189.716 411.95C187.449 411.97 185.315 409.826 186.889 407.335C207.208 375.162 240.995 354.731 276.928 344.245C296.249 338.606 315.848 334.435 335.036 328.197C351.781 322.732 373.075 312.709 383.942 298.168C384.287 297.685 384.716 297.318 385.168 297.048L385.382 296.778C389.075 292.529 394.835 287.798 394.542 281.637C394.248 275.844 392.448 270.031 389.874 264.856C387.794 260.704 385.048 254.563 380.742 252.304C375.487 249.561 369.835 250.392 364.715 253.076C348.276 261.689 338.475 276.925 325.703 289.671C328.234 299.385 334.196 321.245 323.528 327.502C319.143 330.07 313.874 327.463 310.234 324.798C307.249 322.616 303.728 319.237 300.036 318.387C295.222 317.267 291.635 318.522 287.209 320.299C273.742 325.687 260.088 337.505 244.916 337.428C239.128 337.389 232.956 336.269 229.076 331.634C226.168 328.158 226.875 323.929 227.875 319.893C224.142 320.685 220.409 321.419 216.729 322.384C211.569 323.697 206.501 325.918 201.289 326.942C194.621 328.255 187.316 328.448 182.036 323.446C171.169 313.211 177.635 298.013 186.702 288.899C183.156 286.755 179.315 285.075 176.076 282.448C172.409 279.494 168.555 276.443 165.142 273.102C157.076 277.447 145.076 274.82 139.729 267.444C134.422 260.144 136.075 251.666 141.169 245.004C127.715 239.384 124.036 215.38 138.862 210.746C138.983 210.552 139.115 210.379 139.261 210.205C140.81 194.601 145.65 181.161 152.21 167.198C154.17 163.761 156.168 160.343 158.289 157.002C159.21 155.554 160.208 154.144 161.263 152.773C163.063 150.745 164.996 148.795 167.035 146.902C167.902 146.188 168.756 145.415 169.569 144.623C172.622 142.016 175.796 139.641 178.996 137.15C180.902 135.644 183.316 133.713 184.448 131.337C184.622 131.221 184.769 131.067 184.823 130.816C184.956 130.41 185.022 129.966 185.035 129.541L185.089 129.503L185.062 129.232L185.076 128.885C185.076 128.75 185.022 128.634 184.983 128.537C184.676 121.064 182.088 114.44 180.688 107.198C179.595 101.598 180.022 96.3838 181.236 90.8221C182.835 83.5417 185.581 77.6132 189.463 72.1288C190.502 70.2749 191.755 68.4595 192.81 66.8953C193.756 65.4856 194.835 64.0759 196.342 63.4C202.635 58.4756 209.448 58.186 217.155 59.673C221.103 60.4261 225.235 62.0675 227.128 65.2538C239.248 58.3018 255.181 58.7461 268.663 60.4841C277.888 61.6814 287.503 63.0332 296.301 66.0844C303.995 68.7107 312.275 69.9273 319.515 73.7703C319.969 74.002 320.328 74.2915 320.622 74.6198C332.127 77.9414 343.208 85.2605 352.715 92.0195C363.914 100.014 373.595 109.168 381.821 120.195C390.581 131.917 396.649 143.272 400.542 157.427C402.542 164.669 403.701 172.104 405.702 179.365C407.276 185.158 408.82 190.797 409.075 196.841L409.062 197.073C416.155 221.734 416.661 248.19 414.861 273.623C414.595 277.447 414.26 281.309 413.554 285.075C412.768 289.304 411.049 294.595 412.328 298.883C414.288 305.371 416.634 311.493 417.955 318.174C419.529 326.111 420.728 334.048 421.541 342.12C421.927 345.886 422.514 349.633 423.049 353.379C423.941 359.134 424.795 364.927 425.262 370.74C425.542 373.386 425.741 376.05 425.915 378.715C426.114 381.651 426.208 384.567 426.274 387.483C427.168 395.613 427.769 403.743 427.035 411.699C425.782 425.275 421.794 438.214 415.541 450.283C409.369 462.198 402.409 474.133 393.008 483.808C386.114 490.876 378.154 501.13 367.261 500.454C366.382 500.416 365.662 500.126 365.102 499.701H365.075C364.155 499.624 363.342 498.948 362.636 498.33C361.475 496.244 360.594 494.101 359.915 491.938C352.729 476.547 360.942 455.594 361.649 439.72C362.209 427.341 360.301 415.098 351.234 405.79C345.168 399.591 335.368 395.111 326.263 392.987C325.662 392.851 325.089 392.716 324.488 392.6H324.447C313.276 390.457 301.689 391.924 290.461 393.18C278.569 394.512 266.461 395.13 254.716 397.467C233.489 401.696 212.488 410.463 190.861 412.028H190.595C190.423 412.047 190.263 412.066 190.102 412.066C189.969 412.047 189.836 412.008 189.716 411.95ZM191.089 319.97C191.421 319.99 191.755 320.009 192.115 319.99C195.023 319.893 197.836 319.372 200.635 318.599C209.821 316.089 218.876 313.192 228.261 312.014C229.449 311.725 230.648 311.473 231.836 311.164C232.143 311.087 232.435 311.049 232.715 311.029C232.929 310.971 233.128 310.913 233.342 310.836C233.902 310.682 234.462 310.527 235.022 310.431C235.476 310.199 235.903 309.986 236.262 309.813C237.222 309.368 238.182 309.059 239.223 309.098C240.37 307.63 241.582 306.182 242.809 304.753C239.329 304.714 235.316 303.44 232.048 302.61C223.689 300.524 215.543 297.878 207.515 294.711C203.796 293.243 200.023 291.621 196.382 289.806C191.489 294.827 185.41 300.62 184.328 307.882C183.928 310.566 184.102 313.675 185.276 316.07C186.636 318.02 188.635 319.372 191.089 319.97ZM192.955 109.438C193.076 103.432 193.128 97.33 194.808 91.5173C196.423 85.8784 198.062 80.4906 201.542 75.6627C204.062 72.206 207.876 70.217 210.623 67.0113C210.076 66.9727 209.53 66.9341 208.969 66.9147C203.622 66.7216 201.143 69.0775 198.503 73.1136C194.835 78.6753 191.116 84.6231 189.448 91.1697C185.916 104.9 191.301 116.97 193.302 130.295C193.65 130.063 194.022 129.85 194.395 129.619C193.063 123.034 192.81 116.139 192.955 109.438ZM196.328 91.9421C194.515 99.0873 194.33 106.464 194.689 113.822C194.716 113.648 194.716 113.494 194.743 113.32C195.195 110.964 195.795 108.666 196.516 106.406C197.302 102.853 198.408 99.3384 200.023 95.8431C202.448 90.5711 205.316 85.7819 209.114 81.3982C212.436 77.5746 217.275 74.0019 219.849 69.5989C217.128 68.0733 214.462 67.3975 211.503 67.1078C209.622 70.1977 206.382 72.0515 203.889 74.7358C199.609 79.3512 197.837 85.9943 196.328 91.9421ZM152.969 239.925C157.395 240.215 162.943 240.929 167.209 239.519C170.756 238.341 173.448 236.372 176.142 234.093C170.808 233.842 166.116 231.969 161.489 228.821C158.196 226.581 155.062 224.051 151.636 222.004C149.742 220.865 143.436 217.331 139.543 218.412C137.714 219.609 136.703 221.27 136.382 223.337C136.343 223.877 136.343 224.476 136.396 225.132C137.116 234.692 143.969 239.326 152.969 239.925ZM177.036 237.839C169.422 243.266 161.796 244.618 151.876 243.401C147.836 248.113 142.222 254.003 145.022 260.781C146.022 263.195 147.596 264.991 149.448 266.13C152.609 267.579 156.329 267.868 159.675 266.999C161.143 266.497 162.582 265.744 163.876 264.74C172.143 258.367 176.063 247.997 177.036 237.839ZM330.368 111.543C328.248 112.335 326.288 113.59 324.102 114.092C330.648 116.004 336.955 118.379 342.996 121.18C346.088 120.755 348.795 119.017 351.862 118.399C354.395 117.877 356.929 117.626 359.542 117.607C362.608 117.588 365.915 117.201 368.968 117.568C369.128 117.588 369.302 117.607 369.476 117.626C366.195 113.899 362.742 110.365 359.049 107.063C356.769 107.198 354.341 107.044 352.221 107.314C348.289 107.816 344.301 108.164 340.408 108.956C337.035 109.651 333.622 110.365 330.368 111.543ZM391.261 426.048C388.742 431.687 385.328 437.287 380.981 441.709C377.501 445.282 373.181 447.618 368.796 449.878C368.635 451.114 368.448 452.33 368.247 453.547C366.928 462.063 363.835 473.206 365.395 482.591C377.021 474.056 385.261 462.392 391.942 449.472C395.994 441.632 399.462 433.502 401.528 424.889C403.527 416.45 404.914 407.837 406.235 399.263C408.915 381.593 409.688 363.653 408.247 345.848C407.529 336.733 406.689 327.482 405.088 318.464C403.674 310.585 401.542 302.803 401.809 294.769C401.754 295.001 401.702 295.252 401.648 295.484C401.635 295.928 401.608 296.372 401.581 296.816C401.542 298.689 401.129 300.64 400.942 302.416C400.542 306.105 399.887 309.755 399.343 313.424C398.234 320.994 397.848 328.641 396.594 336.192C393.889 352.413 395.341 368.616 396.021 384.934C396.622 398.915 397.102 412.974 391.261 426.048ZM380.222 439.372C384.635 434.197 388.341 428.404 390.608 421.954C395.314 408.571 394.422 394.686 393.781 380.743C393.128 366.182 392.062 351.583 394.621 337.138C395.888 330.032 396.409 322.848 397.554 315.722C398.128 312.13 398.862 308.557 399.501 304.966C399.555 304.657 399.621 304.328 399.688 304.038C399.596 304.212 399.487 304.406 399.381 304.579C397.288 311.628 394.661 318.522 392.394 325.474C389.235 335.188 385.676 344.863 380.968 353.958C376.462 362.648 371.302 369.678 363.489 375.722C359.915 378.484 356.048 380.145 352.061 382.172C348.088 384.2 344.915 387.058 342.167 390.418C345.195 391.809 348.048 393.392 350.554 395.053C358.862 400.595 365.607 410.309 368.168 420.003C370.487 428.79 370.221 438.214 369.114 447.309C373.222 445.204 377.221 442.868 380.222 439.372ZM410.609 350.019C411.742 368.114 410.487 386.054 407.621 403.936C406.194 412.877 404.968 422.069 402.208 430.721C399.609 438.851 396.088 446.672 391.929 454.107C385.141 466.235 377.115 476.991 365.901 484.966C366.594 487.573 367.728 490.026 369.476 492.189L369.835 492.421C370.515 492.285 371.183 492.092 371.822 491.841C374.742 489.794 377.594 487.651 380.356 485.411C381.035 484.715 381.715 484.039 382.381 483.344C386.728 478.98 391.062 474.635 394.688 469.633C401.447 460.306 407.554 450.071 412.034 439.45C420.488 419.482 419.621 399.05 417.768 378.213C417.688 375.973 417.621 373.733 417.476 371.512C417.582 366.356 417.395 361.123 415.834 356.411C415.182 350.811 414.181 345.249 413.594 339.687C412.689 331.383 411.462 323.022 409.394 314.911C408.008 309.426 404.636 303.633 404.448 297.955C404.394 297.067 404.408 296.179 404.462 295.29C403.942 295.097 403.407 294.924 402.847 294.904C402.662 294.885 402.529 294.808 402.421 294.711C402.287 294.653 402.154 294.634 402.034 294.576C402.902 304.405 406.316 313.733 407.716 323.485C408.967 332.272 410.062 341.136 410.609 350.019ZM364.634 134.234C369.821 133.075 375.128 131.936 380.462 132.071C379.222 130.14 377.915 128.228 376.487 126.316C374.568 123.748 372.581 121.276 370.528 118.862C369.649 118.727 368.769 118.611 367.861 118.592C364.661 118.553 361.434 118.418 358.221 118.515C354.795 118.592 351.649 119.113 348.409 120.175C346.634 120.755 345.076 121.16 343.288 121.315C350.916 124.868 358.074 129.174 364.634 134.234ZM377.955 138.27C375.541 138.483 372.716 138.946 370.182 138.811C371.822 140.259 373.421 141.785 374.968 143.368C376.408 143.252 378.129 142.731 378.768 142.557C380.889 141.997 382.996 142.113 385.195 142.287C385.421 142.306 385.821 142.325 386.288 142.345C385.608 140.954 384.901 139.564 384.154 138.193C382.101 138 380.008 138.096 377.955 138.27ZM379.008 143.465C378.314 143.581 376.901 143.948 375.609 143.986C383.248 151.769 389.754 160.864 394.808 171.428C394.795 169.728 394.688 168.048 394.542 166.387C394.009 164.089 393.462 161.811 392.794 159.551C391.168 153.912 389.249 148.737 386.941 143.793C384.342 143.31 381.756 142.943 379.008 143.465ZM381.462 133.616C379.035 133.616 376.569 133.346 374.155 133.597C371.049 133.925 368.048 134.736 364.941 134.447C366.409 135.586 367.848 136.764 369.248 137.961C370.901 138.058 372.728 137.536 374.408 137.498C376.768 137.44 379.075 137.111 381.435 137.092C382.036 137.092 382.743 137.054 383.474 137.054C382.835 135.895 382.155 134.755 381.462 133.616ZM235.476 326.15C238.182 330.553 245.022 330.128 251.715 328.197C250.916 324.2 252.876 319.777 254.448 316.224C257.356 309.678 263.062 304.56 266.861 298.535C270.77 292.336 275.234 286.504 277.05 279.262C278.062 275.245 278.728 271.113 278.849 266.961C278.942 263.465 278.502 260.009 278.676 256.513C276.368 257.112 274.008 256.977 272.102 255.683C272.382 264.238 271.061 272.677 267.182 279.784C262.835 287.74 256.995 294.46 251.022 301.2C245.035 307.978 234.955 316.32 235.476 326.15ZM259.276 312.246C256.595 316.147 252.835 322.423 253.702 327.598C257.808 326.247 261.689 324.451 264.343 323.022C266.915 321.631 269.623 320.048 272.396 318.484C273.048 314.254 274.155 310.373 275.928 306.279C278.409 300.485 281.609 294.827 283.569 288.821C285.462 283.008 286.462 276.752 285.834 270.611C285.475 267.27 284.983 263.929 284.328 260.627C283.901 258.502 283.876 256.339 283.156 254.312C281.876 255.239 280.462 255.973 279.008 256.398C279.915 263.485 280.728 270.147 279.276 277.254C277.969 283.53 275.489 288.898 271.955 294.228C269.821 297.434 267.861 300.756 265.635 303.903C263.609 306.742 261.263 309.368 259.276 312.246Z" fill="black"/>
<path d="M177.039 237.834C176.066 247.976 172.146 258.356 163.879 264.729C162.586 265.749 161.146 266.495 159.68 267.005C156.333 267.861 152.613 267.57 149.452 266.131C147.6 264.984 146.026 263.199 145.025 260.759C142.226 254.004 147.838 248.104 151.879 243.388C161.799 244.626 169.425 243.26 177.039 237.834Z" fill="#F77412"/>
<path d="M58.6418 10.6664C32.7368 10.6664 11.6602 31.7506 11.6602 57.6537V497.023C11.6602 522.946 32.7368 544.011 58.6418 544.011H498.023C523.93 544.011 544.997 522.946 544.997 497.023V57.6537C544.997 31.7506 523.93 10.6664 498.023 10.6664H58.6418ZM498.023 554.671H58.6418C26.856 554.671 0.994141 528.827 0.994141 497.023V57.6537C0.994141 25.8698 26.856 0.00610352 58.6418 0.00610352H498.023C529.811 0.00610352 555.663 25.8698 555.663 57.6537V497.023C555.663 528.827 529.811 554.671 498.023 554.671Z" fill="#1B7695"/>
</svg>
