<svg width="556" height="555" viewBox="0 0 556 555" fill="none" xmlns="http://www.w3.org/2000/svg">
<path d="M498.032 549.335H58.6424C29.7486 549.335 6.33496 525.91 6.33496 497.026V57.6401C6.33496 28.7562 29.7486 5.33081 58.6424 5.33081H498.032C526.916 5.33081 550.341 28.7562 550.341 57.6401V497.026C550.341 525.91 526.916 549.335 498.032 549.335Z" fill="white"/>
<path d="M476.253 343.829C487.579 344.216 499.379 347.13 510.02 351.31C511.004 353.083 511.671 355.173 512.145 357.386C502.592 355.156 492.706 352.627 483.066 352.03C477.06 351.644 471.055 351.046 465.032 350.906C461.906 350.818 458.868 351.029 455.777 351.433C454.197 351.643 451.493 352.17 449.315 352.135C451.282 349.747 453.126 347.271 454.847 344.707C456.972 344.391 459.026 344.286 461.239 344.216C466.261 344.075 471.248 343.654 476.253 343.829Z" fill="#F22E03"/>
<path d="M498.698 343.14C501.696 344.41 504.659 345.856 506.969 347.743C498.574 344.992 489.809 343.14 481.079 342.276C476.335 341.8 471.749 342.205 467.023 342.311C464.589 342.364 462.137 342.629 459.721 342.823C458.592 342.911 457.093 343.263 455.612 343.563C457.464 340.706 459.174 337.761 460.726 334.745C462.19 334.78 464.042 334.057 464.959 333.81C467.763 333.052 470.55 332.699 473.46 332.364C476.723 331.994 479.968 331.2 483.248 331.394C484.148 332.876 485.1 334.375 486.264 335.75C487.428 337.602 488.874 339.331 490.549 340.212C493.213 341.606 495.946 342.399 498.698 343.14Z" fill="#F22E03"/>
<path d="M474.693 322.647C478.266 323.973 480.265 326.556 482.052 329.439C477.559 329.439 472.871 330.642 468.519 331.297C467.582 331.438 463.867 332.871 461.373 333.525C463.018 330.235 464.469 326.857 465.707 323.425C467.564 323.266 468.36 323 471.297 322.735C472.588 322.611 473.702 322.593 474.693 322.647Z" fill="#F22E03"/>
<path d="M452.821 269.051C454.938 274.571 456.024 279.946 456.187 285.628C456.042 286.913 455.879 288.162 455.608 289.338L455.572 289.374C455.554 289.555 455.572 289.718 455.518 289.899L455.427 290.116C454.993 290.062 454.558 290.044 454.124 290.044C453.545 290.062 452.948 289.989 452.332 290.008C452.188 290.026 452.061 290.044 451.934 290.08C451.572 290.026 451.21 289.989 450.867 289.953C454.196 284.289 453.744 276.399 451.21 270.553C449.944 267.567 447.482 264.853 444.894 262.971C442.343 261.089 439.465 261.686 436.733 262.572C435.918 260.672 435.104 258.79 434.271 256.926C436.443 256.311 438.452 256.112 440.28 256.275C446.559 257.958 450.143 262.102 452.821 269.051Z" fill="white"/>
<path d="M477.112 353.693C489.176 354.621 500.855 357.44 512.603 360.119C512.726 360.889 512.813 361.659 512.901 362.447C507.666 360.329 502.623 358.333 496.67 357.23C489.089 355.829 481.017 354.726 473.348 354.183C464.524 353.535 455.261 354.866 446.577 357.632C446.279 357.685 445.982 357.738 445.684 357.79C445.386 357.58 445.071 357.405 444.721 357.265C446.139 355.794 447.505 354.288 448.801 352.712C451.952 353.605 456.119 352.765 459.008 352.502C465.031 351.977 471.124 353.22 477.112 353.693Z" fill="#F22E03"/>
<path d="M442.077 270.075C444.275 270.561 443.068 273.857 440.888 273.371C440.276 273.227 439.916 272.885 439.79 272.453C439.465 271.444 440.312 270.021 441.663 270.021C441.789 270.021 441.933 270.039 442.077 270.075Z" fill="white"/>
<path d="M438.833 267.802C438.454 266.846 438.093 265.907 437.696 264.951C444.518 264.283 448.29 270.184 449.336 276.411C450.13 280.976 448.921 285.109 447.387 289.35C447.279 289.657 447.279 289.91 447.351 290.162C446.99 290.216 446.629 290.253 446.286 290.343C446.106 289.657 445.907 288.989 445.745 288.303C446.16 288.195 446.557 287.924 446.828 287.455C449.138 283.774 449.282 278.973 448.109 274.858C447.55 272.927 446.575 271.105 445.186 269.643C444.337 268.777 443.345 268.38 442.262 268.163C441.775 267.928 441.179 267.802 440.529 267.856C440.06 267.567 439.501 267.586 439.013 267.802H438.833Z" fill="#4F7C08"/>
<path d="M413.132 156.877C407.67 164.21 402.133 171.449 397.531 179.362C394.445 184.674 391.807 190.211 389.488 195.879C389.113 196.758 387.579 201.884 386.607 203.96C385.297 202.819 383.932 201.753 382.51 200.761C384.718 192.381 386.682 184.076 390.591 176.294C390.666 176.144 390.76 175.995 390.834 175.845C392.499 173.17 394.258 170.551 396.297 168.119C397.98 166.155 399.907 164.247 401.946 162.508C404.714 160.413 407.857 158.785 411.055 157.532C412.103 157.102 412.758 156.915 413.132 156.877Z" fill="#F22E03"/>
<path d="M410.171 220.694C412.389 223.516 414.441 226.484 416.347 229.581C415.889 229.508 415.431 229.472 414.973 229.435C411.656 229.27 408.87 231.029 405.755 228.775C402.346 226.301 402.053 218.861 407.991 220.07C409.017 220.272 409.548 220.602 410.171 220.694Z" fill="#4F7C08"/>
<path d="M381.292 192.555C380.811 194.441 380.33 196.327 379.868 198.195C379.572 195.902 379.294 193.646 378.999 191.39C379.757 191.796 380.497 192.24 381.292 192.555Z" fill="#69A50A"/>
<path d="M371.69 156.534C374.078 150.463 377.405 145.82 381.502 142.099C380.356 144.166 379.341 146.459 378.401 149.035C376.953 153.038 376.089 157.512 375.657 162.117C373.439 173.695 374.66 184.861 376.051 196.533C372.461 194.372 368.777 192.285 365.225 189.992C363.307 178.677 367.536 166.985 371.69 156.534Z" fill="#F22E03"/>
<path d="M361.21 183.31C361.173 184.794 361.21 186.277 361.34 187.742C360.747 187.427 360.153 187.186 359.56 186.908C359.578 186.796 359.634 186.685 359.634 186.555C359.634 185.239 359.411 184.089 359.041 182.957C359.745 183.143 360.506 183.291 361.21 183.31Z" fill="#69A50A"/>
<path d="M354.802 179.825C355.728 181.771 356.597 183.718 356.918 185.74C355.879 185.306 354.821 184.946 353.762 184.606C353.592 183.699 353.252 182.924 352.723 181.998C351.23 179.352 349.548 177.009 348.225 174.212C345.692 168.769 344.313 162.608 342.612 156.844C340.836 150.778 341.308 143.351 342.158 137.171C342.744 133.013 344.389 129.442 345.73 125.643C350.134 125.492 354.537 125.473 358.902 125.567C354.556 134.998 352.685 144.995 351.948 155.465C351.532 161.323 351.438 166.993 352.307 172.814C352.59 174.817 353.403 176.726 354.272 178.653C354.405 179.069 354.575 179.466 354.802 179.825Z" fill="#F22E03"/>
<path d="M361.826 230.3C366.271 234.269 359.576 239.172 356.32 240.69C353.557 241.971 350.557 242.721 347.813 244.093C341.264 247.349 337.605 253.331 333.197 258.856C332.977 258.819 332.758 258.837 332.538 258.911C333.306 250.551 337.477 242.867 342.453 236.209C346.844 230.3 354.893 224.098 361.826 230.3Z" fill="#4F7C08"/>
<path d="M374.089 272.904C384.661 279.073 385.057 291.251 384.588 302.021C383.939 317.265 371.78 328.883 357.004 329.533C356.806 329.461 356.589 329.442 356.355 329.569H356.337C356.193 329.569 356.03 329.587 355.886 329.587C355.254 329.461 354.334 328.811 353.937 328.613C353.793 328.54 353.631 328.523 353.504 328.541C353.342 328.18 353.18 327.837 353.017 327.494C356.77 327.801 360.306 324.987 363.156 321.757C369.488 314.649 369.073 303.627 367.432 294.877C366.187 288.292 360.811 278.64 353.108 278.243C352.079 278.189 351.123 278.207 350.203 278.316C347.154 278.64 344.556 279.759 341.76 281.635C341.616 281.725 341.49 281.815 341.345 281.942C343.131 277.341 345.639 273.319 349.95 270.36C357.221 265.327 367.288 268.917 374.089 272.904Z" fill="white"/>
<path d="M363.135 293.751C364.947 298.919 364.66 305.325 364.05 310.691C363.709 313.723 359.51 322.695 354.773 323.646C354.145 323.987 353.445 324.184 352.763 324.22C352.368 324.274 351.991 324.256 351.615 324.166L351.364 323.897C350.843 323.431 350.197 323.126 349.713 322.641C349.336 322.282 349.031 321.887 348.726 321.475C348.923 321.439 349.121 321.403 349.318 321.367C349.497 321.242 349.695 321.188 349.928 321.26C351.669 320.829 353.427 319.878 355.203 318.353C361.322 313.077 361.735 303.98 359.061 296.91C355.796 288.315 344.15 286.161 338.534 291.598C338.623 291.203 338.695 290.791 338.803 290.378C340.669 287.058 342.481 284.349 347.057 282.303C348.259 281.783 349.408 281.496 350.484 281.424C356.908 281.083 361.215 288.243 363.135 293.751Z" fill="#4F7C08"/>
<path d="M347.923 179.152C348.735 180.758 349.831 182.157 350.644 183.707C347.96 182.97 345.239 182.384 342.48 181.911C341.611 179.965 339.551 178.604 338.266 176.941C335.658 173.54 333.353 170.101 331.085 166.472C326.248 158.762 324.396 150.863 323.602 141.887C323.583 141.604 323.149 141.623 323.168 141.906C323.527 150.296 324.131 157.099 327.684 164.847C330.575 171.121 334.808 176.129 339.003 181.363C336.603 181.004 334.222 180.702 331.841 180.418C328.213 179.984 324.604 179.644 321.032 179.398C317.971 177.111 316.497 172.784 315.231 169.345C313.417 164.413 311.961 159.027 311.111 153.849C310.336 149.068 310.431 144.174 310.979 139.374C311.281 136.52 312.736 133.478 313.379 130.549C317.404 129.491 321.429 128.489 325.473 127.601C331.652 126.6 337.926 125.995 344.181 125.711C342.556 129.264 341.082 132.647 340.307 136.785C339.211 142.511 339.268 148.445 339.948 154.227C340.666 160.236 342.896 166.208 344.805 171.915C345.636 174.447 346.694 176.79 347.923 179.152Z" fill="#F22E03"/>
<path d="M345.461 294.78C349.856 295.762 347.426 302.355 343.066 301.372C338.654 300.39 341.083 293.797 345.461 294.78Z" fill="white"/>
<path d="M361.743 227.026C368.644 231.786 364.965 239.53 358.411 242.605C354.109 244.601 349.147 245.644 345.376 248.647C340.799 252.308 337.815 257.471 334.081 261.919C333.495 262.615 332.067 262.395 331.884 261.425C331.811 261.114 331.756 260.784 331.682 260.455C331.664 260.308 331.682 260.198 331.682 260.07L331.646 260.015C329.449 251.1 336.113 240.372 341.403 233.671C345.962 227.886 354.31 221.881 361.743 227.026ZM361.816 230.303C354.896 224.115 346.841 230.321 342.429 236.216C337.468 242.88 333.293 250.55 332.524 258.935C332.744 258.844 332.964 258.843 333.184 258.88C337.596 253.351 341.257 247.365 347.793 244.106C350.539 242.733 353.541 241.983 356.324 240.701C359.564 239.182 366.264 234.275 361.816 230.303Z" fill="black"/>
<path d="M343.063 185.751C310.54 189.981 284.419 218.774 268.037 245.063C256.349 263.82 249.41 285.433 245.941 307.139C243.529 322.167 243.474 339.625 251.321 353.075C244.754 348.511 238.093 344.04 231.359 339.662C229.782 335.618 229.04 331.109 228.205 327.065C226.665 319.458 225.311 311.815 225.032 304.041C224.773 296.973 225.422 289.886 227.092 283.003C228.854 275.749 233.548 269.497 237.518 263.3C238.13 262.317 236.776 261.092 235.867 261.76C231.878 264.692 227.982 267.864 223.808 270.517C221.081 272.261 217.853 273.077 218.409 268.291C218.706 265.731 219.931 263.096 220.617 260.592C223.678 248.996 230.338 237.512 237.258 227.809C243.919 218.478 251.674 209.944 260.226 202.3C267.703 195.603 276.181 188.608 285.198 183.655C298.24 181.892 311.542 181.948 324.622 183.321C330.707 183.952 336.959 184.582 343.063 185.751Z" fill="#4F7C08"/>
<path d="M311.723 130.993C311.364 131.804 310.987 132.596 310.723 133.351C309.723 136.162 309.308 139.086 308.968 142.01C308.365 147.047 308.591 152.216 309.61 157.177C310.704 162.629 312.138 168.552 314.458 173.627C315.307 175.495 316.137 177.513 317.344 179.154C309.912 178.777 302.554 178.796 295.178 179.305C289.142 174.646 284.954 168.439 282.048 161.384C280.445 157.498 278.992 153.555 277.992 149.461C277.483 147.349 277.596 145.273 277.408 143.217C285.255 139.765 293.462 137.048 301.422 133.973C304.837 132.936 308.27 131.917 311.723 130.993Z" fill="#F22E03"/>
<path d="M281.296 164.417C283.701 170.185 287.289 175.427 291.948 179.541C284.415 180.199 276.862 181.401 269.253 183.167L269.178 183.129C258.037 180.687 251.781 169.64 248.512 159.195C255.764 154.892 262.959 150.534 270.418 146.57C272.409 145.517 274.457 144.541 276.524 143.62C276.58 146.231 276.374 148.88 276.9 151.454C277.839 155.888 279.567 160.247 281.296 164.417Z" fill="#F22E03"/>
<path d="M269.287 386.012C270.343 387.188 271.813 388.105 273.336 388.416C271.312 390.665 269.028 392.828 266.398 394.904C257.61 401.789 249.859 409.834 241.521 417.238C240.119 418.398 238.753 419.574 237.403 420.75C236.365 421.598 235.345 422.463 234.272 423.293C231.487 425.456 209.325 440.317 198.115 442.739C196.021 442.376 194.499 441.13 194.62 438.31C199.187 436.32 203.374 432.947 207.785 430.906C215.553 427.342 223.373 422.999 230.414 418.155C237.888 412.983 243.925 406.409 250.897 400.665C256.866 395.717 264.547 392.361 269.287 386.012Z" fill="#F22E03"/>
<path d="M231.039 401.997C243.375 395.396 255.936 389.8 267.509 381.883C267.63 382.576 267.786 383.286 268.046 383.996C268.115 384.187 268.219 384.377 268.306 384.568L268.116 384.759C263.386 391.463 255.156 395.241 248.971 400.369C242.786 405.48 237.363 411.284 230.9 416.083C224.438 420.848 217.109 424.728 209.971 428.367C206.662 430.065 203.301 431.364 200.217 433.426C198.415 434.621 196.648 435.834 194.777 436.874C195.401 433.27 196.96 429.649 198.155 426.253C198.225 426.114 198.277 425.959 198.329 425.803C200.009 422.701 201.412 419.513 202.504 416.118C206.09 415.667 209.867 413.155 212.882 411.7C219.05 408.72 225.01 405.237 231.039 401.997Z" fill="#F22E03"/>
<path d="M254.153 381.448C258.457 380.477 263.576 379.609 267.55 377.318C267.429 378.221 267.359 379.123 267.359 380.043C256.965 387.297 245.772 393.093 234.353 398.542C228.574 401.283 223.108 404.667 217.416 407.565C214.709 408.954 212.106 410.498 209.364 411.835C207.611 412.685 205.095 414.177 202.856 414.958C205.217 406.49 203.134 397.691 200.896 389.396C200.774 388.511 200.67 387.644 200.583 386.741C203.637 387.869 207.542 387.488 210.544 387.383C217.989 387.14 225.607 386.013 233.017 385.11C240.132 384.242 247.177 382.993 254.153 381.448Z" fill="#F22E03"/>
<path d="M251.596 187.57C248.569 185.813 245.242 182.225 243.28 179.403C240.421 175.235 238.776 170.47 237.542 165.592C238.925 164.77 240.308 163.966 241.691 163.163C243.672 162.042 245.635 160.883 247.578 159.724C247.84 160.789 248.045 161.686 248.139 161.985C249.167 165.648 250.793 169.162 252.736 172.432C255.764 177.553 260.118 181.907 265.612 184.094C261.314 185.271 257.091 186.729 252.923 188.336C252.475 188.056 252.045 187.813 251.596 187.57Z" fill="#F22E03"/>
<path d="M249.789 313.724C249.611 313.688 249.682 313.422 249.842 313.458C250.019 313.493 249.966 313.777 249.789 313.724Z" fill="#1D1D1B"/>
<path d="M421.093 237.956C426.892 249.219 432.449 261.223 436.895 273.505C439.619 280.989 441.897 288.603 443.546 296.18C443.212 296.866 443.212 297.699 443.916 298.311C455.365 308.129 439.822 321.375 431.857 326.358C424.169 331.156 415.721 334.49 407.144 337.325C389.675 343.104 373.169 343.605 355.44 338.936C355.44 337.232 355.31 335.528 355.033 333.823C370.705 334.342 384.877 323.208 388.082 307.87C391.12 293.438 388.637 278.044 375.966 269.374C362.424 260.075 345.807 263.594 338.786 278.34C333.543 289.382 331.394 304.628 338.101 315.354C335.581 314.446 332.913 313.668 330.061 312.797C328.949 312.464 328.264 314.261 329.357 314.743C341.12 319.93 351.29 324.561 351.642 339.233C351.939 351.608 341.583 360.741 332.043 366.558C330.357 367.595 331.635 370.54 333.525 369.744C344.307 365.094 354.384 353.868 355.329 341.697C377.652 351.997 405.254 343.772 426.206 334.046C436.729 329.155 463.72 308.314 447.677 296.384C447.677 296.254 447.659 296.125 447.64 295.977C447.399 294.865 447.121 293.753 446.862 292.642C461.423 292.29 466.814 305.165 463.349 318.04C460.293 329.359 453.235 340.233 446.195 349.422C442.99 353.59 439.304 357.258 435.302 360.537C435.154 360.592 435.061 360.685 434.969 360.815C434.283 361.37 433.561 361.889 432.857 362.408C413.313 372.986 390.286 378.377 368.519 379.859C355.662 380.729 342.769 380.229 329.912 380.155C318.853 380.099 306.552 380.766 295.493 377.969C293.64 377.284 291.713 376.635 289.916 376.191C289.046 375.839 288.157 375.487 287.304 375.079C289.694 369.985 291.621 364.612 293.288 359.147C293.899 357.128 290.583 355.887 289.768 357.851C285.507 368.336 281.932 377.654 275.504 385.824C274.059 385.935 272.744 385.879 271.41 384.656C269.242 382.693 269.317 379.21 269.65 376.413C269.594 372.8 270.261 369.003 272.373 366.057C272.521 365.557 272.669 365.057 272.781 364.557C276.967 358.203 279.969 350.515 282.988 344.531C283.581 343.401 281.895 342.512 281.265 343.605C276.93 351.2 272.929 359.129 267.483 365.076C267.205 364.594 266.797 364.149 266.241 363.723C263.148 361.463 260.035 359.221 256.886 356.998C256.201 356.091 255.552 355.127 254.978 354.146C252.514 350.57 250.291 346.828 249.476 342.493C249.476 342.345 249.476 342.197 249.532 342.086C245.864 329.711 246.994 315.761 249.143 303.146C252.607 282.749 259.794 262.705 270.65 245.069C287.953 217.003 313.017 193.347 345.863 186.326C349.419 187.122 352.884 188.178 356.237 189.568C356.904 189.734 357.552 189.938 358.2 190.161C369.686 193.699 380.301 200.572 389.249 208.5C389.341 208.334 389.397 208.167 389.452 207.963C389.508 207.685 389.582 207.389 389.638 207.111C389.823 206.296 389.545 205.685 389.082 205.259C389.823 204.277 390.49 202.999 391.083 201.591C391.212 201.739 391.36 201.868 391.527 201.98C394.565 206.333 399.567 209.371 403.309 213.002C405.254 214.892 407.088 216.911 408.83 219.023C407.255 218.374 405.718 217.763 403.958 219.041C401.957 220.505 400.753 222.654 401.42 225.229C402.124 227.896 403.791 230.749 406.57 231.694C408.274 232.268 409.737 232.324 411.497 232.12C413.794 231.898 415.795 231.935 417.944 232.231C419.037 234.139 420.075 236.029 421.093 237.956ZM249.846 313.446C249.68 313.409 249.624 313.687 249.791 313.724C249.976 313.761 250.032 313.483 249.846 313.446ZM331.876 261.427C332.061 262.39 333.488 262.612 334.099 261.927C337.823 257.462 340.805 252.294 345.381 248.626C349.142 245.643 354.125 244.606 358.423 242.605C364.981 239.512 368.649 231.787 361.757 227.007C354.329 221.876 345.955 227.878 341.398 233.658C336.118 240.364 329.449 251.09 331.654 260.001L331.691 260.075C331.691 260.204 331.672 260.315 331.691 260.464C331.765 260.779 331.82 261.094 331.876 261.427Z" fill="#69A50A"/>
<path d="M246.879 186.041C247.904 187.067 249.471 188.074 250.907 189.1C246.151 190.965 241.433 192.923 236.715 194.732C233.563 195.944 230.411 197.156 227.278 198.387L227.092 198.257C226.83 198.07 226.588 198.033 226.364 198.051C222.597 196.448 219.539 192.009 217.618 188.689C216.107 186.06 215.007 183.225 214 180.372C221.422 175.336 229.031 170.581 236.752 166.049C237.498 170.133 238.673 174.087 240.575 177.929C242.179 181.23 244.305 183.505 246.879 186.041Z" fill="#F22E03"/>
<path d="M258.575 190.134C266.194 187.335 274.055 185.369 282.008 184.109C278.782 186 275.686 188.187 272.739 190.19C267.047 194.046 261.652 198.532 256.554 203.148C246.098 212.566 236.847 223.726 229.617 235.814C225.909 242.006 222.647 248.642 220.051 255.372C218.957 258.246 218.346 261.267 217.308 264.159C216.585 266.162 215.676 268.59 216.121 270.759C217.641 278.101 225.78 272.798 231.638 268.201C228.82 272.687 226.28 277.303 224.816 282.494C222.721 289.965 222.332 297.937 222.536 305.649C222.758 313.658 224.408 321.611 225.984 329.435C226.484 332.049 227.059 334.737 227.8 337.332C218.716 331.474 209.54 325.764 200.382 320.239C194.375 316.587 188.202 313.269 182.084 309.876C181.732 306.484 182.121 302.683 182.288 300.588C182.825 294.693 183.678 288.927 185.05 283.18C188.072 270.592 193.615 258.82 198.491 246.9C203.107 235.61 208.335 224.524 216.306 215.143C220.107 210.675 224.575 206.541 229.098 202.87C231.193 201.165 233.826 200.089 236.124 198.662C241.538 196.53 246.97 194.491 252.401 192.433C254.367 191.413 256.424 190.653 258.575 190.134Z" fill="#69A50A"/>
<path d="M190.739 197.722C197.828 191.858 205.269 186.346 212.915 181.132C213.824 184.435 215.067 187.627 216.737 190.707C218.463 193.917 221.247 197.499 224.55 199.485C217.368 202.343 210.261 205.33 203.284 208.819C201.094 209.914 198.941 211.027 196.789 212.159C193.912 210.136 191.314 207.334 189.18 204.681C188.234 203.512 187.454 202.38 186.619 201.266C187.955 200.06 189.329 198.891 190.739 197.722Z" fill="#F22E03"/>
<path d="M215.941 375.055C226.661 374.811 239.157 379.388 249.755 378.17C254.976 377.787 260.023 376.36 264.547 373.332C266.235 372.201 267.767 370.826 269.176 369.277C268.968 371.104 268.48 372.897 268.08 374.724C264.199 377.648 258.195 378.622 253.618 379.701C247.336 381.181 240.966 382.242 234.562 383.112C228.645 383.93 222.694 384.383 216.742 385.113C212.287 385.67 205.517 386.976 200.54 385.636C200.487 384.296 200.557 382.938 200.783 381.563C201.862 375.333 211.382 375.177 215.941 375.055Z" fill="#F22E03"/>
<path d="M194.855 213.151C183.353 219.16 172.11 225.446 160.572 231.196C163.041 227.971 165.216 224.413 167.483 221.556C173.216 214.276 179.427 207.659 186.284 201.539C187.464 203.585 188.422 205.871 189.841 207.659C191.426 209.613 192.956 211.548 194.855 213.151Z" fill="#F22E03"/>
<path d="M179.781 308.594C175.783 306.346 171.784 304.005 167.896 301.499C166.771 294.681 167.693 287.365 168.08 280.639C168.688 270.227 170.31 259.244 177.073 250.896C177.902 249.864 176.428 248.463 175.561 249.477C173.719 251.615 171.821 253.734 169.462 255.3C165.832 257.696 166.605 250.435 166.827 248.98C167.287 245.939 169.093 243.138 170.696 240.595C175.414 233.242 181.458 226.829 187.908 220.969C189.769 219.956 191.631 218.942 193.473 217.929C204.512 212.013 215.863 206.909 227.362 202.191C226.828 202.615 226.256 203.02 225.74 203.481C220.728 207.683 216.029 212.29 211.975 217.431C204.014 227.585 199.112 239.821 194.266 251.67C189.216 263.998 183.928 275.94 181.385 289.115C180.26 295.049 179.468 301.407 179.726 307.451C179.744 307.801 179.763 308.188 179.781 308.594Z" fill="#4F7C08"/>
<path d="M184.591 222.816C180.858 226.147 177.326 229.661 174.086 233.504C170.188 238.098 165.082 244.119 164.643 250.396C164.442 253.27 164.497 258.595 168.743 257.9C169.493 257.79 170.188 257.479 170.884 257.095C167.882 263.5 166.565 270.564 165.942 277.775C165.357 284.602 164.204 292.38 164.954 299.59C158.787 295.601 152.399 291.629 145.866 287.969C145.829 285.974 146.012 283.961 146.122 282.167C146.47 276.238 146.763 270.418 148.044 264.58C149.38 258.577 151.429 252.226 154.028 246.663C156.005 242.472 158.896 238.812 161.495 235.005C169.328 231.29 176.978 227.044 184.591 222.816Z" fill="#69A50A"/>
<path d="M149.582 240.057C152.862 238.836 156.087 237.488 159.275 236.03C156.542 239.51 153.828 242.972 151.842 247.071C149.036 252.811 147.123 259.461 145.683 265.656C144.335 271.45 144.226 277.39 143.825 283.293C143.734 284.387 143.679 285.553 143.642 286.719C141.984 285.808 140.308 284.933 138.632 284.095C132.71 282.291 127.335 277.9 125.586 271.887C123.054 266.859 126.279 261.648 129.212 257.676C130.706 255.69 132.054 253.558 133.403 251.426L133.421 251.371C133.949 250.552 134.478 249.713 134.988 248.893C135.334 248.31 135.644 247.764 135.935 247.217L136.136 247.053C137.557 246.051 138.559 245.012 139.47 243.609C140.982 243.3 142.531 242.808 144.08 242.024C145.902 241.605 147.724 240.949 149.582 240.057Z" fill="#4F7C08"/>
<path d="M96.5902 223.838C106.773 232.861 116.975 242.031 128.17 249.784L128.189 249.821L128.299 249.968L128.336 249.986C128.852 250.668 129.496 251.202 130.141 251.736C130.417 251.957 130.712 251.975 130.951 251.846L131.062 251.92C130.399 252.693 129.791 253.393 129.349 253.982C128.557 255.05 127.673 256.137 126.826 257.278C126.845 256.984 126.734 256.707 126.458 256.468C115.207 247.869 101.949 241.295 89.3167 235.034C83.5346 232.143 77.5868 229.584 71.4181 227.576C68.3061 226.564 62.3032 224.777 58.3994 225.901C57.7181 224.704 57.1287 223.47 56.6316 222.199C55.4162 214.999 58.4177 207.726 65.8938 204.43C70.0554 205.369 73.8305 207.689 77.4581 209.844C84.3081 213.913 90.6241 218.553 96.5902 223.838Z" fill="#F22E03"/>
<path d="M104.386 273.166C110.528 272.157 116.814 271.293 122.884 270.086C123.28 272.211 124.163 274.193 125.333 276.066C123.352 276.696 120.776 276.93 118.939 277.417C114.094 278.641 109.555 280.803 104.962 282.766C100.243 284.819 95.3083 286.278 90.5893 288.367C88.6081 289.232 86.699 290.259 84.8078 291.321C84.4295 291.52 84.0692 291.754 83.709 291.97C83.8711 289.448 84.4115 286.908 84.5376 286.134C84.9339 283.576 85.4562 281.001 85.9785 278.371C87.3654 277.993 88.7342 277.453 90.1751 276.966C94.8401 275.345 99.4871 273.976 104.386 273.166Z" fill="#F22E03"/>
<path d="M111.867 228.744C118.523 236.008 125.824 242.682 133.825 243.825L133.88 243.936C134.894 243.917 135.908 243.936 136.922 243.973L136.941 243.954C137.549 243.917 138.176 243.862 138.784 243.77C137.678 244.765 136.296 245.484 135.097 246.295C133.825 247.144 133.254 248.471 132.535 249.725C132.461 249.577 132.35 249.467 132.147 249.43C131.815 249.264 131.41 249.172 130.986 249.116C118.301 240.543 107.166 230.09 95.4952 220.281C90.5358 216.115 85.226 212.39 79.5475 209.256C76.1552 207.412 72.8735 205.606 69.2599 204.205C68.7621 204.02 68.2458 203.854 67.748 203.725C68.6883 203.412 69.684 203.172 70.7717 202.988C83.8249 200.757 94.9237 210.897 102.999 219.673C105.801 222.696 108.77 225.812 111.867 228.744Z" fill="#F22E03"/>
<path d="M123.111 264.035C122.713 265.5 122.586 266.911 122.64 268.249C120.94 268.014 119.475 268.466 117.794 269.009C113.471 270.438 108.552 270.6 104.085 271.432C100.124 272.156 96.2723 273.223 92.4745 274.525C91.534 274.85 88.7489 276.189 86.2351 277.057C86.7957 274.127 87.3202 271.197 87.6277 268.249C88.4777 265.193 89.0383 262.118 88.9117 258.809C88.8936 258.556 88.8574 258.321 88.8212 258.067C93.7946 260.201 100.088 260.653 105.17 261.323C111.156 262.136 117.143 263.041 123.111 264.035Z" fill="#F22E03"/>
<path d="M125.177 258.24C125.524 258.405 125.853 258.35 126.146 258.204C125.232 259.447 124.409 260.745 123.806 262.116L123.714 262.08C118.814 261.403 113.86 260.745 108.942 260.197C104.956 259.739 100.952 259.337 97.0032 258.679C94.2974 258.222 91.3357 257.948 88.6665 257.052C88.1911 254.876 87.0576 252.938 85.5219 251.183C82.3224 245.132 74.9363 241.786 68.8847 238.203C64.9906 234.857 61.3158 230.908 58.7197 226.483C64.0034 225.88 70.9506 228.842 75.247 230.542C81.2985 232.974 87.0577 236.063 92.8167 239.153C103.622 244.985 114.189 251.037 124.445 257.783C124.592 257.966 124.774 258.112 125.03 258.167L125.177 258.24Z" fill="#F22E03"/>
<path d="M119.47 278.99C120.89 278.63 124.501 278.504 126.387 277.606C126.89 278.307 127.447 278.989 128.022 279.636C118.86 281.002 110.775 284.792 102.583 289.23C99.7445 290.775 90.8339 296.991 85.1748 297.565C84.079 297.08 83.7196 295.428 83.7017 293.487C84.6897 292.859 85.6958 292.176 86.8456 291.583C92.3788 288.691 98.2535 286.984 104.038 284.756C109.194 282.762 114.099 280.373 119.47 278.99Z" fill="#F22E03"/>
<path d="M496.667 357.215C489.103 355.831 481.027 354.713 473.349 354.163C464.515 353.537 455.264 354.845 446.581 357.632C446.278 357.689 445.994 357.727 445.69 357.784C445.387 357.575 445.084 357.404 444.743 357.272C446.145 355.793 447.51 354.277 448.818 352.703C451.965 353.594 456.117 352.76 459.017 352.494C465.046 351.964 471.131 353.215 477.122 353.689C489.179 354.618 500.856 357.423 512.61 360.115C512.743 360.874 512.818 361.651 512.913 362.428C507.662 360.324 502.638 358.314 496.667 357.215ZM363.169 321.765C369.501 314.656 369.084 303.623 367.435 294.883C366.183 288.286 360.819 278.618 353.103 278.239C352.079 278.182 351.131 278.201 350.202 278.314C347.15 278.637 344.572 279.755 341.766 281.632C341.615 281.727 341.501 281.822 341.349 281.935C343.131 277.348 345.653 273.31 349.956 270.352C357.236 265.329 367.283 268.912 374.089 272.893C384.667 279.073 385.065 291.243 384.591 302.011C383.946 317.253 371.795 328.874 357.008 329.537C356.818 329.461 356.591 329.442 356.363 329.556H356.345C356.212 329.556 356.041 329.575 355.889 329.575C355.264 329.461 354.335 328.798 353.956 328.608C353.785 328.532 353.653 328.514 353.52 328.533C353.349 328.172 353.179 327.831 353.008 327.49C356.781 327.793 360.307 324.987 363.169 321.765ZM343.074 301.367C338.657 300.381 341.103 293.784 345.463 294.769C349.861 295.736 347.435 302.334 343.074 301.367ZM359.074 296.893C355.795 288.286 344.155 286.163 338.544 291.604C338.638 291.187 338.714 290.77 338.809 290.371C340.667 287.054 342.487 284.343 347.074 282.296C348.269 281.765 349.425 281.48 350.506 281.424C356.913 281.063 361.217 288.229 363.15 293.746C364.97 298.902 364.667 305.329 364.06 310.675C363.719 313.708 359.51 322.675 354.771 323.623C354.146 323.983 353.463 324.172 352.762 324.21C352.382 324.267 352.003 324.229 351.624 324.153L351.359 323.888C350.866 323.433 350.202 323.13 349.728 322.637C349.349 322.277 349.027 321.879 348.743 321.461C348.932 321.424 349.141 321.405 349.33 321.367C349.501 321.234 349.71 321.177 349.937 321.253C351.662 320.817 353.444 319.869 355.226 318.334C361.33 313.063 361.747 303.964 359.074 296.893ZM435.302 360.532C435.169 360.608 435.055 360.684 434.98 360.817C434.278 361.367 433.558 361.879 432.856 362.409C413.33 372.988 390.278 378.371 368.515 379.85C355.662 380.741 342.771 380.229 329.918 380.153C318.866 380.096 306.563 380.76 295.492 377.954C293.653 377.291 291.719 376.627 289.918 376.191C289.046 375.85 288.155 375.49 287.302 375.073C289.691 369.992 291.624 364.608 293.293 359.149C293.899 357.12 290.582 355.869 289.785 357.86C285.501 368.343 281.937 377.651 275.51 385.822C274.051 385.935 272.743 385.878 271.416 384.646C269.236 382.675 269.33 379.205 269.653 376.419C269.596 372.798 270.259 369.006 272.382 366.049C272.515 365.556 272.667 365.063 272.781 364.551C276.97 358.201 279.965 350.523 282.999 344.514C283.586 343.395 281.899 342.504 281.274 343.604C276.932 351.206 272.932 359.13 267.492 365.063C267.207 364.608 266.809 364.134 266.24 363.717C263.15 361.461 260.022 359.205 256.875 356.987C256.212 356.077 255.567 355.13 254.98 354.144C252.515 350.561 250.297 346.826 249.482 342.485C249.463 342.333 249.482 342.201 249.539 342.068C245.861 329.708 246.999 315.755 249.141 303.149C252.61 282.732 259.795 262.713 270.657 245.063C287.947 217.007 313.008 193.348 345.861 186.315C349.425 187.13 352.875 188.172 356.231 189.556C356.894 189.727 357.558 189.935 358.202 190.163C369.69 193.708 380.288 200.571 389.236 208.495C389.33 208.324 389.406 208.153 389.463 207.964C389.52 207.68 389.577 207.395 389.653 207.111C389.823 206.296 389.558 205.689 389.084 205.253C389.823 204.267 390.487 202.978 391.093 201.594C391.226 201.727 391.359 201.86 391.529 201.992C394.562 206.315 399.567 209.386 403.302 213.006C405.255 214.902 407.093 216.912 408.837 219.016C407.264 218.371 405.709 217.765 403.946 219.035C401.956 220.495 400.762 222.656 401.425 225.215C402.126 227.888 403.795 230.751 406.581 231.699C408.269 232.267 409.728 232.324 411.492 232.135C413.804 231.888 415.795 231.926 417.956 232.229C419.036 234.125 420.079 236.04 421.103 237.954C426.904 249.215 432.458 261.215 436.894 273.499C439.624 280.988 441.899 288.608 443.548 296.172C443.226 296.874 443.226 297.708 443.927 298.296C455.359 308.134 439.814 321.386 431.852 326.352C424.174 331.149 415.719 334.485 407.15 337.329C389.691 343.092 373.16 343.604 355.435 338.94C355.435 337.234 355.302 335.509 355.036 333.822C370.714 334.352 384.875 323.206 388.079 307.869C391.131 293.424 388.629 278.049 375.984 269.367C362.43 260.077 345.823 263.585 338.79 278.352C333.558 289.386 331.397 304.627 338.108 315.357C335.586 314.428 332.932 313.651 330.07 312.798C328.951 312.457 328.269 314.258 329.349 314.732C341.122 319.926 351.283 324.57 351.643 339.243C351.947 351.604 341.577 360.741 332.041 366.561C330.354 367.585 331.643 370.542 333.52 369.746C344.307 365.082 354.392 353.86 355.34 341.708C377.653 351.983 405.254 343.774 426.202 334.049C436.724 329.158 463.719 308.305 447.681 296.381C447.662 296.248 447.662 296.115 447.643 295.983C447.397 294.864 447.131 293.746 446.866 292.627C461.425 292.286 466.809 305.158 463.359 318.03C460.307 329.348 453.236 340.229 446.183 349.404C442.999 353.575 439.302 357.272 435.302 360.532ZM266.411 394.902C257.615 401.784 249.861 409.84 241.52 417.234C240.117 418.39 238.771 419.566 237.406 420.741C236.382 421.594 235.359 422.466 234.278 423.281C231.491 425.442 209.331 440.305 198.127 442.731C196.022 442.371 194.506 441.12 194.639 438.295C199.188 436.324 203.378 432.931 207.795 430.902C215.567 427.338 223.378 422.997 230.411 418.144C237.88 412.987 243.928 406.409 250.904 400.646C256.875 395.717 264.553 392.362 269.292 386.011C270.354 387.187 271.814 388.096 273.33 388.4C271.302 390.656 269.027 392.817 266.411 394.902ZM198.164 426.258C198.221 426.106 198.278 425.954 198.316 425.803C200.022 422.712 201.406 419.509 202.506 416.134C206.089 415.66 209.861 413.158 212.876 411.698C219.056 408.722 225.008 405.234 231.037 401.992C243.378 395.414 255.928 389.803 267.511 381.878C267.624 382.58 267.795 383.281 268.041 383.983C268.117 384.191 268.212 384.381 268.307 384.57L268.117 384.76C263.378 391.471 255.15 395.243 248.97 400.381C242.79 405.48 237.368 411.281 230.904 416.077C224.439 420.855 217.103 424.722 209.975 428.381C206.676 430.068 203.302 431.357 200.212 433.423C198.411 434.637 196.648 435.831 194.771 436.874C195.397 433.272 196.97 429.651 198.164 426.258ZM200.913 389.386C200.781 388.514 200.667 387.623 200.591 386.732C203.643 387.85 207.549 387.471 210.544 387.376C217.994 387.13 225.615 385.992 233.027 385.101C240.136 384.229 247.188 382.997 254.165 381.423C258.468 380.457 263.586 379.604 267.567 377.31C267.435 378.201 267.359 379.111 267.359 380.021C256.97 387.281 245.785 393.082 234.354 398.523C228.591 401.272 223.131 404.646 217.425 407.566C214.714 408.93 212.117 410.485 209.368 411.831C207.624 412.684 205.103 414.163 202.866 414.94C205.236 406.485 203.131 397.689 200.913 389.386ZM200.781 381.575C201.861 375.338 211.378 375.167 215.928 375.054C226.676 374.807 239.169 379.395 249.766 378.163C254.98 377.784 260.022 376.362 264.553 373.329C266.24 372.21 267.776 370.826 269.179 369.272C268.97 371.092 268.477 372.912 268.079 374.713C264.212 377.651 258.183 378.618 253.615 379.698C247.34 381.177 240.97 382.239 234.563 383.111C228.648 383.926 222.695 384.381 216.743 385.101C212.288 385.67 205.501 386.978 200.534 385.632C200.496 384.286 200.553 382.94 200.781 381.575ZM231.359 339.661C229.785 335.623 229.027 331.111 228.212 327.073C226.657 319.452 225.311 311.812 225.027 304.04C224.762 296.969 225.425 289.878 227.093 283.016C228.857 275.736 233.558 269.499 237.501 263.3C238.127 262.314 236.781 261.101 235.852 261.765C231.871 264.684 227.984 267.869 223.795 270.523C221.084 272.267 217.842 273.082 218.411 268.286C218.695 265.727 219.928 263.092 220.61 260.589C223.662 249.006 230.335 237.518 237.255 227.812C243.928 218.485 251.662 209.935 260.212 202.296C267.7 195.604 276.174 188.608 285.198 183.661C298.221 181.898 311.529 181.954 324.61 183.319C330.695 183.945 336.97 184.57 343.074 185.765C310.544 189.992 284.42 218.77 268.022 245.063C256.345 263.812 249.406 285.443 245.937 307.149C243.529 322.163 243.473 339.623 251.321 353.082C244.743 348.514 238.089 344.04 231.359 339.661ZM200.383 320.229C194.354 316.608 188.212 313.272 182.089 309.878C181.729 306.485 182.108 302.675 182.278 300.608C182.809 294.713 183.662 288.931 185.046 283.187C188.079 270.599 193.615 258.826 198.487 246.902C203.112 235.604 208.345 224.514 216.307 215.149C220.098 210.675 224.572 206.542 229.103 202.883C231.188 201.177 233.823 200.097 236.117 198.675C241.539 196.533 246.961 194.485 252.402 192.438C254.354 191.433 256.439 190.656 258.563 190.144C266.184 187.338 274.051 185.386 282.013 184.116C278.771 185.992 275.681 188.191 272.743 190.182C267.037 194.049 261.653 198.542 256.553 203.149C246.089 212.57 236.838 223.736 229.615 235.812C225.918 242.011 222.638 248.646 220.06 255.376C218.942 258.258 218.354 261.272 217.311 264.153C216.591 266.163 215.662 268.589 216.117 270.77C217.634 278.087 225.785 272.817 231.624 268.21C228.818 272.703 226.278 277.31 224.819 282.504C222.714 289.954 222.316 297.954 222.544 305.651C222.771 313.67 224.401 321.613 225.975 329.442C226.487 332.04 227.056 334.732 227.795 337.348C218.714 331.471 209.539 325.765 200.383 320.229ZM179.738 307.433C179.757 307.793 179.776 308.172 179.795 308.589C175.795 306.314 171.795 303.983 167.909 301.48C166.79 294.656 167.7 287.357 168.079 280.627C168.705 270.201 170.316 259.243 177.084 250.883C177.918 249.841 176.44 248.438 175.568 249.461C173.729 251.604 171.833 253.708 169.463 255.281C165.842 257.689 166.62 250.428 166.847 248.969C167.302 245.916 169.103 243.13 170.714 240.589C175.435 233.234 181.463 226.826 187.928 220.969C189.785 219.926 191.643 218.921 193.482 217.917C204.515 212.002 215.871 206.902 227.378 202.182C226.828 202.599 226.278 203.016 225.747 203.452C220.743 207.68 216.041 212.267 211.984 217.405C204.022 227.566 199.131 239.812 194.278 251.661C189.236 263.983 183.928 275.926 181.387 289.101C180.269 295.035 179.473 301.386 179.738 307.433ZM164.97 299.566C158.79 295.585 152.402 291.623 145.861 287.964C145.823 285.973 146.013 283.945 146.127 282.163C146.487 276.229 146.771 270.409 148.041 264.57C149.387 258.561 151.435 252.21 154.051 246.656C156.004 242.466 158.904 238.807 161.501 234.997C169.331 231.281 176.97 227.035 184.591 222.807C180.875 226.125 177.33 229.651 174.089 233.48C170.183 238.087 165.084 244.116 164.648 250.371C164.439 253.253 164.515 258.599 168.743 257.897C169.501 257.784 170.202 257.461 170.904 257.082C167.89 263.49 166.582 270.542 165.956 277.765C165.368 284.589 164.212 292.362 164.97 299.566ZM143.814 283.3C143.738 284.4 143.681 285.556 143.643 286.732C141.975 285.803 140.307 284.931 138.638 284.096C132.705 282.296 127.34 277.897 125.596 271.907C123.037 266.864 126.278 261.651 129.217 257.689C130.695 255.679 132.06 253.556 133.387 251.433L133.425 251.376C133.956 250.561 134.468 249.727 134.999 248.912C135.34 248.324 135.643 247.755 135.928 247.224L136.136 247.054C137.558 246.049 138.563 245.007 139.473 243.604C140.97 243.3 142.525 242.808 144.079 242.03C145.899 241.613 147.719 240.969 149.577 240.059C152.857 238.845 156.079 237.48 159.264 236.04C156.534 239.509 153.823 242.978 151.833 247.073C149.027 252.817 147.131 259.452 145.691 265.651C144.345 271.452 144.231 277.386 143.814 283.3ZM102.582 289.215C99.7571 290.769 90.847 296.988 85.1788 297.575C84.0793 297.063 83.7191 295.414 83.7002 293.48C84.6859 292.855 85.6908 292.172 86.8472 291.566C92.3827 288.684 98.2593 286.978 104.041 284.741C109.198 282.77 114.089 280.362 119.473 278.978C120.876 278.618 124.515 278.504 126.392 277.594C126.904 278.296 127.435 278.978 128.022 279.641C118.866 280.987 110.771 284.779 102.582 289.215ZM90.1836 276.95C94.8471 275.319 99.4917 273.954 104.383 273.158C110.544 272.153 116.819 271.281 122.885 270.068C123.283 272.191 124.155 274.182 125.331 276.04C123.359 276.684 120.781 276.931 118.942 277.405C114.089 278.637 109.558 280.798 104.97 282.769C100.25 284.817 95.3021 286.258 90.6007 288.343C88.6102 289.234 86.7144 290.239 84.8187 291.3C84.4206 291.509 84.0794 291.736 83.7192 291.964C83.8898 289.442 84.4206 286.902 84.5344 286.125C84.9514 283.566 85.4633 280.988 85.9941 278.352C87.378 277.973 88.7428 277.442 90.1836 276.95ZM88.9134 258.808C88.8945 258.561 88.8566 258.315 88.8186 258.068C93.8044 260.191 100.098 260.646 105.179 261.329C111.169 262.125 117.141 263.035 123.113 264.04C122.714 265.48 122.582 266.902 122.639 268.248C120.951 268.002 119.492 268.457 117.804 269.007C113.463 270.428 108.553 270.599 104.079 271.433C100.117 272.153 96.2878 273.215 92.4774 274.523C91.5295 274.845 88.7429 276.191 86.2405 277.044C86.8092 274.125 87.321 271.187 87.6244 268.248C88.4774 265.196 89.0461 262.106 88.9134 258.808ZM68.8946 238.201C65.0083 234.845 61.3305 230.902 58.7144 226.466C64.0225 225.879 70.9419 228.817 75.2641 230.542C81.3115 232.969 87.0747 236.04 92.8187 239.149C103.624 244.988 114.203 251.035 124.458 257.784C124.591 257.954 124.781 258.087 125.046 258.163L125.179 258.239C125.52 258.39 125.861 258.334 126.146 258.201C125.236 259.433 124.421 260.741 123.795 262.106L123.719 262.068C118.809 261.386 113.861 260.741 108.951 260.172C104.97 259.736 100.97 259.338 97.0082 258.675C94.2973 258.22 91.34 257.935 88.667 257.044C88.212 254.864 87.0557 252.931 85.5202 251.168C82.3164 245.12 74.9419 241.765 68.8946 238.201ZM56.648 222.182C55.4347 214.997 58.4111 207.717 65.9182 204.419C70.0509 205.367 73.8425 207.68 77.4633 209.822C84.3069 213.898 90.6385 218.542 96.5911 223.831C106.771 232.855 116.97 242.011 128.174 249.784L128.193 249.803L128.307 249.954L128.345 249.973C128.857 250.656 129.501 251.187 130.146 251.717C130.411 251.945 130.714 251.964 130.942 251.85L131.075 251.907C130.411 252.684 129.785 253.386 129.349 253.973C128.572 255.035 127.681 256.134 126.828 257.272C126.847 256.987 126.752 256.684 126.449 256.457C115.226 247.869 101.956 241.291 89.3305 235.016C83.5296 232.135 77.5959 229.575 71.4347 227.566C68.3068 226.542 62.3164 224.76 58.4112 225.897C57.7287 224.684 57.1409 223.452 56.648 222.182ZM70.7712 202.978C83.8328 200.741 94.9229 210.883 102.999 219.661C105.823 222.675 108.781 225.803 111.871 228.741C118.544 235.983 125.823 242.675 133.823 243.812L133.899 243.926C134.904 243.907 135.928 243.926 136.932 243.964L136.951 243.945C137.558 243.907 138.184 243.85 138.79 243.755C137.691 244.741 136.307 245.462 135.094 246.296C133.823 247.13 133.255 248.457 132.553 249.708C132.477 249.575 132.345 249.462 132.155 249.424C131.833 249.253 131.416 249.158 130.999 249.101C118.316 240.533 107.169 230.087 95.4917 220.267C90.5438 216.096 85.2358 212.381 79.5486 209.253C76.1553 207.395 72.8756 205.594 69.2737 204.191C68.7808 204.002 68.25 203.85 67.7571 203.717C68.705 203.395 69.6907 203.149 70.7712 202.978ZM167.492 221.537C173.217 214.258 179.435 207.661 186.297 201.537C187.473 203.585 188.421 205.878 189.842 207.66C191.435 209.613 192.97 211.547 194.866 213.158C183.359 219.149 172.117 225.443 160.572 231.187C163.037 227.964 165.217 224.4 167.492 221.537ZM190.733 197.708C197.823 191.85 205.274 186.352 212.913 181.12C213.823 184.438 215.074 187.623 216.743 190.713C218.468 193.898 221.236 197.481 224.553 199.471C217.368 202.334 210.259 205.329 203.283 208.817C201.103 209.898 198.942 211.035 196.781 212.153C193.918 210.144 191.302 207.338 189.179 204.684C188.25 203.509 187.454 202.372 186.62 201.272C187.966 200.059 189.331 198.883 190.733 197.708ZM236.743 166.049C237.501 170.125 238.676 174.087 240.572 177.935C242.183 181.215 244.307 183.509 246.885 186.049C247.909 187.073 249.463 188.059 250.904 189.101C246.165 190.959 241.444 192.912 236.724 194.732C233.558 195.926 230.411 197.139 227.283 198.371L227.093 198.239C226.847 198.068 226.582 198.011 226.354 198.049C222.601 196.438 219.529 192.002 217.634 188.684C216.117 186.049 215.018 183.224 214.013 180.362C221.425 175.319 229.046 170.58 236.743 166.049ZM241.691 163.149C243.681 162.03 245.653 160.874 247.586 159.717C247.852 160.798 248.06 161.689 248.155 161.973C249.16 165.651 250.79 169.158 252.743 172.438C255.757 177.537 260.117 181.897 265.615 184.097C261.312 185.272 257.103 186.732 252.932 188.324C252.477 188.059 252.041 187.812 251.605 187.566C248.572 185.803 245.236 182.22 243.283 179.395C240.42 175.225 238.771 170.466 237.539 165.594C238.923 164.76 240.307 163.964 241.691 163.149ZM270.411 146.561C272.42 145.518 274.449 144.533 276.515 143.623C276.572 146.22 276.383 148.874 276.913 151.452C277.842 155.869 279.567 160.229 281.292 164.4C283.719 170.182 287.283 175.414 291.946 179.547C284.42 180.21 276.875 181.405 269.255 183.149L269.179 183.13C258.032 180.684 251.795 169.651 248.515 159.187C255.757 154.902 262.961 150.523 270.411 146.561ZM301.425 133.954C304.837 132.931 308.288 131.907 311.719 130.978C311.359 131.793 310.999 132.589 310.733 133.348C309.729 136.153 309.311 139.073 308.97 142.011C308.363 147.035 308.61 152.21 309.615 157.158C310.714 162.618 312.136 168.533 314.449 173.613C315.302 175.49 316.155 177.499 317.349 179.149C309.918 178.77 302.563 178.789 295.188 179.281C289.141 174.637 284.951 168.438 282.051 161.386C280.458 157.48 278.999 153.537 278.013 149.461C277.501 147.338 277.596 145.272 277.425 143.206C285.255 139.755 293.463 137.044 301.425 133.954ZM325.482 127.585C331.662 126.58 337.918 125.992 344.193 125.708C342.563 129.272 341.084 132.627 340.307 136.76C339.226 142.504 339.264 148.438 339.946 154.201C340.667 160.229 342.904 166.201 344.799 171.907C345.653 174.428 346.714 176.779 347.927 179.149C348.743 180.741 349.823 182.144 350.638 183.699C347.965 182.959 345.236 182.372 342.487 181.898C341.615 179.964 339.567 178.599 338.278 176.931C335.662 173.537 333.368 170.087 331.093 166.466C326.259 158.751 324.402 150.845 323.624 141.879C323.586 141.594 323.169 141.613 323.169 141.898C323.529 150.296 324.136 157.082 327.7 164.836C330.582 171.111 334.809 176.116 338.999 181.348C336.61 181.007 334.221 180.703 331.852 180.419C328.212 179.983 324.61 179.642 321.027 179.376C317.975 177.101 316.496 172.76 315.226 169.329C313.425 164.4 311.965 159.016 311.131 153.841C310.335 149.063 310.43 144.153 310.999 139.357C311.302 136.514 312.743 133.48 313.387 130.542C317.406 129.48 321.425 128.495 325.482 127.585ZM358.904 125.575C354.544 135.016 352.686 144.988 351.946 155.471C351.529 161.329 351.435 166.997 352.288 172.817C352.591 174.826 353.406 176.741 354.278 178.656C354.411 179.073 354.582 179.471 354.809 179.812C355.719 181.784 356.591 183.736 356.932 185.727C355.871 185.31 354.809 184.95 353.747 184.608C353.596 183.698 353.236 182.94 352.724 182.011C351.226 179.357 349.539 177.006 348.231 174.201C345.691 168.76 344.307 162.599 342.619 156.855C340.837 150.788 341.292 143.338 342.165 137.177C342.752 133.026 344.382 129.443 345.728 125.651C350.127 125.481 354.544 125.48 358.904 125.575ZM361.217 183.3C361.179 184.779 361.236 186.258 361.349 187.717C360.762 187.414 360.155 187.168 359.586 186.902C359.586 186.77 359.643 186.675 359.643 186.542C359.643 185.234 359.435 184.078 359.055 182.94C359.757 183.13 360.515 183.262 361.217 183.3ZM381.292 192.552C380.799 194.447 380.326 196.324 379.852 198.201C379.567 195.907 379.283 193.651 378.999 191.395C379.757 191.793 380.496 192.229 381.292 192.552ZM371.681 156.533C374.089 150.466 377.406 145.822 381.52 142.106C380.363 144.172 379.34 146.466 378.411 149.045C376.951 153.045 376.098 157.518 375.662 162.125C373.444 173.689 374.657 184.855 376.06 196.533C372.458 194.372 368.781 192.286 365.236 189.992C363.302 178.675 367.529 166.978 371.681 156.533ZM390.6 176.286C390.676 176.134 390.771 175.983 390.847 175.85C392.515 173.158 394.278 170.542 396.288 168.097C397.994 166.144 399.908 164.229 401.956 162.485C404.724 160.4 407.871 158.788 411.055 157.518C412.117 157.101 412.762 156.912 413.141 156.874C407.681 164.191 402.145 171.433 397.539 179.357C394.449 184.665 391.814 190.201 389.501 195.869C389.122 196.76 387.586 201.879 386.619 203.945C385.292 202.807 383.946 201.746 382.525 200.741C384.724 192.381 386.676 184.078 390.6 176.286ZM410.164 220.684C412.383 223.509 414.449 226.485 416.345 229.575C415.89 229.518 415.435 229.461 414.98 229.443C411.662 229.272 408.875 231.035 405.747 228.779C402.335 226.296 402.051 218.864 407.984 220.078C409.008 220.267 409.558 220.589 410.164 220.684ZM440.875 273.386C440.269 273.234 439.927 272.874 439.795 272.457C439.473 271.433 440.307 270.011 441.653 270.011C441.785 270.011 441.937 270.03 442.089 270.068C444.288 270.561 443.074 273.86 440.875 273.386ZM447.359 290.163C446.998 290.201 446.638 290.239 446.297 290.314C446.127 289.651 445.918 288.969 445.747 288.286C446.164 288.172 446.563 287.907 446.847 287.452C449.16 283.755 449.292 278.959 448.117 274.845C447.567 272.912 446.582 271.092 445.198 269.632C444.345 268.76 443.359 268.381 442.278 268.153C441.785 267.907 441.198 267.793 440.534 267.85C440.079 267.566 439.51 267.566 439.017 267.793H438.847C438.468 266.845 438.089 265.898 437.71 264.931C444.515 264.267 448.288 270.182 449.349 276.4C450.145 280.969 448.932 285.101 447.397 289.329C447.283 289.651 447.283 289.897 447.359 290.163ZM440.288 256.267C446.544 257.954 450.146 262.106 452.819 269.063C454.942 274.58 456.022 279.964 456.174 285.632C456.041 286.921 455.871 288.153 455.605 289.348L455.567 289.386C455.548 289.556 455.567 289.727 455.529 289.898L455.416 290.125C454.998 290.068 454.562 290.049 454.126 290.049C453.539 290.068 452.951 289.992 452.345 290.011C452.193 290.03 452.06 290.049 451.946 290.068C451.586 290.03 451.226 289.992 450.866 289.954C454.183 284.286 453.728 276.4 451.226 270.561C449.937 267.566 447.491 264.855 444.894 262.959C442.335 261.101 439.472 261.689 436.724 262.58C435.927 260.684 435.093 258.788 434.278 256.931C436.439 256.305 438.449 256.115 440.288 256.267ZM465.71 323.433C467.567 323.262 468.364 322.997 471.302 322.731C472.591 322.599 473.69 322.599 474.695 322.656C478.278 323.964 480.269 326.542 482.051 329.442C477.558 329.442 472.875 330.637 468.515 331.3C467.586 331.433 463.871 332.874 461.368 333.518C463.017 330.239 464.477 326.845 465.71 323.433ZM486.278 335.736C487.435 337.594 488.875 339.319 490.562 340.21C493.217 341.594 495.946 342.39 498.714 343.13C501.709 344.4 504.667 345.841 506.979 347.736C498.581 344.987 489.823 343.13 481.084 342.258C476.345 341.803 471.757 342.182 467.037 342.295C464.591 342.352 462.145 342.618 459.719 342.826C458.6 342.902 457.103 343.262 455.624 343.566C457.463 340.703 459.188 337.765 460.743 334.732C462.202 334.77 464.06 334.049 464.97 333.803C467.776 333.044 470.562 332.684 473.463 332.362C476.743 331.983 479.984 331.187 483.264 331.376C484.155 332.874 485.103 334.352 486.278 335.736ZM512.155 357.386C502.6 355.13 492.724 352.608 483.074 352.021C477.065 351.622 471.074 351.035 465.046 350.883C461.918 350.788 458.885 351.016 455.795 351.433C454.202 351.623 451.51 352.153 449.33 352.134C451.283 349.746 453.141 347.262 454.866 344.703C456.989 344.381 459.037 344.267 461.255 344.21C466.278 344.059 471.264 343.641 476.25 343.812C487.586 344.191 499.397 347.13 510.032 351.3C511.017 353.063 511.681 355.168 512.155 357.386ZM523.34 369.822C522.278 362.466 521.861 353.765 518.354 347.073C514.506 339.755 507.7 337.234 500.458 333.954C492.932 330.523 490.904 323.869 485.406 318.239C482.43 315.206 478.24 313.897 474.013 313.708C475.548 305.158 472.496 294.011 465.254 289.803C466.278 271.907 457.709 244.931 436.458 247.566C432.667 238.068 426.657 228.874 421.065 220.495C415.852 212.703 408.174 203.073 399.871 197.613C404.079 186.182 409.937 176.665 417.008 166.675C419.946 162.542 426.449 153.101 419.207 149.234C412.553 145.708 403.435 151.604 398.145 155.225C392.117 159.357 387.965 165.101 384.458 171.281C384.477 166.258 384.705 161.234 385.463 156.286C386.335 150.656 388.193 145.101 391.795 140.646C394.089 137.841 397.728 136.571 400.117 133.86C403.492 132.153 402.544 125.822 397.823 125.803C386.904 125.784 377.198 134.068 370.07 141.518C364.932 146.902 362.335 152.59 360.553 158.77C360.515 157.158 360.591 155.509 360.743 153.803C361.33 148.4 362.733 143.263 364.212 138.144C365.273 135.737 366.468 133.367 367.435 130.921C368.61 128.002 370.733 124.76 370.961 121.537C371.169 118.561 368.61 116.116 365.918 116.988L365.596 116.893L365.292 116.817C364.705 116.684 364.155 116.684 363.662 116.76C342.847 115.888 321.179 117.575 301.425 124.552C280.61 131.907 261.634 141.139 242.733 152.457C223.984 163.699 205.823 175.054 188.572 188.552C180.932 194.542 173.71 201.12 167.397 208.514C163.947 212.533 160.762 216.741 157.615 220.969C154.999 224.495 152.743 229.48 149.065 231.907C148.894 232.021 148.781 232.134 148.629 232.248C133.634 239.679 120.895 225.708 111.264 214.883C102.809 205.443 93.8234 197.405 81.3116 194.182C56.3827 187.812 38.8831 213.025 51.23 234.485C53.6034 238.599 57.5959 241.992 61.4253 244.646C67.4916 248.836 77.122 251.755 78.3921 259.964C80.4395 273.442 71.3021 286.789 75.2073 300.324C77.8993 309.556 88.9323 307.623 95.5105 304.855C107.719 299.698 118.089 289.803 132.022 289.878C132.25 289.878 132.477 289.822 132.705 289.803C152.762 302.371 172.572 315.224 193.236 326.883C204.42 333.215 214.961 340.874 225.785 347.793C235.605 354.068 245.463 360.494 254.999 367.281C249.482 370.39 243.757 369.234 236.629 367.983C230.278 366.845 224.022 365.859 217.539 365.518C209.52 365.101 198.487 366.618 193.823 374.125C187.226 384.855 194.184 397.423 192.819 409.063C191.53 419.812 185.179 429.272 184.724 440.134C184.326 449.442 193.425 452.722 201.103 452.57C212.439 452.362 224.155 444.343 232.667 437.689C243.378 429.291 253.425 419.869 263.852 411.092C273.236 403.168 281.691 395.452 288.269 385.158C297.823 389.537 310.942 389.272 320.458 389.386C335.624 389.575 350.866 389.954 366.013 389.31C391.283 388.229 418.24 381.765 440.477 368.95C443.719 367.717 446.999 366.542 450.657 365.859C458.581 364.324 467.359 362.523 475.359 364.002C481.728 365.158 488.212 365.461 494.581 366.599C502.013 367.907 508.306 371.073 515.226 373.708C515.757 374.163 516.439 374.504 517.292 374.675L517.482 374.732C520.307 375.376 523.795 372.968 523.34 369.822Z" fill="black"/>
<path d="M270.678 363.079L270.696 363.061L270.678 363.079Z" fill="#1D1D1B"/>
<path d="M58.636 10.6664C32.7309 10.6664 11.6641 31.7506 11.6641 57.6537V497.023C11.6641 522.946 32.7309 544.011 58.636 544.011H498.009C523.912 544.011 544.997 522.946 544.997 497.023V57.6537C544.997 31.7506 523.912 10.6664 498.009 10.6664H58.636ZM498.009 554.671H58.636C26.8501 554.671 0.996216 528.827 0.996216 497.023V57.6537C0.996216 25.8698 26.8501 0.00610352 58.636 0.00610352H498.009C529.813 0.00610352 555.657 25.8698 555.657 57.6537V497.023C555.657 528.827 529.813 554.671 498.009 554.671Z" fill="#1B7695"/>
</svg>
