<svg width="556" height="555" viewBox="0 0 556 555" fill="none" xmlns="http://www.w3.org/2000/svg">
<path d="M498.017 549.335H58.6511C29.7475 549.335 6.32227 525.91 6.32227 497.026V57.6401C6.32227 28.7562 29.7475 5.33081 58.6511 5.33081H498.017C526.901 5.33081 550.327 28.7562 550.327 57.6401V497.026C550.327 525.91 526.901 549.335 498.017 549.335Z" fill="white"/>
<path d="M430.026 288.273C426.781 288.273 426.781 283.235 430.026 283.235C433.29 283.235 433.29 288.273 430.026 288.273Z" fill="black"/>
<path d="M424.88 241.146C421.546 241.146 421.546 236.008 424.88 236.008C428.16 236.008 428.16 241.146 424.88 241.146Z" fill="black"/>
<path d="M424.878 236.003C421.571 236.003 421.571 241.136 424.878 241.136C428.184 241.136 428.184 236.003 424.878 236.003ZM427.38 229.957C427.965 230.176 428.549 230.414 429.115 230.706C433.609 233.026 433.572 240.149 430.741 243.62C428.202 246.725 423.763 247.803 419.763 248.223C420.238 245.045 419.526 241.501 417.279 237.629C415.726 234.925 413.626 232.478 411.196 230.249C416.64 229.902 422.083 228.532 427.38 229.957Z" fill="#CB5C14"/>
<path d="M416.738 287.755C420.372 287.755 420.372 293.359 416.738 293.359C413.139 293.359 413.139 287.755 416.738 287.755Z" fill="black"/>
<path d="M423.344 271.43C424.426 272.764 424.246 274.423 422.821 275.433C419.034 278.084 413.443 278.752 409.638 275.938C407.853 276.642 405.49 275.199 406.158 272.909C407.979 266.326 419.701 267.011 423.344 271.43Z" fill="black"/>
<path d="M405.316 241.159C409.117 241.159 409.117 247.052 405.316 247.052C401.533 247.052 401.533 241.159 405.316 241.159Z" fill="black"/>
<path d="M404.237 257.162C403.121 245.746 396.59 233.782 387.918 223.902C390.498 224.561 393.004 225.512 395.437 226.665C396.846 227.378 398.255 228.129 399.645 228.915C402.718 230.781 405.572 232.922 408.134 235.318C411.189 238.191 414.043 241.978 414.445 246.259C414.957 251.93 408.756 255.113 404.237 257.162ZM405.316 241.154C401.529 241.154 401.529 247.063 405.316 247.063C409.122 247.063 409.122 241.154 405.316 241.154Z" fill="#CB5C14"/>
<path d="M396.465 299.919C392.946 299.919 392.946 294.471 396.465 294.471C400.001 294.471 400.001 299.919 396.465 299.919Z" fill="black"/>
<path d="M382.57 245.155C381.351 242.081 386.281 240.789 387.518 243.809C389.847 249.467 392.448 255.179 392.43 261.436C392.43 264.802 387.445 264.729 387.245 261.436C386.881 255.652 384.68 250.485 382.57 245.155Z" fill="black"/>
<path d="M383.192 282.931C390.454 262.708 375.379 244.507 366.94 227.096C364.017 221.066 361.296 214.907 358.023 209.189C358.796 209.391 359.604 209.612 360.395 209.778C360.983 209.906 361.498 209.87 361.939 209.741C387.2 221.617 415.844 261.862 385.546 282.324L385.38 282.453C384.645 282.619 383.928 282.821 383.192 282.931ZM387.255 261.421C387.458 264.73 392.44 264.804 392.44 261.421C392.458 255.17 389.848 249.452 387.531 243.79C386.299 240.775 381.354 242.08 382.567 245.15C384.7 250.463 386.888 255.648 387.255 261.421Z" fill="#CB5C14"/>
<path d="M366.989 276.95C365.583 276.95 364.375 275.76 364.375 274.336C364.375 273.651 364.393 272.983 364.375 272.298L364.303 271.559C364.231 271.361 364.195 271.181 364.141 270.964C363.762 269.612 364.591 268.17 365.943 267.81C367.332 267.413 368.666 268.26 369.08 269.594C369.567 271.109 369.585 272.749 369.603 274.336C369.603 275.76 368.413 276.95 366.989 276.95Z" fill="black"/>
<path d="M363.48 338.568C363.497 338.744 363.533 338.902 363.55 339.061C363.533 338.902 363.497 338.726 363.48 338.568Z" fill="#1D1D1B"/>
<path d="M362.684 343.768C363.123 342.73 363.405 341.675 363.598 340.603C363.598 340.445 363.616 340.269 363.616 340.111C363.651 341.57 363.299 342.783 362.684 343.768Z" fill="#1D1D1B"/>
<path d="M349.988 249.162C349.043 246.292 353.53 245.093 354.474 247.908C358.562 259.788 361.977 272.358 359.869 284.964C359.306 288.234 354.456 286.799 354.947 283.602C356.709 271.813 353.693 260.297 349.988 249.162Z" fill="black"/>
<path d="M351.304 348.559C352.023 348.471 352.742 348.384 353.461 348.261C352.742 348.384 352.023 348.489 351.304 348.559Z" fill="#1D1D1B"/>
<path d="M351.001 341.715C349.997 341.979 348.677 341.434 348.342 340.377L348.237 340.219C348.078 339.955 347.937 339.726 347.902 339.427C347.691 338.23 348.201 337.033 349.451 336.698C350.455 336.416 351.757 336.98 352.11 338.018L352.215 338.177C352.356 338.441 352.514 338.687 352.55 338.987C352.743 340.184 352.25 341.363 351.001 341.715Z" fill="black"/>
<path d="M334.302 344.79C332.015 344.157 332.068 340.938 334.302 340.252C334.407 340.217 334.548 340.182 334.671 340.147L334.794 340.076C335.867 339.285 337.503 339.865 338.118 340.938C338.681 341.888 338.505 343.101 337.731 343.893C336.799 344.807 335.568 345.177 334.302 344.79Z" fill="black"/>
<path d="M330.135 295.731C331.527 295.731 332.688 296.892 332.688 298.284C332.67 299.98 332.384 301.766 331.938 303.391C331.509 304.765 330.081 305.604 328.724 305.212C327.26 304.819 326.617 303.391 326.867 301.998C327.135 300.748 327.564 299.588 327.599 298.284C327.635 296.892 328.724 295.731 330.135 295.731Z" fill="black"/>
<path d="M320.452 287.228C320.488 284.235 325.077 284.235 325.077 287.228C325.095 295.886 325.023 305.385 322.209 313.685C321.188 316.678 316.635 315.477 317.441 312.376C319.503 304.077 320.345 295.76 320.452 287.228Z" fill="black"/>
<path d="M315.002 359.497C317.865 359.497 317.865 363.915 315.002 363.915C312.155 363.915 312.155 359.497 315.002 359.497Z" fill="black"/>
<path d="M318.025 349.827C318.096 349.792 318.236 349.721 318.394 349.634C318.078 349.44 317.762 349.265 317.446 349.107C316.374 348.58 315.162 348.334 313.95 348.439C312.159 348.597 310.35 349.511 310.121 351.32C311.808 351.39 313.564 351.074 315.11 350.705C316.058 350.494 317.112 350.283 318.025 349.827ZM318.552 355.061C315.022 356.203 311.017 356.712 307.364 355.957C306.573 355.799 306.046 355.377 305.8 354.85C305.467 354.534 305.256 354.113 305.15 353.533C304.483 348.492 307.205 344.417 312.299 343.539C316.076 342.871 321.591 344.206 323.576 347.842C325.578 351.513 321.486 354.13 318.552 355.061Z" fill="black"/>
<path d="M313.93 348.453C315.157 348.348 316.367 348.593 317.437 349.102C317.752 349.277 318.068 349.452 318.383 349.645C318.225 349.733 318.103 349.803 318.015 349.838C317.103 350.294 316.052 350.504 315.105 350.714C313.545 351.083 311.809 351.398 310.126 351.328C310.336 349.522 312.142 348.611 313.93 348.453Z" fill="#CB5C14"/>
<path d="M310.23 193.495C302.301 193.736 296.54 196.311 291.15 200.664C287.908 199.294 284.814 197.534 281.721 195.774C298.133 191.791 315.583 186.456 332.163 191.754C338.85 193.884 343.907 197.978 347.983 203.054C351.965 205.814 354.207 210.242 355.559 215.206C357.43 218.874 359.134 222.634 360.801 226.247C368.23 242.437 383.29 259.424 379.085 278.356C375.399 295.046 357.374 304.253 342.481 309.625C344.222 303.549 344.945 297.047 345.574 291.341C347.279 275.781 346.13 260.313 338.294 246.475C334.589 239.918 329.495 234.434 323.697 229.711C317.843 224.931 310.841 220.43 308.748 212.761C310.397 210.39 311.953 207.963 312.86 205.221C313.935 202.054 313.546 198.627 312.805 195.478C312.564 194.329 311.378 193.458 310.23 193.495ZM364.395 274.317C364.377 275.744 365.599 276.929 366.989 276.929C368.415 276.929 369.619 275.744 369.601 274.317C369.601 272.743 369.582 271.094 369.1 269.575C368.693 268.241 367.341 267.389 365.951 267.778C364.617 268.167 363.765 269.594 364.154 270.946C364.21 271.168 364.247 271.353 364.321 271.539L364.377 272.298C364.414 272.965 364.395 273.651 364.395 274.317ZM359.875 284.95C361.987 272.335 358.579 259.776 354.485 247.883C353.54 245.086 349.057 246.272 350.002 249.143C353.707 260.276 356.708 271.798 354.948 283.598C354.466 286.784 359.319 288.229 359.875 284.95Z" fill="#CB5C14"/>
<path d="M327.986 322.54C317.427 330.075 304.466 333.668 292.917 339.424C292.385 337.426 291.817 335.483 291.322 333.668C289.983 328.975 285.162 315.317 291.798 313.319C301.184 310.496 312.899 307.801 314.09 295.793C315.264 284.262 295.41 283.529 297.756 269.816C298.6 264.793 306.904 264.39 310.736 263.51C315.649 262.428 319.315 260.448 322.358 256.434C329.086 247.652 317.17 241.273 311.011 237.661C304.942 234.123 300.543 230.567 302.889 222.959C303.458 221.107 304.356 219.402 305.364 217.752C309.562 227.065 319.938 232.308 326.85 239.531C338.399 251.649 341.626 267.818 340.801 283.987C340.177 296.49 339.096 314.62 327.986 322.54ZM330.113 295.757C328.72 295.757 327.62 296.912 327.583 298.305C327.546 299.606 327.125 300.761 326.85 302.026C326.593 303.419 327.253 304.831 328.701 305.234C330.076 305.619 331.506 304.794 331.909 303.419C332.368 301.788 332.661 299.991 332.679 298.305C332.679 296.912 331.506 295.757 330.113 295.757ZM322.193 313.704C324.998 305.418 325.09 295.903 325.053 287.232C325.053 284.262 320.47 284.262 320.433 287.232C320.323 295.775 319.48 304.098 317.427 312.384C316.62 315.501 321.185 316.692 322.193 313.704Z" fill="#CB5C14"/>
<path d="M298.426 365.035C295.563 365.035 295.563 360.584 298.426 360.584C301.288 360.584 301.288 365.035 298.426 365.035Z" fill="black"/>
<path d="M273.522 197.103C277.978 199.654 282.211 202.557 286.982 204.424C286.538 204.868 286.094 205.312 285.65 205.756C281.084 210.452 275.463 215.592 268.696 216.424C264.425 216.941 261.744 210.47 259.489 207.789C257.011 204.868 254.219 202.372 251.113 200.265C251.372 200.154 251.612 199.987 251.853 199.747C258.971 192.259 264.998 192.296 273.522 197.103Z" fill="#CB5C14"/>
<path d="M252.765 260.393C253.489 257.263 258.21 258.602 257.559 261.732C255.841 270.18 255.443 278.23 261.991 284.706C264.488 287.184 260.725 290.875 258.174 288.541C249.979 281.052 250.522 270.397 252.765 260.393Z" fill="black"/>
<path d="M212.987 300.545C214.363 310.158 218.822 319.882 226.435 325.037C211.245 320.836 198.604 302.435 193.595 287.592C185.138 262.44 201.393 227.563 228.178 221.509C254.835 215.492 268.925 242.974 269.567 264.935C269.751 270.641 269.311 276.603 268.21 282.529L268.191 282.51C268.136 282.4 267.953 281.942 267.879 281.74C267.733 281.355 267.586 280.969 267.439 280.566C267.036 279.575 266.577 278.713 265.806 277.924C264.871 276.933 263.201 276.97 262.229 277.924C261.238 278.915 261.275 280.529 262.229 281.538L262.284 281.575L262.486 281.868L262.577 282.07L262.687 282.272C263.018 283.171 263.348 284.088 263.898 284.896C264.504 285.794 265.55 286.327 266.65 286.015C267.017 285.923 267.347 285.703 267.623 285.464C266.577 290.198 265.091 294.821 263.201 299.261C260.174 304.526 256.45 310.782 251.992 315.827C232.856 305.59 235.241 281.098 239.828 262.678C240.58 259.651 235.939 258.367 235.15 261.376C229.994 280.951 227.628 308.874 247.79 319.955C246.084 321.368 244.304 322.579 242.378 323.478C242.121 323.368 241.791 323.258 241.406 323.239C234.031 322.542 228.05 321.056 223.518 314.69C219.629 309.204 218.308 302.068 217.776 295.518C216.693 282.933 218.638 268.916 223.904 257.376C225.188 254.496 220.968 252.001 219.629 254.881C213.281 268.622 210.823 285.574 212.987 300.545ZM258.193 288.528C260.743 290.858 264.504 287.152 262.009 284.694C255.441 278.218 255.863 270.164 257.569 261.706C258.229 258.587 253.496 257.248 252.78 260.385C250.524 270.384 249.992 281.024 258.193 288.528Z" fill="#A12F31"/>
<path d="M233.868 331.247C229.584 331.596 225.171 330.971 220.722 329.077C198.4 319.534 182.698 290.336 185.842 266.525C189.28 240.048 212.889 208.863 242.694 216.292C272.003 223.573 280.24 256.835 273.879 286.125C272.83 289.692 271.396 293.112 269.723 296.404C269.741 296.79 269.668 297.194 269.447 297.617C263.269 309.422 250.601 333.95 233.868 331.247ZM219.6 254.904C220.961 252.018 225.19 254.518 223.884 257.387C218.626 268.934 216.677 282.963 217.762 295.539C218.295 302.085 219.6 309.219 223.498 314.717C228.04 321.06 234.016 322.568 241.389 323.248C241.775 323.285 242.106 323.377 242.363 323.488C244.294 322.605 246.077 321.391 247.787 319.957C227.617 308.888 229.989 280.959 235.137 261.395C235.928 258.379 240.561 259.667 239.807 262.682C235.229 281.106 232.857 305.615 251.98 315.839C256.429 310.801 260.162 304.549 263.177 299.272C265.071 294.822 266.56 290.207 267.608 285.482C267.333 285.721 267.002 285.941 266.634 286.033C265.531 286.346 264.483 285.813 263.876 284.912C263.324 284.103 262.993 283.183 262.681 282.282L262.552 282.08L262.479 281.878L262.276 281.602L262.221 281.547C261.265 280.554 261.228 278.936 262.221 277.943C263.177 276.987 264.869 276.95 265.788 277.943C266.561 278.715 267.02 279.58 267.425 280.572C267.572 280.977 267.719 281.363 267.866 281.749C267.939 281.97 268.123 282.411 268.179 282.521L268.197 282.54C269.282 276.619 269.741 270.662 269.558 264.944C268.896 242.99 254.83 215.501 228.168 221.532C201.379 227.581 185.106 262.461 193.583 287.615C198.602 302.453 211.234 320.858 226.422 325.05C218.81 319.884 214.341 310.175 212.962 300.559C210.811 285.592 213.275 268.639 219.6 254.904Z" fill="black"/>
<path d="M143.25 363.536C146.547 363.536 146.547 358.373 143.25 358.373C139.917 358.373 139.917 363.536 143.25 363.536ZM298.431 365.021C301.293 365.021 301.293 360.565 298.431 360.565C295.568 360.565 295.568 365.021 298.431 365.021ZM396.492 299.895C400.006 299.895 400.006 294.46 396.492 294.46C392.959 294.46 392.959 299.895 396.492 299.895ZM416.745 293.337C420.386 293.337 420.386 287.739 416.745 287.739C413.158 287.739 413.158 293.337 416.745 293.337ZM430.024 288.265C433.303 288.265 433.303 283.228 430.024 283.228C426.781 283.228 426.781 288.265 430.024 288.265ZM215.261 347.938C221.492 350.855 228.847 351.616 235.586 352.141C246.293 353.011 255.442 354.442 265.242 358.826C275.695 363.5 289.119 368.789 293.666 354.279C294.572 351.326 294.554 348.083 294.065 344.877C306.546 338.319 320.477 334.46 332.053 326.217C335.731 323.59 338.304 319.967 340.188 315.873C340.586 315.927 340.967 315.927 341.438 315.782C356.727 311.181 372.959 302.703 380.84 288.192C383.738 288.88 386.691 288.482 389.082 286.471L389.1 286.453C399.137 280.185 403.666 271.906 404.318 262.957C404.662 262.957 405.006 262.92 405.35 262.794C410.532 260.765 414.915 257.776 417.47 254.026C420.042 254.044 422.56 253.699 424.952 253.047C430.713 256.562 449.01 267.395 447.941 271.036C445.042 280.674 438.702 292.159 432.542 300.112C428.738 305.004 418.611 305.348 413.14 305.692C405.133 306.217 397.144 305.891 389.155 306.417C378.285 307.141 363.014 310.42 359.916 322.793C358.756 327.558 361.709 332.377 363.05 336.761C363.249 337.395 363.394 337.992 363.466 338.572C363.503 338.735 363.539 338.898 363.557 339.061L363.593 339.387C363.611 339.623 363.629 339.877 363.611 340.112C363.611 340.257 363.611 340.438 363.611 340.601C363.412 341.67 363.122 342.739 362.688 343.771C362.579 343.935 362.488 344.098 362.343 344.261C362.253 344.406 362.108 344.551 361.981 344.695C361.854 344.859 361.709 345.003 361.546 345.13C361.401 345.275 361.256 345.402 361.111 345.511C360.948 345.638 360.785 345.764 360.604 345.873C360.079 346.199 359.517 346.507 358.919 346.779C358.72 346.887 358.521 346.96 358.303 347.032C358.104 347.123 357.887 347.195 357.669 347.268C357.452 347.34 357.235 347.413 356.999 347.485C356.727 347.558 356.437 347.648 356.148 347.721C355.767 347.811 355.351 347.92 354.952 347.992L354.698 348.047C354.282 348.137 353.865 348.192 353.466 348.264C352.76 348.373 352.035 348.464 351.311 348.554C350.985 348.608 350.659 348.645 350.332 348.681C349.753 348.735 349.173 348.79 348.593 348.844C348.014 348.898 347.416 348.971 346.854 349.007C346.166 349.061 345.477 349.134 344.843 349.206C344.644 349.242 344.427 349.243 344.227 349.279C343.865 349.315 343.503 349.369 343.159 349.424C342.959 349.46 342.724 349.496 342.506 349.532C336.492 350.674 332.814 353.808 330.224 359.279C330.025 359.677 329.843 360.021 329.626 360.384C329.517 360.601 329.372 360.8 329.264 361C328.376 362.377 327.289 363.554 326.093 364.587C325.858 364.786 325.604 364.985 325.351 365.166C324.861 365.547 324.354 365.891 323.811 366.235C322.977 366.76 322.108 367.213 321.202 367.612C320.912 367.757 320.622 367.902 320.296 368.029C320.097 368.119 319.898 368.192 319.68 368.282C319.282 368.445 318.865 368.59 318.449 368.735L318.322 368.79C317.742 368.989 317.144 369.17 316.546 369.351C315.93 369.532 315.278 369.695 314.662 369.858L314.572 369.877C313.412 370.148 312.235 370.384 311.057 370.601H311.039C310.423 370.728 309.862 370.818 309.282 370.909C308.974 370.963 308.666 371 308.358 371.054C307.796 371.145 307.235 371.217 306.673 371.29C306.365 371.326 306.039 371.362 305.731 371.416H305.659H305.623C298.92 371.724 292.181 371.362 286.873 371.398C277.054 371.471 267.217 371.797 257.398 372.213C255.025 372.141 252.67 372.068 250.333 371.996C247.597 371.923 244.916 371.887 242.217 371.851C220.659 371.706 198.993 372.992 177.453 372.177C173.721 372.05 166.746 372.395 159.21 372.232C158.703 372.213 158.196 372.195 157.706 372.177C156.946 372.159 156.203 372.123 155.442 372.105C155.17 372.087 154.935 372.069 154.681 372.05C154.174 372.032 153.667 371.996 153.178 371.978C152.906 371.96 152.652 371.942 152.417 371.905C149.319 371.688 146.239 371.326 143.359 370.764C142.978 370.674 142.598 370.601 142.235 370.529C140.424 370.112 138.721 369.623 137.145 369.025C136.583 368.808 136.04 368.59 135.533 368.337C134.79 367.992 134.083 367.612 133.431 367.213C133.286 367.105 133.123 366.996 132.96 366.887C132.797 366.797 132.652 366.688 132.489 366.579L132.471 366.525C131.801 365.837 131.203 365.112 130.714 364.242C129.844 362.775 129.12 361.199 128.413 359.623C128.304 358.699 128.323 357.721 128.486 356.634C128.504 356.434 128.54 356.235 128.594 356.036C128.649 355.728 128.703 355.42 128.812 355.112C129.065 354.134 128.685 352.721 127.67 352.286C125.116 351.199 122.888 350.003 120.986 348.337C130.678 346.344 140.333 344.949 149.464 340.891C149.989 340.656 150.478 340.438 151.004 340.185C157.272 337.938 163.377 335.148 168.956 331.779L168.975 331.761C170.768 330.982 172.543 330.257 174.391 329.587C174.953 329.351 175.533 329.152 176.094 328.953C176.891 328.681 177.688 328.409 178.503 328.156C178.92 328.011 179.337 327.884 179.754 327.757C180.098 327.667 180.46 327.558 180.804 327.467C181.402 327.286 182 327.123 182.598 326.978C182.706 327.54 182.797 328.156 182.869 328.79C183.449 333.608 184.717 337.25 188.34 340.04C187.471 346.543 186.221 354.424 193.304 356.887C200.985 359.55 210.261 354.369 215.261 347.938ZM307.344 355.963C311.003 356.706 315.025 356.217 318.557 355.058C321.492 354.134 325.586 351.525 323.557 347.848C321.583 344.206 316.075 342.884 312.289 343.536C307.199 344.424 304.463 348.5 305.151 353.536C305.242 354.116 305.478 354.551 305.785 354.84C306.039 355.384 306.565 355.8 307.344 355.963ZM315.025 363.898C317.887 363.898 317.887 359.478 315.025 359.478C312.162 359.478 312.162 363.898 315.025 363.898ZM179.373 354.84C180.587 354.84 181.782 353.753 181.728 352.485C181.71 352.34 181.71 352.213 181.692 352.105C181.619 350.837 180.677 349.786 179.373 349.786C178.032 349.786 177.109 350.837 177.036 352.105C177.036 352.213 177.036 352.34 177 352.485C176.927 353.753 178.141 354.84 179.373 354.84ZM151.475 354.714C155.369 355.8 167.362 356.217 166.185 349.569C165.533 345.819 160.37 344.877 157.344 344.877C153.54 344.895 149.156 346.706 148.866 351C148.775 351.924 149.228 352.612 149.862 353.011C150.007 353.771 150.496 354.442 151.475 354.714ZM155.043 362.847C151.764 362.847 151.764 367.902 155.043 367.902C158.304 367.902 158.304 362.847 155.043 362.847ZM348.358 340.384C348.684 341.434 349.988 341.978 351.003 341.706C352.253 341.362 352.76 340.185 352.561 338.989C352.506 338.681 352.362 338.446 352.217 338.174L352.108 338.029C351.764 336.978 350.459 336.416 349.445 336.688C348.213 337.032 347.706 338.228 347.905 339.424C347.941 339.714 348.068 339.967 348.231 340.221L348.358 340.384ZM337.76 343.88C338.521 343.083 338.684 341.869 338.122 340.927C337.506 339.858 335.876 339.279 334.807 340.058L334.68 340.13C334.553 340.185 334.427 340.203 334.318 340.257C332.09 340.927 332.035 344.134 334.318 344.786C335.586 345.166 336.818 344.804 337.76 343.88ZM423.357 271.417C419.716 266.997 407.995 266.308 406.166 272.902C405.513 275.185 407.869 276.616 409.644 275.928C413.466 278.736 419.046 278.065 422.85 275.402C424.263 274.406 424.444 272.739 423.357 271.417Z" fill="#FEA600"/>
<path d="M181.718 352.481C181.788 353.76 180.597 354.829 179.37 354.829C178.144 354.829 176.917 353.76 177.005 352.481C177.022 352.358 177.022 352.218 177.022 352.113C177.11 350.851 178.021 349.782 179.37 349.782C180.684 349.782 181.613 350.851 181.701 352.113C181.701 352.218 181.701 352.358 181.718 352.481Z" fill="black"/>
<path d="M157.344 344.888C160.38 344.87 165.541 345.818 166.173 349.557C167.366 356.227 155.36 355.788 151.464 354.717C150.498 354.454 150.007 353.77 149.866 353.015C149.234 352.611 148.778 351.927 148.866 350.996C149.147 346.714 153.535 344.906 157.344 344.888Z" fill="black"/>
<path d="M155.043 367.92C151.764 367.92 151.764 362.844 155.043 362.844C158.305 362.844 158.305 367.92 155.043 367.92Z" fill="black"/>
<path d="M220.727 329.07C225.167 330.981 229.589 331.599 233.88 331.243C250.593 333.942 263.258 309.434 269.441 297.611C269.666 297.199 269.741 296.787 269.723 296.412C271.39 293.115 272.814 289.686 273.882 286.126C280.253 256.841 271.99 223.583 242.686 216.295C212.895 208.856 189.287 240.034 185.839 266.528C182.71 290.342 198.411 319.533 220.727 329.07ZM212.539 342.279C209.016 347.319 202.421 353.446 195.676 352.079C192.06 351.329 192.566 345.333 193.203 340.612L193.315 340.443C191.254 338.214 190.092 335.422 189.455 332.499C187.563 328.358 187.732 322.7 185.82 318.634C185.689 318.39 185.539 318.147 185.389 317.903C185.258 317.716 185.108 317.528 184.94 317.341L184.921 317.304C184.734 317.116 184.565 316.947 184.378 316.779C184.115 316.517 183.816 316.273 183.478 316.048C183.328 315.917 183.16 315.786 182.972 315.673C182.467 315.317 181.942 314.999 181.38 314.68C181.117 314.531 180.818 314.343 180.537 314.212C178.213 312.938 175.721 311.758 173.998 310.202C172.368 306.062 172.761 300.984 172.255 296.6C172.161 295.813 172.012 295.082 171.862 294.314C171.843 294.145 171.805 293.995 171.787 293.845C171.73 293.471 171.656 293.115 171.581 292.74C171.543 292.515 171.468 292.29 171.412 292.065C171.3 291.541 171.187 291.016 171.037 290.492L171 290.342C170.831 289.742 170.644 289.161 170.456 288.562L170.344 288.262C170.157 287.719 169.932 287.156 169.726 286.613L169.669 286.463C169.426 285.882 169.164 285.32 168.882 284.758L168.826 284.646C168.545 284.065 168.264 283.522 167.946 282.978L167.908 282.922C167.646 282.435 167.346 281.948 167.028 281.498C166.934 281.329 166.84 281.161 166.709 281.011C166.391 280.542 166.072 280.111 165.735 279.681C165.416 279.287 165.079 278.912 164.76 278.538C164.611 278.35 164.442 278.163 164.255 277.976C164.011 277.695 163.73 277.395 163.468 277.114C163.205 276.851 162.962 276.608 162.718 276.364C161.669 275.315 160.564 274.284 159.496 273.254C156.423 269.357 153.294 265.497 150.483 261.412C147.336 256.878 143.214 251.276 141.396 245.524C141.321 245.149 141.284 244.793 141.246 244.437C141.209 244.081 141.19 243.725 141.19 243.388C141.19 243.032 141.227 242.676 141.246 242.301C141.302 241.72 141.415 241.14 141.602 240.578C141.696 240.278 141.808 239.997 141.939 239.716C142.014 239.528 142.127 239.341 142.22 239.172C142.314 239.004 142.408 238.854 142.52 238.704C142.633 238.554 142.745 238.423 142.858 238.31L143.213 238.011C145.2 238.011 148.048 238.947 151.045 240.221H151.083C152.844 241.608 154.474 243.107 155.523 243.894C162.737 249.421 172.405 252.4 179.131 244.287C187.301 234.451 172.911 218.037 186.42 210.205C190.486 207.845 195.919 208.126 200.248 205.821C204.819 203.367 208.117 198.889 210.459 194.429C210.646 194.073 210.834 193.699 211.002 193.343C211.527 192.312 211.977 191.263 212.426 190.195C213.045 188.659 213.588 187.066 214.094 185.473C214.787 183.15 215.368 180.789 215.893 178.41C216.061 177.623 216.23 176.817 216.398 176.03C218.459 167.936 220.202 159.842 224.08 152.422L224.361 152.16L224.661 151.879C227.415 158.511 227.172 165.969 227.622 173.088C228.034 179.721 229.42 185.792 232.287 191.825C234.535 196.528 238.732 199.32 243.229 201.587C249.412 204.716 253.946 209.006 257.881 214.627C263.821 223.153 270.303 222.909 279.147 218.187C290.464 212.173 294.605 200.631 307.945 199.039C308.807 210.505 295.186 218.037 296.984 230.46C298.389 240.053 311.992 242.901 317.726 248.859C324.396 255.754 299.476 260.195 296.441 262.237C287.972 267.952 292.487 280.692 298.614 286.182C301.462 288.749 308.114 291.522 308.451 295.794C308.976 302.52 298.296 306.305 293.237 307.242C281.733 309.378 282.669 318.315 284.112 328.227C285.349 336.49 289.752 344.19 288.159 352.753C286.136 363.751 272.065 355.695 266.35 353.147C259.736 350.186 252.972 347.994 245.702 347.282C236.521 346.345 225.879 346.963 217.373 342.729C216.68 340.968 213.981 340.237 212.539 342.279Z" fill="#FDA5C5"/>
<path d="M143.236 358.389C146.538 358.389 146.538 363.542 143.236 363.542C139.917 363.542 139.917 358.389 143.236 358.389Z" fill="black"/>
<path d="M447.933 271.048C445.037 280.677 438.7 292.167 432.531 300.122C428.732 304.993 418.596 305.351 413.123 305.689C405.131 306.216 397.138 305.915 389.146 306.422C378.276 307.137 363.005 310.428 359.921 322.803C358.736 327.561 361.707 332.375 363.043 336.776C363.231 337.396 363.381 337.998 363.456 338.581C363.494 338.75 363.532 338.901 363.55 339.07L363.588 339.39C363.607 339.634 363.626 339.879 363.607 340.104C363.644 341.571 363.306 342.775 362.685 343.772C362.572 343.941 362.478 344.11 362.347 344.26V344.279C362.234 344.411 362.102 344.561 361.971 344.712C361.858 344.862 361.707 345.013 361.538 345.144C361.406 345.276 361.256 345.408 361.106 345.521C360.936 345.652 360.767 345.765 360.598 345.878C360.071 346.216 359.526 346.517 358.924 346.781C358.717 346.893 358.51 346.969 358.303 347.044C358.097 347.138 357.871 347.194 357.664 347.269C357.457 347.345 357.231 347.42 357.006 347.495C356.724 347.57 356.442 347.646 356.141 347.721C355.765 347.815 355.351 347.928 354.937 347.984L354.693 348.041C354.279 348.135 353.865 348.21 353.451 348.266C352.737 348.398 352.022 348.492 351.308 348.567C350.988 348.605 350.649 348.661 350.33 348.68C349.747 348.736 349.164 348.793 348.581 348.849C347.998 348.906 347.415 348.962 346.85 349.018C346.155 349.075 345.478 349.131 344.838 349.206C344.631 349.244 344.424 349.263 344.218 349.282C343.86 349.319 343.503 349.376 343.165 349.432C342.939 349.47 342.713 349.507 342.506 349.545C336.488 350.673 332.821 353.814 330.207 359.287C330.019 359.682 329.831 360.039 329.624 360.396C329.511 360.603 329.38 360.81 329.248 361.017C328.364 362.39 327.292 363.574 326.089 364.59C325.844 364.778 325.6 364.985 325.336 365.173C324.847 365.568 324.34 365.925 323.794 366.245C322.967 366.771 322.102 367.223 321.199 367.618C320.898 367.768 320.616 367.9 320.296 368.032C320.089 368.126 319.882 368.201 319.676 368.295C319.281 368.445 318.848 368.596 318.434 368.746L318.322 368.784C317.739 368.991 317.137 369.179 316.535 369.348C315.914 369.536 315.275 369.686 314.654 369.874H314.56C313.394 370.175 312.228 370.42 311.044 370.608H311.025C310.423 370.721 309.859 370.834 309.276 370.909C308.975 370.965 308.655 371.022 308.354 371.059C307.79 371.153 307.226 371.21 306.662 371.285C306.361 371.323 306.041 371.379 305.722 371.417H305.646H305.628C298.914 371.736 292.181 371.36 286.859 371.398C277.042 371.473 267.207 371.811 257.39 372.225L257.22 372.244C254.907 372.15 252.613 372.075 250.319 372C247.592 371.924 244.902 371.887 242.213 371.868C220.661 371.717 198.978 372.996 177.445 372.169C173.721 372.056 166.744 372.394 159.203 372.244C158.695 372.225 158.206 372.206 157.698 372.188C156.946 372.169 156.194 372.131 155.442 372.112C155.178 372.094 154.934 372.075 154.671 372.056C154.163 372.037 153.674 372 153.166 371.981C152.903 371.962 152.658 371.943 152.414 371.924C149.311 371.699 146.245 371.323 143.349 370.777C142.973 370.683 142.597 370.608 142.221 370.533C140.416 370.119 138.723 369.63 137.143 369.028C136.579 368.821 136.034 368.596 135.526 368.351C134.793 367.994 134.078 367.618 133.42 367.204C133.269 367.11 133.119 367.016 132.95 366.903C132.799 366.79 132.63 366.696 132.498 366.583L132.461 366.527C131.802 365.85 131.201 365.116 130.712 364.251C129.846 362.784 129.113 361.205 128.398 359.625C128.286 358.704 128.323 357.726 128.474 356.654C128.511 356.447 128.53 356.24 128.587 356.052C128.643 355.751 128.699 355.431 128.793 355.112C129.057 354.134 128.68 352.723 127.665 352.291C125.126 351.2 122.869 349.996 120.989 348.341C130.674 346.348 140.34 344.956 149.461 340.894C149.988 340.669 150.477 340.443 151.003 340.198C157.266 337.942 163.378 335.158 168.963 331.792V331.773C170.75 331.002 172.536 330.269 174.379 329.592C174.944 329.366 175.527 329.159 176.091 328.952C176.881 328.689 177.671 328.407 178.498 328.162C178.912 328.031 179.325 327.899 179.739 327.767C180.097 327.673 180.454 327.561 180.792 327.467C181.394 327.297 181.977 327.128 182.598 326.996C182.692 327.561 182.805 328.162 182.861 328.802C183.444 333.616 184.723 337.246 188.334 340.048C187.469 346.555 186.208 354.435 193.298 356.898C200.99 359.569 210.243 354.378 215.245 347.947C221.489 350.862 228.842 351.614 235.593 352.159C246.275 353.024 255.434 354.453 265.232 358.835C275.688 363.518 289.097 368.802 293.648 354.284C294.569 351.332 294.551 348.097 294.062 344.9C306.549 338.318 320.484 334.463 332.031 326.226C335.717 323.593 338.313 319.963 340.193 315.882C340.569 315.939 340.964 315.92 341.434 315.788C356.724 311.181 372.953 302.699 380.833 288.199C383.729 288.876 386.682 288.482 389.07 286.469L389.089 286.451C399.132 280.207 403.664 271.913 404.322 262.962C404.661 262.98 404.999 262.924 405.338 262.792C410.528 260.761 414.91 257.79 417.467 254.029C420.044 254.047 422.564 253.709 424.952 253.051C430.707 256.567 449.005 267.4 447.933 271.048ZM171.427 292.055C171.314 291.547 171.182 291.002 171.032 290.494L170.994 290.343C170.844 289.741 170.656 289.158 170.449 288.557L170.336 288.256C170.167 287.71 169.941 287.165 169.734 286.62L169.659 286.451C169.434 285.886 169.17 285.303 168.888 284.739L168.832 284.626C168.55 284.062 168.268 283.517 167.967 282.971L167.91 282.915C167.647 282.445 167.346 281.956 167.045 281.486C166.932 281.335 166.838 281.166 166.725 280.997C166.406 280.545 166.086 280.094 165.729 279.661C165.409 279.285 165.089 278.909 164.77 278.533C164.619 278.345 164.431 278.157 164.262 277.969C164.017 277.687 163.735 277.405 163.472 277.104C163.209 276.859 162.964 276.615 162.72 276.37C161.667 275.298 160.576 274.283 159.485 273.249C156.42 269.356 153.298 265.5 150.477 261.401C147.336 256.868 143.218 251.283 141.393 245.528C141.337 245.152 141.281 244.795 141.243 244.438C141.205 244.08 141.205 243.723 141.205 243.384C141.205 243.027 141.224 242.67 141.243 242.294C141.299 241.711 141.431 241.146 141.619 240.582C141.713 240.281 141.807 239.999 141.939 239.698C142.033 239.51 142.127 239.341 142.221 239.153C142.315 239.003 142.409 238.852 142.541 238.702C142.635 238.551 142.748 238.42 142.86 238.307L143.218 238.006C145.192 238.006 148.051 238.946 151.06 240.206L151.079 240.225C152.846 241.598 154.483 243.102 155.517 243.892C162.738 249.421 172.405 252.393 179.137 244.287C187.299 234.452 172.912 218.034 186.434 210.21C190.496 207.841 195.931 208.123 200.257 205.81C204.827 203.365 208.118 198.889 210.468 194.413C210.657 194.056 210.845 193.699 211.014 193.341C211.54 192.307 211.992 191.254 212.424 190.201C213.045 188.64 213.59 187.079 214.098 185.462C214.794 183.148 215.377 180.779 215.885 178.39C216.073 177.601 216.242 176.83 216.392 176.021C218.461 167.934 220.21 159.848 224.084 152.419L224.366 152.137L224.667 151.874C227.413 158.512 227.187 165.959 227.62 173.087C228.033 179.726 229.425 185.8 232.284 191.818C234.54 196.52 238.734 199.322 243.229 201.578C249.416 204.719 253.967 209.007 257.897 214.63C263.821 223.149 270.31 222.904 279.167 218.165C290.47 212.166 294.607 200.638 307.959 199.039C308.806 210.492 295.19 218.034 296.977 230.465C298.387 240.056 312.003 242.895 317.739 248.857C324.396 255.759 299.478 260.197 296.45 262.228C287.987 267.945 292.501 280.677 298.613 286.187C301.471 288.745 308.11 291.528 308.448 295.778C308.994 302.511 298.293 306.31 293.234 307.231C281.725 309.375 282.665 318.308 284.113 328.219C285.354 336.475 289.755 344.185 288.175 352.761C286.144 363.762 272.058 355.695 266.36 353.137C259.74 350.166 252.989 347.984 245.711 347.269C236.534 346.348 225.889 346.95 217.37 342.718C216.674 340.969 213.985 340.217 212.537 342.286C209.02 347.326 202.419 353.438 195.687 352.065C192.057 351.313 192.565 345.332 193.204 340.593L193.317 340.443C191.267 338.205 190.083 335.422 189.462 332.488C187.563 328.351 187.751 322.709 185.832 318.646C185.701 318.383 185.55 318.139 185.381 317.913C185.249 317.725 185.099 317.537 184.949 317.349L184.911 317.311C184.742 317.123 184.572 316.935 184.384 316.766C184.121 316.521 183.82 316.277 183.5 316.033C183.331 315.901 183.162 315.788 182.993 315.675C182.485 315.318 181.939 314.998 181.394 314.678C181.112 314.528 180.83 314.359 180.548 314.208C178.235 312.929 175.715 311.745 174.003 310.203C172.367 306.065 172.781 300.988 172.273 296.587C172.16 295.816 172.029 295.064 171.859 294.311C171.841 294.142 171.803 293.992 171.784 293.841C171.728 293.484 171.652 293.108 171.577 292.751C171.54 292.506 171.483 292.28 171.427 292.055ZM251.861 199.735C258.969 192.25 265.006 192.288 273.525 197.102C277.982 199.641 282.233 202.556 286.991 204.399C286.539 204.851 286.107 205.302 285.655 205.735C281.085 210.436 275.481 215.589 268.711 216.416C264.423 216.943 261.753 210.474 259.496 207.784C257.032 204.851 254.23 202.368 251.127 200.262C251.372 200.149 251.616 199.98 251.861 199.735ZM297.766 269.807C298.613 264.786 306.906 264.372 310.743 263.507C315.67 262.416 319.318 260.442 322.365 256.436C329.098 247.635 317.174 241.278 311.025 237.649C304.95 234.113 300.55 230.559 302.901 222.961C303.465 221.099 304.367 219.388 305.364 217.752C309.577 227.061 319.939 232.308 326.86 239.529C338.407 251.64 341.641 267.814 340.814 283.968C340.193 296.493 339.102 314.603 328.007 322.521C317.438 330.062 304.48 333.673 292.914 339.427C292.407 337.434 291.824 335.478 291.335 333.673C290 328.971 285.166 315.299 291.805 313.306C301.189 310.485 312.905 307.795 314.109 295.778C315.275 284.269 295.416 283.517 297.766 269.807ZM332.163 191.762C338.839 193.887 343.898 197.986 347.979 203.064C351.966 205.81 354.204 210.248 355.539 215.213C357.42 218.899 359.131 222.641 360.786 226.252C368.233 242.444 383.278 259.445 379.084 278.383C375.379 295.045 357.363 304.26 342.469 309.638C344.218 303.564 344.932 297.057 345.553 291.359C347.264 275.787 346.117 260.31 338.275 246.487C334.589 239.943 329.474 234.451 323.681 229.731C317.833 224.954 310.837 220.441 308.731 212.787C310.385 210.417 311.946 207.972 312.849 205.227C313.94 202.067 313.526 198.645 312.793 195.485C312.567 194.338 311.363 193.473 310.216 193.492C302.299 193.736 296.525 196.331 291.128 200.676C287.893 199.322 284.79 197.554 281.706 195.786C298.124 191.799 315.576 186.458 332.163 191.762ZM360.391 209.778C360.993 209.91 361.501 209.872 361.952 209.74C387.19 221.626 415.85 261.852 385.554 282.313L385.384 282.445C384.651 282.614 383.936 282.821 383.203 282.915C390.443 262.698 375.379 244.494 366.954 227.098C364.021 221.08 361.294 214.893 358.021 209.195C358.792 209.383 359.62 209.609 360.391 209.778ZM395.446 226.666C396.856 227.38 398.248 228.133 399.639 228.904C402.723 230.784 405.563 232.928 408.14 235.335C411.186 238.175 414.045 241.974 414.44 246.262C414.966 251.941 408.76 255.119 404.247 257.169C403.118 245.754 396.593 233.774 387.923 223.901C390.5 224.559 393.02 225.5 395.446 226.666ZM427.378 229.957C427.961 230.182 428.544 230.408 429.127 230.709C433.603 233.022 433.566 240.15 430.726 243.629C428.206 246.732 423.768 247.823 419.762 248.236C420.232 245.039 419.517 241.504 417.279 237.63C415.719 234.922 413.631 232.477 411.205 230.258C416.64 229.9 422.075 228.546 427.378 229.957ZM455.155 264.616C451.337 257.752 445.489 254.574 439.527 250.681C443.364 246.807 445.376 242.143 444.736 235.956C444.003 228.904 439.847 222.491 433.509 219.294C425.799 215.401 416.283 219.576 408.328 219.952C404.266 220.121 399.809 216.36 396.047 214.893C390.631 212.825 385.29 214.272 381.228 209.383C375.474 202.443 367.161 199.265 358.492 198.024C354.204 197.422 351.496 192.815 348.769 189.9C345.628 186.515 341.246 184.747 337.034 183.13C327.386 179.481 316.309 180.779 306.286 181.343C300.926 181.625 295.51 182.283 290.301 183.562C285.355 184.803 280.766 186.646 275.538 186.571C275.293 186.571 275.049 186.59 274.804 186.627C269.821 184.484 264.63 182.716 259.139 183.412C253.61 184.089 249.284 187.38 245.504 191.197C244.225 189.749 242.965 188.32 241.781 186.778C238.753 182.772 238.471 177.431 238.151 172.598C237.869 168.254 237.888 163.91 237.549 159.565C236.891 151.667 234.22 142.377 225.269 140.891C223.087 140.534 221.47 141.794 220.755 143.392C212.311 153.961 210.657 167.05 207.046 179.801C204.864 187.455 201.442 194.789 193.543 197.667C188.484 199.491 182.447 199.98 178.141 203.497C169.452 210.605 171.22 222.171 171.709 232.12C172.179 241.673 163.698 237.536 158.62 234.358C153.956 231.405 149.198 229.129 143.537 229.43C121.892 230.54 137.03 256.755 143.124 265.707C148.483 273.606 155.084 280.677 160.312 288.632C164.525 295.045 163.961 302.473 164.939 309.751C165.578 314.49 168.098 318.101 171.577 321.035C166.123 323.912 160.952 327.467 155.272 329.855C145.136 334.105 134.586 337.02 123.791 339.014C119.24 339.86 109.95 340.274 109.95 346.987C109.95 352.78 116.494 355.789 119.503 359.87C123.02 364.552 123.659 370.213 128.38 374.181C134.849 379.635 144.666 379.973 152.64 380.989C174.887 383.847 197.793 382.907 220.135 382.493C241.875 382.08 263.558 380.199 285.298 379.823C299.083 379.579 314.278 380.726 327.161 374.877C333.461 371.999 336.752 367.618 341.284 362.634C346.305 357.143 354.599 358.196 361.068 355.864C366.447 353.927 369.794 349.677 371.505 344.373C373.668 337.772 370.509 329.893 373.913 323.724C379.178 314.133 398.793 314.697 408.121 314.472C416.001 314.284 424.407 314.829 431.76 311.669C433.697 311.03 435.616 310.09 437.609 308.642C444.191 303.865 448.234 296.192 451.902 289.14C455.625 281.956 459.537 272.477 455.155 264.616Z" fill="black"/>
<path d="M58.644 10.6664C32.7212 10.6664 11.6564 31.7506 11.6564 57.6537V497.023C11.6564 522.946 32.7212 544.011 58.644 544.011H498.013C523.916 544.011 545.001 522.946 545.001 497.023V57.6537C545.001 31.7506 523.916 10.6664 498.013 10.6664H58.644ZM498.013 554.671H58.644C26.8404 554.671 0.976562 528.827 0.976562 497.023V57.6537C0.976562 25.8698 26.8404 0.00610352 58.644 0.00610352H498.013C529.797 0.00610352 555.661 25.8698 555.661 57.6537V497.023C555.661 528.827 529.797 554.671 498.013 554.671Z" fill="#1B7695"/>
</svg>
