<svg width="555" height="555" viewBox="0 0 555 555" fill="none" xmlns="http://www.w3.org/2000/svg">
<path d="M497.048 549.338H57.6573C28.7558 549.338 5.34131 525.911 5.34131 497.02V57.6443C5.34131 28.7429 28.7558 5.32837 57.6573 5.32837H497.048C525.92 5.32837 549.349 28.7429 549.349 57.6443V497.02C549.349 525.911 525.92 549.338 497.048 549.338Z" fill="white"/>
<path d="M481.462 261.878C481.448 261.407 481.447 260.923 481.447 260.467V260.053L481.376 259.626C478.483 243.661 469.616 228.765 457.101 218.772C451.87 214.596 443.602 209.051 433.781 206.314C428.749 204.903 423.689 204.974 418.058 205.174C417.488 205.188 416.219 205.316 413.853 205.559C412.855 205.644 411.743 205.758 410.703 205.844C410.19 204.361 409.662 202.879 409.163 201.411C406.199 192.673 403.12 183.635 397.033 175.909C388.865 165.561 377.39 156.937 363.863 151.007C343.565 142.084 319.532 143.039 295.741 153.587C285.663 136.14 263.027 127.53 245.01 126.903C232.266 126.475 220.777 130.124 208.148 134.614C202.09 136.753 195.946 139.76 189.874 143.523C186.88 145.377 184.272 147.557 181.763 149.653C180.338 150.822 178.998 151.948 177.629 152.988C176.988 152.646 176.346 152.304 175.676 151.948C173.396 150.708 171.044 149.439 168.492 148.356C163.403 146.232 157.716 145.818 152.698 145.448L152.114 145.405C140.212 144.521 128.608 145.32 117.632 147.757C108.581 149.767 99.4438 153.901 89.7081 160.415C87.1565 162.111 84.3057 164.15 81.6401 166.587C80.0579 168.682 78.4328 170.707 76.6653 172.602C75.4109 174.712 74.4274 176.936 73.6149 179.245C73.0733 182.766 73.0874 186.329 73.6719 189.907L73.8144 190.748L74.2279 191.461C79.6873 201.054 84.7761 211.089 89.7224 220.797C93.6566 228.565 97.7476 236.619 102.024 244.43C115.052 268.264 127.311 289.759 139.542 310.115C145.215 319.565 151.045 329.087 156.946 338.509C142.706 343.912 119.001 355.358 126.684 377.353C131.017 389.754 146.669 392.02 153.34 392.975C158.186 393.688 163.061 394.059 167.779 394.415C176.917 395.128 185.526 395.784 193.694 398.577C193.979 398.691 194.25 398.763 194.492 398.834C194.963 399.076 195.419 399.319 195.875 399.561C196.189 399.718 196.474 399.889 196.773 400.046C202.56 408.712 208.761 417.892 215.689 428.041L215.988 428.44C217 429.623 217.983 430.835 218.924 432.061L219.352 432.603L219.922 433.002C224.341 436.18 229.615 437.535 235.516 437.05C236.928 436.936 238.381 436.765 239.978 436.508L241.019 436.352L241.888 435.753C251.766 429.039 261.859 422.054 271.922 415.013C280.546 418.02 287.545 421.299 293.803 425.276C296.269 426.844 298.621 428.554 301.101 430.365C305.078 433.244 309.197 436.238 313.83 438.618C317.679 440.614 321.984 441.64 326.203 441.64C329.068 441.64 331.862 441.17 334.47 440.229C340.129 438.19 344.534 434.057 346.857 428.597C351.633 417.408 347.77 404.75 343.85 394.971C341.284 388.571 337.407 379.79 331.734 372.606C338.846 367.56 346.002 362.5 353.158 357.468C376.05 341.417 398.915 326.051 421.109 311.768L429.291 306.508C438.128 300.821 446.98 295.148 455.818 289.417C459.182 287.236 462.717 285.07 466.138 282.989C468.576 281.52 470.999 280.038 473.394 278.527L474.121 278.071L474.634 277.401C478.212 272.683 480.421 267.922 481.376 262.876L481.476 262.377L481.462 261.878Z" fill="#231F20"/>
<path d="M192.315 384.942C185.822 383.062 179.062 382.395 172.262 381.848C162.529 381.075 151.675 381.342 142.715 376.915C132.889 372.035 140.769 360.955 146.782 356.715C153.089 352.248 160.649 349.795 167.836 347.062C175.876 359.768 184.035 372.395 192.315 384.942Z" fill="#F77412"/>
<path d="M318.091 376.568C327.871 387.445 338.775 406.59 335.737 421.507C332.928 435.301 316.82 426.056 310.077 421.347C299.989 414.283 290.048 408.476 278.569 404.623C291.774 395.298 304.926 385.92 318.091 376.568Z" fill="#F77412"/>
<path d="M207.209 347.515C211.342 369.222 215.649 390.888 220.089 412.515C207.022 393.275 194.142 373.902 181.542 354.342C184.049 352.475 186.289 350.168 188.982 348.502C193.635 345.648 201.635 344.368 206.475 347.248C206.729 347.408 206.969 347.488 207.209 347.515Z" fill="#FEA600"/>
<path d="M469.349 266.976C467.917 267.827 466.499 268.692 465.095 269.6C459.267 273.414 453.425 277.172 447.582 280.929C444.761 282.744 441.925 284.545 439.089 286.36C431.814 271.556 419.62 254.555 401.668 254.441C399.938 254.441 399.938 257.107 401.668 257.15C418.556 257.476 429.645 274.194 436.267 288.161C429.432 292.529 422.583 296.896 415.748 301.249C414.713 293.564 410.899 286.616 403.681 282.191C402.207 281.284 400.859 283.595 402.334 284.503C409.211 288.771 412.416 295.677 412.827 303.107C389.771 317.84 367.111 333.14 344.65 348.781C332.583 357.189 320.572 365.655 308.562 374.135C307.371 363.06 297.728 356.268 287.15 358.04C324.769 310.013 363.566 262.892 404.433 217.587C404.901 217.587 405.369 217.531 405.808 217.431C408.942 218.069 412.615 217.346 415.961 217.247C426.086 217.006 433.771 218.764 442.478 223.926C457.792 233.015 467.676 249.421 469.349 266.976Z" fill="#FED3B0"/>
<path d="M400.438 214.868C400.713 215.597 401.154 216.134 401.649 216.547C396.997 221.695 392.358 226.871 387.761 232.06L387.665 231.785C381.897 219.163 374.795 207.022 362.324 200.043C348.587 192.335 331.725 190.105 316.432 193.602C314.753 194.001 315.469 196.575 317.162 196.189C332.042 192.789 347.403 195.556 360.782 202.7C372.744 209.101 379.323 221.668 384.595 233.574C384.843 234.097 385.214 234.386 385.627 234.455C381.718 238.86 377.85 243.306 373.982 247.724C365.187 232.831 353.198 219.851 334.574 219.341C332.854 219.286 332.854 221.971 334.574 222.026C352.496 222.521 363.576 235.997 371.574 250.477C341.635 284.958 312.743 320.319 284.512 356.203C282.888 348.633 277.423 343.526 269.426 341.654C265.187 340.65 260.713 340.98 256.487 341.833C254.147 342.301 251.931 343.21 249.784 344.215C249.564 344.325 248.215 345.274 247.017 346.155C255.496 306.141 264.65 266.265 274.767 226.623C293.9 223.223 313.074 226.389 328.972 240.057C330.555 241.434 332.895 239.135 331.284 237.745C315.097 223.622 295.483 219.727 275.772 222.741C280.438 204.558 285.297 186.403 290.445 168.343C291.78 168.481 293.211 167.986 294.12 167.022C314.629 158.571 335.084 153.574 356.763 161.571C367.417 165.508 377.217 172.9 384.898 181.172C393.487 190.436 395.868 203.485 400.438 214.868Z" fill="#FED3B0"/>
<path d="M298.022 363.275C302.449 365.808 304.609 372.222 304.462 377.035C282.156 392.768 259.862 408.515 237.329 423.915C237.022 423.982 236.702 424.022 236.396 424.062C252.142 403.248 268.009 382.528 284.089 361.955C288.955 361.275 293.515 360.688 298.022 363.275Z" fill="#FEA600"/>
<path d="M287.115 165.528C287.302 166.168 287.582 166.675 287.942 167.088C285.889 174.208 283.875 181.342 281.902 188.488C260.955 171.262 232.555 160.635 207.675 176.408C206.209 177.328 207.555 179.648 209.022 178.728C233.382 163.555 261.102 174.955 280.889 192.222C275.222 212.822 269.862 233.488 264.769 254.222C258.835 249.968 251.062 249.355 243.022 249.982C241.289 250.128 241.262 252.835 243.022 252.702C250.902 252.142 258.476 252.822 263.929 257.675C256.969 286.155 250.476 314.742 244.329 343.422C241.676 338.422 237.262 335.915 231.009 335.328C226.715 334.915 221.795 335.528 217.675 336.835C214.409 337.875 212.129 340.475 209.529 342.595C202.222 304.342 195.515 265.982 189.715 227.475C203.315 216.568 220.142 209.755 237.729 215.008C239.582 215.568 240.356 212.688 238.529 212.128C220.676 206.622 203.329 212.902 189.142 223.608C186.329 204.768 183.716 185.902 181.396 166.995C181.582 166.862 181.729 166.675 181.835 166.435C182.329 165.342 182.902 164.315 183.529 163.315C183.836 162.915 184.155 162.542 184.502 162.182C187.089 160.248 189.476 158.062 192.129 156.168C196.516 153.048 201.222 150.528 206.115 148.302C216.062 143.782 227.329 140.435 238.209 139.422C255.969 137.755 281.595 146.555 287.115 165.528Z" fill="#FED3B0"/>
<path d="M281.035 359.795C281.062 360.035 281.115 360.248 281.195 360.435C264.702 381.475 248.422 402.662 232.275 423.968L232.169 424.142C231.862 424.115 231.542 424.088 231.235 424.048C236.035 399.382 240.995 374.755 246.182 350.168C257.582 341.768 279.889 341.862 281.035 359.795Z" fill="#FEA600"/>
<path d="M242.062 347.848C242.262 348.475 242.662 348.848 243.129 349.035C237.875 373.728 232.862 398.462 227.995 423.235C227.729 423.142 227.449 423.048 227.182 422.942C226.449 421.862 225.715 420.782 224.982 419.702C219.849 395.062 214.862 370.382 210.115 345.662C215.289 342.595 218.742 339.422 225.382 338.968C232.969 338.462 239.542 339.942 242.062 347.848Z" fill="#FEA600"/>
<path d="M206.329 342.862C202.009 341.222 197.276 341.928 192.729 342.808C186.982 343.915 183.729 348.102 179.836 351.688C169.676 335.915 159.702 320.008 149.982 303.955C136.955 282.422 124.582 260.542 112.275 238.582C111.302 236.848 110.355 235.102 109.409 233.355C119.769 222.568 133.555 215.355 149.222 211.555C151.235 211.075 150.382 208.008 148.369 208.462C132.476 212.088 118.409 219.342 107.662 230.088C99.5155 214.768 92.0889 199.075 83.2622 184.142C83.4222 183.902 83.5555 183.648 83.6622 183.368C86.1822 176.648 93.1422 172.382 98.9289 168.702C106.329 163.995 114.236 160.928 122.796 159.075C131.476 157.208 140.515 157.395 149.342 157.622C154.809 157.768 160.542 158.422 165.622 160.568C169.569 162.248 173.076 164.822 177.036 166.502C177.582 166.742 178.115 166.862 178.609 166.902C179.262 172.435 179.969 177.968 180.675 183.502C170.262 180.888 159.555 179.542 148.715 179.862C139.969 180.115 131.315 181.915 123.155 185.035C115.169 188.102 110.035 194.062 102.782 198.195C101.289 199.048 102.622 201.342 104.142 200.502C111.142 196.608 116.342 190.968 123.942 187.875C131.782 184.688 140.302 183.395 148.715 183.008C159.622 182.515 170.555 184.142 181.115 187.048C184.129 210.288 187.515 233.488 191.222 256.622C180.355 251.195 168.289 248.862 156.996 255.488C155.462 256.395 156.849 258.768 158.382 257.862C169.515 251.328 181.422 254.688 191.862 260.528C196.302 288.035 201.156 315.475 206.329 342.862Z" fill="#FED3B0"/>
<path d="M465.109 269.59C459.277 273.402 453.444 277.158 447.598 280.928C444.781 282.734 441.936 284.541 439.105 286.348C431.836 271.553 419.63 254.553 401.677 254.425C399.956 254.425 399.956 257.099 401.677 257.142C418.563 257.469 429.659 274.17 436.288 288.154C429.446 292.521 422.603 296.889 415.76 301.242C414.722 293.546 410.909 286.604 403.697 282.179C402.217 281.269 400.866 283.588 402.345 284.498C409.231 288.766 412.432 295.665 412.844 303.091C389.784 317.829 367.123 333.136 344.674 348.77C332.597 357.178 320.59 365.642 308.57 374.12C307.389 363.053 297.73 356.253 287.16 358.031C324.787 310.005 363.58 262.889 404.437 217.58C404.906 217.58 405.376 217.523 405.817 217.41C408.946 218.05 412.631 217.338 415.974 217.239C426.103 216.983 433.784 218.747 442.491 223.911C457.797 233.001 467.684 249.418 469.363 266.958C467.94 267.811 466.504 268.679 465.109 269.59ZM335.741 421.506C332.938 435.291 316.82 426.059 310.077 421.35C299.991 414.28 290.062 408.475 278.582 404.62C291.769 395.302 304.928 385.928 318.101 376.567C327.874 387.45 338.771 406.583 335.741 421.506ZM237.341 423.91C237.028 423.982 236.715 424.01 236.402 424.053C252.15 403.24 268.012 382.528 284.101 361.943C288.967 361.274 293.519 360.677 298.028 363.266C302.452 365.798 304.615 372.214 304.472 377.037C282.167 392.77 259.875 408.504 237.341 423.91ZM232.277 423.967L232.177 424.138C231.864 424.11 231.551 424.081 231.238 424.038C236.047 399.371 240.997 374.746 246.19 350.164C257.585 341.757 279.891 341.856 281.043 359.795C281.071 360.037 281.128 360.25 281.199 360.435C264.712 381.475 248.423 402.657 232.277 423.967ZM227.184 422.943C226.459 421.862 225.719 420.781 224.993 419.7C219.858 395.061 214.865 370.379 210.128 345.655C215.291 342.596 218.748 339.41 225.392 338.969C232.974 338.456 239.546 339.936 242.064 347.845C242.263 348.471 242.676 348.841 243.131 349.026C237.882 373.722 232.874 398.461 228.009 423.228C227.739 423.142 227.454 423.043 227.184 422.943ZM181.548 354.332C184.052 352.469 186.299 350.164 188.988 348.5C193.64 345.64 201.649 344.36 206.486 347.248C206.742 347.404 206.969 347.49 207.211 347.504C211.351 369.212 215.661 390.878 220.1 412.516C207.026 393.268 194.152 373.893 181.548 354.332ZM172.273 381.845C162.542 381.077 151.688 381.333 142.726 376.909C132.896 372.029 140.777 360.947 146.795 356.708C153.097 352.241 160.65 349.794 167.849 347.063C175.886 359.767 184.037 372.385 192.317 384.932C185.83 383.054 179.073 382.386 172.273 381.845ZM149.995 303.945C136.965 282.421 124.588 260.542 112.283 238.577C111.301 236.842 110.362 235.092 109.409 233.357C119.78 222.559 133.565 215.347 149.227 211.549C151.247 211.065 150.394 208.007 148.374 208.462C132.483 212.089 118.414 219.33 107.674 230.085C99.5224 214.764 92.0965 199.073 83.2623 184.136C83.433 183.894 83.5611 183.638 83.6749 183.367C86.1929 176.639 93.1492 172.371 98.9391 168.701C106.336 163.992 114.246 160.919 122.796 159.07C131.488 157.206 140.521 157.391 149.355 157.619C154.818 157.761 160.551 158.416 165.629 160.564C169.57 162.242 173.084 164.817 177.038 166.496C177.593 166.738 178.12 166.851 178.618 166.894C179.272 172.428 179.969 177.962 180.68 183.496C170.267 180.878 159.555 179.541 148.715 179.854C139.98 180.11 131.317 181.916 123.165 185.032C115.171 188.09 110.035 194.051 102.794 198.191C101.301 199.044 102.624 201.335 104.146 200.495C111.145 196.597 116.351 190.964 123.948 187.863C131.786 184.676 140.308 183.396 148.715 182.998C159.626 182.514 170.566 184.136 181.121 187.038C184.137 210.283 187.523 233.485 191.236 256.616C180.367 251.196 168.29 248.863 157.009 255.478C155.472 256.388 156.852 258.764 158.388 257.853C169.527 251.324 181.434 254.681 191.876 260.528C196.314 288.026 201.165 315.468 206.329 342.852C202.019 341.216 197.282 341.927 192.729 342.809C186.982 343.905 183.739 348.102 179.841 351.686C169.684 335.91 159.711 320.006 149.995 303.945ZM181.847 166.425C182.33 165.329 182.914 164.305 183.54 163.309C183.838 162.911 184.165 162.541 184.507 162.171C187.096 160.236 189.486 158.06 192.132 156.168C196.528 153.038 201.222 150.52 206.116 148.301C216.074 143.777 227.341 140.434 238.209 139.41C255.977 137.746 281.597 146.551 287.117 165.528C287.302 166.169 287.587 166.666 287.942 167.079C285.894 174.206 283.888 181.333 281.91 188.489C260.956 171.261 232.561 160.635 207.681 176.397C206.215 177.322 207.567 179.64 209.032 178.716C233.387 163.551 261.113 174.946 280.901 192.216C275.224 212.815 269.876 233.485 264.768 254.212C258.836 249.958 251.069 249.346 243.032 249.972C241.296 250.129 241.268 252.832 243.032 252.689C250.913 252.135 258.481 252.817 263.929 257.668C256.973 286.148 250.486 314.742 244.34 343.421C241.68 338.414 237.27 335.91 231.011 335.327C226.729 334.914 221.807 335.526 217.681 336.835C214.409 337.873 212.133 340.476 209.53 342.596C202.232 304.343 195.518 265.976 189.728 227.467C203.328 216.556 220.142 209.742 237.74 215.006C239.589 215.56 240.357 212.687 238.536 212.118C220.683 206.612 203.342 212.9 189.145 223.598C186.342 204.763 183.724 185.9 181.406 166.994C181.591 166.851 181.733 166.667 181.847 166.425ZM294.116 167.022C314.644 158.558 335.1 153.565 356.781 161.559C367.436 165.5 377.223 172.897 384.905 181.162C393.497 190.423 395.873 203.483 400.439 214.863C400.724 215.589 401.165 216.129 401.663 216.556C396.997 221.692 392.359 226.87 387.764 232.062L387.665 231.778C381.903 219.159 374.805 207.011 362.343 200.04C348.587 192.33 331.729 190.096 316.436 193.596C314.758 193.994 315.469 196.583 317.162 196.185C332.042 192.785 347.406 195.545 360.792 202.7C372.756 209.102 379.343 221.663 384.606 233.556C384.848 234.096 385.218 234.381 385.63 234.452C381.718 238.862 377.849 243.301 373.994 247.725C365.188 232.83 353.196 219.842 334.574 219.33C332.853 219.287 332.853 221.962 334.574 222.019C352.513 222.503 363.58 235.988 371.575 250.47C341.644 284.953 312.752 320.304 284.528 356.21C282.892 348.628 277.429 343.521 269.434 341.643C265.195 340.647 260.728 340.974 256.489 341.828C254.142 342.297 251.937 343.208 249.789 344.218C249.575 344.317 248.21 345.271 247.029 346.153C255.508 306.136 264.655 266.261 274.769 226.614C293.903 223.214 313.079 226.386 328.969 240.057C330.562 241.423 332.896 239.132 331.302 237.738C315.113 223.612 295.482 219.728 275.779 222.73C280.445 204.55 285.31 186.398 290.46 168.331C291.783 168.473 293.22 167.975 294.116 167.022ZM454.184 222.403C447.882 217.367 440.343 212.971 432.518 210.809C427.952 209.529 422.93 209.657 418.25 209.827C417.183 209.87 410.141 210.638 407.538 210.795C403.412 199.884 400.695 188.09 393.369 178.801C385.246 168.502 373.951 160.521 361.987 155.272C339.824 145.541 314.786 149.311 293.618 159.724C285.951 141.615 263.389 132.198 244.852 131.557C232.604 131.131 221.067 134.971 209.715 138.997C203.612 141.16 197.822 144.076 192.331 147.476C187.494 150.478 183.54 154.589 178.916 157.804C178.532 157.861 178.176 158.06 177.949 158.373C174.165 156.538 170.594 154.29 166.696 152.654C162.116 150.748 156.653 150.421 151.774 150.051C140.763 149.24 129.425 149.909 118.656 152.298C109.082 154.432 100.39 158.885 92.2956 164.277C87.3024 167.62 81.9678 171.702 78.9378 177.051L78.8523 176.923C77.7285 181.177 77.6431 185.231 78.2833 189.143C88.1702 206.498 96.5349 224.651 106.123 242.191C118.187 264.269 130.606 286.134 143.551 307.715C150.237 318.853 157.051 329.935 163.979 340.932C148.687 346.295 124.147 355.94 131.089 375.799C134.247 384.804 145.813 387.18 154.021 388.36C167.834 390.366 181.946 389.612 195.318 394.207C195.574 394.292 195.816 394.335 196.058 394.378C196.741 394.719 197.41 395.089 198.092 395.445C198.761 395.8 199.415 396.17 200.056 396.554C206.5 406.199 213.001 415.816 219.545 425.404C220.598 426.642 221.622 427.908 222.632 429.202C226.046 431.649 230.129 432.801 235.165 432.389C236.53 432.289 237.91 432.104 239.262 431.891C249.96 424.622 260.615 417.239 271.199 409.799L271.398 409.898C280.189 412.829 288.483 416.357 296.307 421.336C302.979 425.575 308.911 430.824 315.981 434.466C325.441 439.36 338.102 437.197 342.569 426.756C346.638 417.224 343.152 405.758 339.525 396.697C336.139 388.232 331.473 378.445 324.787 371.801C333.337 365.741 341.9 359.667 350.479 353.65C372.898 337.93 395.574 322.637 418.591 307.828C430.157 300.388 441.737 292.977 453.288 285.494C459.035 281.767 465.038 278.253 470.928 274.569C473.773 270.799 475.907 266.673 476.803 261.993C476.789 261.481 476.789 260.969 476.789 260.457C474.1 245.662 465.92 231.778 454.184 222.403Z" fill="black"/>
<path d="M57.6524 10.6755C31.7449 10.6755 10.6748 31.7456 10.6748 57.6531V497.022C10.6748 522.93 31.7449 544.01 57.6524 544.01H497.021C522.929 544.01 544.014 522.93 544.014 497.022V57.6531C544.014 31.7456 522.929 10.6755 497.021 10.6755H57.6524ZM497.021 554.676H57.6524C25.8635 554.676 0 528.81 0 497.022V57.6531C0 25.8642 25.8635 0.000854492 57.6524 0.000854492H497.021C528.825 0.000854492 554.674 25.8642 554.674 57.6531V497.022C554.674 528.81 528.825 554.676 497.021 554.676Z" fill="#1B7695"/>
</svg>
