<svg width="555" height="556" viewBox="0 0 555 556" fill="none" xmlns="http://www.w3.org/2000/svg">
<path d="M497.025 550.05H57.6489C28.7556 550.05 5.33331 526.627 5.33331 497.735V58.3528C5.33331 29.4603 28.7556 6.03784 57.6489 6.03784H497.025C525.916 6.03784 549.339 29.4603 549.339 58.3528V497.735C549.339 526.627 525.916 550.05 497.025 550.05Z" fill="white"/>
<path d="M224.281 217.308C229.484 217.308 228.403 225.311 223.265 225.311C218.061 225.311 219.153 217.308 224.281 217.308Z" fill="white"/>
<path d="M229.514 215.911C228.372 215.176 227.168 214.573 225.91 214.059C224.997 213.735 224.043 213.471 223.065 213.25L222.971 213.235H222.962C222.546 213.147 222.121 213.059 221.707 212.985C221.113 212.912 220.531 212.883 219.95 212.883C210.283 212.839 203.856 223.82 206.411 232.626C208.404 239.55 214.811 243.578 221.332 242.901C223.418 242.681 225.505 241.975 227.469 240.74C229.98 239.153 231.766 236.183 232.836 233.037H232.847C233.419 231.053 233.958 229.068 234.186 227.025C234.196 225.54 234.071 224.084 233.739 222.688C233.646 222.585 233.564 222.467 233.523 222.276C233.366 221.482 233.138 220.733 232.847 220.042L232.785 219.91L232.722 219.777C232.369 219.072 231.943 218.395 231.434 217.719L231.196 217.44L230.956 217.161C230.521 216.705 230.033 216.293 229.514 215.911ZM231.174 243.93C227.874 243.813 224.623 243.842 221.455 244.107C217.094 244.489 212.889 245.386 208.986 247.179C208.913 247.062 208.829 246.959 208.705 246.871C202.652 242.402 199.919 235.977 198.644 228.715C197.033 219.571 202.588 212.853 209.68 208.076C219.078 201.725 226.844 206.238 232.254 214.867C233.77 217.263 234.82 219.748 235.474 222.218C237.322 229.2 236.056 236.389 232.992 243.387C232.91 243.578 232.878 243.769 232.867 243.945C232.307 243.916 231.746 243.916 231.174 243.93Z" fill="white"/>
<path d="M307.048 203.594C312.24 203.594 311.17 211.599 306.02 211.599C300.829 211.599 301.909 203.594 307.048 203.594Z" fill="white"/>
<path d="M314.215 203.805C313.81 203.302 313.352 202.844 312.874 202.43C311.786 201.617 310.632 200.907 309.427 200.301C308.534 199.917 307.61 199.562 306.655 199.281L306.573 199.252H306.55C306.145 199.133 305.731 199.015 305.315 198.897C304.735 198.793 304.153 198.705 303.572 198.646C293.946 197.847 286.676 208.298 288.515 217.256C290.426 226.599 300.374 231.477 308.867 227.027C311.494 225.653 313.519 222.829 314.827 219.769H314.837C315.565 217.833 316.261 215.896 316.655 213.886C316.78 212.408 316.768 210.944 316.551 209.525C316.457 209.422 316.383 209.289 316.363 209.111C316.27 208.283 316.104 207.515 315.866 206.82L315.825 206.672L315.771 206.539C315.471 205.815 315.096 205.105 314.641 204.396L314.432 204.1L314.215 203.805ZM295.13 189.436C306.063 188.446 314.796 197.537 318.243 206.997C322.064 217.434 317.879 227.279 309.532 233.797L309.261 234.034C303.665 232.024 298.524 230.93 291.629 231.536C288.058 231.846 284.569 232.644 281.174 233.694C281.048 233.738 280.946 233.797 280.831 233.827C280.717 233.724 280.571 233.635 280.385 233.561C271.931 230.545 273.023 216.355 274.154 209.422C275.95 198.483 284.008 190.442 295.13 189.436Z" fill="white"/>
<path d="M398.271 175.565C395.084 165.348 390.69 155.585 384.854 146.515C384.014 145.202 383.11 143.95 382.197 142.727L382.363 142.546C383.484 142.124 384.678 140.267 385.168 139.664C385.52 139.241 385.883 138.713 386.235 138.155C389.279 145.262 392.655 152.053 394.813 159.599C396.319 164.865 397.429 170.192 398.271 175.565Z" fill="#FE620D"/>
<path d="M379.994 333.111C380.731 339.864 381.115 347.644 380.451 354.537C379.62 358.561 378.124 362.416 375.716 365.947C377.657 360.784 378.041 354.411 378.176 349.937C378.51 338.795 374.106 327.92 369.027 318.114C370.741 314.301 372.092 309.462 372.403 304.763C372.632 305.452 372.882 306.127 373.078 306.845C375.28 314.822 378.292 323.938 379.994 333.111Z" fill="#FE620D"/>
<path d="M381.022 140.043C380.761 140.15 380.555 140.303 380.399 140.486C376.256 135.524 371.531 131.494 366.349 128.288C367.844 126.563 368.644 123.525 369.413 121.815C371.334 117.556 371.758 113.77 371.686 109.51L371.728 109.572C373.036 111.22 374.334 112.839 375.622 114.457C376.276 115.495 376.879 116.533 377.43 117.602C379.826 121.25 386.91 130.41 385.122 135.494L385.133 135.509L385.092 135.601C384.999 135.86 384.864 136.089 384.73 136.333C383.793 138.043 382.484 139.463 381.022 140.043Z" fill="#AD4174"/>
<path d="M362.579 326.077C364.449 324.972 366.11 323.378 367.408 321.253C367.792 320.596 368.177 319.869 368.55 319.128C371.862 327.754 375.342 336.394 376.182 345.677C376.608 350.444 375.726 355.337 374.801 359.965C374.085 363.432 373.265 367.235 370.929 369.961C366.941 372.184 363.899 371.191 360.596 369.639C361.177 368.199 361.406 366.536 361.708 365.096C362.663 360.538 362.984 355.911 363.639 351.297C364.262 346.795 364.189 342.224 363.929 337.708C363.785 335.248 363.514 332.787 363.202 330.341C363.026 328.831 362.579 327.489 362.579 326.077Z" fill="#AD4174"/>
<path d="M363.424 118.548C365.615 114.002 366.01 108.262 366.071 103.012C367.006 103.946 367.941 104.879 368.844 105.844C369.103 106.196 369.363 106.532 369.633 106.869C369.499 111.063 369.437 114.981 367.701 118.961C367.598 119.221 366.487 121.303 365.593 123.201C364.846 124.303 364.026 125.39 363.392 126.553C362.302 125.971 361.202 125.405 360.08 124.885C361.575 123.048 362.561 120.323 363.424 118.548Z" fill="#FE620D"/>
<path d="M364.283 101.295C364.128 106.606 363.701 112.686 361.261 117.288C360.701 118.351 358.655 123.03 357.367 123.707C352.934 121.891 348.271 120.552 343.464 119.674C346.393 116.519 347.471 111.608 348.77 107.729C350.743 101.818 350.181 95.1992 349.31 88.8418C351.896 90.6428 354.378 92.5053 356.673 94.4757C359.123 96.5999 361.719 98.8782 364.283 101.295Z" fill="#AD4174"/>
<path d="M361.95 329.676C362.926 334.665 362.832 340.085 362.655 345.144C362.469 349.993 361.514 354.787 360.922 359.594C360.621 361.963 360.236 366.129 358.979 368.833C357.713 368.233 356.404 367.606 354.962 367.091C350.371 365.447 346.364 365.433 341.763 366.255C343.175 364.638 344.308 362.785 345.492 360.946C347.953 357.141 349.989 353.254 351.671 349.059C353.435 344.656 354.92 340.406 355.864 335.766C356.394 333.174 356.945 330.47 356.248 327.92C358.088 327.837 359.882 327.377 361.554 326.583C361.545 327.586 361.741 328.645 361.95 329.676Z" fill="#FE620D"/>
<path d="M339.272 366.753C332.605 368.313 327.153 371.058 320.289 367.506C317.412 366.029 315.107 364.553 312.668 362.38C321.857 362.003 329.967 355.93 336.975 350.428C341.13 347.155 345.043 343.672 347.785 339.089C349.841 335.649 351.876 331.512 351.524 327.43C352.79 327.765 354.079 327.932 355.366 327.946C355.968 330.69 355.136 333.587 354.544 336.304C353.714 340.176 352.427 343.784 350.921 347.475C348.336 353.771 344.804 362.171 339.272 366.753Z" fill="#AD4174"/>
<path d="M339.457 119.091C332.564 118.209 325.439 118.147 318.275 118.92C322.563 112.269 324.735 104.658 326.675 96.9694C327.817 92.4523 328.305 87.8888 328.472 83.2479C328.554 80.8037 328.118 78.5916 327.622 76.4104C334.13 79.6435 340.766 83.2014 346.894 87.208C347.37 93.1019 348.004 99.1196 346.799 104.874C346.572 105.957 344.951 111.975 343.362 115.409L343.155 115.718C342.573 116.615 341.617 117.296 340.766 117.9C340.299 118.224 339.906 118.688 339.457 119.091Z" fill="#FE620D"/>
<path d="M324.567 373.015C325.916 373.302 327.184 373.384 328.284 373.22C332.781 372.564 337.091 371.224 341.492 370.103C345.686 369.05 349.053 369.487 352.228 370.622C347.93 372.824 344.648 376.447 340.984 379.702C339.447 381.069 337.412 383.011 335.864 385.158C335.272 386.32 334.557 387.441 333.477 388.057C331.004 391.147 323.237 391.927 320.28 391.366C317.714 390.887 316.478 388.946 316.157 386.58C315.793 385.076 315.71 383.544 316.042 382.149L316.032 382.108L316.094 381.903H316.083L316.105 381.849C316.135 381.698 316.218 381.575 316.25 381.438L316.354 381.11L316.374 381.097C316.458 380.891 316.51 380.673 316.603 380.481C316.965 379.51 317.557 378.608 318.348 377.938L318.492 377.856C318.617 377.678 318.741 377.487 318.886 377.336C321.017 376.693 322.968 375.326 324.567 373.015Z" fill="#FDA5C5"/>
<path d="M330.155 340.74C336.135 335.997 341.172 330.514 345.066 324.084C346.748 325.506 348.679 326.567 350.713 327.222C350.776 331.561 348.025 335.857 345.761 339.373C343.061 343.6 338.878 346.85 334.941 349.835C327.475 355.499 320.33 360.005 310.925 360.479C309.885 359.196 308.64 357.494 307.777 356.196C307.923 355.136 308.63 354.355 309.386 353.63C316.115 348.998 323.747 345.804 330.155 340.74Z" fill="#FE620D"/>
<path d="M337.568 490.99C335.409 486.336 334.275 481.221 333.943 475.375C333.351 464.577 338.306 455.146 339.291 444.633C340.226 434.606 340.05 423.47 337.806 413.619C336.196 406.569 333.965 399.114 328.098 394.472C330.226 394.039 332.263 393.349 333.861 392.348C334.618 397.557 338.066 401.86 341.099 406.109C341.233 406.299 341.368 406.474 341.492 406.664C343.269 409.83 345.284 412.888 347.12 415.906C350.994 422.198 352.292 429.207 351.834 436.202C349.645 454.267 334.296 474.496 337.568 490.99Z" fill="#AD4174"/>
<path d="M340.912 501.064C333.653 501.51 326.458 498.712 321.39 492.846C321.12 492.075 320.881 491.4 320.831 491.278C319.885 488.858 319.449 486.168 319.19 483.587C318.732 479.248 319.001 474.733 319.428 470.394C320.382 460.729 323.208 451.321 324.879 441.778C326.438 432.857 325.939 423.976 325.628 414.96C325.379 408.012 325.544 400.915 321.816 394.873C323.499 394.995 325.358 394.927 327.195 394.63C333.924 401.632 335.989 412.027 336.954 421.381C338.108 432.613 337.827 444.373 334.733 455.241C330.506 470.11 329.625 489.169 340.912 501.064Z" fill="#FE620D"/>
<path d="M301.941 82.2513C305.98 94.6227 300.416 110.635 297.135 123.178C292.752 124.532 288.475 126.15 284.372 128.095C285.161 125.901 285.463 123.427 286.024 121.311C287.749 114.79 289.709 108.395 290.416 101.625C291.869 87.6823 292.367 74.8129 288.349 61.4145C288.724 61.4611 289.098 61.5234 289.47 61.5701C300.249 63.6709 310.571 68.137 320.395 72.8676C322.024 73.6613 323.685 74.4549 325.368 75.2797C325.429 75.4975 325.473 75.6999 325.533 75.9333C327.071 81.4109 325.607 88.6626 324.609 94.0469C323 102.824 319.78 112.3 314.318 119.412C309.542 120.097 304.798 121.046 300.145 122.306C303.282 109.702 307.756 93.8912 303.603 81.8C303.249 80.7418 301.589 81.1776 301.941 82.2513Z" fill="#AD4174"/>
<path d="M317.474 488.014C313.746 483.283 310.298 478.958 304.318 476.281C304.93 469.955 306.352 463.535 307.673 457.398C309.23 450.18 310.661 442.935 312.677 435.838C314.629 428.944 317.578 422.402 319.374 415.441C320.226 412.143 320.829 408.696 320.964 405.276C321.087 401.762 320.319 398.166 320.018 394.652C320.287 394.706 320.548 394.76 320.838 394.787C324.411 402.559 323.797 411.021 324.026 419.401C324.276 428.836 323.631 437.744 321.69 446.99C319.945 455.276 317.838 463.426 316.954 471.848C316.498 476.2 316.509 480.661 316.944 485.013C317.047 486.027 317.247 487.041 317.474 488.014Z" fill="#AD4174"/>
<path d="M315.553 399.441C316.571 397.859 318.026 396.169 318.564 394.304C318.907 394.412 319.282 394.507 319.676 394.588C319.364 397.21 319.551 399.82 319.707 402.469C319.956 406.728 318.959 410.932 317.878 415.029C315.918 422.424 312.594 429.373 310.372 436.687C308.234 443.757 306.801 451.057 305.172 458.263C303.935 463.725 302.531 469.579 301.992 475.311C296.676 473.188 292.097 470.214 288.327 466.469C290.54 462.441 291.629 457.858 292.669 453.356C294.36 445.961 295.96 438.471 298.015 431.171C300.28 423.086 304.578 415.84 309.075 408.824C311.13 405.619 313.487 402.645 315.553 399.441Z" fill="#FE620D"/>
<path d="M317.475 488.014L317.484 488.027L317.475 488.014Z" fill="#AD4174"/>
<path d="M261.653 283.11C280.269 282.119 295.524 272.926 304.879 256.811L304.919 256.71C305.564 256.883 306.198 257.098 306.831 257.299C303.727 270.327 297.684 281.76 287.278 290.493C282.149 294.802 275.555 297.775 268.795 297.689C260.229 297.603 253.096 291.599 252.224 283.268C255.38 283.354 258.547 283.282 261.653 283.11Z" fill="#F22E03"/>
<path d="M301.89 225.819C296.853 225.422 291.972 220.82 291.372 215.674C290.561 208.764 295.586 202.236 302.45 201.589C303.925 201.442 305.348 201.648 306.708 202.089C305.742 202.104 304.765 202.31 303.925 202.575C300.363 203.736 298.859 207.926 298.028 211.146C296.999 215.233 297.497 219.85 299.72 223.408C300.301 224.319 301.048 225.187 301.89 225.819Z" fill="#BF4A0A"/>
<path d="M296.303 384.54C301.578 384.133 306.708 385.219 311.889 385.518C312.024 385.572 312.169 385.654 312.314 385.722C307.975 386.184 303.675 386.971 299.439 388.031C294.289 389.307 288.878 389.973 283.979 392.132C279.067 394.278 274.612 396.94 270.615 400.512C267.249 403.5 265.296 406.8 263.263 410.44C256.908 409.843 251.135 407.493 245.692 402.563C244.872 401.83 244.052 401.028 243.222 400.227C246.68 397.429 250.054 394.536 254.249 392.784C260.541 390.136 267.643 388.492 274.29 387.026C281.506 385.437 288.962 385.097 296.303 384.54Z" fill="#AD4174"/>
<path d="M305.035 160.853C302.044 159.519 299.064 158.469 295.606 158.754C292.023 159.039 288.836 161.888 285.68 163.403C281.826 165.248 277.135 164.978 279.75 158.784C281.194 155.394 285.449 154.119 288.753 153.849C295.129 153.325 301.171 156.114 305.035 160.853Z" fill="#FE620D"/>
<path d="M298.026 211.153C298.857 207.928 300.363 203.746 303.923 202.583C304.764 202.318 305.74 202.097 306.706 202.097C305.347 201.655 303.923 201.449 302.449 201.596C295.585 202.244 290.56 208.767 291.371 215.688C291.972 220.826 296.853 225.435 301.89 225.833C301.046 225.2 300.3 224.331 299.718 223.418C297.496 219.855 296.997 215.246 298.026 211.153ZM303.571 198.652C304.152 198.711 304.735 198.799 305.315 198.902C305.73 199.02 306.145 199.138 306.55 199.241L306.572 199.255L306.655 199.285C307.609 199.565 308.534 199.918 309.426 200.301C310.632 200.904 311.785 201.611 312.874 202.436C313.351 202.848 313.809 203.305 314.214 203.805L314.432 204.114L314.64 204.394C315.096 205.101 315.47 205.822 315.772 206.544L315.824 206.676L315.865 206.824C316.103 207.53 316.27 208.281 316.363 209.106C316.383 209.283 316.457 209.43 316.551 209.533C316.767 210.946 316.779 212.419 316.654 213.891C316.259 215.909 315.564 217.838 314.837 219.781H314.827C313.519 222.829 311.493 225.656 308.866 227.025C300.373 231.472 290.426 226.598 288.514 217.263C286.677 208.296 293.945 197.857 303.571 198.652ZM307.049 203.584C301.909 203.584 300.83 211.594 306.022 211.594C311.171 211.594 312.241 203.584 307.049 203.584Z" fill="black"/>
<path d="M291.557 448.951C290.289 454.118 289.261 459.922 286.707 464.778C282.532 460.084 279.49 454.362 277.673 447.747C277.413 446.8 277.247 445.853 277.102 444.919C279.729 440.496 282.657 436.289 284.786 431.513C287.642 425.115 290.225 418.635 294.016 412.696C297.766 406.839 303.061 401.373 308.721 397.328C311.004 395.692 314.191 394.975 316.072 392.891C316.383 393.162 316.694 393.419 317.058 393.649C317.161 393.716 317.307 393.771 317.433 393.852C316.57 396.3 313.964 399.128 312.697 400.886C310.404 404.079 307.973 407.136 305.834 410.464C301.991 416.416 298.615 422.599 296.404 429.349C294.308 435.748 293.145 442.417 291.557 448.951Z" fill="#AD4174"/>
<path d="M285.721 61.3333C289.148 72.9623 289.17 83.953 288.141 95.9712C287.58 102.681 286.386 109.079 284.683 115.555C283.749 119.089 283.053 125.939 280.748 128.912C280.592 129.115 280.497 129.333 280.458 129.535C280.217 129.877 279.958 130.189 279.698 130.531C274.393 133.458 269.441 136.976 265.048 141.164C266.938 126.873 265.557 111.866 264.465 97.6058C263.947 90.7561 261.746 84.2644 260.323 77.6015C259.211 72.3708 258.162 67.4202 256.107 62.6566C262.565 61.9872 268.972 60.6794 275.514 60.4148C276.199 60.4148 276.906 60.4148 277.601 60.4459C280.27 60.586 282.949 60.804 285.637 61.0998L285.69 61.3022L285.721 61.3333Z" fill="#AD4174"/>
<path d="M295.608 158.745C299.065 158.459 302.044 159.511 305.036 160.847C301.172 156.102 295.13 153.308 288.754 153.849C285.452 154.104 281.196 155.381 279.751 158.775C277.135 164.962 281.828 165.232 285.681 163.385C288.836 161.883 292.025 159.03 295.608 158.745ZM291.786 151.146C299.521 152.497 305.326 155.366 308.495 162.469L308.732 162.664C310.331 163.911 308.296 166.058 306.697 165.292C302.45 163.28 297.455 160.021 292.741 163.085C291.672 163.776 290.582 164.466 289.439 165.052C287.186 166.223 284.611 167.59 282.026 167.71C276.824 167.951 274.54 163.13 276.522 158.489C279.077 152.512 285.618 150.065 291.786 151.146Z" fill="black"/>
<path d="M315.129 391.829C313.768 393.169 311.703 393.914 310.063 394.672C308.139 395.566 306.563 396.717 304.902 398.03C300.042 401.849 295.836 406.601 292.347 411.693C288.661 417.082 286.21 423.243 283.593 429.187C281.684 433.52 279.191 437.392 276.762 441.346C276.594 436.458 277.466 431.475 278.132 426.479C278.464 425.057 278.786 423.635 279.046 422.214C279.398 418.801 279.337 415.362 279.306 411.923L279.253 411.842C279.191 411.3 279.138 410.745 279.055 410.19L278.879 410.014L278.559 410.027C282.514 405.166 286.075 400.603 291.702 397.434C298.276 393.751 305.816 391.761 313.249 390.854C313.572 391.084 314.008 391.125 314.444 390.827C314.641 391.179 314.88 391.517 315.129 391.829Z" fill="#FE620D"/>
<path d="M283.498 393.946C288.307 391.789 293.55 391.003 298.67 389.959C303.561 388.969 308.368 388.128 313.3 387.545C313.372 387.938 313.445 388.318 313.561 388.684C299.459 390.528 284.362 396.414 278.026 410.056C277.664 410.069 277.29 410.11 276.926 410.137C276.242 409.906 275.493 409.812 274.652 409.947C270.965 410.53 267.498 410.747 264.164 410.53C264.434 410.056 264.693 409.581 264.974 409.106C266.439 406.584 268.526 404.387 270.581 402.34C274.258 398.692 278.795 396.047 283.498 393.946Z" fill="#FE620D"/>
<path d="M292.968 186.311C305.085 185.186 316.57 192.572 320.827 204.073C325.292 216.093 322.655 227.372 312.999 235.498C313.881 235.839 314.753 236.194 315.687 236.594C317.723 237.437 316.923 240.768 314.744 239.983C306.81 237.112 300.434 233.707 291.629 234.669C286.467 235.232 280.29 235.705 276.168 239.376C274.516 240.842 274.309 240.857 272.272 241.212C271.089 241.419 270.561 239.702 271.764 239.391C274.11 238.77 276.083 236.727 278.305 235.187C270.072 231.605 269.625 218.254 270.789 210.645C272.595 198.878 280.102 187.495 292.968 186.311ZM291.629 231.546C298.523 230.954 303.663 232.034 309.261 234.048L309.53 233.811C317.877 227.283 322.063 217.454 318.241 207.004C314.794 197.546 306.061 188.457 295.128 189.449C284.007 190.455 275.949 198.493 274.152 209.432C273.022 216.359 271.93 230.554 280.383 233.574C280.57 233.648 280.715 233.737 280.829 233.84C280.944 233.811 281.047 233.752 281.172 233.707C284.568 232.656 288.057 231.857 291.629 231.546Z" fill="black"/>
<path d="M314.91 378.61C303.519 376.668 292.876 372.689 282.139 368.462C271.526 364.29 261.403 361.812 249.99 362.817C230.356 364.552 212.371 377.081 201.76 393.452C201.417 393.549 201.063 393.631 200.72 393.714C196.484 394.774 192.35 396.137 188.135 397.266C184.211 398.079 180.264 398.74 176.349 399.304C178.281 394.141 182.342 389.432 185.694 385.274C189.724 380.248 194.231 375.498 199.091 371.271C208.654 362.927 220.429 358.411 232.764 356.056C245.506 353.619 258.87 354.377 271.007 359.058C281.952 363.271 290.478 371.34 302.335 373.281C302.44 373.35 302.553 373.377 302.688 373.405C306.666 375.801 311.202 377.756 315.378 377.797C315.212 378.059 315.055 378.32 314.91 378.61Z" fill="#FE620D"/>
<path d="M274.931 312.897C271.287 313.375 269.004 312.068 265.679 310.818C265.42 310.72 265.43 310.228 265.752 310.27C268.816 310.678 271.547 311.535 274.661 310.916C277.289 310.383 279.594 309.455 282.066 308.416C282.999 308.022 283.582 309.385 282.989 310.003C281.141 312.012 277.485 312.574 274.931 312.897Z" fill="black"/>
<path d="M246.387 62.9359C249.005 63.107 251.601 63.0447 254.198 62.827C256.304 67.7106 257.145 72.8897 258.08 78.2243C259.399 85.7674 261.578 92.8439 262.108 100.574C262.565 107.355 262.317 114.276 262.576 121.072C262.681 124.027 262.699 126.967 262.69 129.906C262.69 132.301 261.932 135.847 262.139 138.88C262.006 139.736 261.88 140.575 261.88 141.446L261.828 141.602C261.828 137.2 261.362 132.799 261.236 128.32C260.988 120.061 259.876 112.114 258.131 104.026C256.2 95.0525 253.126 86.4984 250.053 77.8666C248.308 73.0297 246.128 68.7371 243.74 64.46C244.103 64.2112 244.467 63.9623 244.809 63.6824C245.297 63.278 245.826 63.0759 246.387 62.9359Z" fill="#FE620D"/>
<path d="M313.414 382.732C297.807 378.661 281.337 375.892 265.181 376.66C257.311 377.03 249.316 379.031 241.829 381.43C238.298 382.582 234.841 383.952 231.57 385.748C229.96 386.625 228.464 387.681 226.969 388.722C218.995 386.749 211.134 390.34 203.68 392.999C203.295 393.081 202.901 393.177 202.516 393.273C208.612 385.625 215.475 378.922 223.741 373.603C233.045 367.613 243.075 364.954 254.061 364.502C275.098 363.638 293.342 378.113 313.913 380.868C313.714 381.471 313.537 382.102 313.414 382.732Z" fill="#AD4174"/>
<path d="M240.302 61.5568L240.355 61.6503C240.687 62.2113 241.019 62.7879 241.342 63.4113V63.4269C241.901 64.3464 242.317 65.3749 242.774 66.3723C244.592 70.3931 246.076 74.4918 246.439 75.6762C248.869 83.484 251.912 90.9956 253.99 98.9125C256.253 107.577 257.685 116.398 258.132 125.359C258.36 129.785 257.8 135.52 258.424 140.57C258.392 141.037 258.38 141.505 258.38 141.972C258.38 143.827 258.578 145.712 258.578 147.567C258.578 147.801 258.651 147.957 258.754 148.112C258.473 148.471 258.204 148.845 257.914 149.203L257.934 149.235C257.239 150.154 256.564 151.089 255.919 152.055C255.743 152.009 255.556 151.962 255.347 151.977C255.213 151.977 255.11 151.946 254.986 151.931C257.373 132.279 251.83 109.635 244.27 91.6658C239.471 80.2736 232.91 68.3672 221.571 62.8503C228.693 60.2165 238.289 57.6763 240.302 61.5568Z" fill="#AD4174"/>
<path d="M204.49 113.1C212.496 112.596 220.326 113.694 228.291 117.171C233.19 119.305 237.158 122.934 240.324 127.326L240.562 127.554C243.533 131.656 245.632 136.139 246.96 140.926C246.96 140.774 246.96 140.637 246.949 140.515C248.143 144.067 248.994 147.681 249.525 151.142C248.683 151.188 247.873 151.371 247.053 151.569C246.93 151.554 246.794 151.539 246.669 151.539C245.268 151.95 243.69 151.676 242.609 150.73C241.332 150.166 240.148 149.19 238.984 147.406C237.438 144.997 235.871 142.238 233.949 140.088C228.55 134.065 223.856 127.935 217.47 122.858C214.312 120.342 208.945 115.997 203.4 113.267C203.753 113.191 204.127 113.161 204.49 113.1Z" fill="#AD4174"/>
<path d="M218.871 63.9138C232.461 69.9302 239.263 86.378 244.04 99.4679C249.595 114.719 253.012 132.908 251.829 149.371C250.79 142.531 248.64 135.628 245.173 129.581C244.06 125.29 242.524 121.077 240.696 116.988C240.645 116.367 240.426 115.714 239.937 115.029C239.846 114.905 239.721 114.796 239.628 114.672C238.559 112.433 237.394 110.257 236.2 108.096C236.107 107.863 235.983 107.645 235.847 107.396C235.714 107.21 235.599 107.008 235.474 106.821C235.162 106.262 234.871 105.702 234.549 105.158C232.077 100.976 229.264 96.654 226.066 92.6276C220.418 85.1965 213.626 78.6826 204.811 76.4751C203.752 76.1331 202.683 75.8377 201.57 75.5889C205.506 72.1066 209.223 68.6243 214.249 65.9814C215.121 65.5306 216.783 64.7689 218.871 63.9138Z" fill="#AD4174"/>
<path d="M299.594 382.389C298.016 382.362 296.418 382.375 294.807 382.525C287.28 383.179 279.752 383.819 272.369 385.522C265.713 387.075 258.757 389.186 252.516 392.006C249.795 393.219 247.437 395.207 245.205 397.155C244.312 397.945 243.44 398.763 242.557 399.58C238.425 395.521 234.001 391.107 228.623 389.2C232.162 387.293 235.621 385.222 239.462 383.792C247.084 380.986 255.538 379.161 263.625 378.588C278.703 377.526 293.291 380.564 307.871 383.724C305.066 383.492 302.305 383.166 299.594 382.389Z" fill="#FE620D"/>
<path d="M292.741 163.088C297.457 160.018 302.451 163.27 306.697 165.292C308.298 166.052 310.331 163.894 308.734 162.662L308.495 162.465C305.327 155.366 299.522 152.493 291.787 151.14C285.619 150.061 279.078 152.509 276.523 158.482C274.539 163.118 276.824 167.937 282.027 167.709C284.612 167.587 287.187 166.219 289.44 165.049C290.583 164.456 291.671 163.772 292.741 163.088ZM296.864 255.248C298.379 255.354 299.813 255.567 301.235 255.826C292.098 270.57 278.902 278.064 261.654 279.614C246.97 280.937 231.727 278.93 220.657 268.7C223.151 266.922 225.89 266.208 229.088 265.645C230.481 265.402 230.002 263.441 228.768 263.319C225.808 263.061 222.838 264.383 220.357 265.888C219.184 266.618 218.156 267.651 217.211 268.64C216.516 269.354 214.833 272.394 213.69 272.47C212.506 272.531 212.485 274.37 213.69 274.34C216.007 274.264 217.314 271.74 218.81 270.236L219.07 270.008C227.064 279.675 238.964 282.7 251.041 283.217C250.501 290.148 254.499 294.967 260.708 298.022C267.624 301.427 275.319 300.059 281.984 296.882C296.843 289.768 305.545 273.443 309.232 258.151C309.751 258.334 310.271 258.516 310.789 258.729C312.139 259.291 313.002 257.087 311.763 256.418C307.361 254.017 301.848 253.09 296.864 253.318C295.608 253.378 295.628 255.157 296.864 255.248ZM291.63 234.651C300.436 233.694 306.812 237.099 314.746 239.956C316.925 240.747 317.725 237.418 315.69 236.582C314.755 236.187 313.882 235.822 313.002 235.472C322.657 227.355 325.295 216.077 320.83 204.053C316.573 192.562 305.087 185.174 292.971 186.284C280.104 187.485 272.596 198.87 270.791 210.635C269.628 218.235 270.075 231.596 278.309 235.168C276.085 236.719 274.113 238.756 271.766 239.364C270.563 239.683 271.092 241.4 272.274 241.203C274.311 240.838 274.518 240.823 276.17 239.364C280.292 235.685 286.47 235.214 291.63 234.651ZM220.72 130.255C222.902 132.383 224.957 134.663 226.919 137.004C231.095 141.975 234.22 147.568 238.175 152.66C239.577 154.469 241.53 155.123 243.647 155.321C243.98 155.442 244.311 155.457 244.634 155.381C246.44 155.473 248.309 155.336 250.013 155.412C250.272 155.427 250.48 155.366 250.677 155.305C250.905 155.381 251.155 155.412 251.456 155.412C252.162 155.412 252.9 155.64 253.596 155.716C254.394 155.807 255.277 155.685 255.952 155.275C256.326 155.29 256.7 155.138 256.97 154.758C272.224 133.417 297.881 124.509 323.291 122.473C350.736 120.268 373.08 132.55 385.821 156.704C398.19 180.158 400.847 208.765 399.497 234.788C398.936 245.657 397.399 256.449 395.052 267.074C392.935 274.051 390.454 280.922 387.858 287.731C384.794 295.772 382.915 305.668 378.762 313.45C377.587 308.981 376.476 304.497 375.138 300.059C373.621 295.073 370.297 290.346 367.775 285.816C361.139 273.914 358.004 260.188 354.764 247.04C354.493 245.915 352.853 246.417 353.051 247.526C354.888 257.832 357.027 267.94 360.382 277.881C361.037 279.797 361.794 281.651 362.624 283.475C363.87 288.811 366.465 294.024 368.68 298.98C369.417 303.737 368.231 308.799 367.141 313.602C364.848 323.741 354.276 328.529 346.343 321.841C346.676 321.233 347.028 320.61 347.338 319.956C351.306 311.976 350.809 303.631 350.175 294.982C349.52 285.968 348.991 278.444 343.426 271.026C342.708 270.068 341.088 270.95 341.784 271.984C346.644 279.143 346.572 286.682 347.101 294.982C347.694 304.133 347.505 312.006 343.198 320.306C338.878 328.636 332.501 334.017 325.482 338.729C319.014 332.998 311.38 330.703 303.105 329.973C288.9 326.523 273.294 328.043 258.817 326.705C240.834 325.033 223.13 320.762 207.969 311.277C199.931 304.892 192.87 297.049 187.024 287.868C183.475 282.289 180.66 276.437 178.479 270.418C171.5 245.763 170.95 220.378 178.439 195.526C181.397 185.721 185 175.37 189.218 165.733C193.244 157.616 198.127 149.97 204.055 143.495C208.01 139.679 212.33 136.183 216.484 132.824C217.782 131.988 219.111 131.167 220.482 130.438L220.72 130.255ZM218.633 173.637C221.105 173.515 224.312 174.139 226.545 172.71C229.193 170.977 233.399 165.93 229.483 162.845C226.079 160.154 221.187 160.534 217.46 162.526C211.977 165.459 209.258 170.871 206.215 176.023C205.248 177.665 207.75 179.14 208.747 177.544C211.884 175.932 215.051 173.804 218.633 173.637ZM202.591 254.822C211.261 246.842 222.227 246.082 233.492 245.824C234.646 245.991 235.796 246.158 236.97 246.143C238.382 246.113 238.218 243.817 236.806 243.954C236.556 243.985 236.307 243.969 236.058 243.985C240.729 233.207 240.49 223.555 234.79 213.082C229.815 203.977 222.268 199.782 212.382 203.491C193.234 210.635 190.203 236.749 206.713 248.317C204.543 249.563 202.456 251.098 200.504 253.029C199.227 254.306 201.313 255.993 202.591 254.822ZM265.682 310.805C269.006 312.052 271.289 313.359 274.933 312.888C277.488 312.554 281.142 311.991 282.992 309.985C283.585 309.361 283.001 308.009 282.068 308.404C279.596 309.437 277.29 310.365 274.664 310.897C271.549 311.52 268.818 310.669 265.755 310.243C265.432 310.213 265.422 310.714 265.682 310.805Z" fill="#FDA5C5"/>
<path d="M210.896 173.917C214.061 168.675 217.759 163.852 224.664 163.822C227.592 167.391 227.5 169.676 224.394 170.646C223.335 170.915 222.245 171.035 221.144 171.02C219.794 171.064 218.403 170.93 217.053 171.199C214.811 171.632 212.838 172.737 210.896 173.917Z" fill="#FE620D"/>
<path d="M219.11 216.658C220.573 216.395 222.016 216.482 223.399 216.818C222.443 216.921 221.477 217.198 220.668 217.534C217.209 218.981 216.036 223.262 215.463 226.549C214.758 230.699 215.63 235.257 218.133 238.632C218.777 239.494 219.588 240.298 220.469 240.868C215.423 240.868 210.201 236.66 209.193 231.59C207.832 224.767 212.33 217.841 219.11 216.658Z" fill="#BF4A0A"/>
<path d="M287.278 290.505C297.683 281.773 303.726 270.336 306.83 257.303C306.196 257.116 305.563 256.886 304.919 256.713L304.878 256.814C295.524 272.926 280.269 282.118 261.651 283.125C258.546 283.283 255.379 283.355 252.223 283.269C253.095 291.598 260.229 297.611 268.795 297.697C275.554 297.784 282.149 294.806 287.278 290.505ZM301.235 255.85C299.812 255.577 298.378 255.375 296.861 255.26C295.626 255.174 295.606 253.39 296.861 253.333C301.846 253.102 307.36 254.023 311.762 256.44C312.999 257.102 312.137 259.303 310.788 258.742C310.269 258.54 309.749 258.353 309.23 258.166C305.542 273.458 296.841 289.785 281.982 296.892C275.316 300.071 267.623 301.452 260.706 298.043C254.496 294.979 250.5 290.159 251.039 283.226C238.961 282.722 227.062 279.687 219.068 270.034L218.809 270.25C217.313 271.746 216.005 274.278 213.689 274.35C212.483 274.379 212.505 272.552 213.689 272.48C214.831 272.408 216.514 269.372 217.209 268.653C218.154 267.675 219.183 266.639 220.355 265.906C222.837 264.395 225.806 263.086 228.766 263.345C230.001 263.46 230.48 265.416 229.087 265.661C225.889 266.222 223.149 266.927 220.656 268.711C231.725 278.953 246.968 280.953 261.651 279.629C278.9 278.076 292.097 270.595 301.235 255.85Z" fill="black"/>
<path d="M224.282 217.308C219.153 217.308 218.061 225.312 223.265 225.312C228.404 225.312 229.483 217.308 224.282 217.308ZM220.669 217.527C221.478 217.176 222.444 216.898 223.399 216.811C222.018 216.474 220.574 216.386 219.11 216.635C212.33 217.835 207.835 224.756 209.194 231.575C210.202 236.652 215.423 240.852 220.47 240.852C219.589 240.281 218.778 239.476 218.134 238.613C215.631 235.248 214.76 230.682 215.465 226.541C216.036 223.249 217.21 218.961 220.669 217.527ZM221.333 242.886C214.811 243.573 208.405 239.535 206.411 232.614C203.858 223.805 210.284 212.831 219.952 212.86C220.533 212.86 221.114 212.904 221.708 212.977C222.122 213.05 222.548 213.138 222.963 213.211L222.972 213.226L223.066 213.24C224.043 213.46 224.999 213.708 225.912 214.045C227.169 214.557 228.373 215.157 229.516 215.889C230.034 216.284 230.522 216.679 230.958 217.147L231.197 217.425L231.435 217.718C231.945 218.376 232.37 219.064 232.723 219.766L232.786 219.898L232.847 220.03C233.139 220.717 233.367 221.464 233.524 222.268C233.564 222.459 233.648 222.576 233.742 222.678C234.072 224.083 234.198 225.532 234.188 227.009C233.96 229.043 233.42 231.033 232.847 233.023H232.839C231.768 236.169 229.982 239.14 227.47 240.72C225.506 241.964 223.42 242.666 221.333 242.886Z" fill="black"/>
<path d="M224.664 163.82C217.759 163.865 214.062 168.681 210.895 173.915C212.838 172.734 214.81 171.642 217.052 171.193C218.403 170.939 219.793 171.058 221.144 171.029C222.245 171.043 223.335 170.924 224.394 170.655C227.499 169.668 227.593 167.394 224.664 163.82ZM226.543 172.719C224.312 174.154 221.104 173.541 218.631 173.661C215.048 173.825 211.882 175.949 208.746 177.564C207.748 179.149 205.246 177.684 206.212 176.039C209.256 170.894 211.975 165.48 217.457 162.549C221.186 160.56 226.076 160.171 229.482 162.863C233.397 165.959 229.192 170.999 226.543 172.719Z" fill="black"/>
<path d="M221.457 244.104C224.625 243.825 227.874 243.81 231.175 243.928C231.747 243.898 232.308 243.898 232.869 243.928C232.879 243.751 232.911 243.575 232.994 243.369C236.057 236.366 237.323 229.186 235.476 222.212C234.821 219.726 233.772 217.254 232.255 214.841C226.847 206.234 219.08 201.718 209.682 208.059C202.59 212.84 197.033 219.564 198.644 228.7C199.92 235.954 202.653 242.398 208.706 246.856C208.83 246.944 208.914 247.047 208.987 247.165C212.89 245.37 217.095 244.487 221.457 244.104ZM233.491 245.826C222.225 246.091 211.26 246.856 202.59 254.83C201.313 255.992 199.227 254.315 200.504 253.035C202.455 251.093 204.542 249.563 206.713 248.327C190.202 236.763 193.234 210.633 212.381 203.483C222.267 199.79 229.816 203.983 234.79 213.09C240.49 223.551 240.729 233.217 236.057 244.001C236.305 243.972 236.555 243.987 236.806 243.957C238.217 243.81 238.381 246.12 236.97 246.149C235.796 246.164 234.644 245.988 233.491 245.826Z" fill="black"/>
<path d="M170.297 293.953C174.532 290.77 177.907 286.82 179.185 281.932L179.423 281.747C181.666 286.266 184.232 290.6 187.087 294.692L187.077 294.721C187.222 294.891 187.358 295.076 187.493 295.275L187.576 295.403C188.063 295.985 188.489 296.653 188.614 297.349C188.697 297.477 188.769 297.619 188.822 297.776C189.487 298.628 188.656 305.122 188.405 306.373C187.419 311.46 184.481 315.95 181.188 319.815C178.385 319.531 175.955 319.446 173.65 317.186C171.365 314.97 169.943 312.696 168.895 309.683C166.838 303.815 168.334 299.254 170.297 293.953Z" fill="#FDA5C5"/>
<path d="M266.51 351.193C277.664 355.725 287.588 362.329 297.361 369.776C286.946 366.447 278.193 359.207 267.705 355.739C255.462 351.705 242.067 352.133 229.586 354.744C217.448 357.3 206.316 362.854 197.054 371.089C192.196 375.414 187.729 380.443 183.794 385.596C181.842 388.166 180.014 390.833 178.167 393.472C182.393 383.344 186.983 373.576 195.299 365.811C200.875 360.589 207.583 356.388 213.897 352.133C222.078 346.606 230.033 345.86 239.607 346.054C248.047 346.22 257.539 348.098 266.51 351.193Z" fill="#AD4174"/>
<path d="M151.002 327.796C157.316 324.84 163.796 320.582 167.606 314.586C168.613 316.645 169.829 318.214 171.25 319.419C166.09 327.334 156.995 331.172 150.701 338.078C145.333 343.975 142.799 351.078 141.835 358.698C138.397 355.952 135.842 352.59 134.15 347.73C133.278 345.25 132.529 342.785 131.586 340.403C136.954 334.408 143.597 331.256 151.002 327.796Z" fill="#FE620D"/>
<path d="M147.565 318.352C153.359 316.85 161.344 314.182 165.717 309.239C166.059 310.658 166.516 312.09 167.118 313.564C167.222 313.803 167.347 313.999 167.451 314.238C160.795 320.655 153.681 325.05 145.127 328.588C139.539 330.905 134.795 334.261 130.817 338.599C129.904 336.648 128.792 334.752 127.245 333.039C126.186 331.86 125.054 330.778 123.881 329.739C124.234 329.473 124.566 329.192 124.981 328.799C127.1 326.791 129.769 325.33 132.25 323.814C136.85 320.964 142.406 319.7 147.565 318.352Z" fill="#AD4174"/>
<path d="M165.29 306.909C163.006 309.992 158.728 312.386 155.519 313.92C151.18 315.976 146.341 317.032 141.73 318.327C137.898 319.411 133.828 321.298 130.484 323.452C127.795 325.184 125.74 327.338 123.392 329.323C122.977 328.957 122.551 328.605 122.126 328.267C118.844 325.198 115.231 322.607 111.71 319.805C113.226 319.158 114.629 318.215 116.103 317.468C118.917 316.032 121.804 314.864 124.794 313.878C130.153 312.076 135.904 311.541 141.48 310.752C149.622 309.612 158.78 308.5 165.145 302.98C165.073 304.276 165.114 305.585 165.29 306.909Z" fill="#FE620D"/>
<path d="M171.75 319.845C173.567 321.215 175.705 322.04 178.114 322.585C177.274 323.256 176.464 323.885 175.716 324.43C169.943 328.636 163.764 332.34 157.99 336.575C153.662 339.733 150.38 343.884 147.462 348.329C146.372 350.006 145.634 351.711 145.074 353.458C144.835 354.031 144.576 354.576 144.368 355.149C144.907 352.228 145.707 349.349 147.047 346.442C149.174 341.802 153.027 337.972 156.911 334.814C160.4 331.977 163.911 329.126 167.286 326.177C169.258 324.472 171.063 322.375 171.75 319.845Z" fill="#AD4174"/>
<path d="M165.622 299.665C158.666 307.078 147.701 307.897 138.169 309.393C133.028 310.184 127.94 311.045 123.039 312.838C120.848 313.643 118.741 314.646 116.664 315.705C116.331 315.874 112.188 318.034 110.849 319.108C110.464 318.797 110.091 318.486 109.717 318.176C107.184 316.411 106.508 314.123 107.671 311.299C110.288 307.897 118.252 306.682 120.671 306.612C135.053 306.103 146.931 305.891 160.337 299.749C162.466 298.775 164.615 297.66 166.671 296.417C166.225 297.504 165.872 298.577 165.622 299.665Z" fill="#AD4174"/>
<path d="M408.768 217.178C409.722 230.083 409.308 243.051 406.462 255.768C403.648 268.408 399.537 280.672 394.812 292.717C391.458 301.273 389.745 311.597 384.907 319.497C387.835 327.975 388.426 337.127 388.747 346.074C388.977 352.456 388.946 359.527 386.732 365.612C381.562 379.753 369.392 384.102 356.371 378.064C356.144 378.189 355.874 378.314 355.594 378.423C352.384 379.534 350.173 383.664 347.359 385.604C346.081 386.48 344.411 387.449 343.287 388.701L343.309 388.873C343.715 400.011 352.977 408.661 357.15 418.516C360.191 425.712 360.806 434.331 359.59 441.996C357.244 456.716 338.326 483.246 352.426 496.636C353.091 497.59 353.817 498.466 354.575 499.358C357.192 502.424 355.603 505.083 353.006 507.195L352.778 507.383C343.123 511.403 330.806 511.419 322.085 505.302C317.952 502.424 314.847 498.904 311.919 494.806C307.298 488.345 303.206 484.998 295.71 482.104C284.247 477.693 275.191 466.055 271.288 454.588C267.238 442.669 270.633 431.312 271.412 419.392C264.082 420.143 256.512 419.877 249.866 416.451C241.839 412.306 237.023 404.797 229.628 399.948C219.95 393.597 210.252 400.417 200.253 402.951C191.302 405.204 181.386 407.488 172.093 406.909C170.66 406.815 169.715 406.143 169.205 405.267C168.956 403.859 168.75 402.451 168.603 401.027C168.79 399.291 169.05 397.555 169.238 395.818C173.909 382.788 178.957 369.445 189.547 360.059C199.641 351.127 212.839 339.363 226.7 337.784C243.615 335.875 259.231 339.692 275.016 345.48C282.004 348.03 288.286 351.002 294.266 355.475C295.826 356.633 298.307 358.901 301.11 361.185C299.811 358.51 299.106 355.757 299.386 352.691C299.303 352.582 299.24 352.457 299.178 352.316C299.23 351.972 299.303 351.612 299.355 351.283C299.502 350.861 299.666 350.439 299.852 350.048C301.058 347.92 303.134 346.215 304.972 344.51C306.238 343.399 307.495 342.257 308.762 341.256C299.729 337.158 290.426 337.22 280.156 336.829C268.618 336.391 256.947 335.797 245.576 333.638C226.825 330.087 209.692 323.752 195.415 311.128C193.223 320.217 184.946 327.897 177.544 332.809C170.98 337.189 163.214 341.741 158.189 347.904C153.236 353.974 152.685 359.496 150.764 366.582C150.712 366.77 150.64 366.942 150.566 367.114C150.369 368.49 149.56 369.804 148.324 370.508C147.638 370.587 146.932 370.602 146.236 370.571C144.274 369.851 142.312 369.147 140.349 368.443C135.76 365.784 131.544 362.437 128.969 357.619C125.562 351.221 125.001 342.68 119.613 337.533C111.857 330.119 97.5993 325.41 98.4514 312.552C99.313 299.615 116.435 297.879 125.875 298.098C134.795 298.317 143.598 297.597 152.011 294.328C159.435 291.45 169.829 287.163 172.165 278.935C162.892 250.027 161.926 219.587 171.667 190.616C174.076 183.452 177.076 176.631 179.797 169.608C182.101 163.648 183.764 157.312 187.283 151.916C193.523 142.327 201.811 134.928 210.666 127.951C210.22 127.544 209.681 127.2 209.141 126.872C208.559 126.371 207.99 125.855 207.406 125.339C207.115 125.057 206.826 124.791 206.526 124.541C203.159 121.522 199.651 118.44 195.705 116.313C193.597 114.842 191.385 113.56 189.09 112.559C189.028 111.479 189.538 110.369 190.908 109.665C199.816 105.003 213.896 102.907 225.328 105.91C222.993 101.734 220.626 97.4632 217.365 94.1C214.04 90.6429 209.089 86.8261 204.001 84.6048C200.763 82.8528 197.325 81.398 193.888 80.3186C193.223 80.0527 192.558 79.8025 191.882 79.5522C190.783 78.2538 190.451 76.1734 191.853 74.7343C196.514 70.0258 200.201 65.0826 206.005 61.6725C211.467 58.4501 217.147 55.7283 223.284 54.0075C230.916 51.8801 241.756 48.157 246.814 55.9159L247.04 56.1349C254.435 56.0098 261.526 53.5382 268.868 52.6466C275.795 51.8019 282.626 51.6454 289.501 53.0533C303.778 55.9941 316.945 61.1405 329.904 67.8044C342.945 74.5151 356.64 81.7108 367.097 92.1289C369.289 94.3189 371.584 96.5246 373.827 98.7771C377.606 103.705 381.034 108.836 383.971 114.357C386.433 118.988 388.634 123.743 390.867 128.498C391.301 129.64 391.76 130.782 392.237 131.924C392.974 135.037 394.357 138.009 395.747 140.919C395.996 141.748 396.338 142.561 396.723 143.422C398.083 146.456 399.049 149.444 399.982 152.62C402.186 160.097 404.501 167.418 405.829 175.114C407.324 183.843 407.927 192.775 408.362 201.707C408.372 206.118 408.498 210.529 408.892 214.925C408.903 215.566 408.934 216.223 408.976 216.88L408.768 217.178ZM297.362 369.773C287.59 362.327 277.664 355.726 266.509 351.189C257.54 348.108 248.048 346.215 239.607 346.059C230.034 345.855 222.078 346.606 213.897 352.128C207.583 356.383 200.875 360.591 195.3 365.815C186.983 373.574 182.393 383.335 178.167 393.472C180.014 390.828 181.843 388.153 183.795 385.588C187.729 380.441 192.195 375.405 197.054 371.087C206.318 362.859 217.447 357.306 229.586 354.74C242.068 352.128 255.463 351.706 267.705 355.741C278.193 359.214 286.947 366.441 297.362 369.773ZM292.345 411.711C295.835 406.612 300.04 401.872 304.9 398.04C306.561 396.726 308.138 395.568 310.061 394.676C311.702 393.926 313.766 393.175 315.127 391.845C314.879 391.532 314.639 391.188 314.442 390.844C314.006 391.126 313.571 391.094 313.247 390.875C305.814 391.767 298.274 393.754 291.701 397.445C286.074 400.605 282.512 405.173 278.558 410.038L278.878 410.022L279.055 410.21C279.138 410.757 279.19 411.305 279.252 411.852L279.304 411.93C279.335 415.372 279.398 418.813 279.044 422.223C278.784 423.647 278.462 425.07 278.131 426.478C277.464 431.484 276.593 436.458 276.76 441.354C279.19 437.412 281.683 433.533 283.591 429.2C286.208 423.256 288.66 417.092 292.345 411.711ZM296.404 429.341C298.616 422.599 301.992 416.404 305.834 410.46C307.974 407.128 310.403 404.078 312.698 400.887C313.965 399.119 316.571 396.288 317.433 393.847C317.308 393.769 317.162 393.722 317.059 393.644C316.696 393.409 316.383 393.159 316.074 392.877C314.193 394.974 311.005 395.693 308.722 397.32C303.06 401.371 297.767 406.831 294.017 412.681C290.226 418.625 287.643 425.102 284.787 431.515C282.658 436.271 279.731 440.478 277.103 444.905C277.248 445.844 277.414 446.798 277.674 447.737C279.49 454.354 282.532 460.079 286.707 464.772C289.262 459.922 290.29 454.103 291.557 448.941C293.144 442.418 294.31 435.739 296.404 429.341ZM311.888 385.525C306.707 385.228 301.578 384.149 296.303 384.54C288.962 385.103 281.505 385.447 274.289 387.043C267.642 388.498 260.54 390.14 254.247 392.784C250.053 394.551 246.679 397.43 243.22 400.23C244.05 401.043 244.872 401.841 245.692 402.576C251.133 407.504 256.906 409.85 263.26 410.46C265.296 406.815 267.248 403.515 270.613 400.511C274.611 396.96 279.064 394.285 283.978 392.142C288.877 389.984 294.288 389.327 299.438 388.028C303.674 386.98 307.974 386.182 312.313 385.729C312.168 385.65 312.022 385.588 311.888 385.525ZM282.138 368.459C292.875 372.683 303.519 376.672 314.908 378.611C315.054 378.33 315.21 378.064 315.378 377.814C311.203 377.751 306.665 375.796 302.688 373.402C302.554 373.387 302.439 373.355 302.335 373.293C290.477 371.337 281.952 363.281 271.007 359.058C258.87 354.381 245.504 353.63 232.763 356.07C220.427 358.416 208.653 362.921 199.091 371.275C194.23 375.498 189.724 380.254 185.694 385.275C182.34 389.436 178.281 394.145 176.349 399.307C180.264 398.743 184.211 398.071 188.136 397.273C192.35 396.147 196.483 394.786 200.719 393.722C201.062 393.628 201.417 393.55 201.759 393.456C212.371 377.094 230.356 364.564 249.991 362.828C261.402 361.811 271.526 364.282 282.138 368.459ZM294.806 382.538C296.415 382.381 298.014 382.381 299.592 382.397C302.303 383.179 305.064 383.492 307.869 383.742C293.29 380.582 278.701 377.532 263.623 378.611C255.536 379.174 247.083 380.989 239.462 383.805C235.62 385.228 232.161 387.309 228.621 389.201C233.999 391.126 238.424 395.537 242.556 399.588C243.438 398.775 244.311 397.946 245.204 397.164C247.436 395.224 249.794 393.222 252.514 392.017C258.754 389.201 265.712 387.074 272.368 385.525C279.75 383.836 287.278 383.195 294.806 382.538ZM297.133 123.196C300.414 110.65 305.978 94.6318 301.94 82.274C301.588 81.1946 303.248 80.7566 303.602 81.8047C307.755 93.8966 303.279 109.727 300.145 122.32C304.795 121.068 309.541 120.098 314.317 119.426C319.778 112.324 322.999 102.844 324.607 94.0687C325.605 88.6719 327.069 81.4293 325.531 75.9386C325.47 75.7196 325.428 75.5163 325.367 75.2973C323.684 74.4683 322.023 73.6705 320.393 72.8727C310.569 68.1486 300.248 63.6747 289.468 61.5786C289.096 61.5316 288.722 61.4691 288.348 61.4221C292.367 74.828 291.868 87.7021 290.415 101.64C289.708 108.398 287.746 114.795 286.022 121.334C285.461 123.446 285.16 125.917 284.37 128.107C288.474 126.152 292.75 124.541 297.133 123.196ZM298.67 389.952C293.55 391 288.306 391.798 283.498 393.957C278.794 396.053 274.257 398.697 270.581 402.341C268.526 404.391 266.438 406.581 264.975 409.115C264.693 409.584 264.435 410.053 264.163 410.523C267.497 410.757 270.965 410.523 274.652 409.959C275.493 409.819 276.241 409.912 276.926 410.147C277.289 410.116 277.664 410.069 278.026 410.053C284.361 396.413 299.458 390.531 313.56 388.685C313.446 388.31 313.372 387.934 313.3 387.543C308.368 388.122 303.561 388.967 298.67 389.952ZM309.074 408.817C304.578 415.841 300.279 423.084 298.014 431.171C295.96 438.476 294.36 445.969 292.667 453.352C291.629 457.858 290.54 462.441 288.326 466.477C292.096 470.215 296.675 473.188 301.992 475.315C302.532 469.574 303.935 463.739 305.171 458.264C306.799 451.053 308.234 443.763 310.372 436.693C312.593 429.372 315.917 422.427 317.879 415.028C318.958 410.945 319.956 406.737 319.706 402.466C319.55 399.823 319.363 397.21 319.676 394.582C319.28 394.52 318.907 394.41 318.564 394.301C318.026 396.162 316.571 397.852 315.553 399.447C313.486 402.639 311.129 405.626 309.074 408.817ZM313.913 380.864C293.343 378.111 275.099 363.641 254.061 364.501C243.077 364.955 233.045 367.614 223.741 373.606C215.476 378.924 208.612 385.619 202.516 393.269C202.901 393.175 203.295 393.081 203.68 392.987C211.134 390.328 218.996 386.745 226.969 388.716C228.465 387.684 229.96 386.62 231.571 385.744C234.841 383.945 238.298 382.569 241.828 381.427C249.316 379.018 257.312 377.031 265.181 376.656C281.339 375.889 297.808 378.658 313.414 382.725C313.538 382.1 313.715 381.474 313.913 380.864ZM258.816 326.724C273.292 328.054 288.897 326.536 303.104 329.978C311.378 330.713 319.011 332.997 325.48 338.738C332.5 334.029 338.876 328.648 343.195 320.311C347.503 312.02 347.692 304.152 347.1 295C346.571 286.694 346.643 279.154 341.783 272.006C341.087 270.957 342.707 270.081 343.424 271.036C348.989 278.45 349.518 285.99 350.173 295C350.807 303.635 351.304 311.988 347.337 319.966C347.026 320.608 346.673 321.233 346.341 321.859C354.273 328.554 364.845 323.752 367.14 313.615C368.228 308.813 369.414 303.745 368.677 298.989C366.464 294.031 363.867 288.822 362.622 283.487C361.791 281.657 361.034 279.811 360.38 277.887C357.025 267.954 354.887 257.849 353.049 247.54C352.851 246.43 354.492 245.929 354.761 247.055C358.003 260.195 361.137 273.914 367.773 285.834C370.295 290.355 373.619 295.079 375.136 300.069C376.474 304.511 377.584 309.001 378.759 313.459C382.914 305.685 384.793 295.783 387.855 287.742C390.452 280.922 392.933 274.07 395.049 267.094C397.397 256.457 398.935 245.663 399.495 234.807C400.845 208.777 398.187 180.167 385.819 156.718C373.078 132.566 350.733 120.286 323.29 122.476C297.88 124.525 272.222 133.442 256.969 154.763C256.698 155.154 256.326 155.295 255.951 155.279C255.276 155.701 254.393 155.811 253.595 155.733C252.899 155.654 252.162 155.435 251.455 155.435C251.153 155.435 250.904 155.404 250.676 155.31C250.479 155.373 250.271 155.435 250.011 155.42C248.308 155.342 246.438 155.482 244.633 155.404C244.311 155.467 243.979 155.451 243.646 155.342C241.528 155.123 239.576 154.481 238.173 152.667C234.218 147.583 231.093 141.983 226.919 137.008C224.956 134.677 222.9 132.394 220.72 130.266L220.481 130.454C219.11 131.189 217.781 131.987 216.482 132.832C212.329 136.195 208.009 139.683 204.052 143.5C198.125 149.976 193.243 157.625 189.215 165.744C184.998 175.38 181.395 185.736 178.437 195.544C170.949 220.384 171.5 245.773 178.478 270.426C180.659 276.448 183.473 282.299 187.024 287.867C192.869 297.065 199.931 304.902 207.968 311.285C223.127 320.78 240.833 325.05 258.816 326.724ZM304.318 476.269C310.298 478.96 313.746 483.277 317.474 488.001L317.483 488.033L317.474 488.001C317.247 487.031 317.048 486.03 316.945 485.014C316.509 480.665 316.498 476.191 316.954 471.858C317.838 463.426 319.945 455.277 321.691 447.002C323.631 437.741 324.275 428.84 324.026 419.408C323.797 411.023 324.411 402.545 320.839 394.786C320.548 394.755 320.288 394.708 320.019 394.645C320.319 398.165 321.087 401.763 320.964 405.267C320.829 408.692 320.227 412.134 319.374 415.434C317.579 422.395 314.628 428.95 312.678 435.848C310.663 442.934 309.23 450.177 307.674 457.404C306.353 463.536 304.93 469.95 304.318 476.269ZM310.923 360.481C320.329 360.012 327.473 355.507 334.94 349.844C338.876 346.856 343.059 343.618 345.759 339.395C348.023 335.859 350.774 331.573 350.712 327.225C348.678 326.568 346.746 325.52 345.064 324.096C341.171 330.525 336.132 336.016 330.152 340.756C323.747 345.808 316.114 349.015 309.385 353.645C308.628 354.365 307.921 355.147 307.775 356.195C308.639 357.509 309.884 359.198 310.923 360.481ZM336.974 350.439C329.966 355.945 321.855 362.014 312.667 362.39C315.107 364.564 317.411 366.034 320.288 367.52C327.152 371.071 332.603 368.318 339.27 366.754C344.803 362.186 348.334 353.786 350.92 347.482C352.426 343.79 353.713 340.193 354.544 336.297C355.135 333.591 355.966 330.697 355.365 327.96C354.078 327.929 352.789 327.772 351.522 327.444C351.875 331.511 349.84 335.656 347.785 339.098C345.043 343.681 341.129 347.169 336.974 350.439ZM221.571 62.8457C232.91 68.3676 239.471 80.2718 244.269 91.6754C251.829 109.633 257.373 132.268 254.985 151.931C255.111 151.947 255.214 151.978 255.348 151.978C255.556 151.978 255.743 152.01 255.919 152.057C256.564 151.087 257.238 150.148 257.934 149.225L257.914 149.194C258.203 148.85 258.474 148.474 258.754 148.115C258.651 147.958 258.579 147.802 258.579 147.567C258.579 145.706 258.38 143.828 258.38 141.967C258.38 141.513 258.392 141.044 258.422 140.575C257.8 135.522 258.36 129.781 258.131 125.354C257.685 116.407 256.253 107.584 253.989 98.918C251.912 91.0027 248.869 83.4786 246.438 75.6728C246.075 74.4996 244.592 70.3855 242.775 66.381C242.316 65.3798 241.902 64.3473 241.34 63.4244C241.018 62.7987 240.686 62.2043 240.355 61.6412L240.303 61.563C238.288 57.6836 228.693 60.2177 221.571 62.8457ZM217.469 122.867C223.855 127.951 228.549 134.083 233.947 140.105C235.868 142.249 237.437 145.017 238.983 147.411C240.147 149.21 241.331 150.179 242.607 150.743C243.688 151.697 245.267 151.963 246.668 151.54C246.792 151.556 246.928 151.572 247.051 151.572C247.871 151.384 248.683 151.212 249.523 151.149C248.993 147.692 248.142 144.079 246.948 140.512C246.959 140.653 246.959 140.794 246.959 140.934C245.631 136.148 243.532 131.674 240.561 127.56L240.323 127.341C237.157 122.945 233.189 119.316 228.289 117.173C220.326 113.716 212.495 112.605 204.489 113.106C204.126 113.169 203.752 113.215 203.399 113.278C208.944 116 214.311 120.349 217.469 122.867ZM204.811 76.4706C213.626 78.6918 220.418 85.1836 226.067 92.6295C229.264 96.6497 232.078 100.967 234.55 105.16C234.872 105.691 235.163 106.27 235.474 106.818C235.598 107.005 235.714 107.193 235.848 107.381C235.984 107.631 236.108 107.85 236.202 108.085C237.395 110.243 238.559 112.433 239.627 114.67C239.721 114.795 239.846 114.905 239.939 115.03C240.427 115.703 240.646 116.36 240.697 116.985C242.526 121.068 244.061 125.292 245.173 129.578C248.641 135.632 250.79 142.53 251.829 149.366C253.011 132.91 249.595 114.717 244.04 99.4655C239.264 86.3724 232.463 69.9163 218.871 63.9094C216.784 64.7541 215.121 65.5207 214.25 65.9743C209.224 68.6179 205.507 72.1063 201.57 75.5946C202.682 75.8293 203.752 76.1264 204.811 76.4706ZM280.746 128.905C283.053 125.933 283.749 119.082 284.683 115.562C286.387 109.086 287.58 102.688 288.14 95.9771C289.17 83.9635 289.148 72.9665 285.72 61.3439L285.689 61.297L285.638 61.1093C282.947 60.7964 280.269 60.5774 277.602 60.4523C276.906 60.421 276.199 60.4211 275.513 60.4211C268.972 60.6714 262.564 62.001 256.107 62.658C258.162 67.4134 259.211 72.3878 260.323 77.6125C261.745 84.2763 263.947 90.768 264.465 97.6039C265.555 111.87 266.937 126.872 265.047 141.169C269.439 136.977 274.392 133.473 279.698 130.532C279.959 130.203 280.217 129.891 280.457 129.547C280.497 129.343 280.593 129.124 280.746 128.905ZM173.649 317.198C175.955 319.45 178.384 319.544 181.187 319.826C184.48 315.962 187.418 311.472 188.405 306.388C188.655 305.137 189.486 298.645 188.821 297.785C188.768 297.628 188.696 297.488 188.613 297.362C188.488 296.659 188.062 296.002 187.574 295.407L187.491 295.282C187.357 295.094 187.221 294.907 187.075 294.735L187.085 294.703C184.23 290.605 181.665 286.272 179.423 281.751L179.184 281.939C177.907 286.819 174.531 290.777 170.295 293.968C168.334 299.271 166.837 303.823 168.895 309.705C169.942 312.708 171.365 314.976 173.649 317.198ZM167.286 326.177C163.91 329.133 160.4 331.98 156.911 334.811C153.028 337.971 149.174 341.804 147.047 346.45C145.707 349.344 144.908 352.222 144.368 355.147C144.576 354.584 144.835 354.036 145.073 353.458C145.635 351.706 146.372 350.001 147.462 348.327C150.38 343.884 153.661 339.739 157.991 336.579C163.764 332.34 169.942 328.648 175.716 324.425C176.463 323.877 177.274 323.267 178.115 322.594C175.705 322.047 173.566 321.218 171.749 319.841C171.063 322.375 169.257 324.471 167.286 326.177ZM138.169 309.376C147.701 307.89 158.666 307.077 165.623 299.662C165.872 298.567 166.225 297.488 166.672 296.408C164.615 297.66 162.466 298.77 160.337 299.74C146.932 305.872 135.053 306.091 120.672 306.607C118.252 306.686 110.288 307.89 107.672 311.285C106.509 314.116 107.184 316.415 109.717 318.167C110.091 318.48 110.464 318.793 110.849 319.09C112.188 318.027 116.332 315.868 116.664 315.696C118.741 314.632 120.848 313.631 123.04 312.833C127.941 311.034 133.029 310.174 138.169 309.376ZM155.52 313.913C158.727 312.38 163.007 309.986 165.291 306.905C165.114 305.575 165.074 304.277 165.146 302.978C158.781 308.5 149.623 309.611 141.481 310.753C135.904 311.535 130.153 312.067 124.795 313.866C121.804 314.867 118.918 316.024 116.104 317.463C114.629 318.199 113.226 319.153 111.711 319.794C115.231 322.594 118.844 325.191 122.126 328.257C122.551 328.601 122.977 328.945 123.392 329.321C125.74 327.334 127.795 325.175 130.484 323.439C133.828 321.296 137.898 319.403 141.731 318.324C146.341 317.025 151.18 315.962 155.52 313.913ZM150.701 338.081C156.994 331.167 166.091 327.318 171.251 319.403C169.829 318.214 168.614 316.635 167.606 314.585C163.796 320.576 157.316 324.831 151.002 327.788C143.598 331.26 136.955 334.405 131.586 340.396C132.53 342.774 133.278 345.245 134.15 347.732C135.843 352.582 138.397 355.945 141.835 358.682C142.8 351.08 145.333 343.978 150.701 338.081ZM165.717 309.235C161.345 314.194 153.36 316.853 147.565 318.355C142.405 319.716 136.849 320.968 132.25 323.815C129.769 325.332 127.099 326.787 124.981 328.805C124.565 329.196 124.234 329.477 123.881 329.743C125.054 330.775 126.186 331.855 127.245 333.044C128.792 334.765 129.904 336.642 130.817 338.613C134.795 334.264 139.538 330.916 145.126 328.586C153.681 325.05 160.794 320.655 167.45 314.241C167.347 314.006 167.222 313.819 167.118 313.569C166.516 312.098 166.059 310.659 165.717 309.235ZM316.157 386.589C316.477 388.951 317.713 390.891 320.278 391.376C323.237 391.923 331.003 391.157 333.476 388.06C334.556 387.449 335.272 386.323 335.863 385.166C337.41 383.007 339.447 381.083 340.982 379.706C344.647 376.453 347.929 372.839 352.227 370.618C349.052 369.492 345.686 369.053 341.492 370.101C337.09 371.228 332.78 372.557 328.283 373.23C327.183 373.386 325.916 373.293 324.566 373.027C322.967 375.342 321.015 376.703 318.886 377.344C318.741 377.501 318.617 377.688 318.492 377.86L318.347 377.939C317.557 378.611 316.965 379.519 316.602 380.488C316.509 380.676 316.457 380.895 316.374 381.098L316.352 381.114L316.249 381.443C316.219 381.583 316.135 381.693 316.103 381.849L316.083 381.912H316.092L316.031 382.1L316.041 382.146C315.709 383.554 315.792 385.087 316.157 386.589ZM326.675 96.9782C324.734 104.659 322.562 112.277 318.275 118.925C325.437 118.159 332.563 118.221 339.457 119.097C339.904 118.69 340.298 118.237 340.764 117.908C341.615 117.298 342.571 116.626 343.153 115.734L343.359 115.421C344.949 111.98 346.571 105.957 346.798 104.878C348.002 99.1369 347.369 93.1145 346.892 87.2172C340.764 83.2126 334.129 79.6617 327.62 76.4236C328.117 78.598 328.554 80.8193 328.471 83.2596C328.303 87.9055 327.815 92.4574 326.675 96.9782ZM324.877 441.793C323.207 451.335 320.382 460.736 319.426 470.403C319 474.736 318.73 479.257 319.188 483.59C319.448 486.171 319.884 488.877 320.829 491.286C320.879 491.411 321.119 492.084 321.389 492.851C326.456 498.717 333.652 501.517 340.911 501.079C329.624 489.175 330.504 470.122 334.731 455.245C337.827 444.374 338.107 432.626 336.952 421.394C335.987 412.024 333.922 401.637 327.193 394.645C325.356 394.927 323.498 395.005 321.815 394.895C325.542 400.918 325.378 408.02 325.627 414.965C325.936 423.991 326.436 432.861 324.877 441.793ZM380.4 140.481C380.556 140.293 380.763 140.137 381.023 140.043C382.487 139.449 383.794 138.041 384.73 136.32C384.864 136.085 384.999 135.851 385.093 135.585L385.135 135.507L385.124 135.475C386.911 130.407 379.828 121.24 377.431 117.596C376.88 116.516 376.277 115.484 375.623 114.451C374.335 112.824 373.037 111.213 371.729 109.571L371.687 109.508C371.759 113.763 371.335 117.549 369.414 121.803C368.644 123.508 367.845 126.559 366.35 128.295C371.532 131.486 376.256 135.522 380.4 140.481ZM385.166 139.667C384.677 140.278 383.483 142.123 382.362 142.561L382.196 142.733C383.109 143.954 384.014 145.205 384.854 146.519C390.69 155.592 395.082 165.353 398.27 175.568C397.429 170.202 396.317 164.868 394.812 159.612C392.653 152.072 389.279 145.283 386.235 138.166C385.883 138.729 385.518 139.245 385.166 139.667ZM363.931 337.705C364.191 342.21 364.264 346.778 363.64 351.283C362.986 355.913 362.664 360.528 361.708 365.08C361.408 366.535 361.178 368.193 360.598 369.632C363.9 371.181 366.943 372.166 370.93 369.945C373.267 367.223 374.087 363.422 374.803 359.965C375.728 355.335 376.61 350.439 376.184 345.668C375.343 336.391 371.864 327.741 368.552 319.122C368.178 319.873 367.793 320.592 367.409 321.233C366.112 323.377 364.451 324.972 362.581 326.067C362.581 327.475 363.027 328.82 363.204 330.338C363.515 332.778 363.786 335.234 363.931 337.705ZM361.263 117.298C363.703 112.684 364.128 106.599 364.283 101.296C361.719 98.8711 359.124 96.6028 356.673 94.4753C354.378 92.4887 351.897 90.6429 349.31 88.8439C350.183 95.1949 350.744 101.812 348.77 107.725C347.472 111.604 346.393 116.516 343.464 119.676C348.271 120.552 352.934 121.897 357.368 123.712C358.657 123.024 360.701 118.346 361.263 117.298ZM366.07 103.016C366.007 108.272 365.613 114.013 363.423 118.565C362.559 120.333 361.572 123.07 360.078 124.885C361.2 125.417 362.301 125.98 363.39 126.559C364.024 125.401 364.845 124.322 365.593 123.211C366.486 121.303 367.596 119.238 367.7 118.972C369.434 114.999 369.497 111.072 369.632 106.88C369.361 106.536 369.101 106.208 368.843 105.863C367.941 104.894 367.005 103.955 366.07 103.016ZM362.653 345.167C362.83 340.099 362.924 334.671 361.948 329.696C361.74 328.648 361.543 327.6 361.554 326.599C359.881 327.397 358.086 327.85 356.246 327.929C356.942 330.478 356.393 333.185 355.863 335.781C354.918 340.412 353.433 344.666 351.667 349.062C349.986 353.27 347.951 357.149 345.49 360.95C344.304 362.796 343.173 364.658 341.761 366.253C346.363 365.456 350.369 365.456 354.96 367.098C356.402 367.614 357.71 368.24 358.977 368.85C360.235 366.144 360.618 361.967 360.92 359.605C361.511 354.803 362.467 350.001 362.653 345.167ZM328.097 394.473C333.964 399.119 336.195 406.565 337.805 413.636C340.049 423.475 340.225 434.612 339.291 444.639C338.305 455.151 333.35 464.584 333.942 475.378C334.274 481.228 335.408 486.343 337.568 491.005C334.296 474.502 349.645 454.275 351.833 436.208C352.29 429.216 350.993 422.208 347.12 415.904C345.282 412.9 343.267 409.834 341.492 406.674C341.367 406.487 341.232 406.299 341.098 406.111C338.064 401.872 334.617 397.555 333.86 392.361C332.261 393.347 330.226 394.051 328.097 394.473ZM244.81 63.6748C244.467 63.9563 244.103 64.2223 243.74 64.4569C246.128 68.743 248.308 73.0291 250.053 77.8784C253.127 86.4976 256.199 95.0541 258.131 104.017C259.875 112.12 260.988 120.067 261.236 128.326C261.361 132.8 261.828 137.196 261.828 141.607L261.879 141.451C261.879 140.575 262.004 139.746 262.14 138.885C261.931 135.851 262.691 132.3 262.691 129.906C262.7 126.965 262.68 124.025 262.575 121.084C262.316 114.279 262.564 107.349 262.108 100.576C261.579 92.8329 259.398 85.778 258.08 78.2226C257.146 72.8884 256.304 67.7262 254.197 62.83C251.602 63.049 249.005 63.1117 246.388 62.924C245.827 63.0804 245.298 63.2837 244.81 63.6748ZM369.029 318.105C374.107 327.913 378.51 338.785 378.177 349.922C378.043 354.396 377.658 360.778 375.717 365.941C378.126 362.405 379.621 358.557 380.452 354.521C381.116 347.638 380.732 339.864 379.995 333.106C378.291 323.94 375.28 314.804 373.078 306.842C372.882 306.123 372.633 305.45 372.403 304.762C372.092 309.454 370.742 314.288 369.029 318.105Z" fill="black"/>
<path d="M57.6491 11.3516C31.7428 11.3516 10.6667 32.4321 10.6667 58.3408V497.721C10.6667 523.63 31.7428 544.694 57.6491 544.694H497.028C522.933 544.694 544.009 523.63 544.009 497.721V58.3408C544.009 32.4321 522.933 11.3516 497.028 11.3516H57.6491ZM497.028 555.37H57.6491C25.8615 555.37 0 529.509 0 497.721V58.3408C0 26.5525 25.8615 0.69165 57.6491 0.69165H497.028C528.816 0.69165 554.675 26.5525 554.675 58.3408V497.721C554.675 529.509 528.816 555.37 497.028 555.37Z" fill="#1B7695"/>
</svg>
