<svg width="555" height="555" viewBox="0 0 555 555" fill="none" xmlns="http://www.w3.org/2000/svg">
<path d="M497.027 549.347H57.6489C28.7557 549.347 5.33331 525.92 5.33331 497.027V57.6532C5.33331 28.7599 28.7557 5.33331 57.6489 5.33331H497.027C525.919 5.33331 549.341 28.7599 549.341 57.6532V497.027C549.341 525.92 525.919 549.347 497.027 549.347Z" fill="white"/>
<path d="M476.636 263.72C475.641 256.613 473.548 249.627 471.663 243.64C466.804 228.2 461.059 214.893 454.097 202.987C449.092 194.413 443.953 187.213 438.4 180.973C437.48 179.307 436.092 177.84 434.264 176.587C431.731 174.053 429.084 171.68 426.388 169.507L426.767 169.28L423.668 167.147C426.54 164.893 429.143 162.387 431.315 160.187C438.343 153.067 443.007 140.987 437.581 130.067C435.269 125.413 431.931 123.947 429.537 123.533C423.816 122.547 418.592 126.627 415.987 129.147C413.036 132 410.369 135.067 407.805 138.08C407.435 135.653 406.991 133.387 406.604 131.413C404.155 118.853 400.861 105.947 393.415 96.5198C384.56 85.3199 373.14 85.5599 362.109 85.8132C360.963 85.8399 359.804 85.8665 358.631 85.8799C343.501 86.0665 327.787 87.7466 310.588 91.0132C295.944 93.7999 280.548 98.0533 264.832 103.667C252.375 108.12 237.844 113.88 224.527 122.92C213.464 130.427 203.468 140.187 194.813 151.92C190.092 158.32 186.2 164.826 183.245 171.293C182.001 174.026 180.483 177.667 179.78 181.587C179.451 183.44 179.315 185.213 179.183 186.92C179.015 189.12 178.855 191.2 178.292 193.08C178.167 193.493 178.077 193.92 178.025 194.347C171.205 202.76 165.341 212.147 160.579 222.28C153.599 237.12 149.077 254.053 147.107 272.707C142.716 267.88 140.252 258.347 139.16 254.12C137.785 248.787 136.968 243.387 136.185 237.84C135.297 231.56 131.172 227.44 125.153 226.8C114.423 225.64 106.263 234.973 101.054 242.107C93.6562 252.227 93.9781 262.386 95.8609 270.76C88.9442 274.533 84.3984 282.28 83.1588 292.693C81.5781 305.92 87.8412 314.68 94.686 322.787C88.4937 332.307 85.1234 345.787 90.5593 357.253C92.2937 360.907 94.4401 363.733 97.1114 365.893C98.1396 366.733 99.465 367.32 100.999 368C101.515 368.24 102.279 368.573 102.932 368.907C101.502 377.453 105.655 385.173 109.063 391.52C112.32 397.573 118.98 404.907 127.036 405.667C132.03 406.133 138.852 404.56 142.996 394.493L143.509 393.24C147.519 383.48 152.379 371.64 160.512 365.547L160.611 365.76L162.941 364.36C163.469 365.267 163.993 366.187 164.531 367.133C165.087 368.107 165.641 369.08 166.208 370.053C167.28 371.867 168.483 373.653 169.867 375.453C169.983 376.787 170.079 378.107 170.173 379.4C170.625 385.653 171.095 392.107 173.943 398.853C177.437 407.12 184.071 414.493 191.685 418.573C198.828 422.387 206.735 421.867 214.219 421C214.969 420.92 215.741 420.84 216.528 420.76C220.191 420.4 224.257 420 228.02 418.467C230.739 419.773 233.443 421.027 236.101 422.173C236.419 432.787 242.065 440.773 252.587 445.373C262.215 449.587 272.439 452.8 282.328 455.907C287.533 457.533 292.916 459.227 298.063 461.027L298.269 461.093C305.425 463.587 312.217 465.96 320.192 465.96C320.987 465.96 321.793 465.933 322.613 465.88C331.887 465.333 340.165 461.533 346.343 458.28C363.003 449.52 373.861 439.747 378.663 429.173C404.352 420.413 428.513 406.147 448.66 387.813L448.969 387.507C458.499 377.053 465.227 367.787 470.143 358.32L470.431 357.627C470.92 356.16 471.488 354.64 472.167 353.013L474.196 348.147L473.797 348.04C484.016 317.68 481.091 285.72 476.636 263.72Z" fill="#1D1D1B"/>
<path d="M420.935 286.387C421.323 287.387 420.984 288.547 420.54 289.467C420.143 290.28 419.127 291.04 418.231 291.187C417.457 291.32 417.111 291.347 416.331 291.173C415.901 291.08 415.509 290.88 415.105 290.707C414.223 290.333 413.399 289.773 412.651 289.187C411.632 288.387 411.109 286.72 411.533 285.493C411.851 284.56 412.349 283.987 413.141 283.427C413.724 283.013 414.46 282.947 415.136 282.867C415.528 282.827 415.912 282.853 416.288 282.92C416.535 282.92 416.78 282.947 417.025 283.027C418.083 283.333 418.908 283.8 419.759 284.48C420.363 284.96 420.671 285.693 420.935 286.387Z" fill="white"/>
<path d="M424.373 289.333C424.373 284.373 420.352 280.347 415.391 280.347C410.425 280.347 406.404 284.373 406.404 289.333C406.404 294.307 410.425 298.32 415.391 298.32C420.352 298.32 424.373 294.307 424.373 289.333ZM417.504 275.867C425.373 275.867 431.776 282.267 431.776 290.133C431.776 298 425.373 304.4 417.504 304.4C409.636 304.4 403.236 298 403.236 290.133C403.236 282.267 409.636 275.867 417.504 275.867Z" fill="white"/>
<path d="M422.86 270.547C424.191 270.853 424.752 268.827 423.423 268.493C418.256 267.2 413.291 266.32 408.545 269.48C407.297 270.32 408.381 272.173 409.72 271.493C414.228 269.2 418.053 269.4 422.86 270.547ZM434.944 290.133C434.944 280.52 427.12 272.693 417.504 272.693C407.887 272.693 400.06 280.52 400.06 290.133C400.06 299.747 407.887 307.573 417.504 307.573C427.12 307.573 434.944 299.747 434.944 290.133ZM431.441 239.667C433.371 236.4 433.579 231.64 429.973 229.333C422.972 224.893 394.183 234.933 400.463 244.76L400.663 245.067L400.827 245.307C400.948 245.467 401.088 245.587 401.229 245.68C401.399 245.827 401.581 245.96 401.791 246.067C406.612 248.813 411.844 245.453 416.467 243.733C421.169 241.987 428.319 244.96 431.441 239.667ZM468.559 280.787C471.68 307.08 469.841 334.293 458.296 357.48C448.476 361.067 435.808 358.307 426.641 354.973C414.053 350.4 401.259 341.747 396.364 328.8L396.319 328.707C399.187 327.987 402.505 328.893 405.343 329.32C406.952 329.573 407.692 327.173 406.031 326.827C402.283 326.053 398.012 324.467 394.217 325.72C390.711 326.893 388.273 330.427 385.243 332.373C383.337 333.6 385.077 336.613 387.021 335.413C389.536 333.867 391.463 331.693 393.789 329.907L393.981 329.773C399.011 344.053 412.055 353.2 425.655 358.56C434.019 361.84 445.881 364.333 455.763 362.2C454.824 363.84 453.839 365.453 452.797 367.04C434.429 387.907 410.655 404.187 384.701 414.667C384.397 414.68 384.092 414.667 383.787 414.64L383.744 414.627C382.904 414.547 382.08 414.307 381.289 413.867C381.061 413.747 380.837 413.707 380.628 413.72C380.041 413.4 379.469 413.053 378.911 412.693L378.989 412.68C377.955 411.947 376.931 411.173 375.908 410.32C364.981 401.267 356.167 388.827 351.372 375.493C346.493 361.947 345.375 347.253 344.389 333C342.18 301.013 342.452 269.133 350.573 237.853C354.111 224.227 359.736 211.6 369.157 201C377.964 191.107 387.079 182.2 400.569 179.507C403.731 178.867 413.488 178.507 421.457 179.84C422.175 180.427 422.891 181.04 423.595 181.653C437.775 194.187 447.937 212.133 455.16 229.427C458.557 237.573 461.309 246.12 463.744 254.6C464.039 255.627 464.325 256.667 464.6 257.72C465.275 260.747 465.897 263.787 466.463 266.867C466.56 267.6 466.632 268.333 466.7 269.053C467.887 272.747 468.493 276.547 468.587 280.507L468.559 280.787Z" fill="#FEA600"/>
<path d="M429.343 233.653C431.757 238.547 424.86 239.787 421.745 239.853C418.571 239.92 416.007 240.347 413.087 241.547C411.795 242.08 410.517 242.653 409.211 243.16C408.1 243.587 406.956 243.893 405.771 244.067C404.047 243.04 403.161 242 403.101 240.947C404.961 236.307 419.221 232.147 421.936 231.707C423.56 231.44 425.225 231.36 426.852 231.627C428.088 231.827 428.736 232.413 429.343 233.653Z" fill="#649D39"/>
<path d="M427.187 134.107C428.617 133.547 428.908 142.8 428.819 143.347C428.261 146.867 425.865 149.92 423.544 152.467C420.648 155.64 413.351 162.6 408.541 162.427C408.139 162.4 407.791 162.467 407.472 162.56L407.293 162.48L407.167 162.52C406.6 162.213 406.021 161.92 405.447 161.627C404.123 161.013 402.796 160.427 401.476 159.813C406.193 156.173 410.135 151.787 414.016 147.267C417.496 143.213 422.009 136.12 427.187 134.107Z" fill="#649D39"/>
<path d="M199.037 224.907C200.492 224.32 199.884 221.947 198.379 222.52C186.343 227.133 186.9 239.6 189.363 250.267C180.907 254.293 177.023 260.787 175.868 270.227C174.672 280.013 177.456 286.493 184.519 292.507C179.515 297.44 176.584 302.4 176.385 309.867C176.177 317.933 182.376 321.947 187.488 326.96C182.773 333.627 180.981 340.04 182.257 348.373C183.396 355.8 187.3 362.36 195.085 363.827C197.217 364.227 198.139 360.987 195.989 360.547C189.22 359.173 186.667 353.76 185.559 347.467C184.203 339.733 186.637 333.747 191.204 327.64C191.664 327.027 191.423 326.08 190.933 325.56C186.955 321.4 181.527 318.387 180.025 312.48C178.055 304.707 183.028 298.467 188.285 293.627C189.172 292.813 188.761 291.587 187.939 290.947C180.635 285.32 178.049 279.373 179.264 270.227C180.413 261.587 184.077 256.16 192.155 252.64C192.827 252.347 193.117 251.4 192.924 250.747C190.276 241.707 188.228 229.267 199.037 224.907ZM240.553 398.667C242.636 399.107 243.524 395.907 241.431 395.48C233.76 393.88 230.148 387.333 229.805 379.933C229.653 376.64 230.452 373.36 231.82 370.387C232.924 367.987 235.945 366.64 236.692 364.067C237.837 360.133 233.116 358.613 230.483 356.893C220.636 350.467 226.733 338.867 230.297 331.027C230.873 329.76 229.007 328.667 228.432 329.933C225.16 337.12 220.484 344.187 223.451 352.267C224.401 354.867 226.588 357.987 228.915 359.573C230.287 360.507 231.719 361.36 233.097 362.28C234.288 363.08 230.253 366.787 229.787 367.373C221.536 377.693 227.879 396.027 240.553 398.667ZM275.347 179.333C276.737 179.307 276.737 177.16 275.347 177.173C266.24 177.293 257.852 179.333 252.921 187.64C250.088 192.4 249.483 198.693 249.635 204.093C249.801 209.84 252.313 213.04 255.283 217.16C247.003 220.587 239.049 222.587 235.143 231.747C231.479 240.333 233.448 250.533 238.215 258.293C234.892 261.08 230.52 262.08 227.481 265.44C223.961 269.333 223.092 274.453 222.393 279.453C221.141 288.453 224.016 295.8 229.711 302.64C231.156 304.387 233.621 301.893 232.185 300.173C226.308 293.107 224.719 286.053 226.291 277.027C227.104 272.373 228.776 267.773 233.064 265.173C236.037 263.36 239.229 262.4 241.699 259.827C242.215 259.293 242.411 258.373 241.969 257.72C236.548 249.653 234.921 239.4 239.536 230.573C243.147 223.667 252.283 222.28 258.775 219.387C259.58 219.013 259.885 217.733 259.391 217.027C257.007 213.64 254.392 211.2 253.328 206.987C252.06 201.96 253.085 196.307 254.607 191.48C257.399 182.613 266.945 179.48 275.347 179.333ZM313.317 421.933C315.38 421.347 314.507 418.133 312.431 418.72C306.697 420.347 303.624 412.92 302.229 408.627C299.997 401.747 302.705 396.36 306.817 390.987C307.211 390.48 307.056 389.507 306.576 389.107C303.671 386.653 299.955 385.253 297.687 382.107C293.425 376.173 295.573 370.213 298.477 364.32C299.089 363.08 297.233 361.987 296.613 363.227C294.208 368.107 292.189 372.653 292.957 378.173C293.839 384.507 299.055 386.907 303.36 390.44C298.539 397.027 296.913 403.52 299.871 411.653C301.935 417.333 306.475 423.907 313.317 421.933ZM330.476 293.387C330.62 292.96 330.589 292.493 330.256 292.067C317.463 275.32 302.063 257.72 279.777 255.213C269.88 254.093 263.196 256.533 258.36 265.533C253.607 274.387 252.4 285.4 251.372 295.227C249.952 308.747 250.895 322.72 254.332 335.88C256.861 345.573 263.261 357.587 273.656 360.48C283.56 363.227 294.915 350.853 301.175 345.027C306.011 340.52 310.457 335.653 314.988 330.853C315.689 330.107 316.399 329.373 317.111 328.627L317.385 328.347C320.713 324.893 324.019 321.427 326.352 317.213C325.647 317.68 324.949 318.173 324.239 318.64C321.401 320.747 318.715 323.067 316.081 325.427C313.424 324.333 311.761 320.547 310.497 318.227C308.604 314.76 307.101 311.04 306.016 307.24C303.013 296.693 307.759 285.36 313.553 276.693C319.532 281.867 324.819 288.013 330.445 293.347L330.476 293.387ZM336.951 166.093C338.16 165.907 337.877 163.813 336.659 163.947C328.088 164.96 318.699 167.693 315.571 176.773C312.899 184.52 316.443 192.307 322.055 197.707C313.957 199.4 307.145 204.293 303.641 212.187C299.619 221.253 303.183 230.107 308.672 237.44C302.573 241.16 299.872 246.893 301.68 254.307C302.215 256.48 305.567 255.56 305.043 253.373C303.437 246.747 306.307 242.427 312.171 239.493C313.264 238.947 313.189 237.56 312.523 236.747C306.757 229.667 303.281 221.56 307.251 212.627C310.532 205.24 318.353 201.213 326.087 200.6C327.863 200.467 328.387 198.387 326.964 197.373C320.788 192.947 316.199 185.307 318.639 177.627C321.113 169.813 329.748 167.227 336.951 166.093ZM416.979 176.333C410.673 175.693 404.483 175.867 401.724 176.08C391.731 176.84 382.531 182.627 375.36 189.253C365.963 197.947 357.995 208.373 352.845 220.093C347.32 232.667 344.623 246.413 342.6 259.92C340.26 275.573 339.132 291.4 339.291 307.227C339.435 321.84 340.741 336.747 342.487 351.253C344.064 364.387 347.119 377.373 353.6 388.987C358.405 397.6 364.923 406.04 372.8 412.493C373.959 414.56 376.169 416.213 378.583 417.013C365.151 421.907 351.223 425.28 337.232 426.933C308.456 430.36 278.436 425.653 251.307 415.867C237.256 410.8 223.448 404 211 395.733C198.633 387.507 184.696 378.44 176.241 365.96C173.045 361.24 170.245 356.173 166.571 351.827C160.897 337.187 157.993 321.373 157.124 305.747C155.549 277.56 159.549 248.653 172.232 223.24C184.617 198.413 204.579 179.96 230.381 169.907C260.569 158.16 292.403 149 325.015 148.747C343.428 148.613 361.631 152.507 379.165 157.893C392.667 162.04 405.64 167.947 416.979 176.333Z" fill="#F55835"/>
<path d="M394.767 129.4C396.699 137.24 399.827 149.453 395.283 156.907C393.533 156.173 391.775 155.453 390.001 154.773C386.072 153.28 382.103 151.933 378.104 150.693C382.189 142.04 383.083 131.533 379.975 122.48C379.532 121.173 377.473 121.733 377.912 123.04C380.825 131.747 379.36 141.76 375.084 149.813C374.663 149.693 374.243 149.56 373.819 149.44L373.832 149.373C372.733 149.173 371.651 148.893 370.587 148.48L370.568 148.587C364.155 146.907 357.663 145.56 351.125 144.573C354.316 137.987 353.712 129.693 353.58 122.627C353.417 114.08 352.269 105.147 348.808 97.2532C353.909 96.9866 359.015 96.8933 364.128 96.84C369.623 96.8 375.231 95.9999 380.227 98.8133C389.769 104.16 392.392 119.747 394.767 129.4Z" fill="#649D39"/>
<path d="M367.324 427.813C361.321 436.96 350.2 443.56 341.123 448.6C338.82 446.147 338.229 440.373 337.384 437.493C337.083 436.48 336.727 435.053 336.161 433.787C346.699 432.693 357.132 430.68 367.324 427.813Z" fill="#649D39"/>
<path d="M350.669 120.853C350.871 128.146 351.431 137.493 347.765 144.093C347.304 144.026 346.848 143.96 346.388 143.893C345.22 143.973 344.019 143.773 342.848 143.413L342.852 143.48C332.705 142.4 322.464 142.186 312.245 142.853C313.033 140.346 312.505 136.867 312.468 134.64C312.408 130.787 312.316 126.947 312.245 123.107C312.153 118.04 312.723 107.933 309.353 102.467C320.515 100.147 331.817 98.5465 343.183 97.6132C344.257 97.5332 345.333 97.4666 346.408 97.3999C349.351 104.947 350.447 112.733 350.669 120.853Z" fill="#649D39"/>
<path d="M335.979 443.427C336.497 445.507 337.064 448.12 338.359 450.04C332.785 452.787 326.811 454.613 320.579 455C316.723 455.227 313.003 454.467 309.36 453.36C309.983 447.133 309.987 440.84 310.189 434.587C318.049 434.933 325.897 434.733 333.692 434.027C334.96 436.427 335.656 442.147 335.979 443.427Z" fill="#649D39"/>
<path d="M308.641 323.253C309.963 325.307 311.475 327.04 313.172 328.08C309.787 331.173 306.419 334.28 302.825 337.08C298.997 340.933 295.003 344.613 290.851 348.107C286.92 351.413 281.891 355.707 276.537 356.227C271.139 356.76 266.195 350.173 263.584 346.293C260.607 341.88 259.065 336.627 257.843 331.507C256.965 327.827 256.36 324.107 255.937 320.36C271.651 323.173 291.481 326.08 304.991 315.8C305.631 317.467 306.376 319.173 307.221 320.787C298.857 326.907 291.197 334.04 281.379 337.813C279.996 338.333 280.576 340.587 282 340.053C292.111 336.387 300.048 329.453 308.641 323.253Z" fill="#649D39"/>
<path d="M308.893 112.427C309.287 116.32 309.297 120.253 309.283 124.147C309.265 126.893 309.203 129.627 309.237 132.373C309.26 134.4 310.208 140.853 309.081 142.227C308.909 142.44 308.8 142.667 308.743 142.893L308.611 142.92L308.623 143.12C307.089 143.24 305.555 143.4 304.023 143.573C297.871 144.267 291.767 145.28 285.7 146.493C285.017 138.973 282.585 131.6 280.155 124.48C278.667 120.133 276.849 115.36 273.708 111.853C283.047 108.84 292.503 106.36 301.687 104.16C303.404 103.76 305.12 103.36 306.844 102.987C308.461 105.613 308.641 109.893 308.893 112.427Z" fill="#649D39"/>
<path d="M303.681 269.773C306.571 271.293 309.241 273.16 311.78 275.213C308.92 278.6 306.497 282.587 304.747 286.88C297.873 285.093 290.945 283.853 284.215 281.52C276.143 278.72 268.329 275.24 260.271 272.373C260.7 271.187 261.159 270.013 261.667 268.88C263.248 265.347 265.516 262.173 268.916 260.227C272.992 257.893 279.569 259.48 283.825 260.387C291.207 261.933 297.752 265.347 303.681 269.773Z" fill="#649D39"/>
<path d="M307.552 434.44C306.773 440.36 306.78 446.387 306.289 452.333C303.971 451.52 301.671 450.64 299.377 449.84C291.68 447.147 283.947 444.547 276.199 441.987C276.213 438.28 278.959 434.413 280.763 431.027C287.663 432.347 294.641 433.347 301.672 434.013C303.631 434.2 305.591 434.333 307.552 434.44Z" fill="#649D39"/>
<path d="M303.752 312.227C303.661 312.4 303.596 312.587 303.564 312.787C289.703 322.44 271.513 320.067 255.665 317.867C255.003 310.347 255.144 302.733 255.819 295.227C256.421 288.467 257.423 281.32 259.499 274.68C266.937 277.533 274.123 281.013 281.509 284C288.664 286.893 296.119 288.307 303.56 290.173C302.551 293.387 301.952 296.707 301.833 300.013C293.491 301 284.961 299.013 277.083 296.36C275.577 295.853 274.988 298.16 276.433 298.707C283.764 301.467 293.78 304.947 301.872 303.2C301.979 304.88 302.212 306.547 302.607 308.173C302.88 309.293 303.265 310.693 303.752 312.227Z" fill="#649D39"/>
<path d="M278.363 127.733C280.313 134.12 282.287 140.72 282.716 147.413C280.616 148.04 278.465 148.413 276.273 148.573C270.064 150.053 263.893 151.747 257.787 153.587C255.673 154.227 253.551 154.88 251.425 155.56C249.097 145.96 244.607 134.6 236.524 128.213C247.3 121.667 259.233 116.667 271.429 112.6C275.237 116.52 276.843 122.76 278.363 127.733Z" fill="#649D39"/>
<path d="M278.341 430.52C277.267 432.387 276.24 434.267 275.301 436.2C274.611 437.613 273.693 439.32 273.313 441.04C269.42 439.76 265.523 438.493 261.625 437.227C257.423 435.867 253.109 434.267 249.835 431.213C247.052 428.613 246.327 424.92 246.283 421.267C256.695 425.213 267.42 428.28 278.341 430.52Z" fill="#649D39"/>
<path d="M248.504 156.467L248.511 156.493C247.628 156.773 246.744 157.053 245.86 157.333L245.815 157.173C244.723 157.76 243.588 158.253 242.365 158.587C242.215 158.627 242.073 158.64 241.928 158.667C235.312 160.92 228.745 163.4 222.397 166.213C220.288 159.96 214.599 155.213 209.481 151.027C214.895 144.787 220.975 139.133 227.615 134.187C229.8 132.573 232.068 131.04 234.377 129.573C242.267 136.2 246.267 146.653 248.504 156.467Z" fill="#649D39"/>
<path d="M219.976 409.04C220.156 409.147 220.335 409.24 220.515 409.333C218.197 409.76 215.779 409.88 213.681 410.12C208.037 410.747 202.403 411.44 197.031 409.08C190.835 406.347 186.436 399.773 183.541 393.933C181.415 389.653 180.871 385.013 180.491 380.333C181.505 381.32 182.537 382.307 183.596 383.28C194.503 393.307 207.065 401.84 219.976 409.04Z" fill="#649D39"/>
<path d="M207.823 152.973C212.463 157.12 218.048 161.667 219.481 167.707C209.017 173.707 199.381 180.947 189.765 188.213C190.189 185.067 190.58 181.92 191.713 178.88C194.132 172.373 198.035 166.4 201.953 160.707C203.795 158.04 205.757 155.467 207.823 152.973Z" fill="#649D39"/>
<path d="M160.103 351.387C160.225 351.693 160.369 351.973 160.513 352.253C158.419 353.333 156.049 354.387 154.872 356.307C148.333 361.133 143.471 368.307 139.471 375.28C136.992 379.6 134.873 384.04 133.331 388.773C132.566 391.133 131.715 394.52 128.764 394.773C124.903 395.093 121.171 389.907 119.337 387.187C115.298 381.213 113.08 375.107 114.481 367.973C115.434 363.12 110.073 360.24 106.44 358.613C93.3131 352.747 99.6167 332.64 107.058 324.8C107.464 324.373 107.716 323.893 107.847 323.387C117.399 324.133 127.049 325.12 136.573 324.133C141.415 323.627 147.523 323.387 152.24 321.16C152.833 325.48 153.604 329.773 154.555 334.04C142.935 337.507 135.025 346.893 124.692 352.8C123.485 353.493 124.576 355.36 125.786 354.667C135.681 349.013 144.236 340.547 155.307 337.28C156.287 341.253 157.435 345.173 158.753 349.04C159.052 349.547 159.357 350.04 159.671 350.533C159.809 350.827 159.956 351.107 160.103 351.387Z" fill="#649D39"/>
<path d="M150.76 303.933C150.919 308.427 151.253 312.933 151.769 317.427C146.627 320.507 138.324 320.467 132.78 320.947C124.29 321.68 115.783 320.2 107.301 320.627L107.058 320.293C101.567 313.827 94.7833 308.027 93.9052 299.067C93.1375 291.24 96.188 279.653 105.508 279.227C107.475 279.133 109.26 277.24 108.579 275.187C106.861 270.04 105.081 264.973 105.42 259.467C105.715 254.627 108.795 249.853 111.779 246.173C114.38 242.96 117.647 239.6 121.565 238.067C126.335 236.2 125.637 241.707 126.062 244.867C127.904 258.52 133.639 283.987 150.821 285.787C150.648 289.88 150.595 293.973 150.635 298.053C137.615 297.587 127.718 288.667 116.792 282.52C115.595 281.84 114.522 283.68 115.717 284.36C127.484 290.987 136.403 301.307 150.697 301.547C150.72 302.347 150.733 303.147 150.76 303.933Z" fill="#649D39"/>
<path d="M458.296 357.48C448.476 361.067 435.808 358.307 426.641 354.973C414.053 350.4 401.259 341.747 396.364 328.8L396.319 328.707C399.187 327.987 402.505 328.893 405.343 329.32C406.952 329.573 407.692 327.173 406.031 326.826C402.283 326.053 398.012 324.466 394.217 325.72C390.711 326.893 388.273 330.427 385.243 332.373C383.337 333.6 385.077 336.613 387.021 335.413C389.536 333.867 391.463 331.693 393.789 329.907L393.981 329.773C399.011 344.053 412.055 353.2 425.655 358.56C434.019 361.84 445.881 364.333 455.763 362.2C454.824 363.84 453.839 365.453 452.797 367.04C434.429 387.907 410.655 404.187 384.701 414.667C384.397 414.68 384.092 414.667 383.787 414.64L383.744 414.626C382.904 414.546 382.08 414.307 381.289 413.867C381.061 413.747 380.837 413.706 380.628 413.72C380.041 413.4 379.469 413.053 378.911 412.693L378.989 412.68C377.955 411.947 376.931 411.173 375.908 410.32C364.981 401.266 356.167 388.826 351.372 375.493C346.493 361.946 345.375 347.253 344.389 333C342.18 301.013 342.452 269.133 350.573 237.853C354.111 224.226 359.736 211.6 369.157 201C377.964 191.107 387.079 182.2 400.569 179.507C403.731 178.867 413.488 178.507 421.457 179.84C422.175 180.427 422.891 181.04 423.595 181.653C437.775 194.186 447.937 212.133 455.16 229.426C458.557 237.573 461.309 246.12 463.744 254.6C464.039 255.627 464.325 256.666 464.6 257.72C465.275 260.746 465.897 263.787 466.463 266.867C466.56 267.6 466.632 268.333 466.7 269.053C467.887 272.746 468.493 276.547 468.587 280.507L468.559 280.786C471.68 307.08 469.841 334.293 458.296 357.48ZM337.232 426.933C308.456 430.36 278.436 425.653 251.307 415.867C237.256 410.8 223.448 404 211 395.733C198.633 387.507 184.696 378.44 176.241 365.96C173.045 361.24 170.245 356.173 166.571 351.826C160.897 337.186 157.993 321.373 157.124 305.747C155.549 277.56 159.549 248.653 172.232 223.24C184.617 198.413 204.579 179.96 230.381 169.907C260.569 158.16 292.403 149 325.015 148.747C343.428 148.613 361.631 152.506 379.165 157.893C392.667 162.04 405.64 167.947 416.979 176.333C410.673 175.693 404.483 175.867 401.724 176.08C391.731 176.84 382.531 182.626 375.36 189.253C365.963 197.946 357.995 208.373 352.845 220.093C347.32 232.666 344.623 246.413 342.6 259.92C340.26 275.573 339.132 291.4 339.291 307.226C339.435 321.84 340.741 336.746 342.487 351.253C344.064 364.386 347.119 377.373 353.6 388.986C358.405 397.6 364.923 406.04 372.8 412.493C373.959 414.56 376.169 416.213 378.583 417.013C365.151 421.907 351.223 425.28 337.232 426.933ZM341.123 448.6C338.82 446.147 338.229 440.373 337.384 437.493C337.083 436.48 336.727 435.053 336.161 433.786C346.699 432.693 357.132 430.68 367.324 427.813C361.321 436.96 350.2 443.56 341.123 448.6ZM320.579 455C316.723 455.227 313.003 454.466 309.36 453.36C309.983 447.133 309.987 440.84 310.189 434.586C318.049 434.933 325.897 434.733 333.692 434.026C334.96 436.426 335.656 442.146 335.979 443.426C336.497 445.506 337.064 448.12 338.359 450.04C332.785 452.787 326.811 454.613 320.579 455ZM306.289 452.333C303.971 451.52 301.671 450.64 299.377 449.84C291.68 447.147 283.947 444.546 276.199 441.986C276.213 438.28 278.959 434.413 280.763 431.026C287.663 432.346 294.641 433.347 301.672 434.013C303.631 434.2 305.591 434.333 307.552 434.44C306.773 440.36 306.78 446.387 306.289 452.333ZM273.313 441.04C269.42 439.76 265.523 438.493 261.625 437.226C257.423 435.866 253.109 434.267 249.835 431.213C247.052 428.613 246.327 424.92 246.283 421.267C256.695 425.213 267.42 428.28 278.341 430.52C277.267 432.386 276.24 434.267 275.301 436.2C274.611 437.613 273.693 439.32 273.313 441.04ZM213.681 410.12C208.037 410.746 202.403 411.44 197.031 409.08C190.835 406.347 186.436 399.773 183.541 393.933C181.415 389.653 180.871 385.013 180.491 380.333C181.505 381.32 182.537 382.307 183.596 383.28C194.503 393.307 207.065 401.84 219.976 409.04C220.156 409.147 220.335 409.24 220.515 409.333C218.197 409.76 215.779 409.88 213.681 410.12ZM154.872 356.307C148.333 361.133 143.471 368.307 139.471 375.28C136.992 379.6 134.873 384.04 133.331 388.773C132.566 391.133 131.715 394.52 128.764 394.773C124.903 395.093 121.171 389.906 119.337 387.186C115.298 381.213 113.08 375.107 114.481 367.973C115.434 363.12 110.073 360.24 106.44 358.613C93.3131 352.747 99.6167 332.64 107.058 324.8C107.464 324.373 107.716 323.893 107.847 323.386C117.399 324.133 127.049 325.12 136.573 324.133C141.415 323.627 147.523 323.386 152.24 321.16C152.833 325.48 153.604 329.773 154.555 334.04C142.935 337.507 135.025 346.893 124.692 352.8C123.485 353.493 124.576 355.36 125.786 354.667C135.681 349.013 144.236 340.547 155.307 337.28C156.287 341.253 157.435 345.173 158.753 349.04C159.052 349.547 159.357 350.04 159.671 350.533C159.809 350.827 159.956 351.106 160.103 351.386C160.225 351.693 160.369 351.973 160.513 352.253C158.419 353.333 156.049 354.387 154.872 356.307ZM93.9052 299.067C93.1375 291.24 96.188 279.653 105.508 279.226C107.475 279.133 109.26 277.24 108.579 275.186C106.861 270.04 105.081 264.973 105.42 259.467C105.715 254.627 108.795 249.853 111.779 246.173C114.38 242.96 117.647 239.6 121.565 238.067C126.335 236.2 125.637 241.707 126.062 244.867C127.904 258.52 133.639 283.986 150.821 285.786C150.648 289.88 150.595 293.973 150.635 298.053C137.615 297.586 127.718 288.666 116.792 282.52C115.595 281.84 114.522 283.68 115.717 284.36C127.484 290.986 136.403 301.307 150.697 301.547C150.72 302.347 150.733 303.147 150.76 303.933C150.919 308.427 151.253 312.933 151.769 317.426C146.627 320.506 138.324 320.467 132.78 320.947C124.29 321.68 115.783 320.2 107.301 320.626L107.058 320.293C101.567 313.826 94.7833 308.027 93.9052 299.067ZM191.713 178.88C194.132 172.373 198.035 166.4 201.953 160.707C203.795 158.04 205.757 155.467 207.823 152.973C212.463 157.12 218.048 161.667 219.481 167.707C209.017 173.707 199.381 180.947 189.765 188.213C190.189 185.066 190.58 181.92 191.713 178.88ZM227.615 134.186C229.8 132.573 232.068 131.04 234.377 129.573C242.267 136.2 246.267 146.653 248.504 156.467L248.511 156.493C247.628 156.773 246.744 157.053 245.86 157.333L245.815 157.173C244.723 157.76 243.588 158.253 242.365 158.586C242.215 158.626 242.073 158.64 241.928 158.667C235.312 160.92 228.745 163.4 222.397 166.213C220.288 159.96 214.599 155.213 209.481 151.026C214.895 144.786 220.975 139.133 227.615 134.186ZM271.429 112.6C275.237 116.52 276.843 122.76 278.363 127.733C280.313 134.12 282.287 140.72 282.716 147.413C280.616 148.04 278.465 148.413 276.273 148.573C270.064 150.053 263.893 151.746 257.787 153.586C255.673 154.226 253.551 154.88 251.425 155.56C249.097 145.96 244.607 134.6 236.524 128.213C247.3 121.667 259.233 116.667 271.429 112.6ZM301.687 104.16C303.404 103.76 305.12 103.36 306.844 102.986C308.461 105.613 308.641 109.893 308.893 112.426C309.287 116.32 309.297 120.253 309.283 124.147C309.265 126.893 309.203 129.627 309.237 132.373C309.26 134.4 310.208 140.853 309.081 142.226C308.909 142.44 308.8 142.666 308.743 142.893L308.611 142.92L308.623 143.12C307.089 143.24 305.555 143.4 304.023 143.573C297.871 144.267 291.767 145.28 285.7 146.493C285.017 138.973 282.585 131.6 280.155 124.48C278.667 120.133 276.849 115.36 273.708 111.853C283.047 108.84 292.503 106.36 301.687 104.16ZM343.183 97.6132C344.257 97.5332 345.333 97.4666 346.408 97.3999C349.351 104.947 350.447 112.733 350.669 120.853C350.871 128.146 351.431 137.493 347.765 144.093C347.304 144.026 346.848 143.96 346.388 143.893C345.22 143.973 344.019 143.773 342.848 143.413L342.852 143.48C332.705 142.4 322.464 142.186 312.245 142.853C313.033 140.346 312.505 136.867 312.468 134.64C312.408 130.787 312.316 126.947 312.245 123.107C312.153 118.04 312.723 107.933 309.353 102.467C320.515 100.147 331.817 98.5465 343.183 97.6132ZM364.128 96.8399C369.623 96.7999 375.231 95.9998 380.227 98.8132C389.769 104.16 392.392 119.747 394.767 129.4C396.699 137.24 399.827 149.453 395.283 156.907C393.533 156.173 391.775 155.453 390.001 154.773C386.072 153.28 382.103 151.933 378.104 150.693C382.189 142.04 383.083 131.533 379.975 122.48C379.532 121.173 377.473 121.733 377.912 123.04C380.825 131.747 379.36 141.76 375.084 149.813C374.663 149.693 374.243 149.56 373.819 149.44L373.832 149.373C372.733 149.173 371.651 148.893 370.587 148.48L370.568 148.586C364.155 146.906 357.663 145.56 351.125 144.573C354.316 137.987 353.712 129.693 353.58 122.626C353.417 114.08 352.269 105.146 348.808 97.2531C353.909 96.9865 359.015 96.8932 364.128 96.8399ZM414.016 147.267C417.496 143.213 422.009 136.12 427.187 134.107C428.617 133.547 428.908 142.8 428.819 143.346C428.261 146.867 425.865 149.92 423.544 152.467C420.648 155.64 413.351 162.6 408.541 162.426C408.139 162.4 407.791 162.466 407.472 162.56L407.293 162.48L407.167 162.52C406.6 162.213 406.021 161.92 405.447 161.626C404.123 161.013 402.796 160.427 401.476 159.813C406.193 156.173 410.135 151.787 414.016 147.267ZM472.033 264.507C471.119 257.867 469.172 251.267 467.211 245.04C462.844 231.16 457.425 217.933 450.068 205.333C445.516 197.547 440.455 190.227 434.519 183.64C433.899 182.28 432.771 181.16 431.295 180.226C428.779 177.68 426.111 175.253 423.26 172.986C421.579 171.64 419.843 170.386 418.084 169.16L418.233 169.067C417.259 168.4 416.299 167.707 415.329 167.013C420.231 164.547 424.984 159.96 427.993 156.907C434.308 150.507 437.636 140.667 433.401 132.147C429.955 125.2 423.564 128.306 419.232 132.493C413.68 137.866 409.111 144.106 403.875 149.72C404.243 143.84 403.055 137.573 402.024 132.307C399.861 121.213 396.867 108.413 389.755 99.4132C381.531 89.0132 370.756 90.3998 358.687 90.5465C342.836 90.7332 327.019 92.6399 311.459 95.5999C296.129 98.5066 281.087 102.813 266.4 108.067C252.696 112.96 239.229 118.587 227.149 126.773C216.032 134.333 206.529 143.893 198.569 154.68C194.283 160.493 190.497 166.653 187.492 173.226C186.151 176.173 184.944 179.227 184.375 182.413C183.66 186.427 183.948 190.467 182.763 194.413C182.589 195 182.604 195.52 182.732 195.973C175.553 204.587 169.533 214.2 164.803 224.267C156.551 241.813 152.477 260.893 151.137 280.173C140.944 278.613 136.784 263.573 134.641 255.293C133.211 249.746 132.364 244.146 131.565 238.493C131.013 234.586 128.737 231.867 124.655 231.44C116.314 230.547 109.23 238.826 104.823 244.853C98.038 254.146 98.4787 263.44 101.394 273.507C92.9219 275.907 88.8541 284.333 87.7927 293.24C86.2745 305.947 93.0776 313.773 100.61 322.533C93.5719 331.387 89.8131 344.773 94.776 355.253C96.0579 357.946 97.7151 360.387 100.053 362.28C101.752 363.653 108.651 365.427 107.951 367.84C105.747 375.507 109.652 382.76 113.172 389.307C115.897 394.373 121.382 400.453 127.466 401.026C133.4 401.573 136.596 397.786 138.68 392.72C143.599 380.773 149.845 364.666 162.585 358.92L162.66 359.08L164.467 358C166.571 361.107 168.341 364.467 170.231 367.68C171.477 369.8 172.877 371.773 174.384 373.653C175.205 381.826 174.955 389.253 178.241 397.04C181.248 404.147 187.072 410.813 193.887 414.453C199.984 417.72 207.081 417.133 213.681 416.373C218.337 415.827 223.844 415.693 228.037 413.267C232.245 415.36 236.507 417.32 240.831 419.107C240.084 429.587 244.731 436.84 254.457 441.093C268.912 447.413 284.699 451.413 299.597 456.613C307.221 459.28 314.148 461.72 322.332 461.226C330.053 460.76 337.407 457.707 344.171 454.147C355.919 447.973 370.296 438.426 375.169 425.426C401.104 416.906 425.251 402.8 445.52 384.36C453.4 375.72 460.588 366.586 466.001 356.16C466.553 354.493 467.181 352.853 467.859 351.226L467.701 351.173C478.091 324.293 477.843 293.093 472.033 264.507Z" fill="black"/>
<path d="M421.936 231.707C423.56 231.44 425.225 231.36 426.852 231.627C428.088 231.827 428.736 232.413 429.343 233.653C431.757 238.547 424.86 239.787 421.745 239.853C418.571 239.92 416.007 240.347 413.087 241.547C411.795 242.08 410.517 242.653 409.211 243.16C408.1 243.587 406.956 243.893 405.771 244.067C404.047 243.04 403.161 242 403.101 240.947C404.961 236.307 419.221 232.147 421.936 231.707ZM400.663 245.067L400.827 245.307C400.948 245.467 401.088 245.587 401.229 245.68C401.399 245.827 401.581 245.96 401.791 246.067C406.612 248.813 411.844 245.453 416.467 243.733C421.169 241.987 428.319 244.96 431.441 239.667C433.371 236.4 433.579 231.64 429.973 229.333C422.972 224.893 394.183 234.933 400.463 244.76L400.663 245.067Z" fill="black"/>
<path d="M417.504 304.4C409.636 304.4 403.236 298 403.236 290.133C403.236 282.267 409.636 275.867 417.504 275.867C425.373 275.867 431.776 282.267 431.776 290.133C431.776 298 425.373 304.4 417.504 304.4ZM417.504 272.693C407.887 272.693 400.06 280.52 400.06 290.133C400.06 299.747 407.887 307.573 417.504 307.573C427.12 307.573 434.944 299.747 434.944 290.133C434.944 280.52 427.12 272.693 417.504 272.693Z" fill="black"/>
<path d="M408.545 269.48C407.297 270.32 408.381 272.173 409.72 271.493C414.228 269.2 418.053 269.4 422.86 270.547C424.191 270.853 424.752 268.827 423.423 268.493C418.256 267.2 413.291 266.32 408.545 269.48Z" fill="black"/>
<path d="M420.54 289.467C420.143 290.28 419.127 291.04 418.231 291.187C417.457 291.32 417.111 291.347 416.331 291.173C415.901 291.08 415.509 290.88 415.105 290.707C414.223 290.333 413.399 289.773 412.651 289.187C411.632 288.387 411.109 286.72 411.533 285.493C411.851 284.56 412.349 283.987 413.141 283.427C413.724 283.013 414.46 282.947 415.136 282.867C415.528 282.827 415.912 282.853 416.288 282.92C416.535 282.92 416.78 282.947 417.025 283.027C418.083 283.333 418.908 283.8 419.759 284.48C420.363 284.96 420.671 285.693 420.935 286.387C421.323 287.387 420.984 288.547 420.54 289.467ZM415.391 280.347C410.425 280.347 406.404 284.373 406.404 289.333C406.404 294.307 410.425 298.32 415.391 298.32C420.352 298.32 424.373 294.307 424.373 289.333C424.373 284.373 420.352 280.347 415.391 280.347Z" fill="black"/>
<path d="M336.659 163.947C328.088 164.96 318.699 167.693 315.571 176.773C312.899 184.52 316.443 192.307 322.055 197.707C313.957 199.4 307.145 204.293 303.641 212.187C299.619 221.253 303.183 230.107 308.672 237.44C302.573 241.16 299.872 246.893 301.68 254.307C302.215 256.48 305.567 255.56 305.043 253.373C303.437 246.747 306.307 242.427 312.171 239.493C313.264 238.947 313.189 237.56 312.523 236.747C306.757 229.667 303.281 221.56 307.251 212.627C310.532 205.24 318.353 201.213 326.087 200.6C327.863 200.467 328.387 198.387 326.964 197.373C320.788 192.947 316.199 185.307 318.639 177.627C321.113 169.813 329.748 167.227 336.951 166.093C338.16 165.907 337.877 163.813 336.659 163.947Z" fill="black"/>
<path d="M304.747 286.88C297.873 285.093 290.945 283.853 284.215 281.52C276.143 278.72 268.329 275.24 260.271 272.373C260.7 271.187 261.159 270.013 261.667 268.88C263.248 265.347 265.516 262.173 268.916 260.227C272.992 257.893 279.569 259.48 283.825 260.387C291.207 261.933 297.752 265.347 303.681 269.773C306.571 271.293 309.241 273.16 311.78 275.213C308.92 278.6 306.497 282.587 304.747 286.88ZM307.221 320.787C298.857 326.907 291.197 334.04 281.379 337.813C279.996 338.333 280.576 340.587 282 340.053C292.111 336.387 300.048 329.453 308.641 323.253C309.963 325.307 311.475 327.04 313.172 328.08C309.787 331.173 306.419 334.28 302.825 337.08C298.997 340.933 295.003 344.613 290.851 348.107C286.92 351.413 281.891 355.707 276.537 356.227C271.139 356.76 266.195 350.173 263.584 346.293C260.607 341.88 259.065 336.627 257.843 331.507C256.965 327.827 256.36 324.107 255.937 320.36C271.651 323.173 291.481 326.08 304.991 315.8C305.631 317.467 306.376 319.173 307.221 320.787ZM255.819 295.227C256.421 288.467 257.423 281.32 259.499 274.68C266.937 277.533 274.123 281.013 281.509 284C288.664 286.893 296.119 288.307 303.56 290.173C302.551 293.387 301.952 296.707 301.833 300.013C293.491 301 284.961 299.013 277.083 296.36C275.577 295.853 274.988 298.16 276.433 298.707C283.764 301.467 293.78 304.947 301.872 303.2C301.979 304.88 302.212 306.547 302.607 308.173C302.88 309.293 303.265 310.693 303.752 312.227C303.661 312.4 303.596 312.587 303.564 312.787C289.703 322.44 271.513 320.067 255.665 317.867C255.003 310.347 255.144 302.733 255.819 295.227ZM279.777 255.213C269.88 254.093 263.196 256.533 258.36 265.533C253.607 274.387 252.4 285.4 251.372 295.227C249.952 308.747 250.895 322.72 254.332 335.88C256.861 345.573 263.261 357.587 273.656 360.48C283.56 363.227 294.915 350.853 301.175 345.027C306.011 340.52 310.457 335.653 314.988 330.853C315.689 330.107 316.399 329.373 317.111 328.627L317.385 328.347C320.713 324.893 324.019 321.427 326.352 317.213C325.647 317.68 324.949 318.173 324.239 318.64C321.401 320.747 318.715 323.067 316.081 325.427C313.424 324.333 311.761 320.547 310.497 318.227C308.604 314.76 307.101 311.04 306.016 307.24C303.013 296.693 307.759 285.36 313.553 276.693C319.532 281.867 324.819 288.013 330.445 293.347L330.476 293.387C330.62 292.96 330.589 292.493 330.256 292.067C317.463 275.32 302.063 257.72 279.777 255.213Z" fill="black"/>
<path d="M312.431 418.72C306.697 420.347 303.624 412.92 302.229 408.627C299.997 401.747 302.705 396.36 306.817 390.987C307.211 390.48 307.056 389.507 306.576 389.107C303.671 386.653 299.955 385.253 297.687 382.107C293.425 376.173 295.573 370.213 298.477 364.32C299.089 363.08 297.233 361.987 296.613 363.227C294.208 368.107 292.189 372.653 292.957 378.173C293.839 384.507 299.055 386.907 303.36 390.44C298.539 397.027 296.913 403.52 299.871 411.653C301.935 417.333 306.475 423.907 313.317 421.933C315.38 421.347 314.507 418.133 312.431 418.72Z" fill="black"/>
<path d="M232.185 300.173C226.308 293.107 224.719 286.053 226.291 277.027C227.104 272.373 228.776 267.773 233.064 265.173C236.037 263.36 239.229 262.4 241.699 259.827C242.215 259.293 242.411 258.373 241.969 257.72C236.548 249.653 234.921 239.4 239.536 230.573C243.147 223.667 252.283 222.28 258.775 219.387C259.58 219.013 259.885 217.733 259.391 217.027C257.007 213.64 254.392 211.2 253.328 206.987C252.06 201.96 253.085 196.307 254.607 191.48C257.399 182.613 266.945 179.48 275.347 179.333C276.737 179.307 276.737 177.16 275.347 177.173C266.24 177.293 257.852 179.333 252.921 187.64C250.088 192.4 249.483 198.693 249.635 204.093C249.801 209.84 252.313 213.04 255.283 217.16C247.003 220.587 239.049 222.587 235.143 231.747C231.479 240.333 233.448 250.533 238.215 258.293C234.892 261.08 230.52 262.08 227.481 265.44C223.961 269.333 223.092 274.453 222.393 279.453C221.141 288.453 224.016 295.8 229.711 302.64C231.156 304.387 233.621 301.893 232.185 300.173Z" fill="black"/>
<path d="M241.431 395.48C233.76 393.88 230.148 387.333 229.805 379.933C229.653 376.64 230.452 373.36 231.82 370.387C232.924 367.987 235.945 366.64 236.692 364.067C237.837 360.133 233.116 358.613 230.483 356.893C220.636 350.467 226.733 338.867 230.297 331.027C230.873 329.76 229.007 328.667 228.432 329.933C225.16 337.12 220.484 344.187 223.451 352.267C224.401 354.867 226.588 357.987 228.915 359.573C230.287 360.507 231.719 361.36 233.097 362.28C234.288 363.08 230.253 366.787 229.787 367.373C221.536 377.693 227.879 396.027 240.553 398.667C242.636 399.107 243.524 395.907 241.431 395.48Z" fill="black"/>
<path d="M198.379 222.52C186.343 227.133 186.9 239.6 189.363 250.267C180.907 254.293 177.023 260.787 175.868 270.227C174.672 280.013 177.456 286.493 184.519 292.507C179.515 297.44 176.584 302.4 176.385 309.867C176.177 317.933 182.376 321.947 187.488 326.96C182.773 333.627 180.981 340.04 182.257 348.373C183.396 355.8 187.3 362.36 195.085 363.827C197.217 364.227 198.139 360.987 195.989 360.547C189.22 359.173 186.667 353.76 185.559 347.467C184.203 339.733 186.637 333.747 191.204 327.64C191.664 327.027 191.423 326.08 190.933 325.56C186.955 321.4 181.527 318.387 180.025 312.48C178.055 304.707 183.028 298.467 188.285 293.627C189.172 292.813 188.761 291.587 187.939 290.947C180.635 285.32 178.049 279.373 179.264 270.227C180.413 261.587 184.077 256.16 192.155 252.64C192.827 252.347 193.117 251.4 192.924 250.747C190.276 241.707 188.228 229.267 199.037 224.907C200.492 224.32 199.884 221.947 198.379 222.52Z" fill="black"/>
<path d="M57.6489 10.6667C31.7427 10.6667 10.6667 31.7466 10.6667 57.6533V497.027C10.6667 522.933 31.7427 544.013 57.6489 544.013H497.027C522.932 544.013 544.008 522.933 544.008 497.027V57.6533C544.008 31.7466 522.932 10.6667 497.027 10.6667H57.6489ZM497.027 554.68H57.6489C25.8615 554.68 0 528.813 0 497.027V57.6533C0 25.8666 25.8615 0 57.6489 0H497.027C528.815 0 554.675 25.8666 554.675 57.6533V497.027C554.675 528.813 528.815 554.68 497.027 554.68Z" fill="#1B7695"/>
</svg>
