<svg width="556" height="556" viewBox="0 0 556 556" fill="none" xmlns="http://www.w3.org/2000/svg">
<path d="M498.026 550.05H58.6406C29.7482 550.05 6.32568 526.627 6.32568 497.735V58.3528C6.32568 29.4603 29.7482 6.03784 58.6406 6.03784H498.026C526.918 6.03784 550.325 29.4603 550.325 58.3528V497.735C550.325 526.627 526.918 550.05 498.026 550.05Z" fill="white"/>
<path d="M239.519 197.556C239.078 198.263 238.518 200.239 237.852 201.271C237.598 201.36 237.346 201.478 237.119 201.67L236.985 201.802C236.318 201.331 236.051 199.296 236.038 198.838C236.011 197.747 236.439 196.818 236.958 195.875C237.465 194.961 238.132 194.592 238.865 194.444C239.025 194.725 239.251 194.99 239.558 195.152C239.917 195.698 240.224 196.229 240.532 196.745C240.158 196.863 239.798 197.113 239.519 197.556Z" fill="white"/>
<path d="M226.447 185.468C213.408 194.008 212.58 216.016 224.58 225.814C217.448 224.497 212.167 216.12 210.634 209.623C208.395 200.121 213.248 189.257 222.661 186.134C223.928 185.705 225.208 185.498 226.447 185.468Z" fill="white"/>
<path d="M285.173 183.034C289.178 179.964 293.51 179.904 297.589 181.477C290.944 183.183 284.891 193.3 284.164 198.73C282.71 209.663 285.826 221.916 295.616 226.915C287.398 226.322 279.328 219.913 276.732 212.644C273.261 202.972 277.058 189.265 285.173 183.034Z" fill="white"/>
<path d="M309.282 193.53C309.665 193.574 309.931 193.663 310.196 193.781C310.373 193.914 310.58 194.061 310.772 194.209C311.701 195.418 310.359 197.882 309.532 199.166C308.249 201.216 305.844 203.193 303.381 201.821C301.758 200.921 303.071 197.926 303.646 196.79C304.34 195.418 305.475 194.032 306.951 193.53C307.216 193.441 307.438 193.309 307.674 193.205C307.954 193.205 308.234 193.22 308.529 193.22C308.751 193.382 308.987 193.515 309.282 193.53Z" fill="white"/>
<path d="M392.731 287.333C396.8 288.778 400.755 290.423 404.568 292.351C409.756 295.866 414.718 300.147 419.14 304.102C433.401 316.874 433.684 337.159 428.496 354.057C426.696 359.911 425.335 366.106 424.456 372.399C424.059 374.058 423.676 375.717 423.322 377.389C423.875 365.028 423.634 352.469 423.18 340.122C422.741 328.399 420.232 317.682 414.548 307.348C409.501 298.148 401.676 292.223 392.731 287.333Z" fill="#CB5C14"/>
<path d="M387.773 326.04C388.219 339.727 384.511 353.888 382.922 367.199C381.835 376.119 380.971 385.234 381.097 394.224C381.124 395.716 381.166 397.221 381.278 398.713C379.424 394.378 378.142 389.778 377.361 385.248C376.846 376.495 378.281 367.268 380.023 358.515C382.128 347.881 386.323 336.995 387.773 326.04Z" fill="#CB5C14"/>
<path d="M380.292 293.716C385.939 296.844 390.681 303.61 393.512 309.216C396.655 315.514 396.853 322.28 396.499 329.16C396.074 336.605 395.338 344.065 394.715 351.496C393.569 365.594 392.719 379.706 391.856 393.847C391.361 402.014 392.352 410.408 396.329 417.273C394.645 416.198 392.974 414.98 391.332 413.678C388.756 411.229 386.534 408.398 384.651 405.298C382.74 399.707 383.151 392.87 383.363 387.336C383.66 378.985 384.467 370.562 385.486 362.268C387.185 348.608 390.087 335.176 388.204 321.615C388.388 318.43 388.289 315.231 387.794 312.061C386.873 306.201 383.689 300.44 380.065 295.896C378.72 294.226 376.031 292.527 373.342 290.701C375.62 291.734 378.041 292.456 380.292 293.716Z" fill="#A12F31"/>
<path d="M366.506 280.117C374.384 281.923 382.446 283.871 390.224 286.473C400.534 292.289 409.094 300.465 414.441 311.016C420.712 323.387 421.323 336.655 421.195 350.249C421.096 362.278 421.394 374.266 420.228 386.253C419.275 396.193 419.076 407.412 425.902 415.29C427.708 418.532 430.111 421.39 432.912 423.608C429.286 423.935 425.674 424.149 422.048 424.149C419.915 422.414 417.981 420.551 416.446 418.062C414.554 415.019 413.701 411.351 413.061 407.867C411.554 399.847 411.255 391.472 410.985 383.324C410.459 366.957 410.402 350.59 409.407 334.237C408.667 321.994 408.397 307.888 399.752 298.304C390.978 288.563 377.796 286.672 366.008 282.733C365.923 281.894 366.051 281.013 366.506 280.117Z" fill="#A12F31"/>
<path d="M399.204 300.727C404.443 306.562 405.593 315.18 406.345 322.662C407.155 330.555 407.552 338.492 407.85 346.4C408.446 362.797 408.163 379.294 409.398 395.664C409.895 402.209 410.462 408.981 412.592 415.228C413.813 418.876 415.914 421.616 418.441 424.072C413.302 423.831 408.248 422.993 403.421 421.162C402.782 420.878 402.157 420.58 401.532 420.253C393.17 410.826 393.639 397.737 394.888 385.555C395.584 378.741 395.342 371.855 395.939 365.026C396.563 357.672 396.932 350.304 397.529 342.964C398.551 330.555 400.61 318.388 394.675 306.903C392.105 301.962 388.073 297.632 383.857 294.069C379.47 290.377 373.337 290.69 368.992 287.084C368.865 286.97 368.723 286.998 368.609 287.069C367.53 286.033 366.678 284.94 366.267 283.79C371.008 286.544 376.105 287.566 381.358 289.171C388.088 291.243 394.519 295.517 399.204 300.727Z" fill="#CB5C14"/>
<path d="M356.833 109.965C352.929 106.759 348.221 104.389 343.713 102.283C337.022 99.1539 330.114 96.3504 323.128 93.8721C314.175 90.7123 304.949 88.9466 296.282 84.873C295.935 84.7026 295.616 85.2137 295.976 85.3841C302.576 88.7142 309.549 91.022 316.589 93.1905C324.383 95.6069 331.771 98.8751 339.191 102.205C345.51 105.055 351.706 108.231 356.895 112.893C358.862 114.674 360.442 116.719 361.851 118.934C366.343 128.723 368.31 139.55 370.726 150.051C370.912 151.771 371.083 153.475 371.222 155.178C368.248 150.33 364.995 145.962 361.278 141.951C361.263 140.959 360.968 139.999 360.612 139.054L360.597 139.008C356.864 122.558 344.24 114.906 329.882 108.912C320.775 105.102 310.562 103.816 301.123 100.858C295.336 99.0455 289.602 98.0078 284.055 95.4056C279.749 93.392 271.549 87.7539 268.722 82.534C268.629 82.3636 268.549 82.1932 268.468 82.0383C269.642 80.7682 270.669 79.3897 271.549 77.9182C272.203 77.7169 272.856 77.5001 273.509 77.2832C278.083 75.7653 282.588 74.1699 287.483 73.7672C294.616 73.1941 301.869 74.7894 308.723 76.5396C321.348 79.7769 333.026 85.7248 343.419 93.5159C348.499 98.5189 353.038 104.095 356.833 109.965Z" fill="#A12F31"/>
<path d="M306.069 106.35C325.063 112.504 347.582 115.696 355.371 136.163C351.623 132.971 347.474 130.086 342.739 127.511C334.024 122.776 325.65 120.956 317.182 120.786C303.736 118.041 290.455 115.049 277.508 110.422C266.789 106.581 255.883 101.198 251.176 90.3093C254.962 89.7695 258.668 88.5355 261.869 86.9623C263.562 86.1449 265.109 85.0961 266.508 83.9085C268.856 89.4301 275.056 93.3323 279.709 96.7718C287.15 102.263 297.469 103.558 306.069 106.35Z" fill="#CB5C14"/>
<path d="M293.978 469.042C295.092 479.72 301.424 491.078 310.58 497.3C311.885 498.672 313.257 499.909 314.656 501.064C309.018 499.882 303.285 497.463 300.364 496.213L300.282 496.186C295.228 490.168 292.769 482.193 290.772 474.598C287.933 463.879 287.145 452.725 287.715 441.68C288.259 430.988 290.704 420.567 293.027 410.147C294.834 402.091 297.402 392.567 293.788 384.66C295.079 384.347 296.356 383.94 297.592 383.437L297.674 383.641C297.959 384.076 298.204 384.497 298.462 384.945C298.081 385.57 297.932 386.358 298.258 387.214C301.233 395.203 302.429 402.417 300.608 410.84C298.91 418.693 294.997 425.825 293.462 433.746C291.642 443.269 291.805 453.16 293.571 462.697C293.639 464.817 293.761 466.949 293.978 469.042Z" fill="#CB5C14"/>
<path d="M294.577 324.633C298.268 320.507 300.345 315.736 301.187 310.544C301.383 317.195 301.439 323.342 297.622 329.25C294.339 334.372 288.768 337.824 283.505 340.588C277.247 343.858 270.525 346.258 263.929 348.798C259.06 350.678 254.906 353.836 250.542 356.6C244.886 356.165 239.119 355.155 233.253 353.99C232.649 353.878 232.046 353.737 231.428 353.597C235.47 350.51 240.452 348.489 245.167 346.707C254.569 343.143 264.547 341.683 274.089 338.582C282.27 335.915 288.88 330.99 294.577 324.633Z" fill="#A12F31"/>
<path d="M286.96 204.467C286.59 198.259 292.087 182.969 301.154 183.947C301.465 183.976 301.702 183.888 301.88 183.754C304.325 185.369 306.621 187.458 308.606 189.636C304.236 189.843 300.369 193.503 297.895 197.34C294.25 203 297.094 210.615 302.591 213.771C306.369 215.949 309.836 214.615 312.399 212.037C311.851 216.897 309.984 221.327 305.243 224.483C304.562 224.927 303.88 225.298 303.169 225.638C302.991 225.505 302.799 225.401 302.547 225.342C292.013 222.69 287.568 214.778 286.96 204.467Z" fill="#1B7695"/>
<path d="M299.638 306.224C299.483 309.209 298.976 312.616 298.497 315.193C297.765 319.107 293.935 322.824 291.345 325.612C285.093 332.286 277.448 336.031 268.761 338.523C260.749 340.832 252.653 342.48 244.811 345.408C241.896 346.478 239.094 347.774 236.349 349.182C234.715 350.012 232.477 351.969 230.337 353.363C224.493 352.012 218.129 350.111 211.836 349.139C218.735 344.634 226.831 341.508 234.476 338.763C244.022 335.299 253.878 333.342 263.889 331.821C279.25 329.512 296.273 320.248 297.089 303.14C297.526 303.056 297.962 303 298.399 302.915L298.413 302.943C298.61 303.169 298.807 303.394 299.004 303.633C299.004 303.816 298.976 304.028 299.032 304.239C299.258 305.055 299.455 305.675 299.638 306.224Z" fill="#CB5C14"/>
<path d="M301.341 328.013C300.502 331.761 298.418 335.313 295.943 338.53C290.853 343.802 284.588 348.207 279.665 350.962C270.519 356.08 261.234 357.255 251.724 356.681C257.821 353.451 263.877 350.388 270.407 347.913C276.7 345.536 282.965 343.019 288.741 339.579C297.327 334.446 301.858 327.244 303.019 318.476C303.075 321.706 302.502 324.951 301.341 328.013Z" fill="#CB5C14"/>
<path d="M295.654 493.705C288.323 489.048 282.39 481.567 277.665 474.643C277.393 474.209 277.108 473.801 276.837 473.38C275.94 468.819 275.357 464.297 275.058 459.668C274.447 450.422 275.017 441.732 277.122 432.703C279.158 424.028 282.648 415.882 285.58 407.504C288.146 400.091 288.852 392.963 289.151 385.252C289.355 385.129 289.558 385.021 289.735 384.899C290.549 385.129 291.608 385.143 292.939 384.871C296.374 395.312 291.975 407.396 289.558 417.647C287.101 428.169 285.594 438.827 285.58 449.661C285.58 460.346 287.291 471.045 290.4 481.241C291.731 485.586 293.387 489.849 295.654 493.705Z" fill="#A12F31"/>
<path d="M223.421 126.186C229.633 129.543 236.113 132.215 243.299 133.051C267.899 135.951 290.34 126.065 314.482 124.395C340.481 122.572 360.329 143.544 371.461 164.456C372.585 166.293 373.632 168.161 374.483 170.136C374.68 170.454 374.893 170.773 375.075 171.107C376.214 173.112 376.822 175.253 377.049 177.486C381.21 191.533 382.805 206.719 382.759 220.782C382.759 230.607 382.273 240.433 381.666 250.228C381.059 259.613 378.538 268.694 377.672 278.049C377.414 278.383 377.262 278.793 377.232 279.219C373.754 278.611 370.322 278.216 367.026 277.973L366.799 277.745C366.267 277.837 365.705 277.897 365.159 277.943C363.306 280.16 359.54 283.41 362.637 286.371C364.976 288.604 367.588 290.411 370.261 292.264C371.415 293.068 372.478 293.919 373.481 294.784C373.374 295.043 373.268 295.286 373.177 295.559C372.691 295.923 372.296 296.455 372.159 297.199C372.023 297.958 371.795 298.748 371.552 299.507C370.215 302.575 368.697 305.582 367.026 308.528C364.05 312.978 360.329 317.108 357.201 320.54C351.217 327.086 346.813 335.104 340.952 341.847C338.051 345.218 335.166 348.605 332.28 352.006C326.069 357.883 319.159 363.107 312.584 368.514C308.225 372.098 303.927 375.636 298.992 378.415C298.005 378.962 290.087 383.275 292.614 379.691C292.841 379.387 292.933 379.083 292.948 378.78C305.628 370.184 314.71 356.031 316.821 340.844C317.352 337.002 317.382 333.388 316.988 329.986C314.543 321.33 309.228 313.949 305.203 305.916C304.429 305.035 303.654 304.169 302.788 303.304L302.773 303.213C302.606 302.651 302.287 302.286 301.892 302.074C308.787 300.206 315.226 296.956 320.647 292.036C322.06 290.745 320.222 288.406 318.628 289.408C310.366 294.496 302.439 299.401 292.538 300.373C284.34 301.163 272.366 300.084 266.474 293.144C271.26 292.552 275.927 291.686 280.313 290.745C291.286 288.376 302.561 283.957 312.31 278.414C320.146 273.949 329.334 265.384 331.642 256.302C331.84 256.439 332.037 256.545 332.219 256.697C334.968 259.066 335.758 262.848 334.452 266.158C333.693 268.072 336.897 269.408 337.762 267.555C339.873 263.045 338.476 258.413 335.135 254.92C331.339 250.911 324.976 251.291 320.04 252.354C318.506 252.673 319.205 254.814 320.663 254.617C322.971 254.283 325.553 254.161 327.922 254.693C325.826 264.093 315.651 271.899 307.982 276.288C299.296 281.254 288.954 284.61 279.286 286.979C268.633 289.591 257.539 290.806 246.753 289.818C235.153 287.465 224.14 283.319 216.54 273.478C207.432 261.663 203.54 245.247 200.087 231.033C191.727 196.575 198.593 153.75 222.699 126.672L222.9 126.399H222.98C223.14 126.354 223.287 126.278 223.421 126.186ZM227.073 163.681C230.007 163.545 232.752 165.154 235.673 165.261C240.914 165.458 240.699 158.685 239.232 155.132C239.633 154.372 239.592 153.309 238.713 152.671C234.593 149.649 226.579 152.322 222.447 154.16C216.526 156.802 211.433 161.586 210.087 168.07C209.713 169.862 211.7 171.001 213.061 169.817C217.073 166.339 221.7 163.985 227.073 163.681ZM227.326 229.954C231.633 230.212 235.112 228.8 237.82 226.37C242.861 222.24 245.246 217.091 245.993 211.184C246.206 210.045 246.286 208.906 246.247 207.782C246.247 207.615 246.247 207.463 246.259 207.312L246.3 207.084C246.3 206.613 246.3 206.142 246.287 205.687C246.206 204.684 246.126 203.682 246.06 202.695C245.807 200.508 245.433 198.352 244.94 196.21C244.861 196.028 244.766 195.846 244.686 195.664C242.513 187.585 234.847 182.36 225.979 181.966C213.246 181.373 206.874 194.874 206.539 205.611C206.18 217.714 215.086 229.18 227.326 229.954ZM301.528 163.408C303.183 164.304 306.175 167.357 308.362 166.066C313.495 163.059 306.327 154.873 304.049 152.565C298.217 146.718 289.794 145.534 282.673 149.391C281.687 149.923 281.607 150.895 282.033 151.639C280.926 155.952 280.181 164.729 286.834 164.41C292.082 164.167 296.183 160.508 301.528 163.408ZM272.433 211.381C274.22 224.108 288.246 232.9 300.602 230.455C314.543 227.692 317.185 216.18 316.638 204.198C316.684 204.016 316.714 203.819 316.76 203.636C316.426 201.404 316.046 199.187 315.727 196.97C315.332 195.724 314.907 194.479 314.452 193.264C313.267 190.819 311.839 188.526 310.199 186.248C303.852 179.399 295.059 174.995 285.62 178.655C273.74 183.256 270.9 200.493 272.433 211.381Z" fill="#FEA600"/>
<path d="M301.545 155.079C303.017 156.326 304.159 157.978 305.21 159.585C305.796 160.517 306.262 161.508 306.592 162.545C305.421 161.959 304.309 161.238 303.183 160.577C300.434 158.954 297.76 158.654 294.666 159.165C293.088 159.42 291.106 159.991 289.664 160.622C285.398 160.937 283.445 159.495 283.73 156.266C283.625 155.034 283.851 153.772 284.091 152.526C284.211 152.496 284.331 152.496 284.451 152.435C290.625 149.521 296.393 150.708 301.545 155.079Z" fill="#A12F31"/>
<path d="M309.532 199.169C310.349 197.891 311.687 195.438 310.751 194.234C310.572 194.071 310.364 193.937 310.186 193.788C309.933 193.684 309.651 193.595 309.279 193.551C308.982 193.521 308.744 193.402 308.521 193.238C308.224 193.238 307.941 193.224 307.659 193.224C307.421 193.328 307.213 193.446 306.945 193.536C305.459 194.056 304.329 195.438 303.631 196.806C303.066 197.936 301.758 200.923 303.363 201.845C305.831 203.212 308.239 201.235 309.532 199.169ZM300.598 230.459C288.231 232.927 274.214 224.127 272.415 211.388C270.884 200.507 273.723 183.264 285.615 178.671C295.054 175.014 303.839 179.429 310.186 186.267C311.821 188.541 313.263 190.845 314.437 193.268C314.883 194.502 315.314 195.736 315.715 196.984C316.042 199.214 316.414 201.429 316.756 203.643C316.696 203.837 316.682 204.03 316.622 204.223C317.172 216.189 314.526 227.694 300.598 230.459ZM297.581 181.481C293.508 179.905 289.182 179.964 285.169 183.041C277.068 189.255 273.262 202.975 276.726 212.637C279.327 219.92 287.398 226.312 295.604 226.906C285.823 221.927 282.701 209.664 284.173 198.738C284.886 193.313 290.936 183.19 297.581 181.481ZM301.891 183.74C301.698 183.889 301.46 183.978 301.148 183.948C292.096 182.967 286.596 198.248 286.953 204.461C287.562 214.777 292.021 222.685 302.545 225.331C302.798 225.39 302.991 225.494 303.17 225.628C303.883 225.301 304.567 224.93 305.251 224.469C309.978 221.318 311.851 216.888 312.401 212.027C309.829 214.599 306.366 215.951 302.59 213.766C297.105 210.615 294.251 202.989 297.908 197.326C300.375 193.506 304.24 189.834 308.61 189.626C306.618 187.456 304.329 185.36 301.891 183.74Z" fill="black"/>
<path d="M285.986 387.175C284.114 391.081 281.686 394.798 279.543 398.487C276.017 404.522 272.26 410.436 268.639 416.431C262.929 425.938 257.314 435.378 257.789 446.405C254.832 442.39 251.739 438.484 247.806 435.622C247.481 435.392 247.142 435.175 246.816 434.957C246.369 434.564 245.921 434.144 245.433 433.777C241.594 430.753 237.336 428.719 232.887 427.254C233.904 426.684 234.84 425.965 235.559 425.436C239.858 422.29 243.764 418.479 247.928 415.156C254.94 409.554 261.437 403.383 268.747 398.175C274.308 394.228 280.154 390.702 285.986 387.175Z" fill="#A12F31"/>
<path d="M304.043 152.57C306.33 154.872 313.492 163.057 308.361 166.081C306.18 167.36 303.171 164.306 301.516 163.418C296.175 160.514 292.082 164.17 286.831 164.426C280.181 164.742 280.919 155.971 282.032 151.638C281.596 150.9 281.686 149.937 282.664 149.396C289.795 145.544 298.221 146.718 304.043 152.57ZM303.171 160.575C304.314 161.237 305.412 161.959 306.586 162.56C306.255 161.507 305.789 160.529 305.202 159.597C304.149 157.987 303.02 156.332 301.531 155.083C296.385 150.705 290.623 149.531 284.454 152.45C284.334 152.495 284.213 152.495 284.093 152.525C283.837 153.774 283.627 155.038 283.717 156.271C283.446 159.491 285.402 160.936 289.66 160.62C291.104 159.988 293.075 159.431 294.67 159.16C297.769 158.664 300.432 158.965 303.171 160.575Z" fill="black"/>
<path d="M258.262 41.5686C269.168 45.9353 275.462 54.8731 278.649 66.7166L278.581 66.8737C279.301 68.4287 278.861 70.1407 277.622 71.4602L277.408 71.586L277.289 71.6958C276.927 72.0885 276.568 72.4969 276.247 72.9367C275.302 73.2823 274.381 73.6594 273.448 74.0206C273.715 73.3452 273.927 72.6382 274.141 71.9314L274.114 71.7116C274.235 71.1932 274.301 70.6592 274.342 70.1408C274.221 68.2559 273.861 66.418 273.541 64.5488C272.129 60.8261 270.288 57.2762 268.354 53.7891C265.208 49.6737 260.861 46.3595 256.355 44.8045C253.061 43.6735 249.687 42.9509 246.261 42.5582C233.422 41.0974 220.075 44.663 209.022 51.6215C216.074 45.4955 224.662 41.3487 233.888 39.3696C234.569 39.2596 235.261 39.1655 235.954 39.0712C240.222 37.8303 244.621 37.5947 248.888 38.4115C252.181 38.9298 255.355 39.9822 258.262 41.5686Z" fill="#A12F31"/>
<path d="M273.111 462.869C273.247 464.78 273.477 466.678 273.762 468.562C270.915 463.981 268.137 459.454 264.532 455.239C262.607 452.989 260.818 450.549 259.029 448.069C259.219 442.133 259.951 436.887 262.472 431.154C265.236 424.852 269.235 419.038 272.813 413.169C276.378 407.287 280.186 401.513 283.452 395.427C284.523 393.449 286.285 391.117 287.627 388.718C287.383 391.619 287.139 394.519 286.692 397.393C286 401.825 284.293 406.094 282.748 410.296C279.481 419.119 276.134 427.617 274.182 436.874C272.339 445.521 272.515 454.087 273.111 462.869Z" fill="#CB5C14"/>
<path d="M250.548 90.3788C254.001 100.493 262.893 106.313 272.494 110.346C283.494 114.98 295.108 118.598 306.841 121.123C306.068 121.308 305.281 121.446 304.508 121.631C301.374 122.047 298.215 122.586 294.974 123.248C293.455 123.463 291.961 123.694 290.454 123.925C290.308 123.848 290.134 123.802 289.934 123.848C289.081 124.033 288.228 124.233 287.375 124.418L287.067 124.464C283.948 125.018 280.815 125.695 277.667 126.373L277.574 126.388C275.548 126.742 273.495 127.035 271.493 127.512C271.281 127.574 271.054 127.635 270.827 127.712L270.72 127.604C269.908 127.82 269.081 127.943 268.188 127.912C267.681 127.943 267.187 127.897 266.681 127.758C258.454 127.882 251.107 120.384 246.014 114.503C242.961 110.962 240.707 106.775 239.094 102.403C237.374 97.6916 237.975 93.2731 238.374 88.516C242.067 90.4404 246.334 90.8714 250.548 90.3788Z" fill="#A12F31"/>
<path d="M240.537 196.742C240.23 196.208 239.924 195.689 239.563 195.14C239.258 194.977 239.031 194.725 238.871 194.429C238.137 194.577 237.471 194.948 236.964 195.867C236.444 196.801 236.017 197.735 236.044 198.817C236.057 199.277 236.324 201.323 236.991 201.797L237.125 201.664C237.351 201.471 237.603 201.352 237.858 201.263C238.524 200.24 239.084 198.254 239.525 197.542C239.803 197.112 240.164 196.86 240.537 196.742ZM224.591 225.799C212.59 216 213.417 193.984 226.458 185.445C225.218 185.489 223.937 185.697 222.671 186.112C213.257 189.24 208.405 200.107 210.645 209.61C212.178 216.104 217.457 224.48 224.591 225.799ZM246.284 205.681C246.297 206.141 246.297 206.615 246.297 207.075L246.257 207.312C246.244 207.46 246.244 207.623 246.244 207.787C246.284 208.913 246.204 210.04 245.992 211.196C245.244 217.097 242.857 222.241 237.818 226.378C235.111 228.794 231.63 230.217 227.325 229.951C215.083 229.194 206.178 217.72 206.537 205.607C206.87 194.888 213.244 181.382 225.977 181.975C234.844 182.376 242.511 187.594 244.684 195.659C244.764 195.852 244.858 196.03 244.938 196.208C245.431 198.358 245.805 200.507 246.058 202.687C246.124 203.695 246.204 204.688 246.284 205.681ZM239.618 216.089C238.444 216.237 237.151 215.955 235.737 214.977C227.031 208.928 228.431 193.643 238.564 191.301C236.444 188.751 233.618 186.809 230.457 185.934L230.431 185.949C217.085 194.429 214.618 217.764 230.684 225.206C235.418 223.383 238.124 220.062 239.618 216.089Z" fill="black"/>
<path d="M255.946 126.559C247.171 123.719 239.372 117.572 233.585 110.153C229.118 106.164 225.464 101.445 223.799 95.8421C223.599 96.0749 223.492 96.3854 223.611 96.789C227.799 110.122 238.532 123.719 252.158 129.508C242.639 129.462 234.332 126.87 226.225 122.834C222.865 119.559 220.024 116.16 217.932 111.705C215.306 106.071 214.225 99.6915 213.972 93.5294C213.519 82.1677 217.198 69.766 229.266 67.9345C226.571 74.2983 230.678 82.7109 235.625 86.7155C236.212 87.2122 236.852 87.6313 237.492 88.0193L237.425 88.2522C234.492 98.1859 238.546 107.871 244.745 115.772C247.226 118.954 251.345 123.439 255.946 126.559Z" fill="#CB5C14"/>
<path d="M173.977 357.18C177.287 344.875 187.344 333.84 197.862 327.289C205.949 323.001 214.917 321.171 224.499 322.177C232.167 322.987 239.682 324.859 247.266 325.543C245.688 325.753 244.124 325.99 242.545 326.311C234.192 328.016 225.602 329.063 217.361 331.256C209.972 333.198 203.072 336.76 196.786 341.062C193.951 343.017 191.046 345.224 188.685 347.766C187.707 348.828 186.897 350.155 186.059 351.342C185.654 351.929 185.263 352.781 184.872 353.563C180.654 355.337 176.659 357.502 173.39 359.765C173.544 358.94 173.725 358.13 173.949 357.32L173.977 357.18Z" fill="#CB5C14"/>
<path d="M236.627 155.602C237.708 159.034 237.268 162.587 233.054 161.447C230.441 160.743 228.32 160.128 225.547 160.218C222.322 160.338 219.133 161.522 216.24 163.186C217.667 161.417 219.481 159.949 221.587 158.629C223.801 157.235 226.241 156.366 228.747 155.736C230.374 155.302 234.827 154.672 236.627 155.602Z" fill="#A12F31"/>
<path d="M235.73 214.994C237.144 215.97 238.438 216.252 239.611 216.104C238.116 220.069 235.41 223.384 230.678 225.219C214.611 217.776 217.077 194.44 230.423 185.961L230.45 185.946C233.611 186.819 236.437 188.758 238.557 191.318C228.424 193.656 227.023 208.942 235.73 214.994Z" fill="#1B7695"/>
<path d="M216.246 163.17C219.138 161.518 222.326 160.331 225.552 160.211C228.326 160.121 230.446 160.722 233.059 161.443C237.272 162.584 237.712 159.024 236.632 155.6C234.833 154.669 230.379 155.3 228.753 155.72C226.246 156.366 223.805 157.237 221.593 158.619C219.485 159.941 217.672 161.413 216.246 163.17ZM239.232 155.134C240.7 158.694 240.913 165.468 235.673 165.273C232.753 165.153 230.006 163.546 227.072 163.696C221.699 163.981 217.073 166.339 213.06 169.824C211.699 171.011 209.712 169.869 210.086 168.082C211.432 161.578 216.526 156.802 222.446 154.158C226.579 152.311 234.593 149.652 238.713 152.671C239.593 153.317 239.632 154.368 239.232 155.134Z" fill="black"/>
<path d="M231.198 426.744C225.005 424.897 218.445 424.014 211.954 422.996C221.216 421.216 230.328 416.463 238.151 411.981C246.422 407.255 254.258 402.231 261.863 396.472C265.652 393.607 269.319 390.714 273.57 388.582C277.848 386.436 282.587 385.268 287.273 384.263L287.246 384.317C276.055 390.945 265.041 397.912 255.385 406.644C250.374 411.194 244.873 415.173 239.794 419.628C237.974 421.216 234.348 425.494 231.198 426.744Z" fill="#CB5C14"/>
<path d="M212.432 87.5979C211.14 99.1312 214.032 110.976 221.005 120.031C220.246 119.595 219.486 119.159 218.739 118.707C218.072 118.317 217.431 117.927 216.766 117.538C211.246 111.522 207.659 105.163 206.765 96.8713C205.632 92.3515 205.259 87.6914 206.366 83.0002C207.125 79.6805 208.339 76.8752 209.832 74.288C210.485 73.1035 211.258 71.9814 212.086 70.8904C213.979 68.3032 216.139 65.8095 218.485 63.1444C218.192 62.8327 217.753 62.6768 217.232 62.9574C200.619 72.2463 199.633 96.1855 208.406 112.176C204.22 108.545 200.353 104.602 197.046 100.16C194.912 94.8141 194.112 90.0916 195.472 83.7328C196.779 77.67 199.779 72.1372 203.953 67.5863C208.912 62.1625 215.726 59.1078 222.925 58.1571C227.86 57.5025 234.019 57.7051 239.098 59.4506C239.82 59.7 240.526 59.9961 241.193 60.3078C237.806 60.5728 234.379 61.9754 231.873 64.2509C231.112 64.9367 230.526 65.6848 230.032 66.4796C229.78 66.4484 229.538 66.4329 229.298 66.4174C218.552 65.9186 213.432 78.4181 212.432 87.5979Z" fill="#A12F31"/>
<path d="M269.085 62.5365C270.804 67.5478 269.617 72.7156 266.725 77.0379C261.671 84.5861 250.377 90.0204 241.618 85.5415C241.178 85.3066 240.738 85.0717 240.284 84.8055C239.338 84.3513 238.47 83.7562 237.644 83.0984C235.218 81.2975 233.191 78.9955 232.711 76.0671C230.95 70.9148 233.31 67.1094 236.991 65.3398C239.871 62.8498 243.698 61.268 247.378 61.221C246.445 60.8295 245.444 60.5946 244.431 60.438L244.445 60.4068C244.484 60.0936 244.097 59.749 243.844 60.0622C244.071 59.796 241.79 58.9033 239.578 58.1203C237.738 57.4626 235.937 56.8989 235.738 56.8519C232.031 56.1628 228.164 55.9435 224.404 56.1314C216.457 56.4759 209.217 59.937 203.471 65.3084C196.524 71.7761 192.058 82.331 192.658 92.15C189.964 82.1118 193.391 72.2459 198.938 63.852C209.831 53.3753 222.831 46.7667 238.11 45.5295C240.738 45.3103 243.377 45.3573 245.964 45.6861C252.671 46.5318 259.031 49.241 263.857 54.1113C265.658 55.9279 267.124 58.1046 268.111 60.438C268.485 61.0957 268.831 61.7848 269.085 62.5365Z" fill="#CB5C14"/>
<path d="M295.011 303.459C294.152 313.453 288.339 319.337 279.893 324.433C271.911 329.247 263.451 329.852 254.527 331.682C245.476 333.554 236.593 336.172 228.049 339.72C221.968 342.225 215.366 344.745 210.158 348.898C205.822 348.349 201.557 348.32 197.531 349.306C195.673 349.77 193.843 350.362 192.041 351.009C190.099 351.586 188.128 352.248 186.199 353.008C187.016 351.896 187.762 350.685 188.592 349.616C191.295 346.209 195.082 343.661 198.671 341.254C205.752 336.482 213.789 333.23 222.165 331.654C226.402 330.851 230.695 330.359 234.96 329.669C239.718 328.909 244.392 327.515 249.206 327.375C252.472 327.262 255.892 326.277 259.074 325.376L259.2 325.362C261.03 325.094 262.748 324.686 264.437 324.25C268.266 323.461 272.01 322.096 275.698 319.928C278.781 318.126 282.511 315.691 285.58 312.763C286.129 312.51 286.621 312.158 286.959 311.651L286.987 311.637C287.649 311.102 288.029 310.497 288.212 309.892C289.676 308.019 290.76 306.006 291.253 303.839C292.519 303.754 293.772 303.627 295.011 303.459Z" fill="#A12F31"/>
<path d="M175.895 397.25C188.109 399.154 202.444 395.523 213.895 391.538C229.142 386.206 243.082 381.324 259.485 381.052C261.321 381.025 263.211 381.147 265.156 381.31C262.599 382.208 260.042 383.242 257.485 384.343C245.462 389.552 235.384 398.365 223.117 402.922C210.917 407.437 196.282 409.572 183.471 406.743C176.33 405.166 169.149 401.534 163.75 396.271C162.022 394.027 160.377 391.592 159.003 389.117C163.478 393.252 168.85 396.162 175.895 397.25Z" fill="#CB5C14"/>
<path d="M198.287 420.201C188.153 417.29 179.38 411.931 171.613 404.898C170.728 404.109 169.817 403.198 168.865 402.218C170.81 403.538 172.946 404.748 175.258 405.904C186.508 411.536 199.58 410.516 211.536 408.244C217.875 407.033 224.037 405.224 229.914 402.463C235.98 399.606 241.34 395.417 247.094 392.03C254.154 387.881 262.288 384.004 270.654 381.841C276.639 382.426 282.746 382.807 287.956 380.699C287.779 381.243 287.657 381.76 287.657 382.249C285.916 382.29 279.318 384.167 278.557 384.412C274.489 385.691 270.586 387.541 267.117 390.03C259.771 395.294 252.889 401.13 245.108 405.768C234.307 412.202 220.949 420.745 207.551 422.268C204.395 421.711 201.294 421.072 198.287 420.201Z" fill="#A12F31"/>
<path d="M422.057 424.158C419.928 422.407 417.972 420.546 416.442 418.07C414.55 415.01 413.714 411.351 413.051 407.865C411.553 399.853 411.253 391.462 410.985 383.324C410.449 366.952 410.402 350.597 409.408 334.242C408.667 322.002 408.399 307.886 399.756 298.297C390.971 288.566 377.801 286.673 366.019 282.73C365.925 281.894 366.051 281.011 366.508 280.112C374.394 281.926 382.438 283.866 390.229 286.468C400.528 292.288 409.093 300.458 414.439 311.025C420.701 323.39 421.316 336.655 421.206 350.25C421.095 362.284 421.395 374.271 420.228 386.258C419.281 396.194 419.076 407.408 425.906 415.294C427.704 418.527 430.101 421.382 432.908 423.621C429.281 423.937 425.669 424.158 422.057 424.158ZM403.415 421.161C402.784 420.877 402.169 420.577 401.538 420.262C393.179 410.83 393.636 397.739 394.882 385.563C395.592 378.75 395.355 371.842 395.939 365.028C396.554 357.679 396.932 350.313 397.532 342.963C398.541 330.551 400.623 318.375 394.661 306.893C392.106 301.956 388.069 297.635 383.857 294.07C379.473 290.364 373.337 290.695 368.984 287.083C368.874 286.973 368.716 287.004 368.622 287.067C367.533 286.026 366.682 284.938 366.272 283.787C371.003 286.547 376.113 287.556 381.365 289.181C388.1 291.231 394.519 295.521 399.204 300.726C404.44 306.562 405.591 315.173 406.348 322.665C407.168 330.551 407.547 338.484 407.862 346.402C408.446 362.805 408.162 379.302 409.408 395.658C409.897 402.203 410.465 408.969 412.594 415.231C413.808 418.874 415.906 421.618 418.445 424.079C413.304 423.826 408.257 422.99 403.415 421.161ZM391.333 413.669C388.762 411.225 386.539 408.386 384.662 405.294C382.753 399.711 383.148 392.866 383.368 387.33C383.668 378.971 384.473 370.564 385.498 362.268C387.185 348.61 390.087 335.172 388.195 321.608C388.384 318.422 388.289 315.236 387.8 312.05C386.87 306.199 383.7 300.442 380.072 295.884C378.716 294.228 376.034 292.524 373.353 290.695C375.609 291.736 378.038 292.461 380.293 293.707C385.939 296.846 390.687 303.612 393.51 309.211C396.648 315.504 396.854 322.271 396.491 329.163C396.081 336.607 395.339 344.067 394.724 351.496C393.573 365.596 392.721 379.712 391.854 393.844C391.365 402.014 392.343 410.404 396.333 417.281C394.645 416.193 392.974 414.978 391.333 413.669ZM381.097 394.222C381.129 395.705 381.16 397.219 381.287 398.717C379.425 394.38 378.148 389.775 377.359 385.248C376.839 376.495 378.274 367.268 380.025 358.515C382.138 347.868 386.318 336.986 387.769 326.04C388.211 339.73 384.504 353.878 382.927 367.205C381.839 376.116 380.971 385.232 381.097 394.222ZM373.18 295.553C372.675 295.931 372.297 296.467 372.155 297.209C372.013 297.966 371.792 298.754 371.555 299.512C370.215 302.571 368.701 305.584 367.029 308.533C364.048 312.981 360.326 317.113 357.187 320.551C351.209 327.097 346.801 335.109 340.948 341.859C338.041 345.219 335.161 348.61 332.269 352.001C326.069 357.899 319.162 363.104 312.574 368.53C308.215 372.094 303.922 375.643 298.988 378.419C298.001 378.971 290.082 383.277 292.615 379.696C292.842 379.397 292.921 379.081 292.949 378.797C305.628 370.186 314.708 356.038 316.815 340.85C317.348 337.002 317.375 333.39 316.975 329.999C314.535 321.34 309.228 313.959 305.201 305.915C304.428 305.047 303.641 304.18 302.788 303.313L302.761 303.218C302.602 302.65 302.282 302.287 301.895 302.082C308.775 300.221 315.215 296.956 320.642 292.051C322.055 290.758 320.216 288.424 318.615 289.417C310.362 294.512 302.428 299.401 292.534 300.379C284.335 301.168 272.362 300.095 266.468 293.155C271.255 292.556 275.922 291.704 280.308 290.758C291.282 288.392 302.548 283.96 312.308 278.424C320.148 273.961 329.335 265.381 331.641 256.312C331.829 256.454 332.027 256.564 332.215 256.706C334.961 259.088 335.748 262.857 334.442 266.169C333.682 268.078 336.895 269.418 337.762 267.557C339.868 263.047 338.469 258.425 335.135 254.924C331.335 250.918 324.976 251.297 320.042 252.353C318.508 252.669 319.202 254.829 320.656 254.624C322.962 254.293 325.548 254.167 327.922 254.687C325.815 264.103 315.642 271.91 307.975 276.295C299.294 281.263 288.948 284.623 279.281 286.988C268.629 289.607 257.535 290.821 246.748 289.827C235.148 287.477 224.134 283.329 216.535 273.488C207.429 261.674 203.535 245.256 200.082 231.045C191.721 196.583 198.589 153.763 222.694 126.682L222.895 126.414H222.975C223.134 126.367 223.281 126.288 223.415 126.193C229.628 129.552 236.108 132.218 243.294 133.07C267.895 135.956 290.334 126.083 314.481 124.395C340.481 122.581 360.326 143.542 371.461 164.472C372.58 166.301 373.621 168.178 374.489 170.15C374.678 170.465 374.883 170.78 375.072 171.112C376.208 173.115 376.807 175.26 377.044 177.499C381.208 191.536 382.801 206.725 382.769 220.793C382.753 230.604 382.265 240.445 381.649 250.224C381.05 259.624 378.542 268.693 377.675 278.062C377.407 278.393 377.249 278.803 377.233 279.229C373.748 278.629 370.325 278.219 367.029 277.983L366.792 277.746C366.256 277.841 365.688 277.92 365.152 277.951C363.291 280.175 359.537 283.424 362.628 286.373C364.978 288.613 367.581 290.427 370.262 292.272C371.413 293.076 372.47 293.928 373.479 294.796C373.369 295.048 373.274 295.3 373.18 295.553ZM300.614 410.83C298.922 418.685 295.001 425.814 293.468 433.731C291.642 443.273 291.815 453.147 293.575 462.689C293.642 464.802 293.761 466.931 293.988 469.029C295.094 479.707 301.428 491.062 310.589 497.292C311.894 498.665 313.268 499.91 314.655 501.062C309.029 499.879 303.294 497.45 300.375 496.204L300.282 496.172C295.228 490.163 292.776 482.183 290.774 474.596C287.935 463.871 287.148 452.721 287.722 441.68C288.268 430.971 290.708 420.562 293.028 410.152C294.842 402.093 297.402 392.55 293.788 384.664C295.082 384.333 296.362 383.939 297.602 383.434L297.682 383.624C297.961 384.065 298.215 384.491 298.468 384.933C298.081 385.563 297.935 386.352 298.268 387.22C301.242 395.2 302.428 402.408 300.614 410.83ZM277.668 474.644C277.389 474.218 277.108 473.808 276.829 473.382C275.934 468.824 275.348 464.297 275.056 459.676C274.442 450.434 275.015 441.743 277.122 432.706C279.149 424.031 282.642 415.893 285.576 407.518C288.148 400.105 288.855 392.976 289.148 385.264C289.348 385.138 289.549 385.027 289.735 384.917C290.549 385.122 291.602 385.154 292.935 384.87C296.375 395.326 291.975 407.408 289.561 417.644C287.095 428.179 285.588 438.841 285.576 449.661C285.576 460.354 287.282 471.048 290.402 481.252C291.722 485.59 293.389 489.864 295.656 493.712C288.322 489.059 282.388 481.583 277.668 474.644ZM273.108 462.878C273.242 464.786 273.468 466.679 273.761 468.571C270.908 463.982 268.135 459.455 264.522 455.244C262.602 452.989 260.815 450.544 259.028 448.084C259.215 442.138 259.948 436.901 262.468 431.16C265.228 424.852 269.228 419.047 272.802 413.164C276.374 407.297 280.176 401.509 283.442 395.437C284.522 393.45 286.282 391.131 287.615 388.734C287.375 391.62 287.136 394.522 286.681 397.408C286.002 401.825 284.282 406.099 282.748 410.294C279.481 419.126 276.135 427.627 274.174 436.886C272.335 445.529 272.509 454.093 273.108 462.878ZM247.802 435.624C247.482 435.387 247.135 435.182 246.815 434.961C246.362 434.567 245.922 434.157 245.428 433.779C241.588 430.75 237.336 428.731 232.882 427.249C233.894 426.697 234.842 425.971 235.561 425.451C239.856 422.297 243.761 418.48 247.922 415.152C254.935 409.553 261.429 403.386 268.749 398.181C274.308 394.238 280.149 390.705 285.989 387.188C284.109 391.084 281.682 394.806 279.535 398.481C276.015 404.537 272.255 410.436 268.641 416.445C262.921 425.956 257.308 435.387 257.789 446.412C254.828 442.39 251.735 438.479 247.802 435.624ZM211.961 422.99C221.228 421.208 230.334 416.445 238.162 411.982C246.428 407.25 254.268 402.219 261.869 396.462C265.656 393.592 269.321 390.705 273.575 388.576C277.855 386.415 282.589 385.264 287.282 384.254L287.254 384.302C276.068 390.926 265.042 397.897 255.388 406.635C250.374 411.193 244.882 415.152 239.802 419.615C237.974 421.208 234.361 425.482 231.202 426.728C225.014 424.883 218.455 424 211.961 422.99ZM198.281 420.199C188.149 417.281 179.375 411.934 171.615 404.9C170.735 404.111 169.816 403.197 168.868 402.219C170.816 403.528 172.948 404.742 175.254 405.909C186.509 411.54 199.574 410.515 211.534 408.244C217.882 407.029 224.041 405.215 229.908 402.471C235.974 399.601 241.335 395.421 247.095 392.03C254.149 387.882 262.282 384.018 270.655 381.841C276.641 382.425 282.748 382.803 287.962 380.706C287.774 381.242 287.655 381.762 287.655 382.251C285.921 382.283 279.322 384.16 278.562 384.412C274.494 385.69 270.588 387.551 267.121 390.027C259.774 395.295 252.895 401.131 245.108 405.768C234.309 412.202 220.948 420.735 207.549 422.265C204.388 421.713 201.295 421.066 198.281 420.199ZM163.748 396.257C162.027 394.017 160.389 391.588 159.001 389.112C163.482 393.244 168.855 396.147 175.894 397.251C188.108 399.143 202.454 395.516 213.895 391.525C229.148 386.194 243.081 381.305 259.495 381.037C261.322 381.021 263.216 381.132 265.162 381.305C262.602 382.204 260.041 383.229 257.495 384.333C245.468 389.538 235.388 398.355 223.122 402.913C210.921 407.423 196.281 409.568 183.482 406.73C176.334 405.152 169.148 401.525 163.748 396.257ZM301.348 327.996C300.509 331.749 298.428 335.298 295.949 338.516C290.855 343.799 284.588 348.2 279.668 350.96C270.521 356.07 261.241 357.253 251.735 356.685C257.828 353.452 263.881 350.392 270.416 347.9C276.709 345.518 282.975 343.011 288.749 339.572C297.335 334.431 301.868 327.239 303.028 318.469C303.081 321.687 302.509 324.952 301.348 327.996ZM233.255 353.988C232.654 353.878 232.041 353.736 231.427 353.594C235.468 350.502 240.455 348.484 245.174 346.701C254.574 343.153 264.549 341.67 274.095 338.579C282.268 335.913 288.882 330.992 294.575 324.636C298.268 320.504 300.348 315.725 301.188 310.536C301.389 317.192 301.442 323.343 297.629 329.257C294.335 334.368 288.774 337.822 283.508 340.582C277.255 343.862 270.521 346.26 263.935 348.799C259.068 350.676 254.909 353.83 250.548 356.606C244.882 356.165 239.121 355.155 233.255 353.988ZM211.842 349.13C218.734 344.619 226.841 341.497 234.482 338.752C244.028 335.298 253.882 333.327 263.894 331.813C279.254 329.494 296.282 320.236 297.094 303.123C297.536 303.044 297.976 302.997 298.402 302.903L298.416 302.934C298.614 303.155 298.815 303.391 299.015 303.612C299.015 303.802 298.988 304.022 299.042 304.227C299.267 305.047 299.455 305.663 299.641 306.215C299.495 309.196 298.988 312.618 298.509 315.173C297.775 319.1 293.949 322.807 291.348 325.598C285.095 332.27 277.455 336.024 268.761 338.516C260.749 340.818 252.655 342.474 244.815 345.392C241.908 346.465 239.094 347.758 236.348 349.162C234.722 349.998 232.482 351.969 230.348 353.357C224.494 352.001 218.135 350.092 211.842 349.13ZM197.522 349.304C195.667 349.777 193.841 350.376 192.041 351.023C190.095 351.591 188.121 352.253 186.189 353.01C187.015 351.906 187.761 350.692 188.588 349.635C191.294 346.212 195.082 343.673 198.669 341.26C205.749 336.481 213.788 333.248 222.161 331.671C226.401 330.866 230.694 330.362 234.962 329.683C239.708 328.926 244.389 327.523 249.201 327.381C252.469 327.27 255.882 326.277 259.068 325.378L259.202 325.362C261.028 325.109 262.749 324.699 264.429 324.258C268.255 323.469 272.001 322.097 275.695 319.936C278.775 318.122 282.508 315.694 285.576 312.76C286.121 312.508 286.615 312.161 286.962 311.656L286.989 311.64C287.642 311.104 288.028 310.505 288.202 309.889C289.669 308.028 290.762 306.01 291.255 303.849C292.507 303.754 293.761 303.628 295.001 303.47C294.148 313.454 288.334 319.353 279.895 324.431C271.908 329.258 263.441 329.857 254.522 331.686C245.468 333.563 236.588 336.181 228.041 339.73C221.961 342.238 215.362 344.746 210.148 348.909C205.815 348.357 201.549 348.326 197.522 349.304ZM184.868 353.562C180.656 355.329 176.654 357.489 173.388 359.761C173.549 358.94 173.735 358.12 173.948 357.316L173.975 357.174C177.295 344.872 187.348 333.831 197.868 327.286C205.948 322.996 214.922 321.167 224.508 322.176C232.175 322.996 239.682 324.857 247.269 325.535C245.695 325.756 244.121 325.977 242.548 326.308C234.202 328.011 225.601 329.068 217.362 331.245C209.974 333.201 203.068 336.749 196.787 341.055C193.948 343.011 191.056 345.219 188.695 347.758C187.709 348.83 186.895 350.155 186.069 351.338C185.655 351.922 185.267 352.774 184.868 353.562ZM217.228 62.9788C200.615 72.2527 199.628 96.1946 208.402 112.187C204.214 108.56 200.349 104.617 197.041 100.169C194.909 94.8224 194.108 90.0909 195.469 83.7506C196.775 77.6783 199.775 72.1424 203.948 67.5843C208.908 62.1745 215.722 59.1147 222.921 58.1526C227.855 57.506 234.016 57.711 239.094 59.4617C239.815 59.7141 240.521 59.9978 241.189 60.3133C237.801 60.5814 234.375 61.9851 231.867 64.2563C231.109 64.9503 230.522 65.6916 230.028 66.4802C229.774 66.4644 229.535 66.433 229.295 66.433C218.548 65.9282 213.428 78.4195 212.428 87.5988C211.135 99.144 214.028 110.973 221.002 120.042C220.242 119.6 219.482 119.174 218.734 118.717C218.068 118.323 217.428 117.928 216.761 117.55C211.242 111.541 207.656 105.169 206.761 96.8886C205.627 92.3463 205.255 87.6935 206.361 83.0092C207.121 79.6814 208.336 76.8739 209.828 74.3031C210.482 73.1044 211.255 71.9846 212.081 70.8964C213.976 68.3098 216.135 65.8177 218.482 63.1523C218.188 62.8368 217.748 62.6791 217.228 62.9788ZM198.935 63.8463C209.828 53.3894 222.828 46.781 238.108 45.535C240.734 45.3142 243.375 45.3773 245.961 45.6927C252.667 46.5444 259.028 49.2571 263.855 54.1149C265.656 55.9287 267.121 58.1053 268.108 60.4553C268.482 61.1019 268.827 61.7959 269.081 62.5529C270.802 67.5527 269.614 72.726 266.722 77.0475C261.669 84.5865 250.374 90.0277 241.615 85.5485C241.174 85.3119 240.734 85.0754 240.282 84.8073C239.335 84.3499 238.468 83.7662 237.641 83.1038C235.216 81.3058 233.189 79.0032 232.708 76.0696C230.948 70.9121 233.309 67.1111 236.989 65.3446C239.869 62.8526 243.695 61.2755 247.374 61.2282C246.442 60.8339 245.442 60.5972 244.428 60.4553L244.442 60.408C244.482 60.0926 244.095 59.7613 243.842 60.061C244.069 59.8086 241.788 58.9097 239.575 58.1211C237.735 57.4744 235.935 56.8908 235.735 56.8593C232.028 56.1653 228.161 55.9444 224.401 56.1337C216.455 56.4807 209.216 59.9348 203.468 65.313C196.522 71.7795 192.056 82.3311 192.655 92.157C189.961 82.1103 193.388 72.2527 198.935 63.8463ZM233.894 39.3524C234.575 39.242 235.268 39.1473 235.962 39.0526C240.228 37.8067 244.629 37.5859 248.895 38.4061C252.188 38.9265 255.361 39.9675 258.268 41.5605C269.174 45.9293 275.467 54.872 278.655 66.7168L278.589 66.8587C279.308 68.4201 278.868 70.1393 277.628 71.4484L277.415 71.5746L277.295 71.685C276.934 72.0793 276.575 72.4735 276.255 72.9152C275.308 73.2779 274.389 73.6407 273.455 74.0192C273.722 73.3253 273.934 72.6313 274.149 71.9216L274.121 71.685C274.242 71.1803 274.308 70.644 274.348 70.1235C274.228 68.2466 273.868 66.4014 273.548 64.5403C272.135 60.8181 270.294 57.2694 268.362 53.7838C265.216 49.6515 260.869 46.3394 256.361 44.7937C253.068 43.6739 249.694 42.9326 246.269 42.5541C233.429 41.0873 220.081 44.6518 209.028 51.6073C216.081 45.4877 224.667 41.3397 233.894 39.3524ZM277.508 110.421C266.788 106.588 255.882 101.21 251.176 90.296C254.961 89.7755 258.669 88.5452 261.869 86.968C263.561 86.1478 265.108 85.0912 266.509 83.9083C268.856 89.4285 275.056 93.3241 279.709 96.7782C287.148 102.267 297.468 103.56 306.068 106.352C325.055 112.519 347.575 115.689 355.373 136.177C351.635 132.959 347.468 130.089 342.735 127.518C334.029 122.771 325.656 120.957 317.189 120.783C303.736 118.039 290.454 115.058 277.508 110.421ZM246.015 114.49C242.961 110.973 240.708 106.778 239.094 102.393C237.375 97.6773 237.974 93.2611 238.375 88.5137C242.069 90.4379 246.335 90.8795 250.548 90.3748C254.002 100.485 262.894 106.32 272.495 110.358C283.495 114.979 295.108 118.591 306.841 121.114C306.068 121.304 305.281 121.446 304.508 121.619C301.375 122.045 298.215 122.597 294.974 123.244C293.455 123.464 291.962 123.685 290.454 123.922C290.309 123.843 290.136 123.796 289.935 123.843C289.082 124.032 288.229 124.221 287.375 124.411L287.068 124.458C283.948 125.01 280.816 125.688 277.668 126.367L277.575 126.382C275.548 126.745 273.494 127.029 271.495 127.518C271.282 127.565 271.055 127.644 270.827 127.707L270.722 127.597C269.908 127.818 269.081 127.944 268.189 127.912C267.682 127.944 267.189 127.896 266.682 127.754C258.454 127.881 251.108 120.389 246.015 114.49ZM223.616 96.7782C227.801 110.121 238.534 123.717 252.161 129.505C242.641 129.458 234.334 126.871 226.227 122.834C222.868 119.553 220.027 116.146 217.934 111.699C215.308 106.068 214.228 99.696 213.976 93.5292C213.521 82.1576 217.201 69.7608 229.268 67.9313C226.574 74.2874 230.681 82.7096 235.627 86.7157C236.216 87.2046 236.855 87.6305 237.495 88.009L237.429 88.2456C234.495 98.1819 238.548 107.866 244.748 115.768C247.228 118.954 251.349 123.433 255.948 126.556C247.176 123.717 239.375 117.566 233.588 110.137C229.121 106.163 225.469 101.431 223.802 95.8477C223.601 96.0685 223.494 96.3839 223.616 96.7782ZM287.481 73.7669C294.615 73.1991 301.868 74.7763 308.721 76.5427C321.348 79.776 333.027 85.722 343.415 93.5133C348.495 98.5131 353.039 104.096 356.824 109.964C352.929 106.746 348.216 104.38 343.708 102.283C337.015 99.1598 330.108 96.3524 323.135 93.8762C314.175 90.7061 304.948 88.9395 296.282 84.8703C295.935 84.7126 295.615 85.2173 295.974 85.3907C302.575 88.7187 309.549 91.0214 316.588 93.1979C324.375 95.5952 331.775 98.8759 339.188 102.204C345.508 105.059 351.714 108.229 356.887 112.897C358.859 114.679 360.436 116.73 361.856 118.922C366.335 128.717 368.306 139.552 370.719 150.056C370.909 151.759 371.082 153.478 371.208 155.182C368.259 150.34 364.994 145.955 361.288 141.965C361.256 140.956 360.972 139.993 360.609 139.047V139.016C356.872 122.565 344.241 114.9 329.882 108.907C320.776 105.106 310.562 103.813 301.121 100.863C295.336 99.0494 289.601 98.0084 284.055 95.406C279.748 93.3872 271.548 87.7408 268.722 82.5361C268.629 82.3626 268.548 82.2048 268.468 82.0313C269.641 80.7696 270.668 79.3817 271.548 77.9149C272.201 77.7099 272.856 77.5049 273.509 77.2841C278.083 75.7699 282.589 74.177 287.481 73.7669ZM404.566 292.351C409.755 295.868 414.723 300.142 419.139 304.101C433.397 316.876 433.681 337.159 428.492 354.067C426.694 359.918 425.338 366.117 424.455 372.41C424.06 374.066 423.666 375.722 423.319 377.394C423.871 365.044 423.634 352.474 423.177 340.124C422.735 328.39 420.228 317.681 414.55 307.35C409.503 298.155 401.68 292.225 392.737 287.336C396.806 288.787 400.749 290.427 404.566 292.351ZM452.686 425.703C450.541 420.167 444.753 418.795 440.353 415.136C432.025 408.228 431.284 397.55 431.41 387.519C431.647 369.508 439.627 353.042 439.943 335.267C440.195 320.473 433.46 306.325 422.467 296.625C417.105 291.878 410.954 287.698 405.039 283.74C399.456 279.986 393.336 278.913 387.059 277.588L387.075 277.557C392.232 256.738 391.917 234.689 391.554 213.412C391.428 206.977 390.624 200.637 389.457 194.344C388.968 188.697 388.321 183.083 387.28 177.499C385.671 168.84 381.902 160.718 379.615 152.233C375.214 135.814 372.659 119.963 363.527 105.311C347.322 79.2871 317.495 60.8023 286.549 65.5339C286.068 63.6413 285.549 61.796 284.948 60.0453C284.508 55.6922 282.281 51.7176 279.015 48.2793C273.602 40.6929 265.788 35.3935 254.855 32.3969C235.602 27.0974 217.242 35.157 202.402 47.0648C189.294 57.5532 179.668 73.0413 183.974 90.1224C187.815 105.311 202.202 117.187 214.815 125.767C209.681 131.713 206.148 139.236 202.669 146.113C198.082 155.15 194.562 164.535 192.575 174.471C188.509 194.927 189.001 215.794 193.841 236.013C197.708 252.211 203.028 269.119 213.908 282.005C225.589 295.837 246.228 298.029 262.989 300.174C265.989 302.871 268.001 305.994 272.255 307.366C274.215 308.013 276.415 307.886 278.494 308.076C266.761 316.388 255.562 319.037 240.602 316.75C228.961 314.968 218.056 312.665 206.375 315.473C195.562 318.091 185.841 325.677 178.189 333.421C169.401 342.317 169.202 351.969 165.628 363.199L165.587 363.388C165.508 365.202 165.349 367.016 165.149 368.814C165.855 369.476 166.828 369.839 167.909 369.602C173.308 368.467 178.534 365.328 183.575 363.136C193.575 358.798 201.134 355.502 212.242 357.537C227.469 360.312 242.455 365.312 258.082 365.328C271.149 365.344 284.215 358.814 294.255 350.928C298.668 347.474 303.416 342.648 307.082 337.238C306.642 340.771 305.882 344.336 304.829 348.058C303.815 351.638 301.121 355.266 299.108 358.373C296.842 361.921 292.001 368.751 288.375 371.448C287.801 371.589 287.215 371.873 286.669 372.315C284.361 374.223 280.721 374.223 277.335 374.003C271.908 372.883 266.429 372.268 260.601 372.662C259.175 372.757 257.735 372.899 256.295 373.104C255.202 373.104 254.095 373.088 252.989 373.135C241.722 373.719 230.868 376.668 220.335 380.532C208.842 384.728 198.175 388.04 185.935 389.333C171.202 390.926 162.868 383.466 154.201 373.072L154.081 372.93C153.869 372.694 153.668 372.457 153.468 372.205C152.974 371.621 152.402 371.353 151.788 371.306C151.668 375.927 151.482 380.564 151.602 385.169C152.082 387.046 152.681 388.891 153.335 390.705C156.189 396.872 159.734 402.66 163.081 408.606C168.574 414.805 174.615 420.593 181.681 424.946C191.335 430.892 204.229 429.836 214.908 432.469C227.428 435.577 241.682 438.053 249.401 449.361C255.762 458.682 263.321 466.6 269.069 476.426C273.922 484.706 281.015 493.649 288.989 499.106C299.015 505.951 320.669 515.036 332.028 506.204C332.176 506.172 332.308 506.125 332.442 506.093C332.895 505.778 333.322 505.494 333.761 505.194C335.308 503.838 336.682 502.339 337.868 500.683L337.787 500.352C336.134 500.242 334.469 499.926 332.829 499.469C331.255 499.485 329.748 499.185 328.375 498.507L328.348 498.554C320.962 498.507 313.642 488.634 309.989 483.539C302.668 473.335 300.135 460.733 299.827 448.399C299.521 435.577 304.455 424.883 307.735 412.802C310.149 403.843 308.642 395.153 304.882 386.999C312.148 384.586 319.295 377.157 324.455 372.126C332.335 364.492 339.002 355.392 346.189 347.096C353.339 338.847 358.859 329.257 366.319 321.371C370.152 317.334 374.063 311.546 376.382 305.678C381.255 313.012 379.489 321.734 377.691 330.298C375.688 339.841 372.927 349.225 370.893 358.783C367.928 372.615 368.196 386.037 373.18 399.38C377.501 410.972 385.608 420.767 396.396 426.839C410.607 434.819 428.051 432.138 443.696 430.671C446.567 429.914 449.469 429.299 452.371 428.731C452.923 427.864 453.128 426.823 452.686 425.703Z" fill="black"/>
<path d="M58.6459 11.3516C32.7404 11.3516 11.6646 32.4321 11.6646 58.3408V497.721C11.6646 523.63 32.7404 544.694 58.6459 544.694H498.031C523.939 544.694 545.004 523.63 545.004 497.721V58.3408C545.004 32.4321 523.939 11.3516 498.031 11.3516H58.6459ZM498.031 555.37H58.6459C26.8592 555.37 0.998291 529.509 0.998291 497.721V58.3408C0.998291 26.5525 26.8592 0.69165 58.6459 0.69165H498.031C529.819 0.69165 555.664 26.5525 555.664 58.3408V497.721C555.664 529.509 529.819 555.37 498.031 555.37Z" fill="#1B7695"/>
</svg>
