<svg width="555" height="555" viewBox="0 0 555 555" fill="none" xmlns="http://www.w3.org/2000/svg">
<path d="M497.026 549.335H57.6489C28.7557 549.335 5.33334 525.91 5.33334 497.026V57.6401C5.33334 28.7562 28.7557 5.33081 57.6489 5.33081H497.026C525.92 5.33081 549.341 28.7562 549.341 57.6401V497.026C549.341 525.91 525.92 549.335 497.026 549.335Z" fill="white"/>
<path d="M165.483 179.524C172.83 179.524 178.817 185.521 178.817 192.855C178.817 200.226 172.83 206.186 165.483 206.186C158.123 206.186 152.15 200.226 152.15 192.855C152.15 185.521 158.123 179.524 165.483 179.524Z" fill="white"/>
<path d="M357.428 97.3494C364.774 97.3494 370.763 103.319 370.763 110.68C370.763 118.023 364.774 124.011 357.428 124.011C350.082 124.011 344.095 118.023 344.095 110.68C344.095 103.319 350.082 97.3494 357.428 97.3494Z" fill="white"/>
<path d="M331.615 364.3C360.656 364.3 384.281 387.94 384.281 416.984C384.281 446.027 360.656 469.65 331.615 469.65C302.562 469.65 278.935 446.027 278.935 416.984C278.935 387.94 302.562 364.3 331.615 364.3Z" fill="#70CEEF"/>
<path d="M376.095 110.682C376.095 100.391 367.72 92.0159 357.427 92.0159C347.134 92.0159 338.762 100.391 338.762 110.682C338.762 120.992 347.134 129.347 357.427 129.347C367.72 129.347 376.095 120.992 376.095 110.682ZM376.281 82.2232C412.667 82.2232 442.281 111.831 442.281 148.243C442.281 184.635 412.667 214.243 376.281 214.243C339.881 214.243 310.267 184.635 310.267 148.243C310.267 111.831 339.881 82.2232 376.281 82.2232Z" fill="#3FB9E1"/>
<path d="M406.949 256.568C421.283 256.568 432.951 268.239 432.951 282.587C432.951 296.918 421.283 308.589 406.949 308.589C392.604 308.589 380.937 296.918 380.937 282.587C380.937 268.239 392.604 256.568 406.949 256.568Z" fill="#A9E2F5"/>
<path d="M184.149 192.868C184.149 182.581 175.776 174.205 165.483 174.205C155.189 174.205 146.816 182.581 146.816 192.868C146.816 203.155 155.189 211.531 165.483 211.531C175.776 211.531 184.149 203.155 184.149 192.868ZM185.016 151.683C232.816 151.683 271.695 190.563 271.695 238.363C271.695 286.145 232.816 325.025 185.016 325.025C137.229 325.025 98.3489 286.145 98.3489 238.363C98.3489 190.563 137.229 151.683 185.016 151.683Z" fill="#A9E2F5"/>
<path d="M432.951 282.575C432.951 268.23 421.284 256.569 406.95 256.569C392.603 256.569 380.937 268.23 380.937 282.575C380.937 296.902 392.603 308.581 406.95 308.581C421.284 308.581 432.951 296.902 432.951 282.575ZM406.95 249.896C424.964 249.896 439.617 264.567 439.617 282.575C439.617 300.584 424.964 315.237 406.95 315.237C388.938 315.237 374.271 300.584 374.271 282.575C374.271 264.567 388.938 249.896 406.95 249.896Z" fill="black"/>
<path d="M197.752 381.774C212.086 381.774 223.751 393.434 223.751 407.78C223.751 422.126 212.086 433.787 197.752 433.787C183.406 433.787 171.74 422.126 171.74 407.78C171.74 393.434 183.406 381.774 197.752 381.774Z" fill="#A9E2F5"/>
<path d="M223.752 407.786C223.752 393.441 212.085 381.771 197.752 381.771C183.407 381.771 171.74 393.441 171.74 407.786C171.74 422.114 183.407 433.785 197.752 433.785C212.085 433.785 223.752 422.114 223.752 407.786ZM197.752 375.102C215.767 375.102 230.419 389.777 230.419 407.786C230.419 425.796 215.767 440.454 197.752 440.454C179.74 440.454 165.073 425.796 165.073 407.786C165.073 389.777 179.74 375.102 197.752 375.102Z" fill="black"/>
<path d="M442.281 148.222C442.281 111.829 412.669 82.2148 376.282 82.2148C339.881 82.2148 310.269 111.829 310.269 148.222C310.269 184.634 339.881 214.228 376.282 214.228C412.669 214.228 442.281 184.634 442.281 148.222ZM376.282 75.5507C416.349 75.5507 448.949 108.141 448.949 148.222C448.949 188.302 416.349 220.893 376.282 220.893C336.203 220.893 303.601 188.302 303.601 148.222C303.601 108.141 336.203 75.5507 376.282 75.5507Z" fill="black"/>
<path d="M370.761 110.689C370.761 103.334 364.774 97.3548 357.427 97.3548C350.08 97.3548 344.095 103.334 344.095 110.689C344.095 118.044 350.08 124.023 357.427 124.023C364.774 124.023 370.761 118.044 370.761 110.689ZM357.427 92.0247C367.72 92.0247 376.093 100.392 376.093 110.689C376.093 120.986 367.72 129.354 357.427 129.354C347.134 129.354 338.761 120.986 338.761 110.689C338.761 100.392 347.134 92.0247 357.427 92.0247Z" fill="black"/>
<path d="M384.282 416.97C384.282 387.928 360.657 364.303 331.616 364.303C302.562 364.303 278.936 387.928 278.936 416.97C278.936 446.013 302.562 469.638 331.616 469.638C360.657 469.638 384.282 446.013 384.282 416.97ZM331.616 357.628C364.335 357.628 390.948 384.259 390.948 416.97C390.948 449.7 364.335 476.313 331.616 476.313C298.896 476.313 272.268 449.7 272.268 416.97C272.268 384.259 298.896 357.628 331.616 357.628Z" fill="black"/>
<path d="M271.695 238.359C271.695 190.549 232.816 151.677 185.016 151.677C137.229 151.677 98.3491 190.549 98.3491 238.359C98.3491 286.151 137.229 325.023 185.016 325.023C232.816 325.023 271.695 286.151 271.695 238.359ZM185.016 145.011C236.497 145.011 278.364 186.887 278.364 238.359C278.364 289.832 236.497 331.689 185.016 331.689C133.55 331.689 91.6823 289.832 91.6823 238.359C91.6823 186.887 133.55 145.011 185.016 145.011Z" fill="black"/>
<path d="M178.816 192.872C178.816 185.526 172.829 179.537 165.483 179.537C158.123 179.537 152.15 185.526 152.15 192.872C152.15 200.219 158.123 206.19 165.483 206.19C172.829 206.19 178.816 200.219 178.816 192.872ZM165.483 174.198C175.776 174.198 184.15 182.587 184.15 192.872C184.15 203.158 175.776 211.528 165.483 211.528C155.19 211.528 146.816 203.158 146.816 192.872C146.816 182.587 155.19 174.198 165.483 174.198Z" fill="black"/>
<path d="M57.6489 10.6664C31.7426 10.6664 10.6667 31.7506 10.6667 57.6537V497.023C10.6667 522.946 31.7426 544.011 57.6489 544.011H497.025C522.93 544.011 544.007 522.946 544.007 497.023V57.6537C544.007 31.7506 522.93 10.6664 497.025 10.6664H57.6489ZM497.025 554.671H57.6489C25.8614 554.671 0 528.827 0 497.023V57.6537C0 25.8698 25.8614 0.00610352 57.6489 0.00610352H497.025C528.813 0.00610352 554.673 25.8698 554.673 57.6537V497.023C554.673 528.827 528.813 554.671 497.025 554.671Z" fill="#1B7695"/>
</svg>
